<svg xmlns="http://www.w3.org/2000/svg" width="52.915" height="36.255" viewBox="0 0 52.915 36.255">
  <g id="Group_26864" data-name="Group 26864" transform="translate(0 0)">
    <path id="Path_47258" data-name="Path 47258" d="M112.062,598.48a1.8,1.8,0,0,1-1.429-.708l-3.856-5.066a1.8,1.8,0,1,1,2.857-2.175l2.37,3.114,5.1-7.255a1.8,1.8,0,0,1,2.938,2.064l-6.508,9.264a1.8,1.8,0,0,1-1.436.763h-.034" transform="translate(-74.601 -568.878)" fill="#7f7f7f"/>
    <path id="Path_47259" data-name="Path 47259" d="M115.746,592.131a13.894,13.894,0,0,0-22.563-15.753l-8.121-4.965-4.209-2.534-6.016-3.621-2.494-1.5a2,2,0,0,0-2.749.683l-1.5,2.494L64.682,572.6a2.457,2.457,0,0,0,4.21,2.534l3.1-5.152a.6.6,0,0,1,.823-.2l4.988,3a.6.6,0,0,1,.2.823L76.267,576.5a2.457,2.457,0,1,0,4.21,2.534l1.741-2.892a.6.6,0,0,1,.825-.2l7.484,4.579a13.894,13.894,0,0,0,25.22,11.617M98.62,593.71a9.193,9.193,0,1,1,12.617-3.135A9.2,9.2,0,0,1,98.62,593.71" transform="translate(-64.33 -563.47)" fill="#7f7f7f"/>
  </g>
</svg>
