<svg id="Group_26858" data-name="Group 26858" xmlns="http://www.w3.org/2000/svg" width="71.097" height="25.601" viewBox="0 0 71.097 25.601">
  <path id="Path_47248" data-name="Path 47248" d="M70.492,380.771a12.8,12.8,0,1,1-12.848,12.706,12.808,12.808,0,0,1,12.848-12.706m6.474,14.523c-.846,0-1.639-.03-2.428.024-.169.011-.4.3-.463.5a3.073,3.073,0,0,1-1.912,1.968c-2.312.966-4.37.054-5.57-2.435H63.96c-.01,3.052,2.758,5.482,6.321,5.613a6.218,6.218,0,0,0,6.686-5.672m.279-5.183a1.7,1.7,0,0,0-1.724-1.664,1.762,1.762,0,0,0-1.664,1.75,1.7,1.7,0,0,0,1.747,1.638,1.65,1.65,0,0,0,1.641-1.724m-10.213.053a1.761,1.761,0,0,0-1.7-1.717,1.7,1.7,0,0,0-1.691,1.7,1.648,1.648,0,0,0,1.672,1.692,1.7,1.7,0,0,0,1.716-1.672" transform="translate(-57.644 -380.771)" fill="#7f7f7f"/>
  <path id="Path_47249" data-name="Path 47249" d="M123.844,380.771A12.8,12.8,0,1,1,111,393.477a12.808,12.808,0,0,1,12.848-12.706m6.474,14.523c-.846,0-1.64-.03-2.428.024-.17.011-.4.3-.463.5a3.073,3.073,0,0,1-1.912,1.968c-2.312.966-4.37.054-5.57-2.435h-2.634c-.01,3.052,2.759,5.482,6.321,5.613a6.218,6.218,0,0,0,6.686-5.672m.279-5.183a1.7,1.7,0,0,0-1.724-1.664,1.762,1.762,0,0,0-1.664,1.75,1.7,1.7,0,0,0,1.746,1.638,1.651,1.651,0,0,0,1.642-1.724m-10.213.053a1.761,1.761,0,0,0-1.7-1.717,1.7,1.7,0,0,0-1.691,1.7,1.647,1.647,0,0,0,1.672,1.692,1.7,1.7,0,0,0,1.716-1.672" transform="translate(-65.499 -380.771)" fill="#7f7f7f"/>
  <path id="Path_47250" data-name="Path 47250" d="M99.271,398.206l5.736,3.28.038.188-5.906,3.381c-.022-.374-.047-.63-.05-.886-.012-.916.095-.828-.805-.829-2.141,0-4.283-.019-6.424.012-.523.007-.649-.164-.626-.65.037-.779.031-1.561,0-2.34-.015-.419.138-.519.534-.517,2.25.016,4.5,0,6.751.018.46,0,.617-.139.573-.587-.032-.33-.006-.665-.006-1l.184-.072" transform="translate(-62.589 -383.338)" fill="#7f7f7f"/>
  <path id="Path_47251" data-name="Path 47251" d="M97.094,394.764l-5.945-3.4,6.1-3.491c0,.478.027.81-.007,1.135-.05.471.1.625.6.619,2.215-.026,4.429,0,6.644-.021.466-.005.648.1.62.6a20.081,20.081,0,0,0,0,2.232c.027.511-.114.685-.653.677-2.123-.031-4.248-.015-6.372-.011-.94,0-.819-.1-.829.858,0,.2,0,.4-.017.6,0,.044-.055.087-.134.2" transform="translate(-62.577 -381.817)" fill="#7f7f7f"/>
</svg>
