<svg xmlns="http://www.w3.org/2000/svg" width="49.124" height="54.629" viewBox="0 0 49.124 54.629">
  <g id="Group_26865" data-name="Group 26865" transform="translate(0 0)">
    <path id="Path_47260" data-name="Path 47260" d="M99.209,650.84a.751.751,0,0,0,.74-.831c.017-.565,0-1.132,0-1.7,0-.549.011-1.1,0-1.648s-.312-.87-.761-.865a.754.754,0,0,0-.739.834q-.021,1.7,0,3.4a.738.738,0,0,0,.757.811" transform="translate(-74.585 -645.799)" fill="#7f7f7f"/>
    <path id="Path_47261" data-name="Path 47261" d="M72.661,678.578q-1.747-.029-3.5,0a.722.722,0,0,0-.771.742c0,.457.287.734.809.746.565.012,1.131,0,1.7,0,.583,0,1.166.011,1.748,0a.711.711,0,0,0,.773-.732.72.72,0,0,0-.761-.754" transform="translate(-68.395 -652.549)" fill="#7f7f7f"/>
    <path id="Path_47262" data-name="Path 47262" d="M128.223,678.58q-1.772-.032-3.544,0a.743.743,0,1,0,.045,1.485c.565.013,1.131,0,1.7,0,.583,0,1.166.01,1.748,0a.743.743,0,1,0,.054-1.485" transform="translate(-79.837 -652.549)" fill="#7f7f7f"/>
    <path id="Path_47263" data-name="Path 47263" d="M79.461,658.708a2.225,2.225,0,0,0-.267-.561c-.849-.87-1.7-1.734-2.579-2.579a.666.666,0,0,0-.989.017.659.659,0,0,0-.079.985c.859.906,1.74,1.793,2.654,2.642a.9.9,0,0,0,.777.056c.2-.077.325-.364.483-.56" transform="translate(-69.83 -647.768)" fill="#7f7f7f"/>
    <path id="Path_47264" data-name="Path 47264" d="M122.057,655.463a.679.679,0,0,0-.895.2c-.79.788-1.583,1.574-2.366,2.368a.755.755,0,1,0,1.044,1.074c.8-.782,1.587-1.57,2.365-2.37a3.713,3.713,0,0,0,.4-.651,3.153,3.153,0,0,0-.545-.618" transform="translate(-78.717 -647.769)" fill="#7f7f7f"/>
    <path id="Path_47265" data-name="Path 47265" d="M92.081,707.328a1.585,1.585,0,0,0,1.585,1.585H94.1a3.909,3.909,0,0,0,7.76,0h.435a1.585,1.585,0,0,0,1.585-1.585v-3.667h-11.8Z" transform="translate(-73.274 -657.719)" fill="#7f7f7f"/>
    <path id="Path_47266" data-name="Path 47266" d="M92.371,657.679a15.424,15.424,0,0,0-6.579,27.174,9.828,9.828,0,0,1,3.573,5.9c.117.6.155,1.209.23,1.826h11.882a10.323,10.323,0,0,1,.79-3.783,12.293,12.293,0,0,1,3.39-4.315,14.9,14.9,0,0,0,4.984-14.7,15.369,15.369,0,0,0-18.27-12.1M107.229,675.9a.722.722,0,0,1-.71.8c-.479.055-.962.085-1.436.171a.647.647,0,0,0-.41.307,17.139,17.139,0,0,0-.677,1.606.638.638,0,0,0,.054.512c.268.38.592.72.882,1.085a.763.763,0,0,1-.037,1.19q-1.048,1.071-2.122,2.118a.768.768,0,0,1-1.191.051c-.366-.29-.734-.58-1.075-.9-.2-.187-.353-.142-.572-.037-.492.237-1.016.416-1.5.663a.791.791,0,0,0-.387.467,12.755,12.755,0,0,0-.14,1.34c-.055.587-.314.858-.885.866q-1.5.019-3,0a.77.77,0,0,1-.86-.779c-.068-.495-.079-1-.164-1.489a.641.641,0,0,0-.318-.4,17.06,17.06,0,0,0-1.6-.682.636.636,0,0,0-.508.064c-.381.268-.723.588-1.088.88a.772.772,0,0,1-1.193-.04q-1.071-1.048-2.121-2.118a.78.78,0,0,1-.04-1.193c.293-.364.615-.7.882-1.084a.637.637,0,0,0,.06-.507,17.164,17.164,0,0,0-.677-1.605.646.646,0,0,0-.4-.315c-.491-.087-.992-.116-1.488-.174a.723.723,0,0,1-.7-.807c0-1.033-.008-2.066,0-3.1.006-.531.251-.769.8-.822.464-.044.931-.067,1.389-.15a.668.668,0,0,0,.4-.336c.225-.462.355-.975.613-1.414a.618.618,0,0,0-.118-.861c-.3-.317-.567-.655-.831-1a.73.73,0,0,1,.049-1.04q1.1-1.125,2.226-2.226a.736.736,0,0,1,1.077-.052c.364.292.728.584,1.075.895a.5.5,0,0,0,.661.09c.486-.248,1.015-.411,1.507-.652a.7.7,0,0,0,.346-.435c.087-.472.1-.96.163-1.438a.766.766,0,0,1,.865-.767q1.5-.015,3,0a.785.785,0,0,1,.881.81c.059.546-.049,1.2.222,1.6.25.368.949.4,1.376.686.592.4.979.214,1.455-.2,1.229-1.083,1.247-1.062,2.4.094.494.5.991.989,1.476,1.492a.807.807,0,0,1,.045,1.271c-.345.426-.7.846-1.019,1.233.277.7.506,1.322.777,1.927a.647.647,0,0,0,.414.324c.457.082.927.1,1.39.147.547.057.784.292.788.831.01,1.032,0,2.065,0,3.1" transform="translate(-70.786 -648.183)" fill="#7f7f7f"/>
    <path id="Path_47267" data-name="Path 47267" d="M98.353,673.036a4.561,4.561,0,1,0,4.55,4.557,4.593,4.593,0,0,0-4.55-4.557" transform="translate(-73.617 -651.41)" fill="#7f7f7f"/>
  </g>
</svg>
