<svg xmlns="http://www.w3.org/2000/svg" width="42.53" height="42.53" viewBox="0 0 42.53 42.53">
  <g id="Group_26867" data-name="Group 26867" transform="translate(0 0)">
    <path id="Path_47269" data-name="Path 47269" d="M91.739,781.745a1.682,1.682,0,0,1-.673-3.224l2.943-1.284v-5.349a1.682,1.682,0,0,1,3.364,0v6.449a1.683,1.683,0,0,1-1.009,1.542L92.411,781.6a1.68,1.68,0,0,1-.672.14" transform="translate(-74.426 -755.968)" fill="#7f7f7f"/>
    <path id="Path_47270" data-name="Path 47270" d="M106.86,770.7v-5.322a.875.875,0,0,0-.875-.876H101.5a16.194,16.194,0,0,0-2.163-5.207l3.173-3.173a.875.875,0,0,0,0-1.238l-3.763-3.764a.875.875,0,0,0-1.238,0l-3.173,3.173a16.206,16.206,0,0,0-5.207-2.164v-4.48a.876.876,0,0,0-.876-.875H82.934a.875.875,0,0,0-.876.875v4.48a16.212,16.212,0,0,0-5.207,2.164l-3.173-3.173a.875.875,0,0,0-1.238,0l-3.764,3.764a.876.876,0,0,0,0,1.238l3.173,3.173a16.2,16.2,0,0,0-2.163,5.207H65.206a.875.875,0,0,0-.876.876V770.7a.875.875,0,0,0,.876.875h4.481a16.2,16.2,0,0,0,2.163,5.207l-3.173,3.173a.876.876,0,0,0,0,1.238l3.764,3.764a.875.875,0,0,0,1.238,0l3.173-3.173a16.2,16.2,0,0,0,5.207,2.163v4.481a.875.875,0,0,0,.876.875h5.322a.876.876,0,0,0,.876-.875v-4.481a16.2,16.2,0,0,0,5.207-2.163l3.173,3.173a.875.875,0,0,0,1.238,0l3.763-3.764a.875.875,0,0,0,0-1.238l-3.173-3.173a16.2,16.2,0,0,0,2.163-5.207h4.481a.875.875,0,0,0,.875-.875M86.4,777.909a9.907,9.907,0,1,1,9.067-9.066,9.917,9.917,0,0,1-9.067,9.066" transform="translate(-64.33 -746.77)" fill="#7f7f7f"/>
  </g>
</svg>
