<svg xmlns="http://www.w3.org/2000/svg" width="52.915" height="45.448" viewBox="0 0 52.915 45.448">
  <g id="Group_26863" data-name="Group 26863" transform="translate(0 0)">
    <path id="Path_47254" data-name="Path 47254" d="M81.51,494.631c-.105.234-.175.373-.233.518a61.792,61.792,0,0,1-4.439,8.819,3.507,3.507,0,0,1-6.246-3.151,49.971,49.971,0,0,0,3.249-11.8c.214-1.247.375-2.5.556-3.757.023-.156.021-.315.035-.542l-3.054.5c-1.346.221-2.687.469-4.037.652a2.5,2.5,0,0,1-2.5-1.1,2.612,2.612,0,0,1-.244-2.725,2.874,2.874,0,0,1,1.6-1.42c4.066-1.8,8.1-3.662,12.2-5.388a15,15,0,0,0,8.079-7.973,36.874,36.874,0,0,0,1.612-4.733,2.97,2.97,0,0,1,2.783-2.3,2.772,2.772,0,0,1,2.869,2.155,7.052,7.052,0,0,1-.058,2.311,31.091,31.091,0,0,1-5.908,14.19,1.081,1.081,0,0,0-.2.661c.193,3.339.4,6.678.612,10.016q.321,5.13.644,10.259c.046.73.079,1.459.135,2.188a3.287,3.287,0,1,1-6.547.554c-.253-2.455-.536-4.907-.808-7.359-.017-.158-.057-.313-.106-.574" transform="translate(-64.33 -460.23)" fill="#7f7f7f"/>
    <path id="Path_47255" data-name="Path 47255" d="M124.383,483.127c-4.064-1.764-8.079-3.645-12.161-5.363a15.216,15.216,0,0,1-7.8-7.282,30.906,30.906,0,0,1-3.317,8.341c.524.824,1.058,1.643,1.618,2.442a1.292,1.292,0,0,1,.279.887c-.2,3.047-.389,6.094-.58,9.141-.277,4.409-.544,8.819-.835,13.226a3.291,3.291,0,1,0,6.554.58c.193-1.873.407-3.744.615-5.617.084-.748.175-1.494.264-2.242l.091-.01c.045.1.092.2.132.3a63.147,63.147,0,0,0,4.44,8.875,3.518,3.518,0,0,0,6.255-3.207c-.266-.627-.54-1.253-.771-1.894a61.692,61.692,0,0,1-2.837-12.364c-.079-.554-.138-1.11-.213-1.719.308.048.531.079.752.116,2.1.35,4.193.707,6.292,1.046a2.581,2.581,0,0,0,2.2-.688,2.74,2.74,0,0,0-.977-4.572" transform="translate(-73.305 -462.732)" fill="#7f7f7f"/>
    <path id="Path_47256" data-name="Path 47256" d="M85.593,469.308a5.191,5.191,0,1,1-5.191-5.192,5.192,5.192,0,0,1,5.191,5.192" transform="translate(-66.986 -461.178)" fill="#7f7f7f"/>
    <path id="Path_47257" data-name="Path 47257" d="M119.81,468.941a4.824,4.824,0,1,1-4.824-4.824,4.824,4.824,0,0,1,4.824,4.824" transform="translate(-75.516 -461.178)" fill="#7f7f7f"/>
  </g>
</svg>
