<svg xmlns="http://www.w3.org/2000/svg" width="49.852" height="38.075" viewBox="0 0 49.852 38.075">
  <g id="Group_26857" data-name="Group 26857" transform="translate(0)">
    <path id="Path_47243" data-name="Path 47243" d="M81.947,310.339a16.662,16.662,0,0,0-7.69-3.3c-1.624-.278-3.283-.364-4.93-.487a4.629,4.629,0,0,1-3.407-1.718,4.793,4.793,0,0,1-1.01-3.172q.009-10.684,0-21.368v-.6c-1.867-.213-2.439.043-3.083,1.334v29.118a1.917,1.917,0,0,0,2.356,1.351c2.414-.383,4.826-.8,7.253-1.075a33.9,33.9,0,0,1,8.443.172c.95.132,1.892.322,2.889.5a2.278,2.278,0,0,0-.159-.177c-.221-.191-.438-.386-.667-.568" transform="translate(-61.831 -273.475)" fill="#7f7f7f"/>
    <path id="Path_47244" data-name="Path 47244" d="M87.892,277.45a14.5,14.5,0,0,0-7.809-5.875,24.556,24.556,0,0,0-7.31-1.2,1.842,1.842,0,0,0-2.148,2.023q0,13.142,0,26.284a1.862,1.862,0,0,0,1.98,2.027c1.518.1,3.043.185,4.547.4a19.63,19.63,0,0,1,9.021,3.609c.725.538,1.393,1.153,2.133,1.772.01-.11.021-.172.021-.234q0-13.75-.017-27.5a2.585,2.585,0,0,0-.418-1.311M85.817,298.7a.736.736,0,0,1-1.034-.1,10.258,10.258,0,0,0-10.307-2.951.736.736,0,0,1-.362-1.426,11.723,11.723,0,0,1,11.806,3.443.735.735,0,0,1-.1,1.036M73.564,285.614a.736.736,0,0,1,.643-.818c7.954-.953,11.584,3.815,11.735,4.019a.735.735,0,0,1-1.181.877c-.132-.175-3.309-4.283-10.379-3.436a.736.736,0,0,1-.818-.643M85.85,281.27a.735.735,0,0,1-1.039-.039c-.051-.054-4.354-4.593-10.517-4.593a.735.735,0,1,1,0-1.471,17.077,17.077,0,0,1,11.6,5.064.736.736,0,0,1-.04,1.04" transform="translate(-64.779 -270.374)" fill="#7f7f7f"/>
    <path id="Path_47245" data-name="Path 47245" d="M116.956,300.7c1.472-.028,2.136-.7,2.136-2.159q0-5.817,0-11.634,0-7.276,0-14.553a1.769,1.769,0,0,0-1.943-1.976,44.342,44.342,0,0,0-5.114.558,15.576,15.576,0,0,0-9.456,5.425,4.858,4.858,0,0,0-1.217,3.264c.053,8.745.028,17.49.028,26.235v.621c.1-.03.135-.031.156-.049.12-.109.237-.221.354-.334a17.166,17.166,0,0,1,4.811-3.252,25.294,25.294,0,0,1,10.248-2.145m-13.471-20.474a17.073,17.073,0,0,1,11.6-5.064.735.735,0,0,1,0,1.471c-6.168,0-10.474,4.547-10.517,4.593a.736.736,0,0,1-1.079-1m12.325,5.383a.736.736,0,0,1-.818.643c-7.113-.851-10.345,3.391-10.377,3.434a.736.736,0,0,1-1.183-.876c.151-.2,3.782-4.971,11.735-4.019a.735.735,0,0,1,.643.818M104.592,298.6a.735.735,0,0,1-1.135-.935,11.72,11.72,0,0,1,11.805-3.443.736.736,0,1,1-.362,1.426,10.255,10.255,0,0,0-10.307,2.952" transform="translate(-75.085 -270.374)" fill="#7f7f7f"/>
    <path id="Path_47246" data-name="Path 47246" d="M126.213,281.263a1.749,1.749,0,0,0-1.535-1.58c-.482-.041-.97-.007-1.534-.007v2.134q0,9.956,0,19.912a4.586,4.586,0,0,1-4.656,4.858,39.574,39.574,0,0,0-4.21.382,17.256,17.256,0,0,0-8.285,3.483c-.237.191-.454.406-.786.705a40.1,40.1,0,0,1,15.138-.314c1.3.2,2.579.487,3.873.7a1.548,1.548,0,0,0,1.695-.79,2.667,2.667,0,0,0,.3-1.246q.025-13.9.012-27.8a4.183,4.183,0,0,0-.013-.438" transform="translate(-76.375 -273.488)" fill="#7f7f7f"/>
  </g>
</svg>
