<svg xmlns="http://www.w3.org/2000/svg" width="23.234" height="25.837" viewBox="0 0 23.234 25.837">
  <g id="Group_26790" data-name="Group 26790" transform="translate(-68.395 -645.799)">
    <path id="Path_47170" data-name="Path 47170" d="M98.8,648.183a.356.356,0,0,0,.35-.393c.008-.267,0-.536,0-.8s.005-.52,0-.779-.148-.412-.36-.409a.357.357,0,0,0-.35.394q-.01.8,0,1.606a.349.349,0,0,0,.358.383" transform="translate(-18.763 0)" fill="#7f7f7f"/>
    <path id="Path_47171" data-name="Path 47171" d="M70.413,678.571q-.826-.014-1.653,0a.341.341,0,0,0-.365.351c0,.216.136.347.383.353.267.006.535,0,.8,0s.551.005.827,0a.337.337,0,0,0,.365-.346.34.34,0,0,0-.36-.356" transform="translate(0 -20.461)" fill="#7f7f7f"/>
    <path id="Path_47172" data-name="Path 47172" d="M125.964,678.571q-.838-.015-1.676,0a.351.351,0,1,0,.021.7c.267.006.535,0,.8,0s.551,0,.827,0a.352.352,0,1,0,.026-.7" transform="translate(-34.684 -20.461)" fill="#7f7f7f"/>
    <path id="Path_47173" data-name="Path 47173" d="M77.3,656.942a1.051,1.051,0,0,0-.126-.266c-.4-.412-.806-.82-1.22-1.22a.315.315,0,0,0-.468.008.312.312,0,0,0-.037.466c.406.428.823.848,1.255,1.249a.428.428,0,0,0,.367.026c.1-.036.154-.172.228-.265" transform="translate(-4.35 -5.968)" fill="#7f7f7f"/>
    <path id="Path_47174" data-name="Path 47174" d="M120.183,655.409a.321.321,0,0,0-.423.093c-.374.373-.749.744-1.119,1.12a.357.357,0,1,0,.494.508q.565-.555,1.118-1.121a1.751,1.751,0,0,0,.188-.308,1.492,1.492,0,0,0-.258-.292" transform="translate(-31.29 -5.972)" fill="#7f7f7f"/>
    <path id="Path_47175" data-name="Path 47175" d="M92.081,705.4a.75.75,0,0,0,.75.749h.205a1.849,1.849,0,0,0,3.67,0h.206a.75.75,0,0,0,.75-.749v-1.735H92.081Z" transform="translate(-14.791 -36.133)" fill="#7f7f7f"/>
    <path id="Path_47176" data-name="Path 47176" d="M85.852,657.517a7.3,7.3,0,0,0-3.112,12.852,4.648,4.648,0,0,1,1.69,2.789c.055.282.073.572.109.864h5.62a4.882,4.882,0,0,1,.374-1.789,5.815,5.815,0,0,1,1.6-2.041,7.044,7.044,0,0,0,2.357-6.952,7.269,7.269,0,0,0-8.641-5.723m7.027,8.619a.341.341,0,0,1-.336.379c-.226.026-.455.04-.679.081a.306.306,0,0,0-.194.145,8.1,8.1,0,0,0-.32.76.3.3,0,0,0,.026.242c.127.18.28.341.417.513a.361.361,0,0,1-.017.563q-.5.506-1,1a.363.363,0,0,1-.563.024c-.173-.137-.347-.274-.508-.424-.1-.088-.167-.067-.27-.018-.233.112-.48.2-.711.314a.374.374,0,0,0-.183.221,6.031,6.031,0,0,0-.066.634c-.026.278-.148.406-.419.41q-.709.009-1.418,0a.364.364,0,0,1-.407-.368c-.032-.234-.038-.472-.078-.7a.3.3,0,0,0-.15-.19,8.047,8.047,0,0,0-.758-.323.3.3,0,0,0-.24.03c-.18.127-.342.278-.514.416a.365.365,0,0,1-.564-.019q-.506-.5-1-1a.369.369,0,0,1-.019-.564c.139-.172.291-.333.417-.513a.3.3,0,0,0,.029-.24,8.137,8.137,0,0,0-.32-.759.305.305,0,0,0-.191-.149c-.232-.041-.469-.055-.7-.082a.342.342,0,0,1-.332-.382c0-.489,0-.977,0-1.466,0-.251.119-.364.377-.389.219-.021.44-.032.657-.071a.315.315,0,0,0,.191-.159c.107-.219.168-.461.29-.669a.292.292,0,0,0-.056-.407c-.14-.15-.268-.31-.393-.472a.345.345,0,0,1,.023-.492q.52-.532,1.053-1.053a.348.348,0,0,1,.509-.024c.172.138.344.276.508.423a.238.238,0,0,0,.312.042c.23-.117.48-.195.713-.308a.333.333,0,0,0,.164-.206c.041-.223.045-.454.077-.68a.362.362,0,0,1,.409-.363q.709-.007,1.418,0a.371.371,0,0,1,.416.383c.028.258-.023.57.105.759.118.174.449.188.651.324.28.189.463.1.688-.1.581-.512.59-.5,1.133.044.234.235.469.468.7.706a.382.382,0,0,1,.021.6c-.163.2-.33.4-.482.583.131.33.239.625.367.911a.306.306,0,0,0,.2.153c.216.039.438.047.658.07.259.027.371.138.373.393,0,.488,0,.977,0,1.465" transform="translate(-7.248 -7.227)" fill="#7f7f7f"/>
    <path id="Path_47177" data-name="Path 47177" d="M95.923,673.036a2.157,2.157,0,1,0,2.152,2.155,2.172,2.172,0,0,0-2.152-2.155" transform="translate(-15.829 -17.009)" fill="#7f7f7f"/>
  </g>
</svg>
