<svg xmlns="http://www.w3.org/2000/svg" width="27.102" height="23.278" viewBox="0 0 27.102 23.278">
  <g id="Group_26774" data-name="Group 26774" transform="translate(-64.33 -460.229)">
    <path id="Path_47159" data-name="Path 47159" d="M73.13,477.849c-.054.12-.089.191-.119.265a31.649,31.649,0,0,1-2.274,4.517,1.8,1.8,0,0,1-3.2-1.614,25.594,25.594,0,0,0,1.664-6.042c.11-.639.192-1.282.285-1.924.012-.08.011-.161.018-.278l-1.564.257c-.689.113-1.376.24-2.068.334a1.281,1.281,0,0,1-1.278-.565,1.338,1.338,0,0,1-.125-1.4,1.472,1.472,0,0,1,.818-.728c2.083-.92,4.151-1.875,6.248-2.76a7.684,7.684,0,0,0,4.138-4.084,18.887,18.887,0,0,0,.825-2.424,1.521,1.521,0,0,1,1.426-1.18,1.42,1.42,0,0,1,1.469,1.1,3.613,3.613,0,0,1-.03,1.184,15.925,15.925,0,0,1-3.026,7.268.554.554,0,0,0-.1.339c.1,1.71.207,3.42.314,5.13q.164,2.627.33,5.254c.024.374.04.747.069,1.121a1.683,1.683,0,1,1-3.353.284c-.13-1.257-.274-2.513-.414-3.769-.009-.081-.029-.16-.054-.294" transform="translate(0 0)" fill="#7f7f7f"/>
    <path id="Path_47160" data-name="Path 47160" d="M113.027,476.959c-2.081-.9-4.138-1.867-6.229-2.747a7.794,7.794,0,0,1-4-3.73,15.83,15.83,0,0,1-1.7,4.272c.268.422.542.841.829,1.251a.661.661,0,0,1,.143.454c-.1,1.561-.2,3.121-.3,4.682-.142,2.258-.278,4.517-.427,6.774a1.685,1.685,0,1,0,3.357.3c.1-.959.209-1.918.315-2.877.043-.383.09-.765.135-1.148l.046-.005c.023.052.047.1.067.154a32.347,32.347,0,0,0,2.274,4.545,1.8,1.8,0,0,0,3.2-1.642c-.136-.321-.276-.642-.395-.97a31.6,31.6,0,0,1-1.453-6.333c-.04-.284-.07-.569-.109-.88.158.024.272.04.385.059,1.074.179,2.148.362,3.223.536a1.322,1.322,0,0,0,1.127-.352,1.4,1.4,0,0,0-.5-2.342" transform="translate(-22.535 -6.284)" fill="#7f7f7f"/>
    <path id="Path_47161" data-name="Path 47161" d="M80.528,466.775a2.659,2.659,0,1,1-2.659-2.659,2.659,2.659,0,0,1,2.659,2.659" transform="translate(-6.667 -2.382)" fill="#7f7f7f"/>
    <path id="Path_47162" data-name="Path 47162" d="M115.1,466.588a2.471,2.471,0,1,1-2.471-2.471,2.471,2.471,0,0,1,2.471,2.471" transform="translate(-28.087 -2.382)" fill="#7f7f7f"/>
  </g>
</svg>
