<svg xmlns="http://www.w3.org/2000/svg" width="32.428" height="32.491" viewBox="0 0 32.428 32.491">
  <path id="Path_47029" data-name="Path 47029" d="M1799.408-162.061l-1.564-1.564a.435.435,0,0,0-.443-.106l-5.432,1.764-7.083-7.082,12.58-8.387a.434.434,0,0,0,.192-.321.434.434,0,0,0-.125-.353l-1.053-1.054a.439.439,0,0,0-.427-.111l-3.942,1.106-2.3-2.3a.437.437,0,0,0-.309-.128.438.438,0,0,0-.31.128l-1.74,1.74a.438.438,0,0,0,0,.618l.973.972-1.053.3-2.312-2.311a.45.45,0,0,0-.618,0l-1.739,1.74a.437.437,0,0,0,0,.618l.986.987-4.343,1.219-6.848-6.847a1.687,1.687,0,0,0-.84-.459l-2.493-.542a1.694,1.694,0,0,0-1.562.458,1.691,1.691,0,0,0-.458,1.562l.542,2.493a1.683,1.683,0,0,0,.46.84l7.05,7.051-1.275,4.543-.987-.987a.438.438,0,0,0-.619,0l-1.74,1.739a.437.437,0,0,0,0,.618l2.312,2.311-.3,1.054-.973-.972a.434.434,0,0,0-.309-.129.436.436,0,0,0-.309.129l-1.739,1.739a.436.436,0,0,0-.128.309.439.439,0,0,0,.128.31l2.3,2.3-1.106,3.942a.437.437,0,0,0,.112.428l1.053,1.053a.437.437,0,0,0,.31.129.306.306,0,0,0,.042,0,.438.438,0,0,0,.321-.192l8.489-12.734,6.831,6.831-1.826,5.494a.434.434,0,0,0,.106.447l1.563,1.565a.442.442,0,0,0,.31.127h.027a.444.444,0,0,0,.318-.167l4.947-6.31,6.31-4.948a.436.436,0,0,0,.167-.318.434.434,0,0,0-.127-.336m-11.024-16.355,1.121-1.122,1.64,1.64-1.751.491Zm-16.551,20.381-1.641-1.641,1.121-1.121,1.011,1.011Zm1.328-4.736-1.655-1.655,1.122-1.122,1.025,1.025Zm10.472-14.332,1.122-1.121,1.655,1.654-1.751.492Z" transform="translate(-1767.109 182.474)" fill="#525050"/>
</svg>
