<svg xmlns="http://www.w3.org/2000/svg" width="37.751" height="34.869" viewBox="0 0 37.751 34.869">
  <g id="Group_26627" data-name="Group 26627" transform="translate(-129.156 -902.376)">
    <path id="Path_46999" data-name="Path 46999" d="M1359.709-69.751a2.709,2.709,0,0,0-3.832,0l-4.445,4.444a5.068,5.068,0,0,1-.616.184h-11a.673.673,0,0,1-.687-.687.68.68,0,0,1,.688-.694h10.77a2.122,2.122,0,0,0,.271-1.037c0-1.185-.96-1.548-2.144-1.548h-11.855l-6.931,4.539,6.052,8.573,5.331-3.591a2.909,2.909,0,0,0,.594.061h9.834c.071,0,.141-.006.211-.01a2.7,2.7,0,0,0,2.138-.784l5.617-5.617a2.711,2.711,0,0,0,0-3.833" transform="translate(-1200.776 993.223)" fill="#525050"/>
    <path id="Path_47000" data-name="Path 47000" d="M1346.118-78.866c-.01-.025-.018-.052-.027-.078l-.969.851-1.07-.939c-.063-.056-.129-.106-.195-.154a2.642,2.642,0,0,0-.31-.195l-.048-.023a2.48,2.48,0,0,0-.291-.125l-.061-.022a2.46,2.46,0,0,0-.339-.085l-.056-.007a2.131,2.131,0,0,0-.3-.024l-.077,0a2.386,2.386,0,0,0-.727.13c-.032.011-.066.016-.1.025a2.7,2.7,0,0,0-1.275,1.024h0a3.329,3.329,0,0,0,.453,4.252l.026.025,4.364,3.832,4.363-3.832.027-.025a3.109,3.109,0,0,0,.94-1.677,5.174,5.174,0,0,1-2.088-.533,4.444,4.444,0,0,1-2.247-2.418" transform="translate(-1200.787 993.232)" fill="#525050"/>
    <path id="Path_47001" data-name="Path 47001" d="M1358.531-90.869h-11.26a2.639,2.639,0,0,0-.669.089,2.611,2.611,0,0,0-1.772.937l-3.34,4.034a2.613,2.613,0,0,0-.5,2.379v1.887a4.459,4.459,0,0,1,1.42-.242,4.579,4.579,0,0,1,2.715.906,4.751,4.751,0,0,1,.578-.364v-1.441l2.282-2.754,2.376.506c.14.518.288,1,.388,1.314a13.809,13.809,0,0,0-2.025,1.931c-.1.112-.194.223-.286.337a1.775,1.775,0,0,0-.341,1.753,2.34,2.34,0,0,0,1.2,1.254,3.056,3.056,0,0,0,1.741.306,2.978,2.978,0,0,0,1.265-.457,3.24,3.24,0,0,0,.346-.255,10.815,10.815,0,0,1,3.2-1.884c.03-.012.058-.026.088-.038a5.575,5.575,0,0,0,4.339-2.342h7.416v-7.854Z" transform="translate(-1200.788 993.245)" fill="#525050"/>
  </g>
</svg>
