<svg xmlns="http://www.w3.org/2000/svg" width="33.859" height="25.91" viewBox="0 0 33.859 25.91">
  <g id="Group_26619" data-name="Group 26619" transform="translate(0 0)">
    <path id="Path_47010" data-name="Path 47010" d="M1786.5-89.262h-6.551a.4.4,0,0,0-.423.372l-.056,5.855a.926.926,0,0,1-.972.855H1774.2a1.034,1.034,0,0,1-.69-.255.813.813,0,0,1-.283-.614l.057-5.835a.357.357,0,0,0-.122-.267.455.455,0,0,0-.3-.111h-6.326a.374.374,0,0,0-.376.375v14.654a.375.375,0,0,0,.376.375H1786.5a.375.375,0,0,0,.375-.375V-88.887a.374.374,0,0,0-.375-.375" transform="translate(-1766.155 89.263)" fill="#525050"/>
    <path id="Path_47011" data-name="Path 47011" d="M1774.857-83.274h3a.376.376,0,0,0,.376-.375v-5.239a.376.376,0,0,0-.376-.376h-3a.376.376,0,0,0-.376.376v5.239a.376.376,0,0,0,.376.375" transform="translate(-1766.164 89.263)" fill="#525050"/>
    <path id="Path_47012" data-name="Path 47012" d="M1771.6-67.686a2.181,2.181,0,0,0-2.141,1.771,2.3,2.3,0,0,0-.038.408,2.179,2.179,0,0,0,2.179,2.179,2.178,2.178,0,0,0,2.179-2.179,2.208,2.208,0,0,0-.038-.408,2.18,2.18,0,0,0-2.141-1.771" transform="translate(-1766.159 89.239)" fill="#525050"/>
    <path id="Path_47013" data-name="Path 47013" d="M1793.028-67.686a2.178,2.178,0,0,0-2.139,1.771,2.2,2.2,0,0,0-.039.408,2.178,2.178,0,0,0,2.178,2.179,2.179,2.179,0,0,0,2.18-2.179,2.2,2.2,0,0,0-.039-.408,2.179,2.179,0,0,0-2.141-1.771" transform="translate(-1766.182 89.239)" fill="#525050"/>
    <path id="Path_47014" data-name="Path 47014" d="M1799.944-73.681l-5.418-7.555a.379.379,0,0,0-.305-.157h-5.161a.373.373,0,0,0-.266.111.376.376,0,0,0-.11.267l.048,9.088h-22.2a.375.375,0,0,0-.376.375v4.5a.375.375,0,0,0,.376.375h2.169a3.123,3.123,0,0,1,2.9-1.97,3.123,3.123,0,0,1,2.9,1.97h15.6a3.124,3.124,0,0,1,2.9-1.97,3.122,3.122,0,0,1,2.9,1.97h3.736a.375.375,0,0,0,.375-.375v-6.409A.372.372,0,0,0,1799.944-73.681Zm-3.462-.674a.6.6,0,0,1-.534.32h-4.736a.608.608,0,0,1-.607-.607V-78.5a.608.608,0,0,1,.607-.607h2.2a.609.609,0,0,1,.508.274l2.539,3.855A.6.6,0,0,1,1796.482-74.355Z" transform="translate(-1766.155 89.254)" fill="#525050"/>
  </g>
</svg>
