<svg xmlns="http://www.w3.org/2000/svg" width="34.886" height="29.165" viewBox="0 0 34.886 29.165">
  <g id="Group_26626" data-name="Group 26626" transform="translate(-300.525 -776.397)">
    <path id="Path_47030" data-name="Path 47030" d="M1857.063-160.766a.267.267,0,0,0-.3.146l-1.261,2.677-2.255-4.487a.27.27,0,0,0-.293-.142l-1.2.25a3.746,3.746,0,0,0-3.023,3.6v3.409a.267.267,0,0,0,.267.266h8a.265.265,0,0,0,.265-.266l0-5.2a.266.266,0,0,0-.208-.26" transform="translate(-1548.21 960.281)" fill="#525050"/>
    <path id="Path_47031" data-name="Path 47031" d="M1854.555-170.9a3.592,3.592,0,0,0-2.684,1.018,4.071,4.071,0,0,0-1.29,2.939,4.07,4.07,0,0,0,1.289,2.935,3.622,3.622,0,0,0,2.489,1.028c.065,0,.13,0,.2,0a3.942,3.942,0,0,0,3.511-3.729,3.936,3.936,0,0,0-3.511-4.185" transform="translate(-1548.212 960.291)" fill="#525050"/>
    <path id="Path_47032" data-name="Path 47032" d="M1880.627-162.329l-1.2-.25a.269.269,0,0,0-.293.141l-2.254,4.488-1.262-2.676a.266.266,0,0,0-.3-.147.267.267,0,0,0-.208.261l0,5.2a.266.266,0,0,0,.266.266h8a.267.267,0,0,0,.267-.267v-3.409a3.745,3.745,0,0,0-3.023-3.6" transform="translate(-1548.239 960.281)" fill="#525050"/>
    <path id="Path_47033" data-name="Path 47033" d="M1877.831-162.994q.1.006.2.006a3.624,3.624,0,0,0,2.489-1.029,4.067,4.067,0,0,0,1.288-2.934,4.067,4.067,0,0,0-1.288-2.939,3.593,3.593,0,0,0-2.684-1.019,3.937,3.937,0,0,0-3.511,4.184,3.942,3.942,0,0,0,3.511,3.73" transform="translate(-1548.239 960.291)" fill="#525050"/>
    <path id="Path_47034" data-name="Path 47034" d="M1866.141-176.385a3.765,3.765,0,0,0,3.76-3.762,3.765,3.765,0,0,0-3.76-3.761,3.766,3.766,0,0,0-3.762,3.761,3.766,3.766,0,0,0,3.762,3.762" transform="translate(-1548.225 960.305)" fill="#525050"/>
    <path id="Path_47035" data-name="Path 47035" d="M1869.886-176.13l-1.2-.249a.268.268,0,0,0-.293.141l-2.259,4.5-2.263-4.5a.267.267,0,0,0-.292-.141l-1.2.249a3.746,3.746,0,0,0-3.022,3.6v3.409a.266.266,0,0,0,.267.266h13.015a.267.267,0,0,0,.267-.266v-3.409a3.746,3.746,0,0,0-3.026-3.6" transform="translate(-1548.221 960.297)" fill="#525050"/>
    <path id="Path_47036" data-name="Path 47036" d="M1872.645-167.828h-13.017a.266.266,0,0,0-.266.266v2.1a.266.266,0,0,0,.266.266h.8v10.209a.266.266,0,0,0,.266.267h10.876a.267.267,0,0,0,.267-.267V-165.2h.8a.265.265,0,0,0,.266-.266v-2.1a.266.266,0,0,0-.266-.266" transform="translate(-1548.221 960.287)" fill="#525050"/>
  </g>
</svg>
