<svg id="Group_26621" data-name="Group 26621" xmlns="http://www.w3.org/2000/svg" width="37.326" height="30.155" viewBox="0 0 37.326 30.155">
  <path id="Path_47037" data-name="Path 47037" d="M1959.353-159.011h-12.935a.415.415,0,0,0-.414.415v3.523a.415.415,0,0,0,.414.415h12.935a.414.414,0,0,0,.413-.415V-158.6a.414.414,0,0,0-.413-.415" transform="translate(-1933.932 182.278)" fill="#525050"/>
  <path id="Path_47038" data-name="Path 47038" d="M1964.2-155.311h-23.162a.413.413,0,0,0-.414.415v2.362a.414.414,0,0,0,.414.415H1964.2a.414.414,0,0,0,.413-.415V-154.9a.414.414,0,0,0-.413-.415" transform="translate(-1933.926 182.274)" fill="#525050"/>
  <path id="Path_47039" data-name="Path 47039" d="M1943.969-168.44c0-.015,0-.029,0-.044s0-.026-.009-.039-.007-.025-.011-.037a.342.342,0,0,0-.018-.042l-.007-.018-4.583-8.368h0l0,0a.29.29,0,0,0-.041-.06l-.018-.02a.321.321,0,0,0-.034-.033l-.024-.02-.038-.023a.122.122,0,0,0-.026-.015.407.407,0,0,0-.042-.017l-.029-.01-.006,0a.37.37,0,0,0-.049-.009l-.018,0a.464.464,0,0,0-.074,0l-.02,0a.545.545,0,0,0-.055.011l-.024.008a.45.45,0,0,0-.049.021l-.014.006-.009.006a.509.509,0,0,0-.046.031l-.018.014a.379.379,0,0,0-.051.054l-.009.012a.468.468,0,0,0-.03.045l-4.641,8.371a.093.093,0,0,0-.008.019c-.007.013-.012.026-.018.04l-.011.038a.32.32,0,0,0-.009.039c0,.015,0,.029,0,.044l0,.02c0,2.251,2.255,4.082,5.027,4.082s5.026-1.831,5.026-4.082l0-.019m-4.582-6.733,3.471,6.338h-3.471Zm-.829,6.338h-3.524l3.524-6.356Z" transform="translate(-1933.918 182.298)" fill="#525050"/>
  <path id="Path_47040" data-name="Path 47040" d="M1971.272-168.44c0-.015,0-.029,0-.044a.375.375,0,0,0-.009-.039.233.233,0,0,0-.011-.037.237.237,0,0,0-.018-.042l-.007-.018-4.582-8.368h0l0,0a.275.275,0,0,0-.041-.06l-.018-.02a.332.332,0,0,0-.034-.033l-.024-.02-.037-.023-.026-.015a.409.409,0,0,0-.042-.017l-.028-.01-.006,0-.049-.009-.019,0a.461.461,0,0,0-.074,0l-.02,0a.5.5,0,0,0-.055.011l-.023.008a.5.5,0,0,0-.051.021l-.013.006-.009.006a.318.318,0,0,0-.046.032l-.017.013a.382.382,0,0,0-.052.054l-.009.012c-.01.015-.021.029-.03.045l-4.641,8.371c0,.006-.005.012-.008.019s-.012.026-.017.04a.381.381,0,0,0-.012.038c0,.013-.006.026-.009.039s0,.029,0,.044l0,.02c0,2.251,2.254,4.082,5.027,4.082s5.026-1.831,5.026-4.082l0-.019m-4.582-6.733,3.471,6.338h-3.471Zm-.829,6.338h-3.524l3.524-6.356Z" transform="translate(-1933.948 182.298)" fill="#525050"/>
  <path id="Path_47041" data-name="Path 47041" d="M1967.2-178.017l-.383-.854a.634.634,0,0,0-.839-.321l-.428.191a15.168,15.168,0,0,1-6.007,1.329,15.282,15.282,0,0,1-3.927-.463,2.771,2.771,0,0,0-1.893-2.306v-1.449a.379.379,0,0,0-.379-.379h-.947a.378.378,0,0,0-.377.379v1.449a2.771,2.771,0,0,0-1.855,2.065,15.4,15.4,0,0,1-4.788.705,15.169,15.169,0,0,1-6.007-1.329l-.427-.191a.635.635,0,0,0-.84.321l-.383.854a.638.638,0,0,0,.322.841l.427.191a17.35,17.35,0,0,0,6.879,1.52l.239,0a17.557,17.557,0,0,0,5.039-.746,2.771,2.771,0,0,0,1.4,1.025v16.562h1.7v-16.562a2.782,2.782,0,0,0,1.25-.837,17.513,17.513,0,0,0,4.362.558l.239,0a17.355,17.355,0,0,0,6.879-1.52l.427-.191a.637.637,0,0,0,.321-.841m-13.477,1.94a1.922,1.922,0,0,1-.852.2,1.917,1.917,0,0,1-.851-.2,1.938,1.938,0,0,1-.554-.408,1.933,1.933,0,0,1-.532-1.329,1.92,1.92,0,0,1,.233-.918,1.949,1.949,0,0,1,.853-.819,1.917,1.917,0,0,1,.851-.2,1.922,1.922,0,0,1,.852.2,1.949,1.949,0,0,1,1,1.162,1.961,1.961,0,0,1,.087.575,1.935,1.935,0,0,1-.753,1.529,1.929,1.929,0,0,1-.332.207" transform="translate(-1933.922 182.304)" fill="#525050"/>
  <path id="Path_47042" data-name="Path 47042" d="M1953.728-158.587h-1.7a.034.034,0,0,1-.034-.035v-16.537a2.827,2.827,0,0,1-1.375-1.01,17.572,17.572,0,0,1-5.264.739,17.384,17.384,0,0,1-6.892-1.524l-.427-.191a.666.666,0,0,1-.352-.373.669.669,0,0,1,.014-.513l.382-.854a.67.67,0,0,1,.372-.353.67.67,0,0,1,.514.014l.427.191a15.115,15.115,0,0,0,5.993,1.326,15.24,15.24,0,0,0,4.759-.7,2.8,2.8,0,0,1,1.85-2.063v-1.424a.413.413,0,0,1,.412-.413h.947a.413.413,0,0,1,.413.413v1.424a2.807,2.807,0,0,1,1.89,2.3,15.288,15.288,0,0,0,3.9.456,15.117,15.117,0,0,0,5.993-1.326l.428-.191a.672.672,0,0,1,.886.339l.382.854a.675.675,0,0,1,.015.513.667.667,0,0,1-.354.373l-.427.191a17.389,17.389,0,0,1-6.892,1.524,17.524,17.524,0,0,1-4.589-.552,2.805,2.805,0,0,1-1.227.823v16.537a.035.035,0,0,1-.034.035m-1.669-.07h1.635v-16.528a.032.032,0,0,1,.023-.032,2.736,2.736,0,0,0,1.234-.826.034.034,0,0,1,.035-.011,17.466,17.466,0,0,0,4.592.555,17.327,17.327,0,0,0,6.865-1.518l.426-.191a.6.6,0,0,0,.317-.335.6.6,0,0,0-.013-.461l-.383-.854a.6.6,0,0,0-.333-.317.6.6,0,0,0-.461.013l-.427.191a15.182,15.182,0,0,1-6.021,1.333,15.38,15.38,0,0,1-3.936-.464.036.036,0,0,1-.026-.03,2.734,2.734,0,0,0-1.869-2.278.034.034,0,0,1-.023-.033v-1.449a.344.344,0,0,0-.344-.344h-.947a.344.344,0,0,0-.344.344v1.449a.034.034,0,0,1-.024.033,2.735,2.735,0,0,0-1.831,2.039.035.035,0,0,1-.023.025,15.354,15.354,0,0,1-4.8.708,15.177,15.177,0,0,1-6.021-1.333l-.428-.191a.6.6,0,0,0-.461-.013.6.6,0,0,0-.335.317l-.381.854a.6.6,0,0,0-.013.461.6.6,0,0,0,.317.335l.427.191a17.323,17.323,0,0,0,6.864,1.518,17.468,17.468,0,0,0,5.268-.743.035.035,0,0,1,.038.013,2.76,2.76,0,0,0,1.378,1.012.033.033,0,0,1,.024.032Zm.817-17.185a1.931,1.931,0,0,1-.866-.2,1.955,1.955,0,0,1-.564-.416,1.96,1.96,0,0,1-.54-1.351,1.965,1.965,0,0,1,.236-.934,1.969,1.969,0,0,1,.869-.834,1.944,1.944,0,0,1,.866-.2,1.942,1.942,0,0,1,.867.2,1.982,1.982,0,0,1,1.016,1.183,1.926,1.926,0,0,1,.09.585,1.961,1.961,0,0,1-.767,1.557,2.035,2.035,0,0,1-.338.21,1.932,1.932,0,0,1-.867.2m0-3.873a1.884,1.884,0,0,0-.836.2,1.9,1.9,0,0,0-.838.805,1.9,1.9,0,0,0-.228.9,1.887,1.887,0,0,0,.522,1.3,1.859,1.859,0,0,0,.543.4,1.872,1.872,0,0,0,.836.2,1.882,1.882,0,0,0,.836-.2,1.919,1.919,0,0,0,.327-.2,1.89,1.89,0,0,0,.739-1.5,1.886,1.886,0,0,0-.085-.565,1.918,1.918,0,0,0-.981-1.141,1.88,1.88,0,0,0-.836-.2" transform="translate(-1933.922 182.304)" fill="#525050"/>
</svg>
