<svg xmlns="http://www.w3.org/2000/svg" width="31.021" height="30.417" viewBox="0 0 31.021 30.417">
  <g id="Group_26618" data-name="Group 26618" transform="translate(0)">
    <path id="Path_47006" data-name="Path 47006" d="M1684.375-90.244h8.749a.677.677,0,0,0,.677-.677.676.676,0,0,0-.677-.676h-8.749a.677.677,0,0,0-.677.676.677.677,0,0,0,.677.677" transform="translate(-1678.574 91.598)" fill="#525050"/>
    <path id="Path_47007" data-name="Path 47007" d="M1695.339-71.447a6.723,6.723,0,0,1-3.674,1.1,6.385,6.385,0,0,1-2.9-.834,6.15,6.15,0,0,0-2.121-.724c-1.532-.169-3.221.486-5.015,1.95l-.006,0-2.755,4.885a2.286,2.286,0,0,0,.044,2.342,2.441,2.441,0,0,0,2.1,1.159h15.774a2.456,2.456,0,0,0,1.757-.719,2.346,2.346,0,0,0,.688-1.739,2.276,2.276,0,0,0-.3-1.043Z" transform="translate(-1678.568 91.576)" fill="#525050"/>
    <path id="Path_47008" data-name="Path 47008" d="M1686.515-73.271a6.843,6.843,0,0,1,2.423.84,5.715,5.715,0,0,0,2.658.805A6.05,6.05,0,0,0,1695-72.7l-2.272-4.16a4.815,4.815,0,0,1-.3-.683,4.776,4.776,0,0,1-.281-1.607v-2.855a.385.385,0,0,1-.076.008h-3.091a.368.368,0,0,1-.367-.368.367.367,0,0,1,.367-.367h3.091a.385.385,0,0,1,.076.008v-1.587a.384.384,0,0,1-.076.008h-3.091a.367.367,0,0,1-.367-.367.367.367,0,0,1,.367-.368h3.091a.385.385,0,0,1,.076.008v-1.587a.322.322,0,0,1-.076.008h-3.091a.367.367,0,0,1-.367-.367.367.367,0,0,1,.367-.367h3.091a.478.478,0,0,1,.076.007v-1.9a.376.376,0,0,0-.377-.376h-6.038a.375.375,0,0,0-.376.376v10.08a4.791,4.791,0,0,1-.584,2.29l-2.649,4.852a6.684,6.684,0,0,1,4.4-1.261" transform="translate(-1678.572 91.596)" fill="#525050"/>
    <path id="Path_47009" data-name="Path 47009" d="M1707.053-69.413V-83.319a4.5,4.5,0,0,0,2.561-4.07,4.516,4.516,0,0,0-2.718-4.142.406.406,0,0,0-.385.032.408.408,0,0,0-.184.34V-87.8h-2.461V-91.16a.406.406,0,0,0-.184-.34.405.405,0,0,0-.384-.032,4.515,4.515,0,0,0-2.717,4.142,4.493,4.493,0,0,0,2.56,4.07v13.874a4.489,4.489,0,0,0-2.595,4.087,4.517,4.517,0,0,0,2.716,4.142.4.4,0,0,0,.162.034.412.412,0,0,0,.224-.067.406.406,0,0,0,.183-.34v-3.364h2.463v3.364a.406.406,0,0,0,.183.34.4.4,0,0,0,.386.033,4.519,4.519,0,0,0,2.716-4.142,4.506,4.506,0,0,0-2.525-4.056m-1.433-.777a.538.538,0,0,1-.541.535.538.538,0,0,1-.539-.535V-82.429a.539.539,0,0,1,.539-.536.539.539,0,0,1,.541.536Z" transform="translate(-1678.593 91.598)" fill="#525050"/>
  </g>
</svg>
