<svg id="Group_26620" data-name="Group 26620" xmlns="http://www.w3.org/2000/svg" width="36.488" height="28.79" viewBox="0 0 36.488 28.79">
  <path id="Path_47025" data-name="Path 47025" d="M1710.171-175.83a1.171,1.171,0,0,0-1.434.824l-3.134,11.594H1686.21l-3.3-13.807a1.166,1.166,0,0,0-.592-.762l-6.058-3.188a1.17,1.17,0,0,0-1.581.491,1.171,1.171,0,0,0,.492,1.579l5.588,2.941L1684-162.582l-2.2,2.355a1.169,1.169,0,0,0-.315.8v2.528a1.169,1.169,0,0,0,1.169,1.169h1.811a2.568,2.568,0,0,0-.1.7,2.513,2.513,0,0,0,2.513,2.513,2.513,2.513,0,0,0,2.513-2.513,2.513,2.513,0,0,0-.1-.7h10.03a2.483,2.483,0,0,0-.1.7,2.513,2.513,0,0,0,2.513,2.513,2.513,2.513,0,0,0,2.513-2.513,2.5,2.5,0,0,0-.1-.7h1.893a1.169,1.169,0,0,0,1.169-1.169,1.169,1.169,0,0,0-1.169-1.17h-22.211v-.9l1.971-2.107h20.7a1.169,1.169,0,0,0,1.129-.865L1711-174.4a1.17,1.17,0,0,0-.825-1.434" transform="translate(-1674.548 181.304)" fill="#525050"/>
  <path id="Path_47026" data-name="Path 47026" d="M1687.889-165.515h3.233a.439.439,0,0,0,.439-.439v-6.3a.439.439,0,0,0-.439-.438h-3.233a.439.439,0,0,0-.438.438v6.3a.439.439,0,0,0,.438.439" transform="translate(-1674.562 181.295)" fill="#525050"/>
  <path id="Path_47027" data-name="Path 47027" d="M1693.954-165.4h3.234a.438.438,0,0,0,.438-.438v-9.266a.438.438,0,0,0-.438-.438h-3.234a.438.438,0,0,0-.438.438v9.266a.439.439,0,0,0,.438.438" transform="translate(-1674.568 181.298)" fill="#525050"/>
  <path id="Path_47028" data-name="Path 47028" d="M1700.619-165.405h3.234a.438.438,0,0,0,.438-.439V-178.8a.439.439,0,0,0-.438-.439h-3.234a.439.439,0,0,0-.438.439v12.961a.438.438,0,0,0,.438.439" transform="translate(-1674.576 181.302)" fill="#525050"/>
</svg>
