<svg xmlns="http://www.w3.org/2000/svg" width="29.32" height="31.769" viewBox="0 0 29.32 31.769">
  <g id="Group_26650" data-name="Group 26650" transform="translate(-215.644 -648.018)">
    <path id="Path_47015" data-name="Path 47015" d="M1878.354-81.947h-26.407a1.456,1.456,0,0,0-1.456,1.456v15.634a1.457,1.457,0,0,0,1.456,1.456h10.642v1.193H1857.5a.43.43,0,0,0-.43.431v1.263a.43.43,0,0,0,.43.431H1872.8a.43.43,0,0,0,.431-.431v-1.263a.431.431,0,0,0-.431-.431h-5.425V-63.4h10.975a1.457,1.457,0,0,0,1.457-1.456V-80.491a1.456,1.456,0,0,0-1.457-1.456m-1.168,16.722h-23.7a.889.889,0,0,1-.9-.875V-79.248a.889.889,0,0,1,.9-.875h23.7a.891.891,0,0,1,.9.875V-66.1a.891.891,0,0,1-.9.875" transform="translate(-1634.847 739.871)" fill="#525050"/>
    <path id="Path_47016" data-name="Path 47016" d="M1857.136-84.822a.861.861,0,0,0-.013,1.218.861.861,0,0,0,.615.259.854.854,0,0,0,.6-.247,9.954,9.954,0,0,1,6.849-2.343,10.031,10.031,0,0,1,6.794,2.29.862.862,0,0,0,1.218-.03.861.861,0,0,0-.029-1.218,11.774,11.774,0,0,0-7.982-2.766,11.676,11.676,0,0,0-8.054,2.837" transform="translate(-1634.854 739.878)" fill="#525050"/>
    <path id="Path_47017" data-name="Path 47017" d="M1855.063-87.18a.856.856,0,0,0,.546-.2c2.1-1.731,5.687-2.764,9.59-2.764,3.842,0,7.4,1.01,9.511,2.7a.862.862,0,0,0,1.21-.134.86.86,0,0,0-.133-1.211c-2.408-1.928-6.366-3.08-10.587-3.08-4.289,0-8.283,1.181-10.683,3.158a.861.861,0,0,0-.118,1.213.858.858,0,0,0,.665.314" transform="translate(-1634.851 739.882)" fill="#525050"/>
    <path id="Path_47018" data-name="Path 47018" d="M1875.644-73.025l-5.846-3.63a.421.421,0,0,0-.426-.01.421.421,0,0,0-.216.368v7.259a.422.422,0,0,0,.216.368.428.428,0,0,0,.205.052.416.416,0,0,0,.22-.063l5.846-3.63a.417.417,0,0,0,.2-.357.42.42,0,0,0-.2-.357" transform="translate(-1634.867 739.866)" fill="#525050"/>
    <path id="Path_47019" data-name="Path 47019" d="M1865.4-69.871a.235.235,0,0,0-.009-.087c.033.113.005-.026.006-.076,0-.131,0-.263,0-.394v-5.664c0-.684.019-1.561-.933-1.473-1.688.156-3.372.416-5.052.622-.485.06-1.295.018-1.6.473a2.043,2.043,0,0,0-.132,1.11v5.336a2.33,2.33,0,0,0-2.938,1.188c-.426,1.287,1.092,1.906,2.12,1.731a2.334,2.334,0,0,0,1.548-.924,1.388,1.388,0,0,0,.247-.7,1.691,1.691,0,0,0-.022-.278.334.334,0,0,0,0-.05c-.023-.7,0-1.4,0-2.1v-2.548c0-.262-.05-.5.244-.659a2.263,2.263,0,0,1,.629-.078l2.714-.334a15.25,15.25,0,0,1,1.837-.227c.449,0,.376.42.376.723v3.363a2.506,2.506,0,0,0-2.37.41,1.375,1.375,0,0,0-.353,1.951c1.043,1.264,3.867.424,3.681-1.315" transform="translate(-1634.851 739.867)" fill="#525050"/>
  </g>
</svg>
