<svg id="圖層_2" data-name="圖層 2" xmlns="http://www.w3.org/2000/svg" width="38.652" height="36.394" viewBox="0 0 38.652 36.394">
  <path id="Path_47043" data-name="Path 47043" d="M1192.319-78.341l-17.963-17.721a1.5,1.5,0,0,0-1.057-.4,1.5,1.5,0,0,0-1.056.4l-6.034,5.953-.3-.947a1.393,1.393,0,0,0-1.33-.972h-3.192a1.4,1.4,0,0,0-1.4,1.4v6.66l-5.708,5.631a.929.929,0,0,0-.237,1.036,1.349,1.349,0,0,0,1.293.749h4.187V-64.8a4.734,4.734,0,0,0,4.728,4.729h18.1a4.734,4.734,0,0,0,4.729-4.729V-76.556h4.186a1.347,1.347,0,0,0,1.293-.749.927.927,0,0,0-.236-1.036m-20.53,10.494a3.391,3.391,0,0,1-2.009,3.1v-2.615a.538.538,0,0,0-.092-.3l-.848-1.25a.535.535,0,0,0-.885,0l-.849,1.25a.538.538,0,0,0-.092.3v2.615a3.391,3.391,0,0,1-2.008-3.1,3.391,3.391,0,0,1,2.313-3.215v-7.4a3.39,3.39,0,0,1-2.313-3.215,3.389,3.389,0,0,1,2.008-3.1v2.615a.532.532,0,0,0,.092.3l.848,1.251a.536.536,0,0,0,.886,0l.848-1.251a.533.533,0,0,0,.092-.3v-2.615a3.389,3.389,0,0,1,2.009,3.1,3.392,3.392,0,0,1-2.314,3.215v7.4a3.392,3.392,0,0,1,2.314,3.215m12.561-12.644a3.652,3.652,0,0,0-3.331.591.935.935,0,0,1-.811.385l-1.309-.012v4.21a.974.974,0,0,1,.625.909v8.648a.977.977,0,0,1-.977.978h-.723a.977.977,0,0,1-.977-.978v-8.648a.975.975,0,0,1,.625-.909v-4.222l-2.656-.023v-.307h-.338a.62.62,0,0,1-.2-.035v.046a.313.313,0,0,1-.312.314h-.231a.314.314,0,0,1-.313-.314v-2.8a.313.313,0,0,1,.313-.313h.231a.312.312,0,0,1,.313.313v.046a.62.62,0,0,1,.2-.035h.338V-83h5.377a1.727,1.727,0,0,1,.26.022c.853.087,3.552.492,4.177,2.179a.234.234,0,0,1-.28.31" transform="translate(-1153.973 96.462)" fill="#525050"/>
</svg>
