<svg xmlns="http://www.w3.org/2000/svg" width="35.491" height="27.829" viewBox="0 0 35.491 27.829">
  <g id="Group_26624" data-name="Group 26624" transform="translate(-41.741 -650.502)">
    <path id="Path_46977" data-name="Path 46977" d="M1105.883-89.045a1.691,1.691,0,0,0-1.873-.244,11.235,11.235,0,0,1-6.166.78c-3.191-.35-5.866,1.081-7.735,4.139a14.959,14.959,0,0,0-1.353,2.9,15.037,15.037,0,0,0-1.352-2.9c-1.871-3.059-4.546-4.49-7.735-4.139a11.17,11.17,0,0,1-6.218-.806,1.671,1.671,0,0,0-1.857.224,1.668,1.668,0,0,0-.515,1.792c1.045,3.349,3.139,7.7,7.178,9.4a9.3,9.3,0,0,0,3.634.71,15.58,15.58,0,0,0,6.866-1.857,15.587,15.587,0,0,0,6.867,1.857,9.279,9.279,0,0,0,3.618-.7c4.021-1.679,6.115-5.99,7.166-9.311a1.713,1.713,0,0,0-.523-1.837" transform="translate(-1029.257 740)" fill="#525050"/>
    <path id="Path_46978" data-name="Path 46978" d="M1102.2-61.646c-3.789-4.112-8.434-6.534-13.453-6.534s-9.664,2.421-13.454,6.534Z" transform="translate(-1029.262 739.977)" fill="#525050"/>
    <path id="Path_46979" data-name="Path 46979" d="M1090.053-79.4c.072,3.673.4,7.423.79,11.092.251,2.224.534,4.438.932,6.655h-6.032c.523-2.907.87-5.944,1.161-8.873.277-2.956.507-5.912.562-8.873Z" transform="translate(-1029.273 739.989)" fill="#525050"/>
  </g>
</svg>
