<svg xmlns="http://www.w3.org/2000/svg" width="36.541" height="33.272" viewBox="0 0 36.541 33.272">
  <g id="Group_26616" data-name="Group 26616" transform="translate(0 0)">
    <path id="Path_46980" data-name="Path 46980" d="M1004.439-96.014a6.629,6.629,0,0,0-6.621,6.621,6.629,6.629,0,0,0,6.621,6.622,6.629,6.629,0,0,0,6.621-6.622,6.628,6.628,0,0,0-6.621-6.621m3.84,7.824h-2.9v2.9H1003.5v-2.9h-2.9v-1.878h2.9v-2.9h1.877v2.9h2.9Z" transform="translate(-985.513 96.014)" fill="#525050"/>
    <path id="Path_46981" data-name="Path 46981" d="M1021.453-66.505H1016.8V-88.548a.587.587,0,0,0-.586-.586h-3.331a8.473,8.473,0,0,1-8.459,8.213,8.472,8.472,0,0,1-8.458-8.213h-4.643a.587.587,0,0,0-.587.586v22.043h-4.651a.586.586,0,0,0-.587.585v2.6a.587.587,0,0,0,.587.587h35.367a.587.587,0,0,0,.586-.587v-2.6a.586.586,0,0,0-.586-.585M995.84-77.134c0,.163-.263.294-.586.294H992.82c-.324,0-.586-.131-.586-.294v-2.153c0-.162.263-.293.586-.293h2.433c.324,0,.586.131.586.293Zm6.127-2.153c0-.162.262-.293.586-.293h2.433c.324,0,.586.131.586.293v2.153c0,.163-.263.294-.586.294h-2.433c-.325,0-.586-.131-.586-.294ZM997.1-77.134v-2.153c0-.162.262-.293.586-.293h2.433c.324,0,.587.131.587.293v2.153c0,.163-.263.294-.587.294h-2.433c-.325,0-.586-.131-.586-.294m5.831,10.629h-5.783v-8.3a.587.587,0,0,1,.586-.586h5.2Zm7.459,0h-5.782v-8.884h5.2a.587.587,0,0,1,.586.586Zm.049-10.629c0,.163-.263.294-.586.294h-2.433c-.325,0-.587-.131-.587-.294v-2.153c0-.162.262-.293.587-.293h2.433c.324,0,.586.131.586.293Zm4.867,0c0,.163-.263.294-.587.294h-2.432c-.325,0-.587-.131-.587-.294v-2.153c0-.162.263-.293.587-.293h2.432c.325,0,.587.131.587.293Z" transform="translate(-985.499 96.006)" fill="#525050"/>
  </g>
</svg>
