<svg xmlns="http://www.w3.org/2000/svg" width="39.989" height="37.689" viewBox="0 0 39.989 37.689">
  <g id="Group_26482" data-name="Group 26482" transform="translate(736.938 204.876)">
    <path id="Path_46912" data-name="Path 46912" d="M-610.94-104.621a11.015,11.015,0,0,1,10.973,11.093,11.023,11.023,0,0,1-11.077,10.915,11.019,11.019,0,0,1-10.929-11.059A11,11,0,0,1-610.94-104.621Zm-1.211,12.3c0,.443-.012.886,0,1.329a1.169,1.169,0,0,0,1.182,1.2,1.154,1.154,0,0,0,1.156-1.212c.007-.4.018-.808,0-1.211a.423.423,0,0,1,.343-.5,4.438,4.438,0,0,0,2.771-5.457,4.468,4.468,0,0,0-4.961-3.134,4.481,4.481,0,0,0-3.775,4.258,1.183,1.183,0,0,0,1.342,1.3c.588-.075.941-.521,1-1.246a2.063,2.063,0,0,1,1.367-1.879,1.983,1.983,0,0,1,2.205.445,2.02,2.02,0,0,1,.552,2.185,2.071,2.071,0,0,1-1.894,1.445,1.225,1.225,0,0,0-1.29,1.385C-612.153-93.05-612.151-92.685-612.15-92.32Zm1.142,6.435a1.165,1.165,0,0,0,1.185-1.149,1.193,1.193,0,0,0-1.158-1.187,1.193,1.193,0,0,0-1.184,1.161A1.165,1.165,0,0,0-611.009-85.886Z" transform="translate(-96.982 -84.573)" fill="#015579"/>
    <path id="Path_46913" data-name="Path 46913" d="M-721.237-179.233c0-.17.006-.338.013-.507a11.777,11.777,0,0,1-7.578-1.488,14.128,14.128,0,0,1-1.831-1.281,2.392,2.392,0,0,1-.8-2.31,5.475,5.475,0,0,1,5.534-4.918c1.035-.009,2.07,0,3.105,0v.051c1.269,0,2.546-.091,3.806.019a5.129,5.129,0,0,1,2.534.944,12.406,12.406,0,0,1,7.5-2.5c.088,0,.176,0,.263.007a14.134,14.134,0,0,0-14.123-13.661,14.133,14.133,0,0,0-14.116,14.125,14.132,14.132,0,0,0,14.118,14.123,14.194,14.194,0,0,0,1.849-.119A11.762,11.762,0,0,1-721.237-179.233Zm-1.5-21.41a4.671,4.671,0,0,1,4.6,4.7,4.686,4.686,0,0,1-4.76,4.631,4.647,4.647,0,0,1-4.574-4.724A4.634,4.634,0,0,1-722.74-200.643Z" fill="#015579"/>
  </g>
</svg>
