<svg xmlns="http://www.w3.org/2000/svg" width="26.47" height="26.476" viewBox="0 0 26.47 26.476">
  <g id="Group_26793" data-name="Group 26793" transform="translate(-70.996 -952.269)">
    <path id="Path_47184" data-name="Path 47184" d="M71,992.155c.039-.14.072-.282.118-.42a2.324,2.324,0,0,1,2.853-1.5c.089.025.177.053.294.088-.31-.411-.613-.789-.892-1.187a13.094,13.094,0,0,1-2.257-5.761.785.785,0,1,1,1.541-.208,11.5,11.5,0,0,0,.927,3.239c.021.047.042.094.067.139.007.013.025.02.056.042.064-.061.133-.121.2-.186l2.449-2.449a.8.8,0,0,1,1.439.28,6.956,6.956,0,0,0,3.754,3.758.805.805,0,0,1,.282,1.456q-1.214,1.216-2.432,2.43a1.632,1.632,0,0,1-.234.163c.011.03.021.06.033.09a7.809,7.809,0,0,0,.916.374c.844.229,1.695.442,2.549.63a.825.825,0,0,1,.74.89.787.787,0,0,1-.949.657,13.189,13.189,0,0,1-6.147-2.506q-.207-.154-.409-.316c-.133-.107-.263-.218-.449-.374a2.48,2.48,0,0,1,.127,1.571,2.325,2.325,0,0,1-4.507-.034c-.021-.082-.045-.164-.067-.246Z" transform="translate(0 -16.046)" fill="#7f7f7f"/>
    <path id="Path_47185" data-name="Path 47185" d="M73.633,952.269c.09.025.18.051.271.075a2.325,2.325,0,0,1,1.643,2.92c-.024.08-.05.16-.085.269.424-.319.816-.633,1.227-.919a13.076,13.076,0,0,1,5.742-2.232.793.793,0,0,1,.968.662.8.8,0,0,1-.776.881,11.517,11.517,0,0,0-3.238.925c-.06.027-.119.059-.205.1.078.084.137.153.2.217q1.223,1.225,2.448,2.449c.558.56.437,1.138-.292,1.453a6.948,6.948,0,0,0-3.74,3.738c-.321.741-.894.852-1.469.277l-2.578-2.575a.609.609,0,0,0-.069-.044c-.035.064-.073.125-.1.189a11.549,11.549,0,0,0-.93,3.264.776.776,0,0,1-1.207.624.79.79,0,0,1-.333-.836,13.418,13.418,0,0,1,.742-2.92,13.241,13.241,0,0,1,2.27-3.852l.17-.2c-.193.054-.331.1-.473.131a2.325,2.325,0,0,1-2.77-1.79c-.013-.057-.034-.114-.051-.171v-.621c.02-.073.041-.147.06-.221a2.25,2.25,0,0,1,1.117-1.481,6.28,6.28,0,0,1,.839-.314Z" transform="translate(0 0)" fill="#7f7f7f"/>
    <path id="Path_47186" data-name="Path 47186" d="M111.494,952.269c.082.022.164.047.246.067a2.325,2.325,0,1,1-1.214,4.487c-.082-.024-.163-.051-.284-.09.047.07.072.117.105.156a13.247,13.247,0,0,1,3.047,6.784.812.812,0,0,1-.321.866.725.725,0,0,1-.8.039.821.821,0,0,1-.414-.674,11.51,11.51,0,0,0-.932-3.264c-.024-.053-.052-.1-.095-.19-.082.077-.149.137-.213.2q-1.225,1.224-2.449,2.448a.8.8,0,0,1-1.453-.285,6.985,6.985,0,0,0-3.783-3.765.79.79,0,0,1-.274-1.408q1.241-1.244,2.484-2.486c.059-.059.114-.122.231-.249-.73-.248-1.4-.5-2.09-.7a10.815,10.815,0,0,0-1.391-.275.812.812,0,0,1-.783-.878.792.792,0,0,1,.963-.669,12.891,12.891,0,0,1,5.224,1.891c.594.378,1.152.81,1.729,1.219-.034-.121-.081-.26-.11-.4a2.319,2.319,0,0,1,1.841-2.778.808.808,0,0,0,.12-.043Z" transform="translate(-16.043 0)" fill="#7f7f7f"/>
    <path id="Path_47187" data-name="Path 47187" d="M110.258,990.31a2.373,2.373,0,0,1,2.931.98,2.324,2.324,0,0,1-3.117,3.216c-1.027-.553-1.382-1.554-1.046-2.985-.229.184-.439.357-.654.523a13.183,13.183,0,0,1-6.286,2.633.8.8,0,0,1-.98-.677.806.806,0,0,1,.792-.867,11.407,11.407,0,0,0,3.429-1.021c-.068-.076-.12-.138-.177-.2q-1.242-1.244-2.484-2.487a.794.794,0,0,1,.271-1.425,6.993,6.993,0,0,0,3.779-3.771.8.8,0,0,1,1.438-.286q1.227,1.223,2.449,2.45c.065.065.134.127.257.242.221-.616.457-1.177.622-1.759a17.656,17.656,0,0,0,.369-1.74.815.815,0,0,1,.875-.758.792.792,0,0,1,.669.963,13.107,13.107,0,0,1-2.185,5.683c-.3.433-.625.841-.954,1.279" transform="translate(-16.043 -16.047)" fill="#7f7f7f"/>
    <path id="Path_47188" data-name="Path 47188" d="M98.695,975.869h0c0-.031,0-.062,0-.093a2.369,2.369,0,0,0-2.355-2.334,2.424,2.424,0,0,0-2.141,1.392h0a2.423,2.423,0,0,0-2.141-1.392,2.369,2.369,0,0,0-2.355,2.334c0,.031,0,.062,0,.093a4.229,4.229,0,0,0,1.519,3.106,37.639,37.639,0,0,0,2.974,2.592,37.809,37.809,0,0,0,2.974-2.592,4.229,4.229,0,0,0,1.519-3.106" transform="translate(-9.97 -11.283)" fill="#7f7f7f"/>
  </g>
</svg>
