<svg xmlns="http://www.w3.org/2000/svg" width="23.402" height="23.403" viewBox="0 0 23.402 23.403">
  <g id="Group_26573" data-name="Group 26573" transform="translate(-530.263 540.864)">
    <path id="Path_40880" data-name="Path 40880" d="M540.961-518.461a11.728,11.728,0,0,1-11.7-11.745,11.721,11.721,0,0,1,11.692-11.658,11.74,11.74,0,0,1,11.71,11.741A11.746,11.746,0,0,1,540.961-518.461Zm10-11.725a10.053,10.053,0,0,0-10.048-10.023,10.08,10.08,0,0,0-9.967,10.029,10.044,10.044,0,0,0,10.016,10.049A10.024,10.024,0,0,0,550.962-530.187Z" transform="translate(1 1)" fill="#4a4949"/>
    <path id="Path_40881" data-name="Path 40881" d="M551.623-518.1c-1.036-1.1-1.986-2.12-2.959-3.123-.394-.406-.755-.837-.256-1.333.472-.469.963-.217,1.355.209.947,1.029,1.886,2.066,2.96,3.243,1.016-1.06,1.823-1.9,2.631-2.745.228-.237.456-.475.693-.7.386-.373.89-.534,1.2-.055a1.219,1.219,0,0,1-.122,1.135c-.8.936-1.707,1.783-2.572,2.665-.153.156-.3.32-.568.614.652.62,1.3,1.233,1.947,1.85.436.417.875.833,1.3,1.263.34.344.522.744.13,1.157a.78.78,0,0,1-1.229-.051c-.951-.913-1.891-1.836-2.839-2.751-.116-.112-.25-.206-.436-.357-.86.867-1.706,1.721-2.553,2.573q-.319.322-.644.638a.752.752,0,0,1-1.164.062.765.765,0,0,1,.069-1.169c.785-.808,1.583-1.6,2.374-2.4C551.185-517.633,551.425-517.894,551.623-518.1Z" transform="translate(-10.913 -10.936)" fill="#4a4949"/>
  </g>
</svg>
