<svg xmlns="http://www.w3.org/2000/svg" width="274.196" height="188.159" viewBox="0 0 274.196 188.159">
  <g id="Group_19235" data-name="Group 19235" transform="translate(-1177.128 -4737.821)">
    <path id="Path_42202" data-name="Path 42202" d="M1459.264,5082.184a7.25,7.25,0,0,1-7.25,7.25l-252.891-.114a7.25,7.25,0,0,1-7.25-7.25v-33.428a7.249,7.249,0,0,1,7.25-7.25l252.891.115a7.249,7.249,0,0,1,7.25,7.249Z" transform="translate(-7.94 -163.454)" fill="#1a1a1a"/>
    <path id="Path_42203" data-name="Path 42203" d="M1230.91,4968.925a42.657,42.657,0,0,1-13.868,10.958l-2.008-2.174a50.775,50.775,0,0,0,5-2.618q12.98-8.293,15.129-23.111h-19v-2.618h19.238q.093-1.463.093-2.972v-6.61h2.942v6.61q-.048,1.419-.094,2.794v.178h19.331v2.617h-19.237a24.605,24.605,0,0,0,4.2,11.932q5.323,7.763,16.016,14.194l-2.241,1.909q-1.027-.711-1.914-1.287-14.336-9.625-17.743-20.8A40.169,40.169,0,0,1,1230.91,4968.925Z" transform="translate(-20.41 -108.743)" fill="#1580c3"/>
    <path id="Path_42204" data-name="Path 42204" d="M1317.412,4971.882v-2.618h31.938v-3.593l-28.39,1.242-.327-2.617,17.7-.8v-2.884h-15.689c-.25,0-.374-.132-.374-.4v-12.864a.351.351,0,0,1,.374-.355h15.689v-3.149h-19.985v-2.617h19.985v-3.372h2.755v3.372h20.078v2.617h-20.078V4947h15.455q.42.045.42.355v12.863q0,.4-.42.4h-.373a40.439,40.439,0,0,1,4.623,5.323l-2.242,1.464q-.794-1.018-1.681-2.084l-4.762.266v3.682h10.179v2.617h-10.179v4.48a3.119,3.119,0,0,1-1.448,2.662q-2.849,1.641-9.619-.266v-2.706a24.333,24.333,0,0,0,6.443,1.109,2.034,2.034,0,0,0,1.728-.887,1.222,1.222,0,0,0,.14-.577v-3.815Zm20.919-22.446h-13.215c-.063.029-.093.06-.093.089v3.415h13.308Zm0,5.767h-13.308v2.839c.031.088.062.132.093.132h13.215ZM1331,4973.434q4.248,3.149,4.716,3.593l-1.915,1.863a31.927,31.927,0,0,0-4.529-3.459Zm10.086-20.494h13.121v-3.416c-.031-.088-.109-.118-.233-.088h-12.888Zm0,5.234h12.888c.155-.029.233-.1.233-.222v-2.75h-13.121Zm11.813,2.439h-11.813v2.795l13.541-.621q-1.448-1.6-1.915-2.041Z" transform="translate(-75.534 -107.707)" fill="#1580c3"/>
    <path id="Path_42205" data-name="Path 42205" d="M1433.954,4980.249H1431.2v-23.422a52.628,52.628,0,0,1-4.156,11.179l-2.148-2.263a42.633,42.633,0,0,0,4.95-15.392h-4.623v-2.618h5.977v-8.162h2.755v8.162h6.817v2.618h-6.677a101.971,101.971,0,0,1,5.883,10.025l-2.428,1.2q-1.448-3.193-3.6-6.964Zm12.187-22.269a28.983,28.983,0,0,1-3.782,6.3l-2.569-1.154a33.737,33.737,0,0,0,6.677-14.86l2.709.488q-.7,2.793-1.448,5.19a43.362,43.362,0,0,0,6.724,13.8,43.964,43.964,0,0,0,6.817-13.885q-1.355-2.662-2.521-4.658l2.521-1.153a70.885,70.885,0,0,1,6.957,15.393l-2.568.976q-1.4-3.815-2.708-6.875a45.3,45.3,0,0,1-6.817,12.243q3.875,4.215,12.281,8.473l-2.054,2.128q-8.545-4.613-12.047-8.383a31.029,31.029,0,0,1-13.961,8.428l-1.494-2.261a31.285,31.285,0,0,0,13.727-8.251A43.4,43.4,0,0,1,1446.141,4957.98Zm6.163-18.587h2.755v4.614h13.167v2.617h-28.063v-2.617h12.14Z" transform="translate(-133.407 -108.534)" fill="#1580c3"/>
    <path id="Path_42206" data-name="Path 42206" d="M1531.84,4979.981h-2.756v-39.613a.618.618,0,0,1,.094-.266.391.391,0,0,1,.28-.088h9.152l2.054,1.153-3.222,11.356q-.374,1.729.047,2.262,4.016,5.28,3.549,10.2-.56,3.5-3.082,4.48a8.574,8.574,0,0,1-6.117-.133Zm5.51-37.351h-5.276a.28.28,0,0,0-.187.045.245.245,0,0,0-.047.177v23.6q2.942,1.375,4.669.71a3.042,3.042,0,0,0,1.634-2.263q.561-3.415-3.642-10.069a1.546,1.546,0,0,1-.14-1.464Zm14.662,18.453v3.284a15.5,15.5,0,0,1-.56,4.213q-2.1,7.053-10.926,11.045l-1.821-2.306a21.832,21.832,0,0,0,4.762-2.4,12.126,12.126,0,0,0,5.79-10.557v-3.284h-6.537v-2.617h26.942v2.617h-8.312V4974.7a1.413,1.413,0,0,0,.467,1.064,1.81,1.81,0,0,0,1.074.444h4.67a1.4,1.4,0,0,0,.84-.311q.422-.31.841-6.477l2.708.4q-.516,7.276-1.214,7.94a2.458,2.458,0,0,1-1.962,1.064h-7.424a3.191,3.191,0,0,1-1.961-.931,2.42,2.42,0,0,1-.794-1.73v-15.083Zm2.475-22.845h2.755v3.727h13.774q.56.045.513.886a35.539,35.539,0,0,1-2.24,9.449q-1.26-.486-2.569-.931.841-2.795,1.541-6.388.093-.4-.374-.4h-22.879c-.187,0-.28.089-.28.266v7.364h-2.755v-9.76a.469.469,0,0,1,.513-.487h12Zm9.946,11.888v2.618H1547.2v-2.618Z" transform="translate(-189.506 -107.912)" fill="#1580c3"/>
    <g id="Group_19229" data-name="Group 19229" transform="translate(1193.809 4882.216)">
      <path id="Path_42207" data-name="Path 42207" d="M1220.2,5074.626a59.421,59.421,0,0,1-3.887,12.1l-3.046-1.042a61.008,61.008,0,0,0,3.847-11.943Zm2.244-23.443h3.486v3.606h7.374v3.166H1214.19v-3.166h8.256Zm-6.612,20.958c-.294,0-.441-.16-.441-.48v-10.9c.026-.293.174-.441.441-.441h16.03q.481.041.481.441v10.9a.425.425,0,0,1-.481.48h-5.851v13.506a4.214,4.214,0,0,1-.681,2.4,3.7,3.7,0,0,1-1.363,1.162q-1.8.64-5.651-.6l-.12-3.486q3.446.923,3.847.641a1.1,1.1,0,0,0,.641-.881v-12.744Zm2.846-8.816q-.161,0-.12.121v5.529c-.027.081.013.134.12.161h10.339c.106-.027.16-.081.16-.161v-5.529c0-.081-.054-.121-.16-.121Zm14.106,18.515-3.206.882-2.164-8.015,3.126-1.122Zm1.162-19.8v-3.326h3.968v-7.053h3.286v7.053h9.417v3.326h-9.575a95.552,95.552,0,0,1-2.653,16.591,38.7,38.7,0,0,1-5.284,10.7l-3.086-1.884q6.452-7.493,7.775-25.407Zm10.579,3.166v19.355q-.04.962.962,1h2.4q.2,0,.361-.882a47,47,0,0,0,0-7.014l3.246.722a62.083,62.083,0,0,1-.161,7.735,3.12,3.12,0,0,1-1,2,3.668,3.668,0,0,1-2.044.6h-5.37a1.427,1.427,0,0,1-1.563-1.563v-21.961Zm1.162-13.705q.521.6,1.723,2.084a21.12,21.12,0,0,1,1.964,2.645l-2.765,1.763a28.877,28.877,0,0,0-3.566-4.528Z" transform="translate(-1213.268 -5050.942)" fill="#fff"/>
      <path id="Path_42208" data-name="Path 42208" d="M1323.007,5089.4h-3.487v-9.178q-8.5,5.893-15.709,7.254l-1.483-3.246a42.357,42.357,0,0,0,14.908-6.211h-13.665v-2.846h15.949v-2.445h-13.865v-2.845h13.865v-2.445h-14.988v-2.845h9.177a35.17,35.17,0,0,0-1.844-3.646h-8.776v-3.006h7.213a25.905,25.905,0,0,0-2.685-4.208l2.645-1.764a26.08,26.08,0,0,1,2.966,4.568l-2.364,1.4h5.45v-6.413h3.166v6.413h3.727v-6.413h3.166v6.413h4.088l-1.362-1a33.261,33.261,0,0,0,3.526-5.291l2.726,1.683a40.763,40.763,0,0,1-2.966,4.609h6.813v3.006h-9.337a37.722,37.722,0,0,1-1.363,3.646h9.417v2.845h-14.907v2.445h13.785v2.845h-13.785v2.445h15.869v2.846H1325.01q5.69,4.208,15.309,6.171l-1.8,3.125a50.835,50.835,0,0,1-15.508-6.973Zm2-24.806q.842-2.043,1.443-3.646h-10.9q.842,1.682,1.683,3.646Z" transform="translate(-1261.221 -5051.128)" fill="#fff"/>
      <path id="Path_42209" data-name="Path 42209" d="M1391.408,5055.576h-1.683v-3.167h11.9v3.167H1400.5V5089.4h-3.166v-5.691l-6.131,3.206-1.643-2.725,1.844-.962Zm5.931,6.292v-6.292h-2.765v6.292Zm0,9.458v-6.292h-2.765v6.292Zm0,8.816v-5.651h-2.765v7.093Zm19.6-13.023h-14.867v-3.167h2.685a60.64,60.64,0,0,0-1.162-6.452h-1.2v-3.166h4.889v-2.805h3.166v2.805h4.648v3.166h-1.242q-.762,4.529-1.122,6.452h3.927q-.321-5.569-.32-12.1l3.326.32a114.545,114.545,0,0,0,.2,11.782h8.055v3.167h-7.855a51.112,51.112,0,0,0,1.483,10.058,36.312,36.312,0,0,0,2.885-8.056l3.046.923q-2.565,8.817-4.889,11.341.4,1.2.8,2.324.481,1.323.841,1.322c.16,0,.253-.12.28-.36a33.84,33.84,0,0,0,.2-4.929l3.207.921q-.521,7.535-1.844,8.5a2.646,2.646,0,0,1-1.483.481,2.5,2.5,0,0,1-1.763-1.043,16.438,16.438,0,0,1-2.284-4.167,44.591,44.591,0,0,1-4.889,5.571l-2.645-2.084a41.889,41.889,0,0,0,6.332-6.972A65.258,65.258,0,0,1,1416.935,5067.118Zm-1.964,18.433h-11.942a.4.4,0,0,1-.4-.44v-15.469a.354.354,0,0,1,.4-.4h11.942q.441,0,.441.4v15.469C1415.385,5085.405,1415.239,5085.551,1414.971,5085.551Zm-2.725-9.578v-3.767c0-.081-.054-.121-.161-.121h-6.171c-.108,0-.147.041-.12.121v3.767Zm-6.452,2.846v3.727c-.027.08.013.134.12.161h6.171c.107-.027.161-.081.161-.161v-3.727Zm3.927-14.868q.44-1.963.841-4.168.159-1.4.321-2.284h-4.328a46.6,46.6,0,0,1,1.122,6.452Zm14.226-11.381a35.93,35.93,0,0,1,3.327,7.774l-3.006,1.162a40.129,40.129,0,0,0-3.246-7.614Z" transform="translate(-1308.192 -5051.128)" fill="#fff"/>
      <path id="Path_42210" data-name="Path 42210" d="M1478.664,5062.656q-.442-1.563-1.082-3.406l2.124-.241a61.727,61.727,0,0,0,4.168-8.175l3.006,1.443a52.9,52.9,0,0,1-3.086,6.292l8.256-1.042q-1.2-1.964-1.6-2.6l3.045-1.644a89.31,89.31,0,0,1,4.929,8.816l-3.126,1.4q-.641-1.4-1.482-2.886Zm4.087,26.008h-3.486v-23.644a1.062,1.062,0,0,1,1.2-1.2h14.186a1.081,1.081,0,0,1,1.243,1.2V5084.9a4.015,4.015,0,0,1-1.643,3.446q-1.885,1.323-7.293.2l-.24-3.928q3.766,1.283,4.769.682a1.838,1.838,0,0,0,.922-1.6v-2.6h-9.658Zm9.658-17.793v-3.446a.293.293,0,0,0-.32-.28h-9.057a.248.248,0,0,0-.281.28v3.446Zm0,6.894V5074.2h-9.658v3.567Zm21.119-6.092,1.723,3.006a72.919,72.919,0,0,1-13.185,5.089v3.406a3.412,3.412,0,0,0,.361,1.643,2.559,2.559,0,0,0,1.924.521h5.49q1.883,0,2.4-.842a13.965,13.965,0,0,0,.32-4.048l3.366.441q.04,5.29-.841,6.372a3.618,3.618,0,0,1-1.6,1.323,9.567,9.567,0,0,1-2.525.241h-8.135a4.284,4.284,0,0,1-2.444-.682q-1.764-1.283-1.643-4.408v-12.984h3.326v5.45A52.221,52.221,0,0,0,1513.529,5071.673Zm-.561-18.754,1.844,2.925a75.931,75.931,0,0,1-12.423,5.29v2.965a3.418,3.418,0,0,0,.36,1.644,2.559,2.559,0,0,0,1.924.521h4.688q1.884,0,2.4-.843a11.683,11.683,0,0,0,.321-3.727l3.366.4q0,5.131-.842,6.092a3.621,3.621,0,0,1-1.6,1.323,9.613,9.613,0,0,1-2.524.24h-7.334a4.276,4.276,0,0,1-2.445-.681q-1.764-1.283-1.643-4.408v-13.626h3.326v6.493A49.39,49.39,0,0,0,1512.968,5052.918Z" transform="translate(-1355.584 -5050.754)" fill="#fff"/>
      <path id="Path_42211" data-name="Path 42211" d="M1568.9,5078.139v-3.487h16.831V5057.62h-15.388v-3.486h34.344v3.486h-15.308v17.031h16.59v3.487h-16.59v12.5h-3.647v-12.5Zm4.97-17.994a56.617,56.617,0,0,1,5.85,10.9l-3.166,1.6a61.461,61.461,0,0,0-5.73-10.739Zm29.855,1.442a65.2,65.2,0,0,1-6.132,11.221l-3.046-1.763a67.066,67.066,0,0,0,6.011-11.021Z" transform="translate(-1404.751 -5052.531)" fill="#fff"/>
      <path id="Path_42212" data-name="Path 42212" d="M1663.333,5066.09q-.4-1.6-.922-3.567l3.647-.2a94.04,94.04,0,0,0,8.455-11.662l2.886,1.964a87.282,87.282,0,0,1-6.532,9.377l20.639-1.242q-3.847-3.847-5.049-4.849l2.6-2.485a131.919,131.919,0,0,1,11.862,12.223l-2.805,2.285q-1.563-1.923-3.486-3.968Zm32.621,21.72H1667.02q-.962,0-.962-1V5070.7a.85.85,0,0,1,.962-.962h28.934q1,0,1,.962v16.11A.885.885,0,0,1,1695.953,5087.81Zm-26.089-14.587c-.134,0-.187.055-.161.161v10.739a.189.189,0,0,0,.161.2h23.243c.134-.026.2-.092.2-.2v-10.739a.191.191,0,0,0-.2-.161Z" transform="translate(-1455.103 -5050.661)" fill="#fff"/>
    </g>
    <g id="Group_19230" data-name="Group 19230" transform="translate(1195.95 4819.138)">
      <path id="Path_42213" data-name="Path 42213" d="M1223.023,4916.242a1.786,1.786,0,0,0-1.919-1.423c-1.241,0-2.243.917-2.243,2.721,0,1.613.573,2.854,2.272,2.854.6,0,1.642-.287,1.957-1.88h.9a2.893,2.893,0,0,1-3,2.7c-1.556,0-3.084-1.013-3.084-3.647,0-2.109,1.2-3.57,3.2-3.57a2.6,2.6,0,0,1,2.816,2.243Z" transform="translate(-1217.906 -4913.999)" fill="#e6380e"/>
      <path id="Path_42214" data-name="Path 42214" d="M1232.924,4919.776c.038-1.193.831-1.661,2.062-1.661.4,0,1.851.114,1.851,1.394v2.873c0,.21.105.3.277.3a1.556,1.556,0,0,0,.277-.039v.611a1.556,1.556,0,0,1-.458.1c-.744,0-.859-.382-.888-.764a2.267,2.267,0,0,1-1.8.812,1.439,1.439,0,0,1-1.566-1.441,1.5,1.5,0,0,1,1.518-1.566l1.384-.171c.2-.019.439-.1.439-.592,0-.524-.382-.812-1.174-.812a.994.994,0,0,0-1.145.964Zm3.074.926c-.134.1-.344.181-1.384.314-.41.058-1.069.182-1.069.812a.789.789,0,0,0,.906.869c.783,0,1.547-.507,1.547-1.174Z" transform="translate(-1225.859 -4916.215)" fill="#e6380e"/>
      <path id="Path_42215" data-name="Path 42215" d="M1245.866,4923.251h-.84v-4.993h.792v.831h.019a1.622,1.622,0,0,1,1.4-.974.665.665,0,0,1,.219.028v.869h-.315a1.269,1.269,0,0,0-1.279,1.336Z" transform="translate(-1232.508 -4916.215)" fill="#e6380e"/>
      <path id="Path_42216" data-name="Path 42216" d="M1255.626,4921.686a2.077,2.077,0,0,1-2.244,1.708,2.243,2.243,0,0,1-2.234-2.5c0-1.546.745-2.777,2.4-2.777,1.442,0,2.148,1.146,2.148,2.911h-3.646c0,1.041.487,1.642,1.451,1.642a1.267,1.267,0,0,0,1.289-.982Zm-.8-1.327c-.047-.773-.372-1.489-1.394-1.489a1.465,1.465,0,0,0-1.384,1.489Z" transform="translate(-1235.805 -4916.215)" fill="#e6380e"/>
      <path id="Path_42217" data-name="Path 42217" d="M1267.127,4921.686a2.077,2.077,0,0,1-2.243,1.708,2.243,2.243,0,0,1-2.234-2.5c0-1.546.745-2.777,2.4-2.777,1.442,0,2.148,1.146,2.148,2.911h-3.647c0,1.041.487,1.642,1.451,1.642a1.268,1.268,0,0,0,1.289-.982Zm-.8-1.327c-.048-.773-.372-1.489-1.394-1.489a1.466,1.466,0,0,0-1.384,1.489Z" transform="translate(-1241.998 -4916.215)" fill="#e6380e"/>
      <path id="Path_42218" data-name="Path 42218" d="M1275.757,4923.251h-.84v-4.993h.792v.831h.019a1.621,1.621,0,0,1,1.4-.974.669.669,0,0,1,.22.028v.869h-.315a1.269,1.269,0,0,0-1.28,1.336Z" transform="translate(-1248.603 -4916.215)" fill="#e6380e"/>
      <path id="Path_42219" data-name="Path 42219" d="M1292.611,4921.246h-1.088l-.639-.783a2.388,2.388,0,0,1-1.995.927,1.8,1.8,0,0,1-2.014-1.795c0-.936.277-1.441,1.546-2.158a2.205,2.205,0,0,1-.726-1.518,1.515,1.515,0,0,1,1.622-1.527,1.4,1.4,0,0,1,1.537,1.413,2.188,2.188,0,0,1-1.231,1.795l1.251,1.489a4.746,4.746,0,0,0,.276-1.069h.792a4.541,4.541,0,0,1-.553,1.747Zm-3.723-3.236c-.735.468-1.175.783-1.175,1.518a1.2,1.2,0,0,0,1.231,1.136,1.786,1.786,0,0,0,1.489-.763Zm1.155-2.138a.7.7,0,0,0-.735-.754.712.712,0,0,0-.8.745,2.034,2.034,0,0,0,.678,1.193C1289.547,4916.807,1290.043,4916.454,1290.043,4915.872Z" transform="translate(-1255.041 -4914.21)" fill="#e6380e"/>
      <path id="Path_42220" data-name="Path 42220" d="M1311.538,4916.242a1.786,1.786,0,0,0-1.918-1.423c-1.241,0-2.244.917-2.244,2.721,0,1.613.573,2.854,2.272,2.854.6,0,1.642-.287,1.957-1.88h.9a2.893,2.893,0,0,1-3,2.7c-1.556,0-3.083-1.013-3.083-3.647,0-2.109,1.2-3.57,3.2-3.57a2.6,2.6,0,0,1,2.816,2.243Z" transform="translate(-1265.566 -4913.999)" fill="#e6380e"/>
      <path id="Path_42221" data-name="Path 42221" d="M1323.491,4918.115a2.656,2.656,0,1,1-2.32,2.634A2.389,2.389,0,0,1,1323.491,4918.115Zm0,4.544c1.2,0,1.451-1.241,1.451-1.91s-.248-1.909-1.451-1.909-1.451,1.242-1.451,1.909S1322.288,4922.659,1323.491,4922.659Z" transform="translate(-1273.508 -4916.215)" fill="#e6380e"/>
      <path id="Path_42222" data-name="Path 42222" d="M1333.292,4918.258h.793v.707h.019a1.749,1.749,0,0,1,1.508-.85,1.351,1.351,0,0,1,1.327.812,1.827,1.827,0,0,1,1.527-.812,1.5,1.5,0,0,1,1.547,1.68v3.456h-.84v-3.227c0-.687-.21-1.155-.926-1.155a1.267,1.267,0,0,0-1.174,1.336v3.046h-.84v-3.456c0-.42-.162-.926-.783-.926-.477,0-1.317.306-1.317,1.661v2.721h-.841Z" transform="translate(-1280.034 -4916.215)" fill="#e6380e"/>
      <path id="Path_42223" data-name="Path 42223" d="M1350.379,4918.258h.792v.707h.019a1.688,1.688,0,0,1,1.49-.85c1.327,0,2.081,1.088,2.081,2.491,0,1.193-.5,2.788-2.2,2.788a1.5,1.5,0,0,1-1.326-.668h-.019v2.5h-.84Zm2.167,4.41c.917,0,1.346-.83,1.346-1.928,0-.64-.067-1.871-1.365-1.871-1.212,0-1.346,1.308-1.346,2.119C1351.181,4922.315,1352.012,4922.668,1352.546,4922.668Z" transform="translate(-1289.234 -4916.215)" fill="#e6380e"/>
      <path id="Path_42224" data-name="Path 42224" d="M1365.985,4921.686a2.077,2.077,0,0,1-2.243,1.708,2.243,2.243,0,0,1-2.234-2.5c0-1.546.745-2.777,2.4-2.777,1.441,0,2.148,1.146,2.148,2.911h-3.646c0,1.041.487,1.642,1.451,1.642a1.268,1.268,0,0,0,1.289-.982Zm-.8-1.327c-.048-.773-.372-1.489-1.393-1.489a1.465,1.465,0,0,0-1.384,1.489Z" transform="translate(-1295.227 -4916.215)" fill="#e6380e"/>
      <path id="Path_42225" data-name="Path 42225" d="M1373.99,4917.5v3.245c0,.391.334.391.506.391h.3v.659c-.306.029-.544.067-.63.067-.831,0-1.012-.468-1.012-1.07V4917.5h-.678v-.7h.678V4915.4h.84v1.394h.8v.7Z" transform="translate(-1301.13 -4914.756)" fill="#e6380e"/>
      <path id="Path_42226" data-name="Path 42226" d="M1383.238,4921.686a2.077,2.077,0,0,1-2.243,1.708,2.243,2.243,0,0,1-2.234-2.5c0-1.546.745-2.777,2.4-2.777,1.441,0,2.148,1.146,2.148,2.911h-3.646c0,1.041.487,1.642,1.451,1.642a1.269,1.269,0,0,0,1.289-.982Zm-.8-1.327c-.048-.773-.373-1.489-1.394-1.489a1.466,1.466,0,0,0-1.384,1.489Z" transform="translate(-1304.516 -4916.215)" fill="#e6380e"/>
      <path id="Path_42227" data-name="Path 42227" d="M1394.846,4923.251h-.84v-3.074c0-.868-.248-1.308-1.069-1.308-.477,0-1.317.306-1.317,1.661v2.721h-.84v-4.993h.792v.707h.019a1.808,1.808,0,0,1,1.508-.85,1.578,1.578,0,0,1,1.747,1.737Z" transform="translate(-1310.987 -4916.215)" fill="#e6380e"/>
      <path id="Path_42228" data-name="Path 42228" d="M1405.012,4919.938a1.112,1.112,0,0,0-1.183-1.069c-1.04,0-1.375.993-1.375,1.88,0,.86.21,1.919,1.365,1.919a1.271,1.271,0,0,0,1.193-1.184h.812a1.974,1.974,0,0,1-2.033,1.91,2.243,2.243,0,0,1-2.234-2.5c0-1.546.744-2.777,2.4-2.777a1.8,1.8,0,0,1,1.871,1.823Z" transform="translate(-1316.79 -4916.215)" fill="#e6380e"/>
      <path id="Path_42229" data-name="Path 42229" d="M1415.144,4918.425h.926c-.582,1.633-1.155,3.266-1.8,4.9-.792,2.023-.878,2.139-1.957,2.139a1.23,1.23,0,0,1-.354-.077v-.764a1.45,1.45,0,0,0,.506.086c.439,0,.487-.125.888-1.156l-1.852-5.126h.954l1.327,4.066h.019Z" transform="translate(-1322.148 -4916.382)" fill="#e6380e"/>
      <path id="Path_42230" data-name="Path 42230" d="M1429.333,4919.251l-.716,2h-.954l2.577-6.854h1.05l2.482,6.854h-1.012l-.678-2Zm2.415-.82-1.012-3.017h-.019l-1.1,3.017Z" transform="translate(-1330.847 -4914.21)" fill="#e6380e"/>
      <path id="Path_42231" data-name="Path 42231" d="M1444.982,4919.681c-.009-.315-.124-.84-1.183-.84-.258,0-.993.086-.993.707,0,.41.258.506.907.668l.84.21c1.04.257,1.4.639,1.4,1.317,0,1.031-.85,1.651-1.976,1.651-1.976,0-2.119-1.146-2.148-1.747h.812c.029.391.144,1.021,1.327,1.021.6,0,1.146-.238,1.146-.792,0-.4-.277-.534-.993-.716l-.974-.239c-.7-.172-1.155-.525-1.155-1.212,0-1.1.906-1.594,1.89-1.594,1.785,0,1.909,1.317,1.909,1.565Z" transform="translate(-1338.476 -4916.215)" fill="#e6380e"/>
      <path id="Path_42232" data-name="Path 42232" d="M1455.325,4919.681c-.009-.315-.124-.84-1.183-.84-.258,0-.993.086-.993.707,0,.41.258.506.906.668l.841.21c1.04.257,1.4.639,1.4,1.317,0,1.031-.849,1.651-1.976,1.651-1.976,0-2.12-1.146-2.148-1.747h.811c.029.391.144,1.021,1.327,1.021.6,0,1.146-.238,1.146-.792,0-.4-.277-.534-.993-.716l-.974-.239c-.7-.172-1.155-.525-1.155-1.212,0-1.1.907-1.594,1.89-1.594,1.785,0,1.91,1.317,1.91,1.565Z" transform="translate(-1344.045 -4916.215)" fill="#e6380e"/>
      <path id="Path_42233" data-name="Path 42233" d="M1467.161,4921.686a2.077,2.077,0,0,1-2.244,1.708,2.243,2.243,0,0,1-2.234-2.5c0-1.546.745-2.777,2.4-2.777,1.442,0,2.148,1.146,2.148,2.911h-3.647c0,1.041.487,1.642,1.451,1.642a1.268,1.268,0,0,0,1.289-.982Zm-.8-1.327c-.047-.773-.372-1.489-1.393-1.489a1.466,1.466,0,0,0-1.384,1.489Z" transform="translate(-1349.703 -4916.215)" fill="#e6380e"/>
      <path id="Path_42234" data-name="Path 42234" d="M1477.17,4919.681c-.009-.315-.124-.84-1.183-.84-.258,0-.993.086-.993.707,0,.41.258.506.907.668l.841.21c1.04.257,1.4.639,1.4,1.317,0,1.031-.849,1.651-1.976,1.651-1.976,0-2.119-1.146-2.148-1.747h.811c.029.391.144,1.021,1.327,1.021.6,0,1.146-.238,1.146-.792,0-.4-.277-.534-.993-.716l-.973-.239c-.7-.172-1.155-.525-1.155-1.212,0-1.1.907-1.594,1.89-1.594,1.785,0,1.91,1.317,1.91,1.565Z" transform="translate(-1355.807 -4916.215)" fill="#e6380e"/>
      <path id="Path_42235" data-name="Path 42235" d="M1487.513,4919.681c-.009-.315-.124-.84-1.183-.84-.259,0-.993.086-.993.707,0,.41.258.506.907.668l.84.21c1.04.257,1.4.639,1.4,1.317,0,1.031-.849,1.651-1.976,1.651-1.976,0-2.119-1.146-2.148-1.747h.811c.029.391.143,1.021,1.327,1.021.6,0,1.146-.238,1.146-.792,0-.4-.277-.534-.993-.716l-.973-.239c-.7-.172-1.155-.525-1.155-1.212,0-1.1.907-1.594,1.891-1.594,1.785,0,1.909,1.317,1.909,1.565Z" transform="translate(-1361.376 -4916.215)" fill="#e6380e"/>
      <path id="Path_42236" data-name="Path 42236" d="M1495.388,4918.258h.792v.707h.02a1.751,1.751,0,0,1,1.508-.85,1.351,1.351,0,0,1,1.327.812,1.828,1.828,0,0,1,1.527-.812,1.5,1.5,0,0,1,1.546,1.68v3.456h-.84v-3.227c0-.687-.21-1.155-.926-1.155a1.267,1.267,0,0,0-1.174,1.336v3.046h-.841v-3.456c0-.42-.162-.926-.783-.926-.477,0-1.317.306-1.317,1.661v2.721h-.84Z" transform="translate(-1367.313 -4916.215)" fill="#e6380e"/>
      <path id="Path_42237" data-name="Path 42237" d="M1516.58,4921.686a2.077,2.077,0,0,1-2.243,1.708,2.243,2.243,0,0,1-2.234-2.5c0-1.546.745-2.777,2.4-2.777,1.442,0,2.148,1.146,2.148,2.911H1513c0,1.041.487,1.642,1.451,1.642a1.268,1.268,0,0,0,1.289-.982Zm-.8-1.327c-.048-.773-.373-1.489-1.394-1.489a1.466,1.466,0,0,0-1.384,1.489Z" transform="translate(-1376.313 -4916.215)" fill="#e6380e"/>
      <path id="Path_42238" data-name="Path 42238" d="M1528.187,4923.251h-.84v-3.074c0-.868-.248-1.308-1.069-1.308-.477,0-1.317.306-1.317,1.661v2.721h-.84v-4.993h.792v.707h.019a1.809,1.809,0,0,1,1.508-.85,1.577,1.577,0,0,1,1.747,1.737Z" transform="translate(-1382.784 -4916.215)" fill="#e6380e"/>
      <path id="Path_42239" data-name="Path 42239" d="M1536.085,4917.5v3.245c0,.391.334.391.506.391h.3v.659c-.306.029-.544.067-.63.067-.83,0-1.012-.468-1.012-1.07V4917.5h-.678v-.7h.678V4915.4h.84v1.394h.8v.7Z" transform="translate(-1388.408 -4914.756)" fill="#e6380e"/>
      <path id="Path_42240" data-name="Path 42240" d="M1551.9,4914.392h.9v6.854h-1.041l-3.484-5.537h-.019v5.537h-.9v-6.854h1.1l3.427,5.537h.019Z" transform="translate(-1395.292 -4914.21)" fill="#e6380e"/>
      <path id="Path_42241" data-name="Path 42241" d="M1566.019,4921.686a2.077,2.077,0,0,1-2.243,1.708,2.243,2.243,0,0,1-2.234-2.5c0-1.546.745-2.777,2.4-2.777,1.441,0,2.148,1.146,2.148,2.911h-3.646c0,1.041.487,1.642,1.451,1.642a1.267,1.267,0,0,0,1.289-.982Zm-.8-1.327c-.048-.773-.373-1.489-1.394-1.489a1.466,1.466,0,0,0-1.385,1.489Z" transform="translate(-1402.932 -4916.215)" fill="#e6380e"/>
      <path id="Path_42242" data-name="Path 42242" d="M1574.023,4917.5v3.245c0,.391.335.391.506.391h.3v.659c-.305.029-.544.067-.63.067-.83,0-1.012-.468-1.012-1.07V4917.5h-.678v-.7h.678V4915.4h.84v1.394h.8v.7Z" transform="translate(-1408.835 -4914.756)" fill="#e6380e"/>
      <path id="Path_42243" data-name="Path 42243" d="M1580.567,4923.417h-.868l-1.441-4.993h.916l.955,3.923h.02l.964-3.923h.936l.974,3.923h.019l1.012-3.923h.84l-1.451,4.993h-.869l-1.012-3.866h-.019Z" transform="translate(-1411.932 -4916.382)" fill="#e6380e"/>
      <path id="Path_42244" data-name="Path 42244" d="M1595.739,4918.115a2.656,2.656,0,1,1-2.32,2.634A2.389,2.389,0,0,1,1595.739,4918.115Zm0,4.544c1.2,0,1.451-1.241,1.451-1.91s-.249-1.909-1.451-1.909-1.451,1.242-1.451,1.909S1594.536,4922.659,1595.739,4922.659Z" transform="translate(-1420.096 -4916.215)" fill="#e6380e"/>
      <path id="Path_42245" data-name="Path 42245" d="M1606.63,4923.251h-.841v-4.993h.793v.831h.019a1.622,1.622,0,0,1,1.4-.974.673.673,0,0,1,.22.028v.869h-.316a1.268,1.268,0,0,0-1.278,1.336Z" transform="translate(-1426.756 -4916.215)" fill="#e6380e"/>
      <path id="Path_42246" data-name="Path 42246" d="M1616.924,4921.246h-1.079l-1.556-2.52-.7.629v1.891h-.812v-6.854h.812v3.971l2.148-2.11h1.068l-1.909,1.862Z" transform="translate(-1430.522 -4914.21)" fill="#e6380e"/>
    </g>
    <path id="Path_42247" data-name="Path 42247" d="M1184.692,4835.7a1.636,1.636,0,0,0-.286,1.051,2.2,2.2,0,0,0,.286,1.169,1.244,1.244,0,0,0,1.33.817,1.568,1.568,0,0,0,1.141-.351,2.943,2.943,0,0,0,.474-1.869,1.782,1.782,0,0,0-.284-.934,1.828,1.828,0,0,0-.76-.7,1.451,1.451,0,0,0-1.331.116Q1184.883,4835,1184.692,4835.7Zm-1.236-8.876a1.135,1.135,0,0,0-.095,1.168,8.6,8.6,0,0,0,1,1.226,14.827,14.827,0,0,1,1,1.11v.117a3.573,3.573,0,0,0-2.09.875,11.208,11.208,0,0,0-1.615,1.811,5.052,5.052,0,0,1-1.71-1.051,3.964,3.964,0,0,1-.76-.467.53.53,0,0,0-.666,0q-.189.234-.427.524a1.177,1.177,0,0,0-.237.76,3.729,3.729,0,0,0,.57.934.514.514,0,0,0,.38.234c.064,0,.158.078.285.233a7.486,7.486,0,0,1,.9.526,7.257,7.257,0,0,0,.9.524c0,.234-.048.313-.143.234s-.143-.038-.143.116a.9.9,0,0,0-.76-.116.891.891,0,0,1-.76-.117q-.19.468-.19,0a.8.8,0,0,1-.712.117q-.333-.116-.713.35c-.381.313-.443.779-.191,1.4a.972.972,0,0,0,.474.468,1.517,1.517,0,0,0,1.806.233,2.286,2.286,0,0,0,1.235-.116,1.218,1.218,0,0,1,.1.466,3,3,0,0,1-.666.41q-.378.174-.855.408t-.9.467a1.427,1.427,0,0,0-.617.935,1.654,1.654,0,0,0,.19,1.051.783.783,0,0,0,.95.234,6.069,6.069,0,0,0,1.424-.642,6.26,6.26,0,0,1,1.427-.644,5.219,5.219,0,0,0,3.9,2.453,4.808,4.808,0,0,0,2.946-.992,6.022,6.022,0,0,0,2-2.629,1.235,1.235,0,0,0,.38-.058.454.454,0,0,1,.38.058l.19-.117H1196q2.757-.114,5.653-.058t5.654.058c.578-.035,1.141-.054,1.7-.065V4834.3h-1.128q-3.422,0-6.795.116t-6.984.117a6.343,6.343,0,0,1-1.188-.117,1.72,1.72,0,0,0-1.093.117.654.654,0,0,0-.618-.117.323.323,0,0,1-.429-.116,6.217,6.217,0,0,0-1.472-2.277,13.1,13.1,0,0,1-1.757-2.16,7.784,7.784,0,0,0-1.093-1.285,12.335,12.335,0,0,1-1.093-1.168,2.289,2.289,0,0,1-.333-.584.794.794,0,0,0-.427-.467A1.058,1.058,0,0,0,1183.457,4826.824Zm3.8,6.189a3.153,3.153,0,0,1,1.33,1.285,4.451,4.451,0,0,1,.666,1.869,3.978,3.978,0,0,1-1.521,3.971,2.359,2.359,0,0,1-1.616.7,4.059,4.059,0,0,1-1.711-.35,4.158,4.158,0,0,1-1.71-4.438,7.638,7.638,0,0,1,.333-1.4,2.526,2.526,0,0,1,.807-1.168,3.952,3.952,0,0,1,1.663-.76A2.567,2.567,0,0,1,1187.258,4833.014Z" transform="translate(0 -47.661)" fill="#e6380e"/>
    <rect id="Rectangle_1664" data-name="Rectangle 1664" width="10.098" height="5.911" transform="translate(1189.986 4786.159)" fill="#e6380e"/>
    <rect id="Rectangle_1665" data-name="Rectangle 1665" width="10.098" height="5.911" transform="translate(1232.103 4786.159)" fill="#e6380e"/>
    <g id="Group_19231" data-name="Group 19231" transform="translate(1198.448 4770.678)">
      <path id="Path_42248" data-name="Path 42248" d="M1261.431,4834.191a30.435,30.435,0,0,1-.64,6.72,15.641,15.641,0,0,1-4.736,7.873q-5.312,5.023-14.208,5.023-9.056,0-14.144-5.12a14.021,14.021,0,0,1-3.681-6.752,33.919,33.919,0,0,1-.7-7.744v-25.184h11.36v23.626q0,2.846.1,4.253a6.879,6.879,0,0,0,4.064,6.2,7.746,7.746,0,0,0,3.392.735,7.253,7.253,0,0,0,6.272-2.909q1.567-2.142,1.568-8.28v-23.626h11.36Z" transform="translate(-1223.319 -4809.008)" fill="#0093d4"/>
    </g>
    <rect id="Rectangle_1666" data-name="Rectangle 1666" width="19.497" height="9.011" transform="translate(1193.814 4766.61)" fill="#0093d4"/>
    <rect id="Rectangle_1667" data-name="Rectangle 1667" width="19.497" height="9.011" transform="translate(1220.683 4766.61)" fill="#0093d4"/>
    <g id="Group_19232" data-name="Group 19232" transform="translate(1239.728 4765.902)">
      <path id="Path_42249" data-name="Path 42249" d="M1348.648,4845.49a30.231,30.231,0,0,1-11.071,2.372,24.583,24.583,0,0,1-15.885-5.673,24.507,24.507,0,0,1,0-37.855,24.721,24.721,0,0,1,15.988-5.673,30.58,30.58,0,0,1,10.968,2.372v14.612a13.809,13.809,0,0,0-3.512-3.184,13.362,13.362,0,0,0-7.024-1.974,12.686,12.686,0,0,0-8.264,2.861,13.28,13.28,0,0,0,0,19.824,12.686,12.686,0,0,0,8.264,2.861,13.374,13.374,0,0,0,7.024-1.973,13.721,13.721,0,0,0,3.512-3.185Z" transform="translate(-1312.753 -4798.661)" fill="#e6380e"/>
      <path id="Path_42250" data-name="Path 42250" d="M1446.7,4847.753h-13.031l-3.026-8.183H1413.8l-3.232,8.183h-12.894l18.051-46.932h13.306Zm-19.358-17.466-5.054-14.957-5.123,14.957Z" transform="translate(-1358.477 -4799.825)" fill="#e6380e"/>
      <path id="Path_42251" data-name="Path 42251" d="M1562.457,4847.753h-12.206l-22.451-28.744v28.744h-12.206v-46.932H1527.8l22.451,28.709v-28.709h12.206Z" transform="translate(-1421.97 -4799.825)" fill="#e6380e"/>
    </g>
    <path id="Path_42252" data-name="Path 42252" d="M1346.125,4845.688a3.14,3.14,0,1,1,3.14,3.14A3.14,3.14,0,0,1,1346.125,4845.688Z" transform="translate(-90.994 -56.389)" fill="#e6380e"/>
    <path id="Path_42253" data-name="Path 42253" d="M1373.339,4845.688a3.14,3.14,0,1,1,3.141,3.14A3.14,3.14,0,0,1,1373.339,4845.688Z" transform="translate(-105.647 -56.389)" fill="#e6380e"/>
    <g id="Group_19233" data-name="Group 19233" transform="translate(1194.146 4737.821)">
      <path id="Rectangle_1668" data-name="Rectangle 1668" d="M8.274,0H73.52a8.274,8.274,0,0,1,8.274,8.274v7a8.274,8.274,0,0,1-8.274,8.274H8.275A8.275,8.275,0,0,1,0,15.277v-7A8.274,8.274,0,0,1,8.274,0Z" transform="translate(0)" fill="#0093d4"/>
      <path id="Path_42254" data-name="Path 42254" d="M1279.791,4786.306l-.936,4.749,9.817-4.875Z" transform="translate(-1248.919 -4763.859)" fill="#0093d4"/>
    </g>
    <g id="Group_19234" data-name="Group 19234" transform="translate(1201.2 4742.666)">
      <path id="Path_42255" data-name="Path 42255" d="M1236.514,4752.2a2.181,2.181,0,0,0-2.348-1.894c-1.063,0-2.628.733-2.628,3.834,0,1.971.753,3.743,2.628,3.743a2.287,2.287,0,0,0,2.348-2.062h2.214c-.443,2.383-1.949,4.049-4.606,4.049-2.82,0-4.842-1.971-4.842-5.76,0-3.834,2.141-5.79,4.872-5.79a4.27,4.27,0,0,1,4.576,3.88Z" transform="translate(-1229.28 -4748.318)" fill="#fff"/>
      <path id="Path_42256" data-name="Path 42256" d="M1258.467,4761.393c0,.962.206,1.176.458,1.268v.32H1256.7a3.681,3.681,0,0,1-.192-.962,3.158,3.158,0,0,1-2.54,1.177,2.237,2.237,0,0,1-2.391-2.368,2.451,2.451,0,0,1,2.288-2.6l1.86-.291c.325-.046.723-.183.723-.642,0-.9-.827-.947-1.358-.947a1.128,1.128,0,0,0-1.27,1.13h-1.993c.236-2.49,1.9-2.841,3.514-2.841,1.107,0,3.13.351,3.13,2.353Zm-2.022-2.368a2.952,2.952,0,0,1-1.4.443c-.768.137-1.4.336-1.4,1.222a.915.915,0,0,0,.96.978,1.73,1.73,0,0,0,1.845-1.6Z" transform="translate(-1241.283 -4751.722)" fill="#fff"/>
      <path id="Path_42257" data-name="Path 42257" d="M1277.289,4762.981h-2.066v-4.934c0-.6-.03-1.6-1.344-1.6-.915,0-1.624.642-1.624,1.879v4.659h-2.067v-8.127h1.978v1.192h.03a2.715,2.715,0,0,1,5.093,1.313Z" transform="translate(-1251.306 -4751.722)" fill="#fff"/>
      <path id="Path_42258" data-name="Path 42258" d="M1301.332,4763.093c-.974,3.009-1.24,3.407-3.041,3.407-.281,0-.635-.016-.931-.031v-1.711a2.274,2.274,0,0,0,.4.031c.753,0,1.166-.107,1.358-1.222l-2.893-8.463h2.3l1.683,5.989h.03l1.609-5.989h2.185Z" transform="translate(-1265.325 -4751.971)" fill="#fff"/>
      <path id="Path_42259" data-name="Path 42259" d="M1317.67,4763.2c-2.111,0-4.015-1.344-4.015-4.277s1.9-4.278,4.015-4.278,4.016,1.345,4.016,4.278S1319.781,4763.2,1317.67,4763.2Zm0-6.753c-1.594,0-1.889,1.437-1.889,2.476s.295,2.475,1.889,2.475,1.89-1.436,1.89-2.475S1319.265,4756.442,1317.67,4756.442Z" transform="translate(-1274.711 -4751.722)" fill="#fff"/>
      <path id="Path_42260" data-name="Path 42260" d="M1340.972,4763.23h-1.978v-1.146h-.029a2.57,2.57,0,0,1-2.392,1.359c-1.55,0-2.672-.917-2.672-2.994V4755.1h2.067v5.042c0,1.253.709,1.5,1.344,1.5.679,0,1.595-.4,1.595-1.848v-4.69h2.066Z" transform="translate(-1285.612 -4751.971)" fill="#fff"/>
      <path id="Path_42261" data-name="Path 42261" d="M1364.19,4756.577a3.038,3.038,0,0,1,1.506-3.1,1.837,1.837,0,0,0,.915-1.512,1.358,1.358,0,0,0-1.432-1.513c-1.329,0-1.521,1.039-1.594,1.757v.016H1361.5a3.344,3.344,0,0,1,3.543-3.575c.886,0,3.779.26,3.779,3.254,0,1.237-.649,1.97-1.786,2.811a1.834,1.834,0,0,0-.9,1.863Zm2.1,3.178h-2.155V4757.6h2.155Z" transform="translate(-1300.474 -4748.496)" fill="#fff"/>
    </g>
  </g>
</svg>
