<svg xmlns="http://www.w3.org/2000/svg" xmlns:xlink="http://www.w3.org/1999/xlink" width="337.855" height="265.451" viewBox="0 0 337.855 265.451">
  <defs>
    <linearGradient id="linear-gradient" x1="0.798" y1="0.826" x2="0.124" y2="0.289" gradientUnits="objectBoundingBox">
      <stop offset="0" stop-color="#c1c8cb"/>
      <stop offset="0.889" stop-color="#798387"/>
    </linearGradient>
  </defs>
  <g id="Group_19178" data-name="Group 19178" transform="translate(-180.894 -7695.989)">
    <path id="Path_41360" data-name="Path 41360" d="M450.68,7748.041c8.944,9.021,17.207,18.681,25.971,27.872,7.06,7.4,14.933,13.977,22,21.375,5.724,5.993,9.861,13.629,13.174,21.2,4.577,10.464,7.762,22.134,6.729,33.642-.978,10.9-7,20.483-12.232,29.8-3.5,6.227-6.467,12.717-10.2,18.816-7.332,11.972-17.047,22.2-29.99,28.053a70.444,70.444,0,0,1-15.374,4.836,89.2,89.2,0,0,1-9.1,1.3c-2.6.242-7.732,1.433-10.153.452-32.687-13.254-91.384-3.949-131.349,0-13.906,0-25.622.523-33.1,0C238.13,7933.37,180,7925.1,180.9,7877.913s23.617-44.283,45.871-56.634a37.265,37.265,0,0,0,18.717-26.21c1.968-10.111.633-19.858-.331-29.966a30.4,30.4,0,0,1,3.746-18.579,76.346,76.346,0,0,1,12.275-15.83,118.1,118.1,0,0,1,45.19-28.4,114.778,114.778,0,0,1,65.893-2.746C402.609,7707.226,428.912,7726.088,450.68,7748.041Z" transform="translate(0)" fill="rgba(237,237,237,0.65)"/>
    <path id="Path_41361" data-name="Path 41361" d="M228.069,7839.9s-32.7,39.667-9.083,44.079,38.15-19.8,31.337-36.986S232.735,7833.737,228.069,7839.9Z" transform="translate(-15.372 -72.197)" fill="#f2f2f2"/>
    <path id="Path_41362" data-name="Path 41362" d="M722.188,7743.686s34.428,42.88,49.416,34.914,14.988-37.476-5.45-52.469S707.026,7727.008,722.188,7743.686Z" transform="translate(-280.048 -12.572)" fill="#f2f2f2"/>
    <path id="Path_41363" data-name="Path 41363" d="M691.492,7755.03s12.3-1.973,15.07-2.348c7.7-1.1,17.935,2.813,17.935,13.171v30.005l-33.006,4.422Z" transform="translate(-265.855 -29.425)" fill="url(#linear-gradient)"/>
    <path id="Path_41364" data-name="Path 41364" d="M724.5,7829.444v6.476l-33.006,4.422v-6.434Z" transform="translate(-265.855 -69.487)" fill="#9ba5a7"/>
    <path id="Path_41365" data-name="Path 41365" d="M422.217,7777.369v189.862H553.273v-210.09Z" transform="translate(-125.651 -31.841)" fill="#b0b1b2"/>
    <path id="Path_41366" data-name="Path 41366" d="M438.39,7837.9v36.374l65.078-7.451v-37.57Z" transform="translate(-134.071 -69.387)" fill="#fff"/>
    <path id="Path_41367" data-name="Path 41367" d="M438.39,7928.188v14.729l109.73-9.632v-16.941Z" transform="translate(-134.071 -114.733)" fill="#fff"/>
    <path id="Path_41368" data-name="Path 41368" d="M438.39,7976.7v20.172l109.73-5.766v-24.229Z" transform="translate(-134.071 -141.044)" fill="#fff"/>
    <path id="Path_41369" data-name="Path 41369" d="M438.39,8043.693v6.08l109.73-6.08v-5.972Z" transform="translate(-134.071 -177.932)" fill="#fafafb"/>
    <path id="Path_41370" data-name="Path 41370" d="M438.39,8080.406v42.042l109.73-1.087V8075.53Z" transform="translate(-134.071 -197.618)" fill="#fff"/>
    <path id="Path_41371" data-name="Path 41371" d="M448.9,7844.094v36.186l63.74-6.99V7835.4Z" transform="translate(-139.543 -72.589)" fill="none" stroke="#a7afb0" stroke-miterlimit="10" stroke-width="0.894"/>
    <path id="Path_41372" data-name="Path 41372" d="M450.266,7795.713v51.4l-5.548-6.4-63.39,8.346-.011-42.738Z" transform="translate(-104.355 -51.924)" fill="#cccfd0" opacity="0.3"/>
    <path id="Path_41373" data-name="Path 41373" d="M634.91,7883.243v7.208l29.106-3.6v-7.875Z" transform="translate(-236.395 -95.275)" fill="#cbcbcb"/>
    <path id="Path_41378" data-name="Path 41378" d="M346.366,7761.964l82.407-15.159v67.886l-10.546-10.765-71.862,9.667Z" transform="translate(-86.157 -26.459)" fill="#f7b709"/>
    <path id="Path_41379" data-name="Path 41379" d="M421.029,7763.049v45.93l-74.663,9.635v-41.7Z" transform="translate(-86.157 -34.916)" fill="#383838"/>
    <path id="Path_41380" data-name="Path 41380" d="M331.928,7772.23l79.892-13.684-.1,45.3-79.789,10.81Z" transform="translate(-78.64 -32.572)" fill="#fff"/>
    <line id="Line_318" data-name="Line 318" x1="48.127" y2="8.578" transform="translate(277.916 7732.6)" fill="none" stroke="#9ba5a7" stroke-linecap="round" stroke-miterlimit="10" stroke-width="0.67"/>
    <line id="Line_319" data-name="Line 319" x1="44.744" y2="7.532" transform="translate(281.3 7736.538)" fill="none" stroke="#9ba5a7" stroke-linecap="round" stroke-miterlimit="10" stroke-width="0.67"/>
    <line id="Line_320" data-name="Line 320" x1="44.657" y2="7.473" transform="translate(281.387 7740.125)" fill="none" stroke="#d3d5d8" stroke-linecap="round" stroke-miterlimit="10" stroke-width="0.67"/>
    <line id="Line_321" data-name="Line 321" y1="7.35" x2="44.454" transform="translate(281.589 7744.15)" fill="none" stroke="#d3d5d8" stroke-linecap="round" stroke-miterlimit="10" stroke-width="0.67"/>
    <line id="Line_322" data-name="Line 322" x1="26.642" y2="4.299" transform="translate(299.401 7748.041)" fill="none" stroke="#ae609b" stroke-linecap="round" stroke-linejoin="round" stroke-width="0.67"/>
    <line id="Line_323" data-name="Line 323" x1="38.495" y2="6.248" transform="translate(287.549 7751.861)" fill="none" stroke="#ae609b" stroke-linecap="round" stroke-linejoin="round" stroke-width="0.67"/>
    <line id="Line_324" data-name="Line 324" x1="67.216" y2="10.689" transform="translate(258.828 7755.286)" fill="none" stroke="#613588" stroke-linecap="round" stroke-linejoin="round" stroke-width="0.67"/>
    <line id="Line_325" data-name="Line 325" x1="67.349" y2="10.295" transform="translate(258.695 7759.221)" fill="none" stroke="#613588" stroke-linecap="round" stroke-linejoin="round" stroke-width="0.67"/>
    <line id="Line_326" data-name="Line 326" y1="11.136" x2="67.349" transform="translate(258.695 7762.136)" fill="none" stroke="#d3d5d8" stroke-linecap="round" stroke-miterlimit="10" stroke-width="0.67"/>
    <line id="Line_327" data-name="Line 327" x1="67.349" y2="10.867" transform="translate(258.695 7766.027)" fill="none" stroke="#d3d5d8" stroke-linecap="round" stroke-miterlimit="10" stroke-width="0.67"/>
    <path id="Path_41381" data-name="Path 41381" d="M486.189,7798.1v4.483l4.071-.644v-4.42Z" transform="translate(-158.959 -52.864)" fill="#383838"/>
    <path id="Path_41382" data-name="Path 41382" d="M527.282,7722.836l45.045-7.861v12.354l-45.045,7.985Z" transform="translate(-180.355 -9.885)" fill="#fff" stroke="#613588" stroke-miterlimit="10" stroke-width="0.447"/>
    <path id="Path_41383" data-name="Path 41383" d="M494.682,7778.348l19.868-3.035v-19.475" transform="translate(-163.382 -31.162)" fill="none" stroke="#613588" stroke-miterlimit="10" stroke-width="0.447"/>
    <line id="Line_328" data-name="Line 328" x1="30.45" y2="5.321" transform="translate(358.209 7709.518)" fill="none" stroke="#d3d5d8" stroke-linecap="round" stroke-miterlimit="10" stroke-width="0.67"/>
    <line id="Line_329" data-name="Line 329" x1="38.728" y2="6.997" transform="translate(349.931 7711.76)" fill="none" stroke="#d3d5d8" stroke-linecap="round" stroke-miterlimit="10" stroke-width="0.67"/>
    <line id="Line_330" data-name="Line 330" x1="38.728" y2="7.194" transform="translate(349.931 7713.558)" fill="none" stroke="#d3d5d8" stroke-linecap="round" stroke-miterlimit="10" stroke-width="0.67"/>
    <path id="Path_41384" data-name="Path 41384" d="M557.5,7938.794v4.483l4.071-.644v-4.42Z" transform="translate(-196.091 -126.12)" fill="#383838"/>
    <path id="Path_41385" data-name="Path 41385" d="M606.98,7887.883l-20.041,24.124L566,7914.08" transform="translate(-200.513 -99.914)" fill="none" stroke="#613588" stroke-miterlimit="10" stroke-width="0.447"/>
    <g id="Group_19176" data-name="Group 19176" transform="translate(258.827 7743.862)">
      <path id="Path_41386" data-name="Path 41386" d="M350.993,7807.1c-.3.016-.6.034-.894.047a.342.342,0,0,0-.309.168,5.863,5.863,0,0,1-2.033,1.941,10.06,10.06,0,0,1-1.88.917c-.065.024-.147-.018-.221-.028a.688.688,0,0,1,.075-.23,4.56,4.56,0,0,0,1.025-1.975,2.672,2.672,0,0,0,0-1.17.491.491,0,0,0-.22-.278c-.36-.217-.762-.374-1.1-.621a4.353,4.353,0,0,1-1.932-3.114,4.63,4.63,0,0,1,.761-3.018,7.434,7.434,0,0,1,2.83-2.588,9.766,9.766,0,0,1,7.256-.982,5.7,5.7,0,0,1,3.3,2.1,4.433,4.433,0,0,1-.282,5.46,8.239,8.239,0,0,1-3.085,2.436A10.408,10.408,0,0,1,350.993,7807.1Zm-.009-5.363c-.552.059-1.1.113-1.656.179a1.1,1.1,0,0,0-.984,1.131c0,.44,0,.879,0,1.319,0,.145.042.212.193.191.234-.031.468-.047.7-.075.5-.059,1-.127,1.494-.18.527-.056,1.054-.092,1.58-.147.347-.036.694-.1,1.04-.134.248-.026.267-.035.266-.281,0-.415-.009-.829-.011-1.243a.86.86,0,0,0-1.019-.932C352.055,7801.624,351.52,7801.683,350.985,7801.74Zm0-.478a1.629,1.629,0,0,0,1.408-1.6,1.271,1.271,0,0,0-1.415-1.311,1.65,1.65,0,0,0-1.419,1.612A1.267,1.267,0,0,0,350.982,7801.263Z" transform="translate(-343.484 -7795.864)" fill="#f7b709"/>
      <path id="Path_41387" data-name="Path 41387" d="M358.7,7814.188c.422-.067.815-.115,1.205-.194a10.582,10.582,0,0,0,5.579-2.932,7.99,7.99,0,0,0,.984-1.241,6.289,6.289,0,0,0,.965-2.436c.008-.044.023-.088.047-.178.327.167.645.3.937.482a3.615,3.615,0,0,1,.974,5.6,9.393,9.393,0,0,1-.986,1.021.462.462,0,0,0-.176.448,3.252,3.252,0,0,0,1.093,1.895.717.717,0,0,1,.144.129.225.225,0,0,1,.03.18.208.208,0,0,1-.166.082c-.394-.054-.79-.1-1.176-.188a5.974,5.974,0,0,1-2.361-1.025.411.411,0,0,0-.313-.031,8.134,8.134,0,0,1-3.647.159,5.186,5.186,0,0,1-3-1.611C358.792,7814.3,358.757,7814.257,358.7,7814.188Z" transform="translate(-351.407 -7801.771)" fill="#f7b709"/>
    </g>
    <ellipse id="Ellipse_277" data-name="Ellipse 277" cx="20.78" cy="18.707" rx="20.78" ry="18.707" transform="translate(391.543 7734.843) rotate(-61.672)" fill="#383838"/>
    <ellipse id="Ellipse_278" data-name="Ellipse 278" cx="17.413" cy="15.676" rx="17.413" ry="15.676" transform="matrix(0.475, -0.88, 0.88, 0.475, 395.85, 7733.241)" fill="#fff"/>
    <path id="Path_41388" data-name="Path 41388" d="M674.827,7728.679v3.079s6.734-.249,8.965,4.288-.4,10.595-.4,10.595l2.581,1.392s4.063-6.782.716-13.959S674.827,7728.679,674.827,7728.679Z" transform="translate(-257.178 -16.919)" fill="#f7b709"/>
    <path id="Path_41389" data-name="Path 41389" d="M684.833,7769.267s-2.107,5.062-10.225,6.779" transform="translate(-257.064 -38.154)" fill="none" stroke="#613588" stroke-miterlimit="10" stroke-width="0.894"/>
    <path id="Path_41427" data-name="Path 41427" d="M289.4,0" transform="translate(202.993 7935.391)" fill="none" stroke="#cbcbcb" stroke-linecap="round" stroke-width="0.894"/>
    <line id="Line_332" data-name="Line 332" x2="160.322" transform="translate(255.809 7960.993)" fill="none" stroke="#012e38" stroke-linecap="round" stroke-miterlimit="10" stroke-width="0.894"/>
    <path id="Path_41390" data-name="Path 41390" d="M543.5,7996.2s3.015,0,3.553,1.508,1.077,3.338,2.315,4.307,14.267,6.838,15.4,7.053,1.507-1.745,1.507-1.745l6.407,2.606s-2.153,5.061-3.23,5.814a4.609,4.609,0,0,1-5.169,0c-1.669-1.346-20.4-11.844-20.781-13.621-1.4-1.7-1.346-5.276-.916-5.6A1.682,1.682,0,0,1,543.5,7996.2Z" transform="translate(-188.186 -156.312)" fill="#f1c195"/>
    <path id="Path_41391" data-name="Path 41391" d="M618.764,7943.5s-1.6,2.819-2.868,3.548-3.548,1.41-.924,2.042c0,0,.681.1-.924,1.507s-2.187,3.257-.826,4.132,3.938,1.428,4.083,2.333.243,1.507.243,1.507l5.153-1.6,1.215-9.625Z" transform="translate(-224.707 -128.87)" fill="#f1c195"/>
    <path id="Path_41392" data-name="Path 41392" d="M605.46,7974.856s-.364-1.677.365-2.115,6.46-2.68,7.622-2.359c.9.205.471,2.359.471,2.359s8.677,4.156,8.968,11.375-4.666,21.437-4.739,24.5H602.617l-2.844-10.937-5.906-7.51s3.427-10.937,5.906-12.759A17.517,17.517,0,0,1,605.46,7974.856Z" transform="translate(-215.024 -142.853)" fill="#012e38"/>
    <path id="Path_41393" data-name="Path 41393" d="M599.286,8014.672l-2.09,4.375s-6.611-1.166-7.486-4.083c0,0,.942-4.132,1.653-4.132S593.134,8013.863,599.286,8014.672Z" transform="translate(-212.86 -163.931)" fill="#2c4a51"/>
    <path id="Path_41394" data-name="Path 41394" d="M629.46,7930.389s-2.956-2.418-6.135-.806-2.329,5.463-1.657,6.225,1.926,2.732,4.031,3.583,1.657,4.165,0,4.254-2.194-.313-2.1,1.03,1.171,4.191,4.034,3.708,8.058-11.41,3.8-14.143c0,0-5.06-1.612-4.12-2.642A4.006,4.006,0,0,1,629.46,7930.389Z" transform="translate(-229.17 -121.338)" fill="#381508"/>
    <path id="Path_41395" data-name="Path 41395" d="M606.263,8050.181s-2.319,7.16-2.466,10.088-2.928,76.7-2.928,76.7h6.441l5.709-58.7,6,58.7h5.27s-1.464-69.383-1.025-70.993,1.757-6.44,1.025-8.49-2.5-7.307-2.5-7.307Z" transform="translate(-218.671 -184.419)" fill="#525862"/>
    <path id="Path_41396" data-name="Path 41396" d="M627.452,8067.774s-2.151,5.948-3.923,6.454-2.055.209-2.784,6.707-6.438,65.2-6.438,65.2" transform="translate(-225.667 -193.58)" fill="none" stroke="#42484e" stroke-miterlimit="10" stroke-width="0.894"/>
    <path id="Path_41397" data-name="Path 41397" d="M592.2,8232.287v2.9l-9.325,3.432s-1.144.924.44,1.1,12.932,0,12.932,0-.023-6.783-.2-7.326Z" transform="translate(-209.092 -279.237)" fill="#012e38"/>
    <path id="Path_41398" data-name="Path 41398" d="M640.069,8232.3v7.507h6.5s.543-.815,0-1.3-2.838-2.149-2.859-2.963.063-3.248.063-3.248Z" transform="translate(-239.081 -279.241)" fill="#012e38"/>
    <path id="Path_41399" data-name="Path 41399" d="M512.456,8024.347s1.79,1.119,2.685,1.566c0,0,1.065,1.509.505,1.247s-1.7-1.322-2.034-.725,1.886,2.457,3.352,2.644,1.942-.518,2.948-1.226c.9-1.521-.633-4.885-2.423-5.668S510.964,8019.574,512.456,8024.347Z" transform="translate(-172.487 -169.319)" fill="#f1c195"/>
    <path id="Path_41400" data-name="Path 41400" d="M491.973,7937.566s.758,2.527,2.359,3.328,1.9.927,1.011,1.6-3.328,5.308-3.159,11.2l-6.336-2.084s-1.669-7.978.664-9.516S491.753,7939.1,491.973,7937.566Z" transform="translate(-158.48 -125.784)" fill="#f1c195"/>
    <path id="Path_41401" data-name="Path 41401" d="M487.825,7936.508s3.218,3.793,2.5,6.963-5.351,2.723-6.355.5-3.437-8.143-4.389-8.513c0,0-1.557.463-.711,2.389s3.049,1.283,3.049,1.283a2.652,2.652,0,0,1-.044,2.509c-.758,1.2-3.529,3.267-5.717.437s-5-6.66-4.675-8.354,1.091-1.811,1.091-1.811a2.386,2.386,0,0,1,.534-2.23c.922-.879,4.854-4.488,7.262-4.729s4.444,1.313,4.773,2.934a4.816,4.816,0,0,1-1.469,4.633,19.678,19.678,0,0,1-3.1,2.057s4.267,4.9,4.536,5.555C485.112,7940.133,485.925,7936.822,487.825,7936.508Z" transform="translate(-151.287 -119.203)" fill="#012e38"/>
    <path id="Path_41402" data-name="Path 41402" d="M475.838,7966.875s-8.764,3.754-9.679,10.489,3.991,23.116,5.239,26.858h15.668s2.844-9.156,2.844-10.833c0,0,2.406,6.854,6.2,5.541s1.24-10.062-2.552-19.322S485.464,7969.234,475.838,7966.875Z" transform="translate(-148.472 -141.044)" fill="#525862"/>
    <path id="Path_41403" data-name="Path 41403" d="M506.252,7996.945s4.486,11.973,4.723,12.388L508,8019.879s-.142-8.848-1.24-10.918.8-3.374.558-5.209S506.785,7998.069,506.252,7996.945Z" transform="translate(-169.406 -156.701)" fill="#434951"/>
    <path id="Path_41404" data-name="Path 41404" d="M490.016,8044.791s2.319,7.355,2.466,10.363,2.927,78.792,2.927,78.792h-6.441l-5.709-60.3-6,60.3h-5.27s1.464-71.274,1.024-72.928-1.756-6.616-1.024-8.721,2.5-7.506,2.5-7.506Z" transform="translate(-151.452 -181.612)" fill="#012e38"/>
    <path id="Path_41405" data-name="Path 41405" d="M480.224,8062.865s2.151,6.109,3.923,6.629,2.055.215,2.784,6.891,6.438,66.973,6.438,66.973" transform="translate(-155.853 -191.023)" fill="none" stroke="#011e22" stroke-miterlimit="10" stroke-width="0.894"/>
    <path id="Path_41406" data-name="Path 41406" d="M514.8,8231.86v2.981l9.325,3.524s1.143.949-.44,1.13-12.932,0-12.932,0,.024-6.968.2-7.525Z" transform="translate(-171.749 -279.015)" fill="#012e38"/>
    <path id="Path_41407" data-name="Path 41407" d="M474.558,8231.869v7.712h-6.505s-.543-.839,0-1.331,2.838-2.208,2.859-3.045-.062-3.336-.062-3.336Z" transform="translate(-149.391 -279.019)" fill="#012e38"/>
    <path id="Path_41408" data-name="Path 41408" d="M367.345,8169.158,361.8,8198.7l2.775.512,8.653-30.055Z" transform="translate(-94.191 -246.367)" fill="#f1c195"/>
    <path id="Path_41409" data-name="Path 41409" d="M390.146,8169.158l-4.936,33.353-3.083.561,1.683-33.913Z" transform="translate(-104.776 -246.367)" fill="#f1c195"/>
    <path id="Path_41410" data-name="Path 41410" d="M381.7,8240.484s-.873,3.407,0,3.62,9.747,0,9.747,0-5.868-4.225-6.629-4.2A29.762,29.762,0,0,0,381.7,8240.484Z" transform="translate(-104.355 -283.205)" fill="#012e38"/>
    <path id="Path_41411" data-name="Path 41411" d="M359.616,8231.86s-2.244,2.319-1.985,3.01a54.473,54.473,0,0,0,3.975,4.839s4.294.475,3.724,0-3.155-2.406-3.119-3.451.129-3.764.129-3.764Z" transform="translate(-92.012 -279.015)" fill="#012e38"/>
    <path id="Path_41412" data-name="Path 41412" d="M423.945,7955.192c1.27-1.359,2.233-3.029,3.2-3.422s3.864.713,2.592.962l-1.2.25.325,3.986a17.009,17.009,0,0,1-3.5,1.181c-.82,0-7.154,5.506-12.658,7.17s-17.365,5.632-17.365,5.632l-4.013-5.313s13.25-2.687,15.49-3.71S420.749,7958.614,423.945,7955.192Z" transform="translate(-109.566 -133.136)" fill="#f1c195"/>
    <path id="Path_41413" data-name="Path 41413" d="M383.176,7942.888s2.568,2.934,2.714,4.475l1.525.619s.4.293,0,.476a8,8,0,0,0-1.135.77s.915,2.819.44,3.808a4.063,4.063,0,0,1-3.771,1.9s.586,5.639.293,6.554-5.675-1.392-5.712-2.526a11.921,11.921,0,0,1,.769-3.259s-3.3-6.962-2.313-8.235S383.176,7942.888,383.176,7942.888Z" transform="translate(-101.482 -128.554)" fill="#f1c195"/>
    <path id="Path_41414" data-name="Path 41414" d="M362.92,7929.769c1.913-.807,3.85-.956,5.517,1.007,2.084,2.454.139,5.324-2.8,7.314s-3.356,2.917-2.523,4.352,2.269,1.759,2.408.741c0,0,1.528,3.333-.463,4.445s-9.817,3.859-12.69-4.951c0,0-6.778.423-5.926-5.235s7.267-3.288,7.618-2.106a20.017,20.017,0,0,1,3.816-2.778C359.377,7931.842,361.138,7930.52,362.92,7929.769Z" transform="translate(-86.157 -121.431)" fill="#381508"/>
    <path id="Path_41415" data-name="Path 41415" d="M359.805,7941.054s.544,5.182-1.69,7.543c0,0-.291.4.334.248.605-.252,2.9-4.4,1.76-7.425Z" transform="translate(-92.239 -127.599)" fill="#fff"/>
    <path id="Path_41416" data-name="Path 41416" d="M374.4,7976.431s-5.848,1.973-4.368,12.987,3.834,10.261,1.387,21.085h11.39s7.248-20.991.471-28.051l-3.105-3.93S375.784,7978.5,374.4,7976.431Z" transform="translate(-98.356 -146.019)" fill="#4f5660"/>
    <path id="Path_41417" data-name="Path 41417" d="M373.707,7987.358s2.47,15.356,4.807,19.1,2,5.074,6.009,2.136,12.685-10.749,12.685-10.749,1.237-.363,1.237-1.11.4-4.09,0-4.662c0,0,.44-1.144-.44-1.012a4.933,4.933,0,0,0-3.838,3.845c-.823,2.946-4.317,3.874-4.317,3.874l-6.029,2.4s-2.878-10.115-2.878-12.033-1.1-7.537-4.453-6.167A4.043,4.043,0,0,0,373.707,7987.358Z" transform="translate(-100.374 -149.317)" fill="#f1c195"/>
    <path id="Path_41418" data-name="Path 41418" d="M363.666,8047.515s-2.71,7.345-2.4,11.835-.626,10.025-1.148,13.471-5.221,32.372-5.221,32.372,26.941,5.639,32.267.522c0,0-7.474-53.678-12.111-58.2Z" transform="translate(-90.6 -183.031)" fill="#012e38"/>
    <path id="Path_41419" data-name="Path 41419" d="M369.037,8057.394s-4.2,48.279-7.242,51.587" transform="translate(-94.191 -188.174)" fill="none" stroke="#fff" stroke-miterlimit="10" stroke-width="0.447" opacity="0.6"/>
    <path id="Path_41420" data-name="Path 41420" d="M383.288,8057.394s3.219,21.815-1.162,52.928" transform="translate(-104.776 -188.174)" fill="none" stroke="#fff" stroke-miterlimit="10" stroke-width="0.447" opacity="0.6"/>
    <path id="Path_41421" data-name="Path 41421" d="M390.751,8055.916s8.688,41.214,7.691,52.3" transform="translate(-109.267 -187.405)" fill="none" stroke="#fff" stroke-miterlimit="10" stroke-width="0.447" opacity="0.6"/>
    <line id="Line_333" data-name="Line 333" x1="11.884" y1="6.407" transform="translate(417.649 7725.102)" fill="none" stroke="#613588" stroke-miterlimit="10" stroke-width="0.894"/>
    <path id="Path_41422" data-name="Path 41422" d="M674.713,7755.287a1.324,1.324,0,1,1-1.324-1.324A1.324,1.324,0,0,1,674.713,7755.287Z" transform="translate(-255.74 -30.186)" fill="#613588"/>
    <line id="Line_334" data-name="Line 334" y2="9.502" transform="translate(417.544 7716.617)" fill="none" stroke="#613588" stroke-miterlimit="10" stroke-width="0.894"/>
    <path id="Path_41423" data-name="Path 41423" d="M627.833,7821.225l45.916-6.041v30.647l-45.916,5.932Z" transform="translate(-232.71 -62.062)" fill="#f7b709"/>
    <path id="Path_41424" data-name="Path 41424" d="M670.239,7831.705v17.4l-42.323,5.259.08-16.992Z" transform="translate(-232.753 -70.664)" fill="#383838"/>
    <path id="Path_41425" data-name="Path 41425" d="M617.908,7834.176l45.217-5.719v17.682l-45.217,5.669Z" transform="translate(-227.542 -68.973)" fill="#fff"/>
    <line id="Line_335" data-name="Line 335" y1="2.698" x2="20.958" transform="translate(411.237 7764.146)" fill="none" stroke="#9ba5a7" stroke-linecap="round" stroke-miterlimit="10" stroke-width="0.67"/>
    <line id="Line_336" data-name="Line 336" y1="3.687" x2="28.648" transform="translate(403.546 7766.458)" fill="none" stroke="#d3d5d8" stroke-linecap="round" stroke-miterlimit="10" stroke-width="0.67"/>
    <line id="Line_337" data-name="Line 337" y1="3.687" x2="28.648" transform="translate(403.546 7768.623)" fill="none" stroke="#d3d5d8" stroke-linecap="round" stroke-miterlimit="10" stroke-width="0.67"/>
    <line id="Line_338" data-name="Line 338" y1="3.687" x2="28.648" transform="translate(403.546 7770.788)" fill="none" stroke="#d3d5d8" stroke-linecap="round" stroke-miterlimit="10" stroke-width="0.67"/>
    <line id="Line_339" data-name="Line 339" y1="3.687" x2="28.648" transform="translate(403.546 7772.953)" fill="none" stroke="#d3d5d8" stroke-linecap="round" stroke-miterlimit="10" stroke-width="0.67"/>
    <g id="Group_19177" data-name="Group 19177" transform="translate(393.082 7767.922)">
      <path id="Path_41426" data-name="Path 41426" d="M625.667,7846.061a1.087,1.087,0,0,1,.771.669,3.146,3.146,0,0,1,.368,1.256.941.941,0,0,1-.434.85,4.492,4.492,0,0,1-.489.3.529.529,0,0,0-.294.547,2.551,2.551,0,0,0,.22.9,11.177,11.177,0,0,0,1.514,2.666,1.847,1.847,0,0,0,.537.487.482.482,0,0,0,.536-.015,4.85,4.85,0,0,1,.571-.307.807.807,0,0,1,.828.055,2.807,2.807,0,0,1,1.074,1.414c.02.06.029.124.044.185l-.02.288a2.018,2.018,0,0,1-.27.431,3.534,3.534,0,0,1-1.352.8h-.291a.134.134,0,0,0-.035-.017,2.437,2.437,0,0,1-.8-.262,6.2,6.2,0,0,1-1.82-1.462,11.513,11.513,0,0,1-2.345-4.119,7.66,7.66,0,0,1-.383-1.907c-.009-.145-.018-.291-.026-.436l.037-.535c.047-.184.083-.37.141-.552a1.035,1.035,0,0,1,.419-.606,3.842,3.842,0,0,1,1.288-.629Z" transform="translate(-623.574 -7846.06)" fill="#f7b709"/>
    </g>
  </g>
</svg>
