<svg xmlns="http://www.w3.org/2000/svg" width="133.903" height="107.069" viewBox="0 0 133.903 107.069">
  <g id="Group_26283" data-name="Group 26283" transform="translate(-1068.59 -868.232)">
    <g id="Group_26238" data-name="Group 26238" transform="matrix(0.951, -0.309, 0.309, 0.951, 1068.59, 889.039)">
      <g id="Group_26232" data-name="Group 26232" transform="translate(0 0)">
        <g id="Group_26173" data-name="Group 26173" transform="translate(0.286 0.634)">
          <g id="Group_26172" data-name="Group 26172">
            <path id="Rectangle_1872" data-name="Rectangle 1872" d="M0,0H58.242A10.758,10.758,0,0,1,69,10.758V69.728A10.758,10.758,0,0,1,58.242,80.486H0a0,0,0,0,1,0,0V0A0,0,0,0,1,0,0Z" fill="#4e5050"/>
          </g>
        </g>
        <g id="Group_26174" data-name="Group 26174" transform="translate(30.487 3.127)">
          <rect id="Rectangle_1873" data-name="Rectangle 1873" width="36.887" height="77.993" fill="#e0e0e0"/>
        </g>
        <g id="Group_26175" data-name="Group 26175" transform="translate(0 0)">
          <path id="Rectangle_1874" data-name="Rectangle 1874" d="M0,0H53.544A10.758,10.758,0,0,1,64.3,10.758v59.6A10.758,10.758,0,0,1,53.544,81.12H0a0,0,0,0,1,0,0V0A0,0,0,0,1,0,0Z" fill="#bfc3c4"/>
        </g>
        <g id="Group_26177" data-name="Group 26177" transform="translate(6.547 0)">
          <g id="Group_26176" data-name="Group 26176">
            <path id="Path_44324" data-name="Path 44324" d="M.061,79.081C.027,79.081,0,61.376,0,39.542S.027,0,.061,0,.122,17.7.122,39.542.095,79.081.061,79.081Z" fill="#263238"/>
          </g>
        </g>
        <g id="Group_26179" data-name="Group 26179" transform="translate(8.285 0)">
          <g id="Group_26178" data-name="Group 26178">
            <path id="Path_44325" data-name="Path 44325" d="M.061,79.081C.027,79.081,0,61.376,0,39.542S.027,0,.061,0,.122,17.7.122,39.542.095,79.081.061,79.081Z" fill="#263238"/>
          </g>
        </g>
        <g id="Group_26180" data-name="Group 26180" transform="translate(6.608 0)" opacity="0.3">
          <rect id="Rectangle_1875" data-name="Rectangle 1875" width="1.737" height="79.081"/>
        </g>
        <g id="Group_26181" data-name="Group 26181" transform="translate(44.867 0)">
          <path id="Path_44326" data-name="Path 44326" d="M0,10.608V0H10.215V10.8L5.206,15.814Z" fill="#015579"/>
        </g>
        <g id="Group_26183" data-name="Group 26183" transform="translate(65.161 3.671)">
          <g id="Group_26182" data-name="Group 26182">
            <path id="Path_44327" data-name="Path 44327" d="M.061,0C.095,0,.122,17.339.122,38.723S.095,77.449.061,77.449,0,60.114,0,38.723.027,0,.061,0Z" fill="#263238"/>
          </g>
        </g>
        <g id="Group_26185" data-name="Group 26185" transform="translate(66.207 3.671)">
          <g id="Group_26184" data-name="Group 26184">
            <path id="Path_44328" data-name="Path 44328" d="M.061,0C.095,0,.122,17.339.122,38.723S.095,77.449.061,77.449,0,60.114,0,38.723.027,0,.061,0Z" fill="#263238"/>
          </g>
        </g>
        <g id="Group_26186" data-name="Group 26186" transform="translate(65.222 16.392)">
          <path id="Path_44329" data-name="Path 44329" d="M0,0H2.56L4.9,1.773,2.8,3.87H0Z" fill="#455a64"/>
        </g>
        <g id="Group_26187" data-name="Group 26187" transform="translate(66.268 23.989)">
          <rect id="Rectangle_1876" data-name="Rectangle 1876" width="4.832" height="3.218" fill="#f7b709"/>
        </g>
        <g id="Group_26227" data-name="Group 26227" transform="translate(22.805 41.306)">
          <g id="Group_26189" data-name="Group 26189" transform="translate(0.697 0.252)" opacity="0.3">
            <g id="Group_26188" data-name="Group 26188">
              <path id="Path_44330" data-name="Path 44330" d="M24.074,20.676,21.187,23.49a.764.764,0,0,1-1.062,0L.236,4.465a.764.764,0,0,1-.024-1.08L3.225.236A.764.764,0,0,1,4.312.219L24.075,19.583A.765.765,0,0,1,24.074,20.676Z"/>
            </g>
          </g>
          <g id="Group_26192" data-name="Group 26192" transform="translate(4.566 1.751)">
            <g id="Group_26191" data-name="Group 26191">
              <g id="Group_26190" data-name="Group 26190">
                <path id="Path_44331" data-name="Path 44331" d="M1.687,0a6.257,6.257,0,0,1-.8.918A6.19,6.19,0,0,1,0,1.754,6.251,6.251,0,0,1,.8.836,6.194,6.194,0,0,1,1.687,0Z" fill="#263238"/>
              </g>
            </g>
          </g>
          <g id="Group_26195" data-name="Group 26195" transform="translate(7.727 4.796)">
            <g id="Group_26194" data-name="Group 26194">
              <g id="Group_26193" data-name="Group 26193">
                <path id="Path_44332" data-name="Path 44332" d="M1.687,0a6.234,6.234,0,0,1-.8.918A6.2,6.2,0,0,1,0,1.754,6.257,6.257,0,0,1,.8.836,6.215,6.215,0,0,1,1.687,0Z" fill="#263238"/>
              </g>
            </g>
          </g>
          <g id="Group_26198" data-name="Group 26198" transform="translate(5.492 3.144)">
            <g id="Group_26197" data-name="Group 26197">
              <g id="Group_26196" data-name="Group 26196">
                <path id="Path_44333" data-name="Path 44333" d="M2.27,0a11.1,11.1,0,0,1-1.091,1.21A11.108,11.108,0,0,1,0,2.337a11.094,11.094,0,0,1,1.092-1.21A11.091,11.091,0,0,1,2.27,0Z" fill="#263238"/>
              </g>
            </g>
          </g>
          <g id="Group_26201" data-name="Group 26201" transform="translate(8.741 6.393)">
            <g id="Group_26200" data-name="Group 26200">
              <g id="Group_26199" data-name="Group 26199">
                <path id="Path_44334" data-name="Path 44334" d="M2.27,0a11.1,11.1,0,0,1-1.091,1.21A11.137,11.137,0,0,1,0,2.337a11.1,11.1,0,0,1,1.091-1.21A11.091,11.091,0,0,1,2.27,0Z" fill="#263238"/>
              </g>
            </g>
          </g>
          <g id="Group_26204" data-name="Group 26204" transform="translate(10.817 7.886)">
            <g id="Group_26203" data-name="Group 26203">
              <g id="Group_26202" data-name="Group 26202">
                <path id="Path_44335" data-name="Path 44335" d="M1.687,0a6.236,6.236,0,0,1-.8.918A6.223,6.223,0,0,1,0,1.754,6.214,6.214,0,0,1,.8.836,6.194,6.194,0,0,1,1.687,0Z" fill="#263238"/>
              </g>
            </g>
          </g>
          <g id="Group_26207" data-name="Group 26207" transform="translate(11.832 9.484)">
            <g id="Group_26206" data-name="Group 26206">
              <g id="Group_26205" data-name="Group 26205">
                <path id="Path_44336" data-name="Path 44336" d="M2.27,0a11.1,11.1,0,0,1-1.091,1.21A11.1,11.1,0,0,1,0,2.337a11.162,11.162,0,0,1,1.091-1.21A11.1,11.1,0,0,1,2.27,0Z" fill="#263238"/>
              </g>
            </g>
          </g>
          <g id="Group_26210" data-name="Group 26210" transform="translate(13.908 10.977)">
            <g id="Group_26209" data-name="Group 26209">
              <g id="Group_26208" data-name="Group 26208">
                <path id="Path_44337" data-name="Path 44337" d="M1.687,0a6.239,6.239,0,0,1-.8.918A6.209,6.209,0,0,1,0,1.754,6.2,6.2,0,0,1,.8.836,6.186,6.186,0,0,1,1.687,0Z" fill="#263238"/>
              </g>
            </g>
          </g>
          <g id="Group_26213" data-name="Group 26213" transform="translate(14.922 12.574)">
            <g id="Group_26212" data-name="Group 26212">
              <g id="Group_26211" data-name="Group 26211">
                <path id="Path_44338" data-name="Path 44338" d="M2.27,0a11.073,11.073,0,0,1-1.091,1.21A11.044,11.044,0,0,1,0,2.337a11.1,11.1,0,0,1,1.091-1.21A11.151,11.151,0,0,1,2.27,0Z" fill="#263238"/>
              </g>
            </g>
          </g>
          <g id="Group_26216" data-name="Group 26216" transform="translate(16.999 14.068)">
            <g id="Group_26215" data-name="Group 26215">
              <g id="Group_26214" data-name="Group 26214">
                <path id="Path_44339" data-name="Path 44339" d="M1.687,0a6.213,6.213,0,0,1-.8.918A6.216,6.216,0,0,1,0,1.754,6.225,6.225,0,0,1,.8.836,6.217,6.217,0,0,1,1.687,0Z" fill="#263238"/>
              </g>
            </g>
          </g>
          <g id="Group_26219" data-name="Group 26219" transform="translate(18.013 15.665)">
            <g id="Group_26218" data-name="Group 26218">
              <g id="Group_26217" data-name="Group 26217">
                <path id="Path_44340" data-name="Path 44340" d="M2.27,0a11.11,11.11,0,0,1-1.091,1.21A11.134,11.134,0,0,1,0,2.337a11.082,11.082,0,0,1,1.091-1.21A11.1,11.1,0,0,1,2.27,0Z" fill="#263238"/>
              </g>
            </g>
          </g>
          <g id="Group_26222" data-name="Group 26222" transform="translate(20.089 17.158)">
            <g id="Group_26221" data-name="Group 26221">
              <g id="Group_26220" data-name="Group 26220">
                <path id="Path_44341" data-name="Path 44341" d="M1.687,0a6.224,6.224,0,0,1-.8.918A6.194,6.194,0,0,1,0,1.754,6.224,6.224,0,0,1,.8.836,6.2,6.2,0,0,1,1.687,0Z" fill="#263238"/>
              </g>
            </g>
          </g>
          <g id="Group_26224" data-name="Group 26224" transform="translate(14.274 0)" opacity="0.3">
            <g id="Group_26223" data-name="Group 26223">
              <path id="Path_44342" data-name="Path 44342" d="M0,8.226l2.785,2.61L4.664,8.994s3.012.926,4.947-1.2a6.068,6.068,0,0,0,1.235-4.749L7.605,5.9,4.861,3.16l2.893-3A4.973,4.973,0,0,0,2.708,1.764a4.924,4.924,0,0,0-.843,4.565Z"/>
            </g>
          </g>
          <g id="Group_26226" data-name="Group 26226" transform="translate(0 13.239)" opacity="0.3">
            <g id="Group_26225" data-name="Group 26225">
              <path id="Path_44343" data-name="Path 44343" d="M10.818,2.6C10.749,2.482,8.037,0,8.037,0L6.276,1.726s-3.31-.658-4.947,1.2A5.805,5.805,0,0,0,.094,7.677l3.241-2.86L6.078,7.561l-2.893,3a4.974,4.974,0,0,0,5.047-1.6,4.924,4.924,0,0,0,.843-4.565Z"/>
            </g>
          </g>
        </g>
        <g id="Group_26229" data-name="Group 26229" transform="translate(17.298 70.155)">
          <g id="Group_26228" data-name="Group 26228">
            <path id="Path_44344" data-name="Path 44344" d="M39.22.052C39.22.081,30.44.1,19.611.1S0,.08,0,.052,8.778,0,19.611,0,39.22.023,39.22.052Z" fill="#fff"/>
          </g>
        </g>
        <g id="Group_26231" data-name="Group 26231" transform="translate(24.183 71.746)">
          <g id="Group_26230" data-name="Group 26230">
            <path id="Path_44345" data-name="Path 44345" d="M25.791.052c0,.029-5.774.052-12.9.052S0,.081,0,.052,5.773,0,12.9,0,25.791.023,25.791.052Z" fill="#fff"/>
          </g>
        </g>
      </g>
      <path id="Path_44346" data-name="Path 44346" d="M1.667,2.064A.361.361,0,0,0,1.6,2.3a.486.486,0,0,0,.063.258.274.274,0,0,0,.293.18.345.345,0,0,0,.252-.077.65.65,0,0,0,.1-.412.394.394,0,0,0-.062-.206.4.4,0,0,0-.167-.155.32.32,0,0,0-.293.026C1.737,1.909,1.7,1.961,1.667,2.064ZM1.395.107a.25.25,0,0,0-.021.257,1.9,1.9,0,0,0,.22.271,3.2,3.2,0,0,1,.22.244V.906a.789.789,0,0,0-.461.193A2.475,2.475,0,0,0,1,1.5,1.118,1.118,0,0,1,.62,1.266a.871.871,0,0,1-.168-.1.117.117,0,0,0-.147,0l-.094.116a.259.259,0,0,0-.052.167.816.816,0,0,0,.125.206A.113.113,0,0,0,.368,1.7c.014,0,.035.017.063.052a1.622,1.622,0,0,1,.2.116,1.612,1.612,0,0,0,.2.116c0,.052-.011.069-.032.052S.766,2.03.766,2.064A.2.2,0,0,0,.6,2.038a.2.2,0,0,1-.167-.026c-.028.069-.042.069-.042,0a.177.177,0,0,1-.157.026c-.049-.017-.1.009-.157.077a.245.245,0,0,0-.042.309.216.216,0,0,0,.1.1A.5.5,0,0,1,.264,2.6a.512.512,0,0,1,.272-.026.5.5,0,0,0,.272-.026.271.271,0,0,1,.021.1.663.663,0,0,1-.147.09l-.188.09c-.07.035-.136.069-.2.1a.315.315,0,0,0-.136.206A.364.364,0,0,0,.2,3.377a.173.173,0,0,0,.209.052,1.342,1.342,0,0,0,.314-.142,1.384,1.384,0,0,1,.314-.142,1.15,1.15,0,0,0,.858.54,1.059,1.059,0,0,0,.649-.219,1.326,1.326,0,0,0,.44-.579.269.269,0,0,0,.084-.013.1.1,0,0,1,.084.013L3.2,2.862h.964q.608-.025,1.246-.013t1.246.013c.127-.008.251-.012.374-.014V1.755H6.777q-.754,0-1.5.025T3.74,1.806a1.356,1.356,0,0,1-.262-.026.383.383,0,0,0-.241.026A.146.146,0,0,0,3.1,1.78a.071.071,0,0,1-.094-.025,1.371,1.371,0,0,0-.324-.5A2.881,2.881,0,0,1,2.3.777,1.68,1.68,0,0,0,2.054.494,2.827,2.827,0,0,1,1.813.236.512.512,0,0,1,1.74.107.176.176,0,0,0,1.646,0,.234.234,0,0,0,1.395.107Zm.838,1.364a.693.693,0,0,1,.293.283.977.977,0,0,1,.147.412.877.877,0,0,1-.335.875.52.52,0,0,1-.356.154A.9.9,0,0,1,1.6,3.119a.916.916,0,0,1-.377-.978A1.672,1.672,0,0,1,1.3,1.832a.555.555,0,0,1,.178-.257.872.872,0,0,1,.367-.167A.568.568,0,0,1,2.232,1.472Z" transform="translate(11.437 22.224)" fill="#fff"/>
      <rect id="Rectangle_1877" data-name="Rectangle 1877" width="2.226" height="1.303" transform="translate(14.271 23.873)" fill="#fff"/>
      <rect id="Rectangle_1878" data-name="Rectangle 1878" width="2.226" height="1.303" transform="translate(23.553 23.873)" fill="#fff"/>
      <g id="Group_26233" data-name="Group 26233" transform="translate(16.136 20.461)">
        <path id="Path_44347" data-name="Path 44347" d="M8.4,5.551a6.7,6.7,0,0,1-.141,1.481A3.448,3.448,0,0,1,7.215,8.767,4.37,4.37,0,0,1,4.084,9.874,4.2,4.2,0,0,1,.966,8.745,3.089,3.089,0,0,1,.155,7.257,7.47,7.47,0,0,1,0,5.551V0H2.5V5.207q0,.627.021.937a1.516,1.516,0,0,0,.9,1.367,1.711,1.711,0,0,0,.748.162,1.6,1.6,0,0,0,1.382-.642A3.335,3.335,0,0,0,5.9,5.207V0H8.4Z" fill="#fff"/>
      </g>
      <rect id="Rectangle_1879" data-name="Rectangle 1879" width="4.297" height="1.986" transform="translate(15.114 19.564)" fill="#fff"/>
      <rect id="Rectangle_1880" data-name="Rectangle 1880" width="4.297" height="1.986" transform="translate(21.036 19.564)" fill="#fff"/>
      <g id="Group_26234" data-name="Group 26234" transform="translate(25.234 19.408)">
        <path id="Path_44348" data-name="Path 44348" d="M7.911,10.321a6.666,6.666,0,0,1-2.44.523,5.419,5.419,0,0,1-3.5-1.25A5.113,5.113,0,0,1,0,5.426,5.121,5.121,0,0,1,1.97,1.25,5.451,5.451,0,0,1,5.494,0,6.741,6.741,0,0,1,7.911.523V3.744a3.041,3.041,0,0,0-.774-.7,2.945,2.945,0,0,0-1.548-.435,2.8,2.8,0,0,0-1.821.631,2.67,2.67,0,0,0-.979,2.188,2.661,2.661,0,0,0,.979,2.181,2.8,2.8,0,0,0,1.821.631A2.949,2.949,0,0,0,7.137,7.8a3.031,3.031,0,0,0,.774-.7Z" fill="#fff"/>
        <path id="Path_44349" data-name="Path 44349" d="M10.806,10.344H7.934l-.667-1.8H3.554l-.712,1.8H0L3.979,0H6.911ZM6.54,6.495,5.426,3.2,4.3,6.495Z" transform="translate(8.639 0.22)" fill="#fff"/>
        <path id="Path_44350" data-name="Path 44350" d="M10.329,10.344H7.639L2.69,4.009v6.335H0V0H2.69L7.639,6.328V0h2.69Z" transform="translate(20.635 0.22)" fill="#fff"/>
      </g>
      <path id="Path_44351" data-name="Path 44351" d="M0,.692a.692.692,0,1,1,.692.692A.692.692,0,0,1,0,.692Z" transform="translate(28.629 23.873)" fill="#fff"/>
      <path id="Path_44352" data-name="Path 44352" d="M0,.692a.692.692,0,1,1,.692.692A.692.692,0,0,1,0,.692Z" transform="translate(31.397 23.873)" fill="#fff"/>
    </g>
    <g id="Group_26239" data-name="Group 26239" transform="translate(1135.408 874.512) rotate(13)">
      <g id="Group_26232-2" data-name="Group 26232" transform="translate(1.11 6.067)">
        <g id="Group_26173-2" data-name="Group 26173" transform="translate(0.286 0.634)">
          <g id="Group_26172-2" data-name="Group 26172">
            <path id="Rectangle_1872-2" data-name="Rectangle 1872" d="M0,0H58.242A10.758,10.758,0,0,1,69,10.758V69.728A10.758,10.758,0,0,1,58.242,80.486H0a0,0,0,0,1,0,0V0A0,0,0,0,1,0,0Z" fill="#03445b"/>
          </g>
        </g>
        <g id="Group_26174-2" data-name="Group 26174" transform="translate(30.487 3.127)">
          <rect id="Rectangle_1873-2" data-name="Rectangle 1873" width="36.887" height="77.993" fill="#e0e0e0"/>
        </g>
        <g id="Group_26175-2" data-name="Group 26175" transform="translate(0 0)">
          <path id="Rectangle_1874-2" data-name="Rectangle 1874" d="M0,0H53.544A10.758,10.758,0,0,1,64.3,10.758v59.6A10.758,10.758,0,0,1,53.544,81.12H0a0,0,0,0,1,0,0V0A0,0,0,0,1,0,0Z" fill="#015579"/>
        </g>
        <g id="Group_26177-2" data-name="Group 26177" transform="translate(6.547 0)">
          <g id="Group_26176-2" data-name="Group 26176">
            <path id="Path_44324-2" data-name="Path 44324" d="M955.223-2531.031c-.034,0-.061-17.7-.061-39.538s.027-39.542.061-39.542.061,17.7.061,39.542S955.257-2531.031,955.223-2531.031Z" transform="translate(-955.162 2610.111)" fill="#263238"/>
          </g>
        </g>
        <g id="Group_26179-2" data-name="Group 26179" transform="translate(8.285 0)">
          <g id="Group_26178-2" data-name="Group 26178">
            <path id="Path_44325-2" data-name="Path 44325" d="M963.864-2531.031c-.034,0-.061-17.7-.061-39.538s.027-39.542.061-39.542.061,17.7.061,39.542S963.9-2531.031,963.864-2531.031Z" transform="translate(-963.803 2610.111)" fill="#263238"/>
          </g>
        </g>
        <g id="Group_26180-2" data-name="Group 26180" transform="translate(6.608 0)" opacity="0.3">
          <rect id="Rectangle_1875-2" data-name="Rectangle 1875" width="1.737" height="79.08"/>
        </g>
        <g id="Group_26181-2" data-name="Group 26181" transform="translate(44.867 0)">
          <path id="Path_44326-2" data-name="Path 44326" d="M1145.762-2599.5v-10.608h10.215v10.8l-5.009,5.01Z" transform="translate(-1145.762 2610.111)" fill="#f7b709"/>
        </g>
        <g id="Group_26183-2" data-name="Group 26183" transform="translate(65.161 3.671)">
          <g id="Group_26182-2" data-name="Group 26182">
            <path id="Path_44327-2" data-name="Path 44327" d="M1246.765-2591.851c.034,0,.061,17.339.061,38.723s-.027,38.726-.061,38.726-.061-17.335-.061-38.726S1246.731-2591.851,1246.765-2591.851Z" transform="translate(-1246.704 2591.851)" fill="#263238"/>
          </g>
        </g>
        <g id="Group_26185-2" data-name="Group 26185" transform="translate(66.207 3.671)">
          <g id="Group_26184-2" data-name="Group 26184">
            <path id="Path_44328-2" data-name="Path 44328" d="M1251.965-2591.851c.034,0,.061,17.339.061,38.723s-.027,38.726-.061,38.726-.061-17.335-.061-38.726S1251.931-2591.851,1251.965-2591.851Z" transform="translate(-1251.904 2591.851)" fill="#263238"/>
          </g>
        </g>
        <g id="Group_26186-2" data-name="Group 26186" transform="translate(65.222 16.392)">
          <path id="Path_44329-2" data-name="Path 44329" d="M1247.007-2528.578h2.559l2.338,1.773-2.1,2.1h-2.8Z" transform="translate(-1247.007 2528.578)" fill="#455a64"/>
        </g>
        <g id="Group_26187-2" data-name="Group 26187" transform="translate(66.268 23.989)">
          <rect id="Rectangle_1876-2" data-name="Rectangle 1876" width="4.832" height="3.218" fill="#f7b709"/>
        </g>
        <g id="Group_26227-2" data-name="Group 26227" transform="translate(22.805 41.306)">
          <g id="Group_26189-2" data-name="Group 26189" transform="translate(0.697 0.252)" opacity="0.3">
            <g id="Group_26188-2" data-name="Group 26188">
              <path id="Path_44330-2" data-name="Path 44330" d="M1063.568-2382.727l-2.887,2.814a.764.764,0,0,1-1.062.005l-19.89-19.03a.764.764,0,0,1-.024-1.081l3.013-3.149a.764.764,0,0,1,1.087-.018l19.764,19.365A.765.765,0,0,1,1063.568-2382.727Z" transform="translate(-1039.494 2403.403)"/>
            </g>
          </g>
          <g id="Group_26192-2" data-name="Group 26192" transform="translate(4.566 1.751)">
            <g id="Group_26191-2" data-name="Group 26191">
              <g id="Group_26190-2" data-name="Group 26190">
                <path id="Path_44331-2" data-name="Path 44331" d="M1060.425-2395.946a6.253,6.253,0,0,1-.8.918,6.2,6.2,0,0,1-.886.835,6.258,6.258,0,0,1,.8-.918A6.169,6.169,0,0,1,1060.425-2395.946Z" transform="translate(-1058.737 2395.947)" fill="#263238"/>
              </g>
            </g>
          </g>
          <g id="Group_26195-2" data-name="Group 26195" transform="translate(7.727 4.796)">
            <g id="Group_26194-2" data-name="Group 26194">
              <g id="Group_26193-2" data-name="Group 26193">
                <path id="Path_44332-2" data-name="Path 44332" d="M1076.148-2380.8a6.233,6.233,0,0,1-.8.918,6.207,6.207,0,0,1-.886.835,6.276,6.276,0,0,1,.8-.918A6.219,6.219,0,0,1,1076.148-2380.8Z" transform="translate(-1074.46 2380.802)" fill="#263238"/>
              </g>
            </g>
          </g>
          <g id="Group_26198-2" data-name="Group 26198" transform="translate(5.492 3.144)">
            <g id="Group_26197-2" data-name="Group 26197">
              <g id="Group_26196-2" data-name="Group 26196">
                <path id="Path_44333-2" data-name="Path 44333" d="M1065.618-2389.015a11.072,11.072,0,0,1-1.091,1.21,11.125,11.125,0,0,1-1.177,1.126,11.077,11.077,0,0,1,1.091-1.21A11.151,11.151,0,0,1,1065.618-2389.015Z" transform="translate(-1063.348 2389.016)" fill="#263238"/>
              </g>
            </g>
          </g>
          <g id="Group_26201-2" data-name="Group 26201" transform="translate(8.741 6.393)">
            <g id="Group_26200-2" data-name="Group 26200">
              <g id="Group_26199-2" data-name="Group 26199">
                <path id="Path_44334-2" data-name="Path 44334" d="M1081.776-2372.857a11.11,11.11,0,0,1-1.091,1.21,11.161,11.161,0,0,1-1.177,1.127,11.053,11.053,0,0,1,1.091-1.21A11.069,11.069,0,0,1,1081.776-2372.857Z" transform="translate(-1079.506 2372.858)" fill="#263238"/>
              </g>
            </g>
          </g>
          <g id="Group_26204-2" data-name="Group 26204" transform="translate(10.817 7.886)">
            <g id="Group_26203-2" data-name="Group 26203">
              <g id="Group_26202-2" data-name="Group 26202">
                <path id="Path_44335-2" data-name="Path 44335" d="M1091.521-2365.428a6.228,6.228,0,0,1-.8.918,6.224,6.224,0,0,1-.886.835,6.2,6.2,0,0,1,.8-.918A6.194,6.194,0,0,1,1091.521-2365.428Z" transform="translate(-1089.833 2365.429)" fill="#263238"/>
              </g>
            </g>
          </g>
          <g id="Group_26207-2" data-name="Group 26207" transform="translate(11.832 9.484)">
            <g id="Group_26206-2" data-name="Group 26206">
              <g id="Group_26205-2" data-name="Group 26205">
                <path id="Path_44336-2" data-name="Path 44336" d="M1097.149-2357.484a11.121,11.121,0,0,1-1.091,1.21,11.123,11.123,0,0,1-1.177,1.126,11.145,11.145,0,0,1,1.091-1.21A11.066,11.066,0,0,1,1097.149-2357.484Z" transform="translate(-1094.879 2357.485)" fill="#263238"/>
              </g>
            </g>
          </g>
          <g id="Group_26210-2" data-name="Group 26210" transform="translate(13.908 10.977)">
            <g id="Group_26209-2" data-name="Group 26209">
              <g id="Group_26208-2" data-name="Group 26208">
                <path id="Path_44337-2" data-name="Path 44337" d="M1106.894-2350.056a6.222,6.222,0,0,1-.8.918,6.2,6.2,0,0,1-.886.835,6.2,6.2,0,0,1,.8-.918A6.184,6.184,0,0,1,1106.894-2350.056Z" transform="translate(-1105.207 2350.057)" fill="#263238"/>
              </g>
            </g>
          </g>
          <g id="Group_26213-2" data-name="Group 26213" transform="translate(14.922 12.574)">
            <g id="Group_26212-2" data-name="Group 26212">
              <g id="Group_26211-2" data-name="Group 26211">
                <path id="Path_44338-2" data-name="Path 44338" d="M1112.521-2342.112a11.061,11.061,0,0,1-1.091,1.21,11.012,11.012,0,0,1-1.178,1.126,11.115,11.115,0,0,1,1.091-1.21A11.2,11.2,0,0,1,1112.521-2342.112Z" transform="translate(-1110.251 2342.113)" fill="#263238"/>
              </g>
            </g>
          </g>
          <g id="Group_26216-2" data-name="Group 26216" transform="translate(16.999 14.068)">
            <g id="Group_26215-2" data-name="Group 26215">
              <g id="Group_26214-2" data-name="Group 26214">
                <path id="Path_44339-2" data-name="Path 44339" d="M1122.266-2334.683a6.2,6.2,0,0,1-.8.918,6.233,6.233,0,0,1-.886.835,6.2,6.2,0,0,1,.8-.918A6.217,6.217,0,0,1,1122.266-2334.683Z" transform="translate(-1120.579 2334.684)" fill="#263238"/>
              </g>
            </g>
          </g>
          <g id="Group_26219-2" data-name="Group 26219" transform="translate(18.013 15.665)">
            <g id="Group_26218-2" data-name="Group 26218">
              <g id="Group_26217-2" data-name="Group 26217">
                <path id="Path_44340-2" data-name="Path 44340" d="M1127.894-2326.739a11.127,11.127,0,0,1-1.091,1.21,11.093,11.093,0,0,1-1.177,1.126,11.089,11.089,0,0,1,1.091-1.21A11.164,11.164,0,0,1,1127.894-2326.739Z" transform="translate(-1125.624 2326.74)" fill="#263238"/>
              </g>
            </g>
          </g>
          <g id="Group_26222-2" data-name="Group 26222" transform="translate(20.089 17.158)">
            <g id="Group_26221-2" data-name="Group 26221">
              <g id="Group_26220-2" data-name="Group 26220">
                <path id="Path_44341-2" data-name="Path 44341" d="M1137.639-2319.31a6.241,6.241,0,0,1-.8.918,6.165,6.165,0,0,1-.886.835,6.232,6.232,0,0,1,.8-.918A6.205,6.205,0,0,1,1137.639-2319.31Z" transform="translate(-1135.951 2319.311)" fill="#263238"/>
              </g>
            </g>
          </g>
          <g id="Group_26224-2" data-name="Group 26224" transform="translate(14.274)" opacity="0.3">
            <g id="Group_26223-2" data-name="Group 26223">
              <path id="Path_44342-2" data-name="Path 44342" d="M1107.025-2396.43l2.785,2.61,1.879-1.842s3.012.926,4.947-1.2a6.068,6.068,0,0,0,1.235-4.749l-3.241,2.86-2.744-2.744,2.893-3a4.973,4.973,0,0,0-5.047,1.6,4.924,4.924,0,0,0-.843,4.565Z" transform="translate(-1107.025 2404.656)"/>
            </g>
          </g>
          <g id="Group_26226-2" data-name="Group 26226" transform="translate(0 13.239)" opacity="0.3">
            <g id="Group_26225-2" data-name="Group 26225">
              <path id="Path_44343-2" data-name="Path 44343" d="M1046.846-2336.2c-.069-.121-2.78-2.6-2.78-2.6l-1.761,1.726s-3.31-.658-4.947,1.2a5.8,5.8,0,0,0-1.235,4.748l3.241-2.86,2.744,2.744-2.893,3a4.973,4.973,0,0,0,5.047-1.6,4.924,4.924,0,0,0,.843-4.565Z" transform="translate(-1036.029 2338.805)"/>
            </g>
          </g>
        </g>
        <g id="Group_26229-2" data-name="Group 26229" transform="translate(17.298 70.155)">
          <g id="Group_26228-2" data-name="Group 26228">
            <path id="Path_44344-2" data-name="Path 44344" d="M1047.854-2261.111c0,.029-8.78.052-19.609.052s-19.611-.023-19.611-.052,8.778-.052,19.611-.052S1047.854-2261.14,1047.854-2261.111Z" transform="translate(-1008.634 2261.163)" fill="#fff"/>
          </g>
        </g>
        <g id="Group_26231-2" data-name="Group 26231" transform="translate(24.183 71.746)">
          <g id="Group_26230-2" data-name="Group 26230">
            <path id="Path_44345-2" data-name="Path 44345" d="M1068.674-2253.2c0,.029-5.774.052-12.9.052s-12.9-.023-12.9-.052,5.773-.052,12.9-.052S1068.674-2253.23,1068.674-2253.2Z" transform="translate(-1042.883 2253.253)" fill="#fff"/>
          </g>
        </g>
      </g>
      <path id="Path_44346-2" data-name="Path 44346" d="M981.149-2497.508a.361.361,0,0,0-.063.232.486.486,0,0,0,.063.258.274.274,0,0,0,.293.18.346.346,0,0,0,.251-.077.65.65,0,0,0,.1-.412.394.394,0,0,0-.062-.206.4.4,0,0,0-.167-.155.32.32,0,0,0-.293.026C981.219-2497.663,981.177-2497.611,981.149-2497.508Zm-.272-1.956a.25.25,0,0,0-.021.257,1.9,1.9,0,0,0,.22.271,3.2,3.2,0,0,1,.22.244v.026a.789.789,0,0,0-.461.193,2.472,2.472,0,0,0-.356.4,1.118,1.118,0,0,1-.377-.231.872.872,0,0,1-.168-.1.118.118,0,0,0-.147,0l-.094.116a.258.258,0,0,0-.052.167.816.816,0,0,0,.125.206.114.114,0,0,0,.084.051c.014,0,.035.017.063.052a1.631,1.631,0,0,1,.2.116,1.652,1.652,0,0,0,.2.116c0,.052-.011.069-.031.052s-.031-.009-.031.026a.2.2,0,0,0-.168-.026.2.2,0,0,1-.167-.026c-.028.069-.042.069-.042,0a.176.176,0,0,1-.157.026c-.049-.017-.1.009-.157.077-.084.069-.1.172-.042.309a.218.218,0,0,0,.1.1.5.5,0,0,1,.126.077.512.512,0,0,1,.272-.026.5.5,0,0,0,.272-.026.27.27,0,0,1,.021.1.66.66,0,0,1-.147.09l-.188.09c-.069.035-.136.069-.2.1a.316.316,0,0,0-.136.206.364.364,0,0,0,.042.232.172.172,0,0,0,.209.052,1.352,1.352,0,0,0,.314-.142,1.384,1.384,0,0,1,.314-.142,1.149,1.149,0,0,0,.858.541,1.061,1.061,0,0,0,.649-.219,1.326,1.326,0,0,0,.44-.579.268.268,0,0,0,.084-.013.1.1,0,0,1,.084.013l.042-.026h.964q.608-.025,1.246-.013t1.246.013c.127-.008.251-.012.374-.014v-1.093h-.249q-.754,0-1.5.026t-1.539.026a1.355,1.355,0,0,1-.262-.026.384.384,0,0,0-.241.026.146.146,0,0,0-.136-.026.071.071,0,0,1-.094-.026,1.371,1.371,0,0,0-.324-.5,2.891,2.891,0,0,1-.387-.476,1.686,1.686,0,0,0-.241-.283,2.784,2.784,0,0,1-.241-.257.514.514,0,0,1-.073-.129.176.176,0,0,0-.094-.1A.234.234,0,0,0,980.877-2499.465Zm.838,1.364a.694.694,0,0,1,.293.283.98.98,0,0,1,.147.412.877.877,0,0,1-.335.875.521.521,0,0,1-.356.154.9.9,0,0,1-.377-.077.916.916,0,0,1-.377-.978,1.672,1.672,0,0,1,.073-.309.556.556,0,0,1,.178-.257.872.872,0,0,1,.366-.167A.566.566,0,0,1,981.715-2498.1Z" transform="translate(-966.935 2527.863)" fill="#fff"/>
      <rect id="Rectangle_1877-2" data-name="Rectangle 1877" width="2.226" height="1.303" transform="translate(15.381 29.94)" fill="#fff"/>
      <rect id="Rectangle_1878-2" data-name="Rectangle 1878" width="2.226" height="1.303" transform="translate(24.663 29.94)" fill="#fff"/>
      <g id="Group_26233-2" data-name="Group 26233" transform="translate(17.246 26.528)">
        <path id="Path_44347-2" data-name="Path 44347" d="M1011.254-2502.79a6.7,6.7,0,0,1-.141,1.481,3.446,3.446,0,0,1-1.044,1.735,4.37,4.37,0,0,1-3.131,1.108,4.2,4.2,0,0,1-3.117-1.129,3.089,3.089,0,0,1-.811-1.488,7.47,7.47,0,0,1-.155-1.707v-5.551h2.5v5.207q0,.627.021.937a1.516,1.516,0,0,0,.9,1.367,1.711,1.711,0,0,0,.748.162,1.6,1.6,0,0,0,1.382-.642,3.335,3.335,0,0,0,.346-1.825v-5.207h2.5Z" transform="translate(-1002.854 2508.34)" fill="#fff"/>
      </g>
      <rect id="Rectangle_1879-2" data-name="Rectangle 1879" width="4.297" height="1.986" transform="translate(16.224 25.631)" fill="#fff"/>
      <rect id="Rectangle_1880-2" data-name="Rectangle 1880" width="4.297" height="1.986" transform="translate(22.146 25.631)" fill="#fff"/>
      <g id="Group_26234-2" data-name="Group 26234" transform="translate(26.344 25.475)">
        <path id="Path_44348-2" data-name="Path 44348" d="M1056.018-2503.255a6.666,6.666,0,0,1-2.44.523,5.42,5.42,0,0,1-3.5-1.25,5.113,5.113,0,0,1-1.97-4.168,5.121,5.121,0,0,1,1.97-4.175,5.451,5.451,0,0,1,3.524-1.25,6.741,6.741,0,0,1,2.417.523v3.221a3.041,3.041,0,0,0-.774-.7,2.947,2.947,0,0,0-1.548-.435,2.8,2.8,0,0,0-1.821.631,2.669,2.669,0,0,0-.979,2.188,2.661,2.661,0,0,0,.979,2.181,2.8,2.8,0,0,0,1.821.631,2.949,2.949,0,0,0,1.548-.435,3.032,3.032,0,0,0,.774-.7Z" transform="translate(-1048.107 2513.576)" fill="#fff"/>
        <path id="Path_44349-2" data-name="Path 44349" d="M1101.882-2502.139h-2.872l-.667-1.8h-3.713l-.712,1.8h-2.842l3.979-10.344h2.932Zm-4.266-3.85-1.114-3.3-1.129,3.3Z" transform="translate(-1082.437 2512.703)" fill="#fff"/>
        <path id="Path_44350-2" data-name="Path 44350" d="M1161.072-2502.139h-2.69l-4.948-6.335v6.335h-2.69v-10.344h2.69l4.948,6.328v-6.328h2.69Z" transform="translate(-1130.108 2512.703)" fill="#fff"/>
      </g>
      <path id="Path_44351-2" data-name="Path 44351" d="M1064.993-2490.677a.692.692,0,0,1,.692-.692.692.692,0,0,1,.692.692.692.692,0,0,1-.692.692A.692.692,0,0,1,1064.993-2490.677Z" transform="translate(-1035.254 2521.309)" fill="#fff"/>
      <path id="Path_44352-2" data-name="Path 44352" d="M1078.763-2490.677a.692.692,0,0,1,.692-.692.692.692,0,0,1,.692.692.692.692,0,0,1-.692.692A.692.692,0,0,1,1078.763-2490.677Z" transform="translate(-1046.256 2521.309)" fill="#fff"/>
    </g>
  </g>
</svg>
