<svg xmlns="http://www.w3.org/2000/svg" width="22" height="22" viewBox="0 0 22 22">
  <g id="iOfuxk.tif" transform="translate(479.691 -1516.042)">
    <g id="Group_26611" data-name="Group 26611" transform="translate(-479.691 1516.042)">
      <path id="Path_46965" fill="#000" data-name="Path 46965" d="M-479.691,1527.006a10.981,10.981,0,0,1,11.072-10.964,10.894,10.894,0,0,1,10.927,11.036,10.9,10.9,0,0,1-11.049,10.964A10.98,10.98,0,0,1-479.691,1527.006Zm21.008.012a10.025,10.025,0,0,0-10.033-9.983,10.026,10.026,0,0,0-9.96,10.007,10.025,10.025,0,0,0,10.009,10.008A10.024,10.024,0,0,0-458.683,1527.018Z" transform="translate(479.691 -1516.042)"/>
      <path id="Path_46966" fill="#000" data-name="Path 46966" d="M-436.448,1563.438a.552.552,0,0,1,.5-.667,9.639,9.639,0,0,1,1.617-.3,1.2,1.2,0,0,1,1.3,1.461c-.1.7-.334,1.375-.5,2.063-.091.371-.193.743-.251,1.12-.082.526.113.742.65.741.25,0,.5-.043.765-.068.025.3-.062.515-.392.584a9.664,9.664,0,0,1-1.649.346,1.26,1.26,0,0,1-1.4-1.577,19.354,19.354,0,0,1,.473-1.9c.093-.372.2-.742.26-1.119.1-.609-.139-.859-.75-.807A5.572,5.572,0,0,0-436.448,1563.438Z" transform="translate(445.361 -1552.609)"/>
      <path id="Path_46967" fill="#000" data-name="Path 46967" d="M-424.538,1543.771a1.129,1.129,0,0,1,1.2,1.107,1.145,1.145,0,0,1-1.185,1.085,1.151,1.151,0,0,1-1.222-1.091A1.135,1.135,0,0,1-424.538,1543.771Z" transform="translate(436.667 -1538.162)"/>
    </g>
  </g>
</svg>
