<svg xmlns="http://www.w3.org/2000/svg" width="20.374" height="20.374" viewBox="0 0 20.374 20.374">
  <g id="Group_18857" data-name="Group 18857" transform="translate(-599.916 200.236)">
    <path id="Path_40680" data-name="Path 40680" d="M620.283-189.7A10.183,10.183,0,0,1,609.7-179.87a10.162,10.162,0,0,1-9.78-10.563,10.138,10.138,0,0,1,10.544-9.795A10.163,10.163,0,0,1,620.283-189.7Zm-1.249-.334A8.918,8.918,0,0,0,610.12-199a8.978,8.978,0,0,0-8.973,8.932,8.931,8.931,0,0,0,8.935,8.944A8.861,8.861,0,0,0,619.034-190.032Z" transform="translate(0)" fill="#000"/>
    <path id="Path_40681" data-name="Path 40681" d="M626.477-155.13l11.851-4.672-4.669,11.853c-.525-1.25-1.069-2.346-1.446-3.5a3.06,3.06,0,0,0-2.171-2.212A37.921,37.921,0,0,1,626.477-155.13Zm10.165-3.065-.057-.073-7.968,3.145c1.16.483,2.176.918,3.2,1.32a.588.588,0,0,0,.514-.085C633.782-155.312,635.21-156.756,636.642-158.2Z" transform="translate(-23.349 -35.543)" fill="#000"/>
  </g>
</svg>
