<svg xmlns="http://www.w3.org/2000/svg" width="19.577" height="16.933" viewBox="0 0 19.577 16.933">
  <g id="Group_18856" data-name="Group 18856" transform="translate(-737 -25.892)">
    <g id="DgmN9Q.tif" transform="translate(737 25.892)">
      <g id="Group_18804" data-name="Group 18804">
        <path id="Path_40678" data-name="Path 40678" d="M313.736-211.444a3.325,3.325,0,0,1,.26-.271q4.254-3.549,8.512-7.093a1.506,1.506,0,0,1,2.05.019l2.667,2.231,5.81,4.831c.351.292.364.463.07.811-.185.219-.366.441-.552.659a.439.439,0,0,1-.731.064l-8.189-6.825-.114-.091-1.409,1.173-6.9,5.749a.433.433,0,0,1-.718-.064c-.257-.306-.507-.617-.76-.926Z" transform="translate(-313.736 219.2)" fill="#f7f5f5"/>
        <path id="Path_40679" data-name="Path 40679" d="M352.915-171.714v-4.645h-3.091v4.655h-4.558a.8.8,0,0,1-.891-.881q0-2.8,0-5.6a.371.371,0,0,1,.15-.323q3.35-2.753,6.69-5.516a.2.2,0,0,1,.317,0q3.341,2.764,6.69,5.517a.354.354,0,0,1,.149.3q-.007,2.818,0,5.636a.794.794,0,0,1-.854.86q-2.2,0-4.394,0C353.059-171.7,353-171.71,352.915-171.714Z" transform="translate(-341.584 188.636)" fill="#f7f5f5"/>
      </g>
    </g>
  </g>
</svg>
