<svg xmlns="http://www.w3.org/2000/svg" width="15.357" height="13.269" viewBox="0 0 15.357 13.269">
  <g id="xdBECQ.tif" transform="translate(-548.127 -1025.302) rotate(90)">
    <g id="Group_18822" data-name="Group 18822" transform="translate(1025.302 -563.484)">
      <path id="Path_40692" data-name="Path 40692" d="M1031.918-563.484a.5.5,0,0,1,.483.354q.431,1.011.861,2.022,2.621,6.14,5.244,12.28a.464.464,0,0,1-.056.557.462.462,0,0,1-.516.106,1.253,1.253,0,0,1-.164-.087q-2.843-1.7-5.684-3.4a.251.251,0,0,0-.3,0q-2.839,1.7-5.684,3.4a.574.574,0,0,1-.425.114.448.448,0,0,1-.318-.667q.417-.984.839-1.966,2.636-6.175,5.271-12.35A.514.514,0,0,1,1031.918-563.484Z" transform="translate(-1025.302 563.484)" fill="#000"/>
    </g>
  </g>
</svg>
