<svg xmlns="http://www.w3.org/2000/svg" width="16.016" height="17.742" viewBox="0 0 16.016 17.742">
  <g id="Group_18855" data-name="Group 18855" transform="translate(0 0)">
    <path id="Path_40677" data-name="Path 40677" d="M71.542-288.86a8.04,8.04,0,0,0-7.741,6.477,8.025,8.025,0,0,0,6.508,9.422,8.348,8.348,0,0,0,3.216-.1.633.633,0,0,1,.408.087c.995.563,1.978,1.145,2.973,1.707a.95.95,0,0,0,1.468-.688,1.329,1.329,0,0,0-.058-.5q-.35-1.334-.72-2.662a.481.481,0,0,1,.117-.509,8.02,8.02,0,0,0-3.663-12.867A8.427,8.427,0,0,0,71.542-288.86Zm.113,8.956a.949.949,0,0,1-.953-.94.972.972,0,0,1,.971-.963.973.973,0,0,1,.936.966A.942.942,0,0,1,71.655-279.9Zm4.135-.943a.943.943,0,0,1-.947.943.944.944,0,0,1-.959-.963.978.978,0,0,1,.963-.94A.975.975,0,0,1,75.789-280.847Zm-7.312.943a.944.944,0,0,1-.957-.934.979.979,0,0,1,.934-.969.974.974,0,0,1,.972.962A.943.943,0,0,1,68.477-279.9Z" transform="translate(-63.639 288.861)" fill="#000"/>
  </g>
</svg>
