<svg xmlns="http://www.w3.org/2000/svg" width="17.412" height="17.405" viewBox="0 0 17.412 17.405">
  <g id="_6YLjIi.tif" data-name="6YLjIi.tif" transform="translate(-759.951 -624.91)">
    <g id="Group_18808" data-name="Group 18808" transform="translate(759.951 624.91)">
      <path id="Path_40683" data-name="Path 40683" d="M759.979,638.181l.467-1.693c.132-.479.267-.957.393-1.438a.322.322,0,0,0-.026-.218,6.386,6.386,0,0,1-.848-3.567,6.52,6.52,0,0,1,3.526-5.574,6.336,6.336,0,0,1,3.431-.775,6.646,6.646,0,0,1,1.187,13.111,6.509,6.509,0,0,1-4.757-.678.379.379,0,0,0-.319-.017ZM765.57,630c.009-.05.018-.093.024-.137a1.018,1.018,0,0,1,1.938-.27,1,1,0,0,1-.222,1.141c-.314.3-.63.6-.965.883a.643.643,0,0,0-.259.6c.022.29.005.584.005.878h1.019c0-.224-.008-.439,0-.653a.354.354,0,0,1,.095-.217c.256-.248.529-.479.785-.727a2,2,0,0,0,.619-1.8,2.036,2.036,0,0,0-3.788-.68,1.806,1.806,0,0,0-.252.99Zm1.525,5.135v-1h-.99v1Z" transform="translate(-759.951 -624.91)" fill="#000"/>
      <path id="Path_40684" data-name="Path 40684" d="M859.407,731.938a7.71,7.71,0,0,0,7.557-7.555,5.09,5.09,0,0,1,1.161.78,5.564,5.564,0,0,1,1.885,3.544,5.479,5.479,0,0,1-.648,3.391.42.42,0,0,0-.042.347c.233.82.458,1.642.685,2.464.006.02.008.042.017.089-.368-.1-.718-.2-1.069-.294-.5-.139-1-.278-1.5-.42a.366.366,0,0,0-.3.036,5.626,5.626,0,0,1-7.621-2.153C859.49,732.1,859.456,732.03,859.407,731.938Z" transform="translate(-852.645 -717.62)" fill="#000"/>
    </g>
  </g>
</svg>
