<svg xmlns="http://www.w3.org/2000/svg" width="25.011" height="23.676" viewBox="0 0 25.011 23.676">
  <g id="Group_18839" data-name="Group 18839" transform="translate(0 0)">
    <path id="Path_40706" data-name="Path 40706" d="M797.629-1027.606a1.045,1.045,0,0,1-1.47,1.064c-1.005-.453-2-.928-3-1.395q-3.833-1.789-7.662-3.585a.777.777,0,0,0-.74.007q-5.21,2.447-10.432,4.869a1.579,1.579,0,0,1-.786.181,1.006,1.006,0,0,1-.672-1.639c.682-.948,1.382-1.883,2.076-2.823l9.291-12.583a1.028,1.028,0,0,1,1.793,0q5.64,7.635,11.273,15.276A3.785,3.785,0,0,1,797.629-1027.606Z" transform="translate(-772.647 1050.12)" fill="#000"/>
    <path id="Path_40707" data-name="Path 40707" d="M797.594-1075.1a.852.852,0,0,1-.817.886c-.091,0-.213-.106-.279-.195q-2.012-2.713-4.013-5.433-3.207-4.345-6.416-8.689a1.053,1.053,0,0,0-1.829-.006q-5.195,7.035-10.388,14.073c-.231.312-.346.337-.679.138a1.027,1.027,0,0,1-.265-1.545q1.306-1.788,2.626-3.566,4.3-5.832,8.606-11.666a1.2,1.2,0,0,1,1.1-.629,1.092,1.092,0,0,1,.816.489q3.032,4.118,6.073,8.229c1.709,2.315,3.425,4.626,5.121,6.951a5.14,5.14,0,0,1,.431.925Z" transform="translate(-772.667 1091.735)" fill="#000"/>
  </g>
</svg>
