<svg xmlns="http://www.w3.org/2000/svg" width="50" height="50" viewBox="0 0 50 50">
  <g id="Group_26849" data-name="Group 26849" transform="translate(-127 -948.469)">
    <circle id="Ellipse_1665" data-name="Ellipse 1665" cx="25" cy="25" r="25" transform="translate(127 948.469)" fill="#969393"/>
    <g id="Group_26812" data-name="Group 26812" transform="translate(140 958.469)">
      <path id="Path_47205" data-name="Path 47205" d="M2542.741-511.544c.608.175,1.2.3,1.746.509a7.23,7.23,0,0,1,4.629,7.255,7.252,7.252,0,0,1-5.856,6.7c-.518.1-.495.1-.524.634a7.477,7.477,0,0,1-.192,1.734,3.359,3.359,0,0,1-3.288,2.353c-2.022.008-4.044,0-6.066,0q-4.429,0-8.856,0a3.422,3.422,0,0,1-3.423-2.666,3.964,3.964,0,0,1-.1-.9q-.007-11.056,0-22.111a3.443,3.443,0,0,1,3.554-3.563c3.63,0,7.259,0,10.889-.005a1.352,1.352,0,0,1,.932.357q3.056,2.632,6.125,5.249a1.125,1.125,0,0,1,.432.92c-.008,1.072,0,2.143,0,3.215Zm-8.223-8.229h-10.057a1.641,1.641,0,0,0-1.824,1.814q0,10.981,0,21.962a1.642,1.642,0,0,0,1.827,1.812h11.315c1.153,0,2.305,0,3.458,0a1.6,1.6,0,0,0,1.669-1.657c0-.293-.013-.587.006-.879.014-.224-.073-.28-.285-.317a7.287,7.287,0,0,1-6.021-6.459,7.242,7.242,0,0,1,4.215-7.365c.655-.295,1.365-.467,2.063-.7v-2.72h-.383q-2.442,0-4.884,0c-.754,0-1.1-.344-1.1-1.088q0-2.017,0-4.034Zm7.294,21.014a5.494,5.494,0,0,0,5.5-5.4,5.493,5.493,0,0,0-5.316-5.551,5.481,5.481,0,0,0-5.648,5.337A5.484,5.484,0,0,0,2541.813-498.759Zm-2.485-17.385-2.957-2.535v2.535Z" transform="translate(-2520.809 521.605)" fill="#fff"/>
      <path id="Path_47206" data-name="Path 47206" d="M2563.986-446.225c1.506,0,3.011,0,4.517,0a.9.9,0,0,1,.874,1.27.953.953,0,0,1-.958.557c-1.718,0-3.436,0-5.154,0-1.273,0-2.546,0-3.82,0a.912.912,0,0,1-.934-.747.883.883,0,0,1,.545-1,1.445,1.445,0,0,1,.5-.071C2561.035-446.227,2562.51-446.225,2563.986-446.225Z" transform="translate(-2553.92 455.374)" fill="#fff"/>
      <path id="Path_47207" data-name="Path 47207" d="M2562.119-354.146c-.9,0-1.8.01-2.7,0a.9.9,0,0,1-.908-1.167.9.9,0,0,1,.884-.658q2.728-.014,5.456,0a.918.918,0,0,1,.935.918.917.917,0,0,1-.972.908C2563.917-354.139,2563.018-354.146,2562.119-354.146Z" transform="translate(-2553.903 376.08)" fill="#fff"/>
      <path id="Path_47208" data-name="Path 47208" d="M2562.1-384.226c-.869,0-1.738,0-2.606,0a.936.936,0,0,1-1.042-.9.944.944,0,0,1,1.047-.928q2.652,0,5.3,0a.926.926,0,0,1,.951.767.9.9,0,0,1-.573.991,1.453,1.453,0,0,1-.474.066C2563.839-384.223,2562.97-384.226,2562.1-384.226Z" transform="translate(-2553.885 402.505)" fill="#fff"/>
      <path id="Path_47209" data-name="Path 47209" d="M2562.1-416.131c.879,0,1.758,0,2.637,0a.932.932,0,0,1,1.028.912.937.937,0,0,1-1.029.914q-2.637,0-5.274,0a.935.935,0,0,1-1.013-.9.931.931,0,0,1,1.014-.926C2560.346-416.133,2561.225-416.131,2562.1-416.131Z" transform="translate(-2553.885 428.931)" fill="#fff"/>
      <path id="Path_47210" data-name="Path 47210" d="M2666.594-404.08c-.565,0-1.1,0-1.631,0a1.686,1.686,0,0,1-.478-.05.909.909,0,0,1-.623-.964.923.923,0,0,1,.885-.808c.495-.014.99,0,1.486,0h.362c0-.592,0-1.155,0-1.718a.963.963,0,0,1,.365-.826.854.854,0,0,1,.913-.117.829.829,0,0,1,.541.744c.021.495.012.99.015,1.485,0,.13,0,.26,0,.431.608,0,1.19,0,1.771,0a.934.934,0,0,1,.919.614.9.9,0,0,1-.821,1.206c-.605.019-1.211,0-1.87,0v.4c0,.465.008.93,0,1.4a.9.9,0,0,1-.9.945.912.912,0,0,1-.93-.949c-.011-.475,0-.95,0-1.425Z" transform="translate(-2646.496 422.359)" fill="#fff"/>
    </g>
  </g>
</svg>
