<svg xmlns="http://www.w3.org/2000/svg" width="50" height="50" viewBox="0 0 50 50">
  <g id="Group_26853" data-name="Group 26853" transform="translate(-992 -1162.469)">
    <circle id="Ellipse_1671" data-name="Ellipse 1671" cx="25" cy="25" r="25" transform="translate(992 1162.469)" fill="#969393"/>
    <g id="Group_26813" data-name="Group 26813" transform="translate(1004.916 1174.955)">
      <path id="Path_47211" data-name="Path 47211" d="M2972.542-169.975h15.152a.9.9,0,0,1,.98.614.864.864,0,0,1-.621,1.1,2.138,2.138,0,0,1-.461.036q-7.336,0-14.673,0h-.375v.323q0,6.968,0,13.936c0,.713.3,1.01,1.012,1.01h8.853c.091,0,.182,0,.273,0a.886.886,0,0,1,.843.9.869.869,0,0,1-.868.845c-3.133,0-6.266.013-9.4-.006a2.55,2.55,0,0,1-2.463-2.453c0-.073,0-.146,0-.219q0-9.263,0-18.526a2.556,2.556,0,0,1,1.986-2.6,5.444,5.444,0,0,1,1.031-.079c.41-.012.82-.009,1.23,0a.872.872,0,0,1,.9.893.864.864,0,0,1-.906.855c-.519,0-1.038,0-1.557,0a.844.844,0,0,0-.934.929C2972.539-171.61,2972.542-170.81,2972.542-169.975Z" transform="translate(-2970.79 176.789)" fill="#fff"/>
      <path id="Path_47212" data-name="Path 47212" d="M3101.276-47.548q0-.519,0-1.038a1.692,1.692,0,0,1,.495-1.235q3.425-3.434,6.862-6.858a1.743,1.743,0,0,1,2.465.012c.44.422.871.856,1.3,1.294a1.767,1.767,0,0,1,0,2.529c-.565.582-1.145,1.149-1.718,1.722-1.649,1.649-3.3,3.294-4.945,4.95a2.024,2.024,0,0,1-1.56.649c-.646-.016-1.293,0-1.94,0a.88.88,0,0,1-.952-.953C3101.274-46.838,3101.276-47.193,3101.276-47.548Zm6.633-5.941q-2.388,2.388-4.771,4.772c-.043.043-.1.1-.1.152-.008.424,0,.848,0,1.286.38,0,.726-.011,1.07,0a.553.553,0,0,0,.451-.191q2.253-2.266,4.516-4.522c.061-.061.117-.127.164-.179Zm1.306-1.285,1.27,1.272.626-.611-1.276-1.281Z" transform="translate(-3087.01 71.769)" fill="#fff"/>
      <path id="Path_47213" data-name="Path 47213" d="M3154.121-168.184h-3.04c-.118,0-.237,0-.355,0a.893.893,0,0,1-.863-.885.871.871,0,0,1,.906-.861c1.011-.008,2.022,0,3.033,0h.312c0-.9.02-1.778-.009-2.649a.8.8,0,0,0-.86-.713c-.528-.008-1.057,0-1.585,0a.869.869,0,0,1-.937-.852.864.864,0,0,1,.923-.9,18.145,18.145,0,0,1,2.072.054,2.488,2.488,0,0,1,2.146,2.427c.016,2.978.009,5.956,0,8.935a.867.867,0,0,1-.862.877.872.872,0,0,1-.884-.884c-.006-1.4,0-2.805,0-4.208Z" transform="translate(-3130.286 176.749)" fill="#fff"/>
      <path id="Path_47214" data-name="Path 47214" d="M3052.984-173.3q-1.652,0-3.3,0a.874.874,0,0,1-.972-.87.878.878,0,0,1,.968-.88q3.318,0,6.636,0a.889.889,0,0,1,.937.74.859.859,0,0,1-.61.971,1.394,1.394,0,0,1-.377.037Q3054.622-173.3,3052.984-173.3Z" transform="translate(-3040.188 176.752)" fill="#fff"/>
      <path id="Path_47215" data-name="Path 47215" d="M3027.039-188.012c0,.546,0,1.092,0,1.637a.874.874,0,0,1-.874.943.875.875,0,0,1-.875-.941q0-1.637,0-3.274a.876.876,0,0,1,.886-.934.881.881,0,0,1,.863.932C3027.041-189.1,3027.039-188.557,3027.039-188.012Z" transform="translate(-3019.329 190.581)" fill="#fff"/>
      <path id="Path_47216" data-name="Path 47216" d="M3134.3-187.983c0-.555,0-1.11,0-1.665a.879.879,0,0,1,.888-.933.879.879,0,0,1,.861.933q.005,1.651,0,3.3a.865.865,0,0,1-.873.915.872.872,0,0,1-.876-.914C3134.3-186.892,3134.3-187.437,3134.3-187.983Z" transform="translate(-3116.423 190.581)" fill="#fff"/>
      <path id="Path_47217" data-name="Path 47217" d="M3060.155-51.511a1.182,1.182,0,0,1-1.189,1.172,1.177,1.177,0,0,1-1.157-1.174,1.164,1.164,0,0,1,1.187-1.165A1.168,1.168,0,0,1,3060.155-51.511Z" transform="translate(-3048.295 67.755)" fill="#fff"/>
      <path id="Path_47218" data-name="Path 47218" d="M3097.522-52.672A1.162,1.162,0,0,1,3098.7-51.5a1.174,1.174,0,0,1-1.164,1.165,1.18,1.18,0,0,1-1.181-1.177A1.168,1.168,0,0,1,3097.522-52.672Z" transform="translate(-3082.628 67.749)" fill="#fff"/>
      <path id="Path_47219" data-name="Path 47219" d="M3097.523-90.172A1.163,1.163,0,0,1,3098.7-89a1.174,1.174,0,0,1-1.165,1.164,1.18,1.18,0,0,1-1.18-1.179A1.169,1.169,0,0,1,3097.523-90.172Z" transform="translate(-3082.628 101.15)" fill="#fff"/>
      <path id="Path_47220" data-name="Path 47220" d="M3058.99-90.172a1.168,1.168,0,0,1,1.167,1.159,1.18,1.18,0,0,1-1.181,1.178A1.175,1.175,0,0,1,3057.812-89,1.165,1.165,0,0,1,3058.99-90.172Z" transform="translate(-3048.298 101.15)" fill="#fff"/>
      <path id="Path_47221" data-name="Path 47221" d="M3058.978-15.172A1.168,1.168,0,0,1,3060.157-14a1.18,1.18,0,0,1-1.168,1.163,1.175,1.175,0,0,1-1.177-1.179A1.164,1.164,0,0,1,3058.978-15.172Z" transform="translate(-3048.298 34.349)" fill="#fff"/>
      <path id="Path_47222" data-name="Path 47222" d="M3019.27-51.51a1.156,1.156,0,0,1,1.157-1.163,1.167,1.167,0,0,1,1.186,1.168,1.182,1.182,0,0,1-1.191,1.169A1.167,1.167,0,0,1,3019.27-51.51Z" transform="translate(-3013.97 67.75)" fill="#fff"/>
      <path id="Path_47223" data-name="Path 47223" d="M3137.26-88.967a1.168,1.168,0,0,1-1.19,1.135,1.182,1.182,0,0,1-1.152-1.18,1.17,1.17,0,0,1,1.225-1.156A1.157,1.157,0,0,1,3137.26-88.967Z" transform="translate(-3116.974 101.147)" fill="#fff"/>
      <path id="Path_47224" data-name="Path 47224" d="M3019.27-88.992a1.156,1.156,0,0,1,1.168-1.179,1.168,1.168,0,0,1,1.174,1.152,1.181,1.181,0,0,1-1.175,1.185A1.168,1.168,0,0,1,3019.27-88.992Z" transform="translate(-3013.97 101.149)" fill="#fff"/>
      <path id="Path_47225" data-name="Path 47225" d="M3020.45-15.171a1.169,1.169,0,0,1,1.163,1.164,1.181,1.181,0,0,1-1.187,1.173,1.168,1.168,0,0,1-1.156-1.2A1.158,1.158,0,0,1,3020.45-15.171Z" transform="translate(-3013.969 34.348)" fill="#fff"/>
    </g>
  </g>
</svg>
