<svg xmlns="http://www.w3.org/2000/svg" width="41.3" height="41.3" viewBox="0 0 41.3 41.3">
  <g id="Group_26851" data-name="Group 26851" transform="translate(-1142 -959.469)">
    <circle id="Ellipse_1679" data-name="Ellipse 1679" cx="20.65" cy="20.65" r="20.65" transform="translate(1142 959.469)" fill="#969393"/>
    <g id="Group_26826" data-name="Group 26826" transform="translate(-420.799 1406.506)">
      <path id="Path_47233" data-name="Path 47233" d="M1654.48-436.617a2.329,2.329,0,0,1,1.567.613c.286.263.565.537.825.826a2.379,2.379,0,0,1,.013,3.145c-.078.089-.16.174-.243.258q-4.607,4.608-9.212,9.216a1.227,1.227,0,0,1-.564.331c-1.385.378-2.769.764-4.153,1.147l-.121.032a.529.529,0,0,1-.684-.682c.282-1.045.574-2.087.862-3.13.115-.415.222-.832.351-1.241a.98.98,0,0,1,.224-.388q4.689-4.7,9.388-9.395A2.411,2.411,0,0,1,1654.48-436.617Zm-7.551,12.985,7.7-7.7-2.442-2.442-7.7,7.7Zm6.037-11.024,2.488,2.488a7.614,7.614,0,0,0,.638-.592,1.266,1.266,0,0,0,.014-1.662,6.876,6.876,0,0,0-.857-.849,1.153,1.153,0,0,0-1.364-.131A6.944,6.944,0,0,0,1652.966-434.656Zm-9.039,9.611-.755,2.731,2.725-.757Z" transform="translate(-63.347)" fill="#fff"/>
      <path id="Path_47234" data-name="Path 47234" d="M1582.892-392.683q-3.679,0-7.359,0a2.566,2.566,0,0,1-2.509-1.567,2.69,2.69,0,0,1-.24-1.084q-.023-6.931-.007-13.863a2.626,2.626,0,0,1,2.669-2.651c1.549-.022,3.1-.007,4.649,0a.543.543,0,0,1,.592.536.553.553,0,0,1-.606.523c-1.522,0-3.044,0-4.565,0a1.586,1.586,0,0,0-1.625,1.228,1.826,1.826,0,0,0-.05.453q0,6.837,0,13.675a1.571,1.571,0,0,0,1.192,1.628,1.989,1.989,0,0,0,.514.062q7.348,0,14.7,0a1.614,1.614,0,0,0,1.706-1.718c0-1.508,0-3.016,0-4.524a.55.55,0,0,1,.416-.593.528.528,0,0,1,.639.534c.007.667,0,1.334,0,2,0,.889.007,1.779,0,2.668a2.636,2.636,0,0,1-2.258,2.66,3.562,3.562,0,0,1-.582.031Q1586.529-392.681,1582.892-392.683Z" transform="translate(0 -22.692)" fill="#fff"/>
    </g>
  </g>
</svg>
