<svg xmlns="http://www.w3.org/2000/svg" width="50" height="50" viewBox="0 0 50 50">
  <g id="Group_26852" data-name="Group 26852" transform="translate(-127 -1163.469)">
    <circle id="Ellipse_1670" data-name="Ellipse 1670" cx="25" cy="25" r="25" transform="translate(127 1163.469)" fill="#969393"/>
    <g id="Group_26819" data-name="Group 26819" transform="translate(138 1174.936)">
      <g id="Group_26815" data-name="Group 26815" transform="translate(0 0)">
        <path id="Path_47227" data-name="Path 47227" d="M2367.178,138.878c0-7.058,4.3-12.614,10.5-14.232a14.016,14.016,0,0,1,17.223,10.768,20.966,20.966,0,0,1,.275,2.666.965.965,0,0,1-.948,1.108.991.991,0,0,1-1-1.075,11.424,11.424,0,0,0-2.274-6.926,11.652,11.652,0,0,0-11.857-4.82,11.9,11.9,0,0,0-9.736,9.488,12.079,12.079,0,0,0,7.923,13.759,11.879,11.879,0,0,0,3.681.639c.071,0,.143,0,.214.006a.988.988,0,0,1,.979,1.033.975.975,0,0,1-1.05.921,13.742,13.742,0,0,1-10.836-5.237A13.192,13.192,0,0,1,2367.178,138.878Z" transform="translate(-2367.178 -124.195)" fill="#fff"/>
        <path id="Path_47228" data-name="Path 47228" d="M2443.646,176.565c0,1.028,0,2.056,0,3.084a1.2,1.2,0,0,1-.361.9q-2.553,2.542-5.1,5.092a.983.983,0,0,1-1.224.206.949.949,0,0,1-.442-1.128,1.4,1.4,0,0,1,.331-.5q2.3-2.319,4.62-4.62a.678.678,0,0,0,.219-.533q-.012-2.855,0-5.709a.96.96,0,0,1,.94-1.056.977.977,0,0,1,1.014,1.053C2443.65,174.427,2443.645,175.5,2443.646,176.565Z" transform="translate(-2428.007 -166.428)" fill="#fff"/>
      </g>
      <path id="Path_47229" data-name="Path 47229" d="M2502.206,265.065c-.016-.326-.034-.651-.049-.977a1.6,1.6,0,0,1,.406-1.186q3.059-3.4,6.129-6.781a1.642,1.642,0,0,1,2.32-.106c.434.376.86.763,1.281,1.156a1.665,1.665,0,0,1,.118,2.379c-.5.574-1.022,1.136-1.534,1.7-1.473,1.63-2.95,3.257-4.416,4.894a1.908,1.908,0,0,1-1.437.685c-.609.016-1.217.06-1.826.089a.829.829,0,0,1-.941-.851C2502.238,265.734,2502.223,265.4,2502.206,265.065Zm5.958-5.907q-2.134,2.361-4.261,4.719c-.039.043-.09.1-.089.148.012.4.036.8.057,1.21.358-.018.682-.045,1.007-.047a.52.52,0,0,0,.415-.2q2.012-2.24,4.033-4.471c.054-.061.1-.126.146-.176Zm1.167-1.272,1.256,1.136.559-.6-1.262-1.144Z" transform="translate(-2485.666 -239.535)" fill="#fff"/>
    </g>
  </g>
</svg>
