<svg xmlns="http://www.w3.org/2000/svg" width="24" height="24" viewBox="0 0 24 24">
  <g id="Group_26801" data-name="Group 26801" transform="translate(-7113.159 -4748.074)">
    <path id="Path_47058" data-name="Path 47058" d="M7125.168,4748.075a12,12,0,1,1-12.009,11.989A11.975,11.975,0,0,1,7125.168,4748.075Zm9.989,11.945a9.872,9.872,0,0,0-3.895-7.872,9.518,9.518,0,0,0-6.145-2.091,10.009,10.009,0,1,0,10.04,9.963Z" transform="translate(0 0)" fill="#646262"/>
    <path id="Path_47059" data-name="Path 47059" d="M7183.887,4849.492c.279-.332.542-.653.813-.963.252-.288.519-.559.771-.848.2-.231.389-.483.59-.717.25-.291.51-.571.765-.856.184-.206.372-.407.551-.618.374-.442.732-.9,1.117-1.329a1.077,1.077,0,0,1,.886-.454,1.038,1.038,0,0,1,.887.638,1.359,1.359,0,0,1-.064,1.375,10.914,10.914,0,0,1-.8.956c-.358.418-.721.832-1.081,1.247-.386.444-.774.887-1.157,1.335-.562.658-1.112,1.326-1.679,1.978-.327.376-.667.738-1.015,1.089a.971.971,0,0,1-1.229-.011c-.348-.364-.686-.743-1.022-1.121-.451-.5-.9-1.011-1.342-1.524-.475-.552-.938-1.117-1.411-1.67-.567-.662-1.132-1.326-1.713-1.972a1.494,1.494,0,0,1-.288-1.7c.243-.509.986-.906,1.482-.4.333.338.644.7.966,1.056.2.214.4.418.593.639.251.29.489.594.734.889.163.194.33.383.5.574.453.522.9,1.048,1.36,1.565C7183.345,4848.925,7183.6,4849.185,7183.887,4849.492Z" transform="translate(-58.709 -87.609)" fill="#646262"/>
  </g>
</svg>
