<svg xmlns="http://www.w3.org/2000/svg" width="50" height="50" viewBox="0 0 50 50">
  <g id="Group_26851" data-name="Group 26851" transform="translate(-127 -1090.469)">
    <circle id="Ellipse_1669" data-name="Ellipse 1669" cx="25" cy="25" r="25" transform="translate(127 1090.469)" fill="#969393"/>
    <g id="Group_26817" data-name="Group 26817" transform="translate(138.112 1100.117)">
      <path id="Path_47195" data-name="Path 47195" d="M1303.8,168.045c.776,0,1.515-.006,2.255,0,.926.009,1.856-.024,2.776.055a2.687,2.687,0,0,1,2.331,2.225,2.751,2.751,0,0,1-1.575,3.018.43.43,0,0,0-.311.418c-.17,2.155-.353,4.308-.532,6.462q-.3,3.554-.592,7.108c-.155,1.867-.322,3.733-.453,5.6a3.106,3.106,0,0,1-1.238,2.534,2.761,2.761,0,0,1-1.622.51q-7.522.005-15.043,0a2.75,2.75,0,0,1-2.806-2.543c-.187-1.915-.33-3.835-.49-5.753q-.269-3.215-.535-6.431-.261-3.154-.519-6.308-.014-.169-.029-.338a2.7,2.7,0,0,0-.116-1c-.134-.246-.508-.356-.763-.544a2.781,2.781,0,0,1,1.705-5.009c1.4-.012,2.8,0,4.2,0h.4a10.383,10.383,0,0,1,.007-1.206,2.718,2.718,0,0,1,2.745-2.493q3.707-.037,7.413,0a2.766,2.766,0,0,1,2.785,2.792C1303.809,167.423,1303.8,167.711,1303.8,168.045Zm-16.6,5.581c.1,1.265.2,2.514.3,3.763q.325,3.907.655,7.814c.216,2.6.424,5.21.641,7.815.069.832.376,1.1,1.2,1.1h14.609c.113,0,.227,0,.34-.006a.912.912,0,0,0,.829-.785c.028-.183.042-.368.057-.553q.136-1.646.27-3.292.266-3.215.535-6.43.233-2.8.466-5.6c.105-1.27.208-2.541.314-3.83Zm10.111-1.873h10.873c.74,0,1.173-.343,1.173-.926s-.433-.925-1.174-.925H1286.44a3.1,3.1,0,0,0-.339.008.922.922,0,0,0,0,1.836,3.491,3.491,0,0,0,.37.008Zm4.633-3.722c0-.293,0-.55,0-.808a.941.941,0,0,0-1.04-1.029c-.834,0-1.668,0-2.5,0q-2.348,0-4.7,0a.9.9,0,0,0-1,.736,8.023,8.023,0,0,0-.01,1.1Z" transform="translate(-1283.424 -164.326)" fill="#fff"/>
      <path id="Path_47196" data-name="Path 47196" d="M1425.814,270.2c.16-2.549.316-5.025.47-7.5q.2-3.2.393-6.409c.02-.318.038-.637.062-.955a.93.93,0,0,1,.946-.9.91.91,0,0,1,.9.974c-.053,1.141-.133,2.28-.2,3.42q-.171,2.773-.346,5.546c-.124,1.992-.245,3.985-.373,5.977a.929.929,0,1,1-1.85-.15Z" transform="translate(-1408.215 -243.296)" fill="#fff"/>
      <path id="Path_47197" data-name="Path 47197" d="M1346.118,270.422a.9.9,0,0,1-1.255.753.888.888,0,0,1-.6-.821q-.192-2.973-.373-5.946-.237-3.805-.474-7.61c-.028-.442-.063-.883-.079-1.325a.93.93,0,1,1,1.853-.082q.393,6.3.788,12.6C1346.019,268.7,1346.058,269.408,1346.118,270.422Z" transform="translate(-1335.929 -243.294)" fill="#fff"/>
      <path id="Path_47198" data-name="Path 47198" d="M1388.283,262.778q0-3.674,0-7.348a.928.928,0,0,1,1.252-.958.9.9,0,0,1,.6.793,2.793,2.793,0,0,1,.006.308q0,7.24,0,14.48c0,.062,0,.123,0,.185a.928.928,0,1,1-1.853.011c-.008-.535,0-1.07,0-1.605Q1388.283,265.712,1388.283,262.778Z" transform="translate(-1375.322 -243.272)" fill="#fff"/>
    </g>
  </g>
</svg>
