<svg xmlns="http://www.w3.org/2000/svg" width="50" height="50" viewBox="0 0 50 50">
  <g id="Group_26854" data-name="Group 26854" transform="translate(-127 -1234.469)">
    <circle id="Ellipse_1672" data-name="Ellipse 1672" cx="25" cy="25" r="25" transform="translate(127 1234.469)" fill="#969393"/>
    <g id="Group_26814" data-name="Group 26814" transform="translate(140 1247.242)">
      <path id="Path_47226" data-name="Path 47226" d="M1931.558-107.591q-5.064,0-10.128,0a2.542,2.542,0,0,1-2.606-2.21,3.011,3.011,0,0,1-.026-.477q0-10.075,0-20.15a2.554,2.554,0,0,1,2.687-2.686q8.374,0,16.747,0a1.1,1.1,0,0,1,.83.339q2.456,2.469,4.925,4.925a1.094,1.094,0,0,1,.338.83q-.007,8.374,0,16.747a2.554,2.554,0,0,1-2.687,2.686Q1936.6-107.589,1931.558-107.591Zm-5.1-23.821h-4.9c-.762,0-1.057.3-1.057,1.063q0,10,0,19.992c0,.08,0,.16,0,.239a.8.8,0,0,0,.687.8c.614.04,1.231.011,1.863.011v-.31q0-2.738,0-5.476a2.556,2.556,0,0,1,2.7-2.7h11.617a2.555,2.555,0,0,1,2.7,2.7q0,2.751,0,5.5v.273a.326.326,0,0,0,.074.029c.523,0,1.045.007,1.568,0a.85.85,0,0,0,.907-.921q0-8.2,0-16.4a.5.5,0,0,0-.13-.32q-2.163-2.179-4.34-4.345a.351.351,0,0,0-.192-.121c-.422-.011-.844-.006-1.286-.006v.317q0,2.353,0,4.705a1.7,1.7,0,0,1-1.792,1.781q-3.323,0-6.646,0a1.7,1.7,0,0,1-1.771-1.775q0-2.353,0-4.705Zm11.911,22.105v-.254q0-2.777,0-5.554a.87.87,0,0,0-.978-.983h-11.64a.871.871,0,0,0-.992.995q0,2.764,0,5.528v.27Zm-10.2-17.022h6.78V-131.4h-6.78Z" transform="translate(-1918.796 133.118)" fill="#fff"/>
    </g>
  </g>
</svg>
