<svg xmlns="http://www.w3.org/2000/svg" width="50" height="50" viewBox="0 0 50 50">
  <g id="Group_26850" data-name="Group 26850" transform="translate(-127 -1019.469)">
    <circle id="Ellipse_1668" data-name="Ellipse 1668" cx="25" cy="25" r="25" transform="translate(127 1019.469)" fill="#969393"/>
    <g id="Group_26811" data-name="Group 26811" transform="translate(138 1028.719)">
      <path id="Path_47200" data-name="Path 47200" d="M2113.787-577.606v1.49a3.284,3.284,0,0,1,2.04.851,3.1,3.1,0,0,1,1.01,2.153.647.647,0,0,1-.728.767q-5.466,0-10.931,0a.654.654,0,0,1-.738-.76,3.173,3.173,0,0,1,2.825-2.986c.071-.009.142-.016.227-.025v-1.49h-7.875a3.159,3.159,0,0,1-3.321-3.321q0-7.7,0-15.41a3.158,3.158,0,0,1,3.32-3.322q3.195,0,6.389,0a.416.416,0,0,0,.434-.25,7.871,7.871,0,0,1,7.737-4.479,7.784,7.784,0,0,1,6.732,4.329.636.636,0,0,0,.69.4,3.093,3.093,0,0,1,2.164.659,3.1,3.1,0,0,1,1.228,2.553c0,2.527.02,5.054-.013,7.58a1.746,1.746,0,0,0,.6,1.47,2.644,2.644,0,0,1,.685,1.054,2.025,2.025,0,0,1-1.03,2.46.383.383,0,0,0-.241.409c.011.856.006,1.712,0,2.568a3.155,3.155,0,0,1-3.285,3.294q-3.759,0-7.517,0Zm-16.237-5.539h26.174v-.544a2.679,2.679,0,0,1-1.307-.873q-2.2-2.208-4.4-4.41a1.387,1.387,0,0,1-.176-.281,7.668,7.668,0,0,1-3.626,1.1,8.01,8.01,0,0,1-7.672-4.292.477.477,0,0,0-.48-.291c-1.889.011-3.779.006-5.668.006-.586,0-.9-.231-.891-.645s.3-.611.886-.611h5.509a8.242,8.242,0,0,1-.048-4.422h-6.173a1.919,1.919,0,0,0-2.126,2.132q0,6.388,0,12.776Zm0,1.29v.812a1.934,1.934,0,0,0,2.171,2.181h21.852a3.841,3.841,0,0,0,.438-.013,1.832,1.832,0,0,0,1.59-1.192,5.22,5.22,0,0,0,.135-1.789Zm23.051-14.4a6.91,6.91,0,0,0-6.879-6.9,6.914,6.914,0,0,0-6.9,6.889,6.912,6.912,0,0,0,6.866,6.889A6.909,6.909,0,0,0,2120.6-596.259Zm.984-2.123a8.154,8.154,0,0,1-.769,6.1l2.9,2.906a.111.111,0,0,0,.014-.051c0-2.38.017-4.759-.007-7.139A1.862,1.862,0,0,0,2121.585-598.382Zm-2.754,8.445c1.615,1.617,3.207,3.214,4.8,4.806a.812.812,0,0,0,.835.221.867.867,0,0,0,.319-1.515q-2.3-2.308-4.605-4.607a1.81,1.81,0,0,0-.142-.115c-.2.218-.376.424-.567.615S2119.063-590.15,2118.832-589.937Zm-3.395,16.327a1.768,1.768,0,0,0-1.605-1.231c-.291-.017-.584-.008-.875-.008-1.773,0-3.546,0-5.319,0a1.788,1.788,0,0,0-1.794,1.237Zm-6.659-2.515h3.717v-1.464h-3.717Z" transform="translate(-2096.295 604.396)" fill="#fff"/>
      <path id="Path_47201" data-name="Path 47201" d="M2125.108-473.3c.823,0,1.647-.006,2.471,0,.5.006.783.31.706.73a.558.558,0,0,1-.462.486,2.018,2.018,0,0,1-.4.036q-2.314,0-4.629,0h-.062c-.535,0-.84-.235-.84-.632s.3-.622.842-.623C2123.523-473.3,2124.315-473.3,2125.108-473.3Z" transform="translate(-2118.683 489.725)" fill="#fff"/>
      <path id="Path_47202" data-name="Path 47202" d="M2124.892-497.289c.709,0,1.418,0,2.128,0a2.133,2.133,0,0,1,.373.025.616.616,0,0,1,.5.6.614.614,0,0,1-.469.59,1.841,1.841,0,0,1-.4.039q-2.128,0-4.256,0h-.031c-.536-.005-.841-.235-.841-.633s.3-.622.843-.623C2123.452-497.291,2124.172-497.289,2124.892-497.289Z" transform="translate(-2118.684 510.709)" fill="#fff"/>
      <path id="Path_47203" data-name="Path 47203" d="M2202.34-578.051a5.526,5.526,0,0,1-5.533,5.5,5.531,5.531,0,0,1-5.492-5.511,5.532,5.532,0,0,1,5.521-5.515A5.527,5.527,0,0,1,2202.34-578.051Zm-1.255-.011a4.269,4.269,0,0,0-4.261-4.261,4.275,4.275,0,0,0-4.254,4.239,4.274,4.274,0,0,0,4.248,4.276A4.268,4.268,0,0,0,2201.085-578.062Z" transform="translate(-2179.41 586.186)" fill="#fff"/>
      <path id="Path_47204" data-name="Path 47204" d="M2233.787-559.257a.64.64,0,0,1-.568.672.635.635,0,0,1-.674-.562c-.018-.1-.015-.208-.033-.311a1.572,1.572,0,0,0-1.472-1.307c-.458-.052-.727-.319-.688-.685a.665.665,0,0,1,.827-.558A2.832,2.832,0,0,1,2233.787-559.257Z" transform="translate(-2213.553 567.325)" fill="#fff"/>
    </g>
  </g>
</svg>
