<svg xmlns="http://www.w3.org/2000/svg" width="25" height="25" viewBox="0 0 25 25">
  <g id="Group_26795" data-name="Group 26795" transform="translate(-64.33 -746.77)">
    <path id="Path_47189" data-name="Path 47189" d="M91.042,776.972a.986.986,0,0,1-.395-1.89l1.726-.753v-3.136a.986.986,0,0,1,1.972,0v3.781a.987.987,0,0,1-.592.9l-2.317,1.011a.985.985,0,0,1-.394.082" transform="translate(-16.533 -15.059)" fill="#7f7f7f"/>
    <path id="Path_47190" data-name="Path 47190" d="M89.33,760.834v-3.129a.515.515,0,0,0-.515-.515H86.181a9.519,9.519,0,0,0-1.271-3.061l1.865-1.865a.514.514,0,0,0,0-.727l-2.212-2.213a.515.515,0,0,0-.728,0L81.97,751.19a9.529,9.529,0,0,0-3.061-1.272v-2.633a.515.515,0,0,0-.515-.515H75.266a.515.515,0,0,0-.515.515v2.633a9.535,9.535,0,0,0-3.061,1.272l-1.865-1.865a.515.515,0,0,0-.728,0l-2.213,2.213a.515.515,0,0,0,0,.727l1.865,1.865a9.524,9.524,0,0,0-1.271,3.061H64.845a.515.515,0,0,0-.515.515v3.129a.515.515,0,0,0,.515.515h2.634a9.519,9.519,0,0,0,1.271,3.061l-1.865,1.865a.515.515,0,0,0,0,.728l2.213,2.213a.514.514,0,0,0,.728,0l1.865-1.865a9.524,9.524,0,0,0,3.061,1.271v2.634a.515.515,0,0,0,.515.515h3.129a.515.515,0,0,0,.515-.515v-2.634a9.528,9.528,0,0,0,3.061-1.271l1.865,1.865a.514.514,0,0,0,.728,0L86.775,767a.514.514,0,0,0,0-.728L84.91,764.41a9.519,9.519,0,0,0,1.271-3.061h2.634a.515.515,0,0,0,.515-.515M77.3,765.074a5.824,5.824,0,1,1,5.33-5.329,5.83,5.83,0,0,1-5.33,5.329" transform="translate(0)" fill="#7f7f7f"/>
  </g>
</svg>
