<svg xmlns="http://www.w3.org/2000/svg" width="27.556" height="21.046" viewBox="0 0 27.556 21.046">
  <g id="Group_26791" data-name="Group 26791" transform="translate(-61.831 -270.374)">
    <path id="Path_47178" data-name="Path 47178" d="M72.951,296.6a9.21,9.21,0,0,0-4.251-1.825c-.9-.154-1.815-.2-2.725-.269a2.558,2.558,0,0,1-1.883-.95,2.649,2.649,0,0,1-.558-1.753q0-5.906,0-11.812v-.333c-1.032-.118-1.348.024-1.7.737v16.1a1.06,1.06,0,0,0,1.3.747c1.334-.212,2.667-.443,4.009-.594a18.739,18.739,0,0,1,4.667.095c.525.073,1.046.178,1.6.274a1.259,1.259,0,0,0-.088-.1c-.122-.106-.242-.213-.369-.314" transform="translate(0 -5.851)" fill="#7f7f7f"/>
    <path id="Path_47179" data-name="Path 47179" d="M80.169,274.285a8.012,8.012,0,0,0-4.316-3.248,13.576,13.576,0,0,0-4.041-.663,1.018,1.018,0,0,0-1.188,1.118q0,7.264,0,14.529a1.029,1.029,0,0,0,1.095,1.121c.839.054,1.682.1,2.513.224a10.85,10.85,0,0,1,4.987,2c.4.3.77.637,1.179.98.006-.061.012-.1.012-.129q0-7.6-.01-15.2a1.429,1.429,0,0,0-.231-.725m-1.147,11.747a.407.407,0,0,1-.572-.056,5.67,5.67,0,0,0-5.7-1.631.407.407,0,0,1-.2-.788,6.48,6.48,0,0,1,6.526,1.9.407.407,0,0,1-.056.572M72.248,278.8a.407.407,0,0,1,.355-.452c4.4-.527,6.4,2.109,6.486,2.222a.407.407,0,0,1-.653.485c-.073-.1-1.829-2.367-5.737-1.9a.407.407,0,0,1-.452-.355m6.791-2.4a.406.406,0,0,1-.574-.022,8.766,8.766,0,0,0-5.813-2.539.407.407,0,1,1,0-.813,9.439,9.439,0,0,1,6.41,2.8.407.407,0,0,1-.022.575" transform="translate(-5.562)" fill="#7f7f7f"/>
    <path id="Path_47180" data-name="Path 47180" d="M109.981,287.141c.813-.015,1.181-.388,1.181-1.193q0-3.215,0-6.431,0-4.022,0-8.045a.978.978,0,0,0-1.074-1.092,24.516,24.516,0,0,0-2.827.308,8.61,8.61,0,0,0-5.227,3,2.686,2.686,0,0,0-.673,1.8c.029,4.834.015,9.668.015,14.5v.344c.054-.017.075-.017.086-.027.067-.06.131-.122.2-.185a9.489,9.489,0,0,1,2.659-1.8,13.981,13.981,0,0,1,5.665-1.186m-7.446-11.317a9.437,9.437,0,0,1,6.41-2.8.407.407,0,0,1,0,.813,8.765,8.765,0,0,0-5.813,2.539.407.407,0,0,1-.6-.553m6.813,2.976a.407.407,0,0,1-.452.356,6.226,6.226,0,0,0-5.736,1.9.407.407,0,0,1-.654-.484c.083-.112,2.091-2.748,6.486-2.221a.407.407,0,0,1,.355.452m-6.2,7.179a.407.407,0,0,1-.628-.517,6.479,6.479,0,0,1,6.525-1.9.407.407,0,1,1-.2.789,5.669,5.669,0,0,0-5.7,1.632" transform="translate(-25.005 -0.001)" fill="#7f7f7f"/>
    <path id="Path_47181" data-name="Path 47181" d="M116.817,280.547a.967.967,0,0,0-.849-.873c-.266-.022-.536,0-.848,0v1.179q0,5.5,0,11.007a2.535,2.535,0,0,1-2.573,2.685,21.876,21.876,0,0,0-2.327.211,9.539,9.539,0,0,0-4.58,1.925c-.131.105-.251.224-.434.39a22.169,22.169,0,0,1,8.368-.173c.717.108,1.426.269,2.141.387a.856.856,0,0,0,.937-.436,1.475,1.475,0,0,0,.167-.689q.014-7.683.007-15.366a2.311,2.311,0,0,0-.007-.242" transform="translate(-27.437 -5.876)" fill="#7f7f7f"/>
  </g>
</svg>
