<svg xmlns="http://www.w3.org/2000/svg" width="1091.159" height="32.279" viewBox="0 0 1091.159 32.279">
  <path id="Path_45261" data-name="Path 45261" d="M2368.491,680.954A16.11,16.11,0,0,0,2353.8,688.5a13.8,13.8,0,0,1-11.651,6.628H2039.845a13.26,13.26,0,0,1-11.454-6.307,16.126,16.126,0,0,0-27.744,0,13.259,13.259,0,0,1-11.454,6.307H1686.884a13.259,13.259,0,0,1-11.454-6.307,16.126,16.126,0,0,0-27.744,0,13.26,13.26,0,0,1-11.454,6.307H1333.924a13.8,13.8,0,0,1-11.65-6.628,16.112,16.112,0,0,0-14.688-7.551A16.14,16.14,0,0,0,1308.6,713.2a16.113,16.113,0,0,0,13.872-7.9,13.261,13.261,0,0,1,11.454-6.307h302.308a13.26,13.26,0,0,1,11.454,6.307,16.126,16.126,0,0,0,27.744,0,13.259,13.259,0,0,1,11.454-6.307h302.308a13.259,13.259,0,0,1,11.454,6.307,16.126,16.126,0,0,0,27.744,0,13.26,13.26,0,0,1,11.454-6.307h302.307a13.259,13.259,0,0,1,11.454,6.307,16.135,16.135,0,0,0,30-8.756A16.293,16.293,0,0,0,2368.491,680.954Z" transform="translate(-1292.459 -680.923)" fill="#e3e2e2"/>
</svg>
