<svg xmlns="http://www.w3.org/2000/svg" width="36.298" height="33.986" viewBox="0 0 36.298 33.986">
  <g id="Group_26335" data-name="Group 26335" transform="translate(-1027.225 -599.636)">
    <g id="Group_26335-2" data-name="Group 26335" transform="translate(1027.225 599.636)">
      <path id="Path_45256" data-name="Path 45256" d="M1028.4,646.878h8.513a2.278,2.278,0,0,0,1.664-.708c.579-.575,1.18-1.128,1.766-1.7.385-.374.755-.763,1.139-1.137,1.288-1.258,2.58-2.512,3.893-3.791.271.258.538.505.8.76q.894.873,1.784,1.752c.439.432.875.869,1.317,1.3,1.01.981,2.019,1.964,3.037,2.936a2.072,2.072,0,0,0,1.466.587q4.108.008,8.216.007h.36v.347q0,6.095,0,12.189c0,.359,0,.359.357.361a.717.717,0,0,1,.807.817c0,.213-.013.426,0,.637a.747.747,0,0,1-.831.842q-16.15-.02-32.3-.015-1.214,0-2.428,0a.671.671,0,0,1-.726-.69c-.014-.31-.013-.622,0-.932a.686.686,0,0,1,.713-.662c.451-.016.451-.016.451-.466q0-6.034,0-12.067Zm19.918.546a2.944,2.944,0,1,0-5.887.065,2.944,2.944,0,1,0,5.887-.065Zm-4.718,10.085h0c0,.678,0,1.357,0,2.035,0,.177.055.242.239.241q1.545-.01,3.089,0c.17,0,.231-.055.231-.224-.005-1.332.012-2.665-.012-4a1.77,1.77,0,0,0-3.537.031C1043.593,656.233,1043.6,656.871,1043.6,657.509Zm-4.674-4.762c.326,0,.653-.005.979,0,.157,0,.219-.053.218-.211q-.005-.991,0-1.982c0-.148-.064-.205-.205-.2-.66,0-1.321.005-1.981,0-.164,0-.208.077-.207.226q.007.978,0,1.957c0,.157.054.217.215.212C1038.277,652.741,1038.6,652.747,1038.93,652.747Zm12.881,0c.334,0,.669-.005,1,0,.148,0,.205-.051.2-.2q0-.991,0-1.982c0-.157-.058-.22-.214-.219q-.979.007-1.958,0c-.15,0-.224.052-.223.213q.008.991,0,1.982c0,.145.057.2.2.2C1051.159,652.745,1051.485,652.75,1051.812,652.749Zm-12.885,4.684v0c.318,0,.637-.009.955,0,.178.007.252-.05.25-.233q-.008-.967,0-1.935c0-.168-.064-.233-.232-.232q-.967.007-1.935,0c-.165,0-.233.056-.231.228q.009.98,0,1.959c0,.177.073.221.236.216C1038.289,657.426,1038.608,657.433,1038.926,657.433Zm12.892,0v0c.318,0,.637-.008.955,0,.176.007.249-.045.247-.231-.008-.645-.006-1.29,0-1.935,0-.164-.052-.237-.224-.235-.645.005-1.29,0-1.935,0-.161,0-.239.05-.237.224q.01.98,0,1.96c0,.174.072.224.237.219C1051.181,657.43,1051.5,657.437,1051.818,657.437Zm-18.756-4.691c.318,0,.637-.008.955,0,.177.006.248-.046.245-.234-.008-.645-.006-1.291,0-1.936,0-.17-.062-.233-.228-.232q-.968.008-1.936,0c-.148,0-.226.045-.224.21q.009.993,0,1.985c0,.146.055.2.2.2C1032.408,652.741,1032.735,652.746,1033.062,652.747Zm24.627,0c.31,0,.621-.01.931,0,.19.008.26-.051.257-.247-.009-.637-.007-1.274,0-1.911,0-.182-.064-.246-.241-.244-.637.007-1.274.007-1.911,0-.159,0-.239.047-.237.224q.011.98,0,1.96c0,.159.057.217.216.212C1057.036,652.745,1057.363,652.751,1057.69,652.751Zm-24.625,4.681v0c.319,0,.638-.009.956,0,.181.007.246-.058.245-.237-.006-.645,0-1.291,0-1.936,0-.15-.046-.228-.208-.226q-.981.007-1.96,0c-.15,0-.222.054-.221.215q.009.993,0,1.985c0,.149.06.2.206.2C1032.411,657.427,1032.738,657.432,1033.064,657.432Zm24.623,0v0c.327,0,.653,0,.98,0,.143,0,.211-.045.21-.195q0-1,0-2.01c0-.134-.055-.193-.189-.193q-.992,0-1.985,0c-.156,0-.215.067-.214.222q.008.98,0,1.961c0,.156.052.219.214.214C1057.033,657.43,1057.36,657.437,1057.687,657.437Z" transform="translate(-1027.225 -628.095)" fill="#fff"/>
      <path id="Path_45257" data-name="Path 45257" d="M1045.979,603.766c0,.718-.006,1.353.007,1.989,0,.079.092.167.16.232q1.616,1.555,3.237,3.106c.33.317.662.632.984.956a.557.557,0,0,0,.431.178c2.428-.006,4.857,0,7.285-.007a1.266,1.266,0,0,1,1.085.546q2.085,2.739,4.188,5.464a.651.651,0,0,1,.161.611.456.456,0,0,1-.441.359c-.13.006-.262.005-.392.005q-4.391,0-8.781,0a1.107,1.107,0,0,1-.834-.34c-.244-.247-.515-.467-.766-.708-.4-.388-.806-.78-1.2-1.177-.365-.367-.711-.754-1.081-1.116-.839-.82-1.689-1.628-2.533-2.443q-.961-.928-1.918-1.86c-.047-.045-.1-.086-.167-.145-.1.085-.2.163-.289.252q-1.868,1.822-3.734,3.646c-.443.431-.9.852-1.337,1.286-.508.5-1,1.017-1.511,1.517a9.459,9.459,0,0,1-.975.885,1.191,1.191,0,0,1-.663.188c-2.813.012-5.625.007-8.438.007-.2,0-.409-.005-.613,0a.509.509,0,0,1-.527-.281.564.564,0,0,1,.076-.622q.581-.759,1.164-1.516,1.289-1.682,2.577-3.365c.189-.246.384-.487.57-.736a1.112,1.112,0,0,1,.95-.463c2.428,0,4.856,0,7.285.008a.706.706,0,0,0,.54-.216q1.687-1.64,3.388-3.266a7.268,7.268,0,0,1,.645-.6.862.862,0,0,0,.334-.783c-.012-1.643,0-3.287-.005-4.93,0-.268,0-.546.282-.678a.9.9,0,0,1,.936.03,2.477,2.477,0,0,0,2.58.205,3.339,3.339,0,0,1,2.318-.178c.047.015.094.027.14.044.725.271.735.287.736,1.06,0,.949,0,1.9,0,2.845,0,.4-.092.452-.455.29a3.149,3.149,0,0,0-2.5-.076,5.154,5.154,0,0,1-1.126.315A2.034,2.034,0,0,1,1045.979,603.766Z" transform="translate(-1027.246 -599.636)" fill="#fff"/>
      <path id="Path_45258" data-name="Path 45258" d="M1087.507,661.675a1.05,1.05,0,0,1-.2.312c-.4.33-.829.635-1.24.957a.307.307,0,0,1-.471-.044c-.147-.156-.085-.3.026-.436.214-.267.444-.523.641-.8a1.177,1.177,0,0,0,.21-.5c.078-.615.128-1.234.182-1.852.016-.184.062-.315.281-.321s.316.068.336.288C1087.338,660.046,1087.42,660.817,1087.507,661.675Z" transform="translate(-1068.782 -641.955)" fill="#fff"/>
    </g>
  </g>
</svg>
