<svg xmlns="http://www.w3.org/2000/svg" width="29.276" height="35.32" viewBox="0 0 29.276 35.32">
  <g id="Group_26330" data-name="Group 26330" transform="translate(0 -1)">
    <g id="Group_26321" data-name="Group 26321" transform="translate(0 1)">
      <path id="Path_45252" data-name="Path 45252" d="M-30.893,417.551a30.317,30.317,0,0,0,4.115,5.186c.192-.734.35-1.373.528-2.007a.949.949,0,0,0-.134-.939,4.376,4.376,0,0,1-.423-1.168h2.64a1.759,1.759,0,0,1-.375,1.329c-.075.089-.18.223-.16.31.187.8.4,1.6.622,2.475a30.308,30.308,0,0,0,4.139-5.209c1.2.139,2.426.262,3.649.431a5.593,5.593,0,0,1,4.081,2.94,11.686,11.686,0,0,1,1.31,3.18,2.988,2.988,0,0,1-1.613,3.534,14.492,14.492,0,0,1-5.161,1.511c-1.927.236-3.869.363-5.808.491-1.061.07-2.129.09-3.192.056a40.364,40.364,0,0,1-9.086-1.068,9.578,9.578,0,0,1-2.953-1.234,2.877,2.877,0,0,1-1.24-3.282,11.093,11.093,0,0,1,1.784-3.875,5.462,5.462,0,0,1,3.824-2.31c.747-.1,1.5-.153,2.249-.228Z" transform="translate(40.066 -394.368)" fill="#fff"/>
      <path id="Path_45253" data-name="Path 45253" d="M-24.2,348.148a5.062,5.062,0,0,1-.56-2.064c.069-1.341.18-2.679.278-4.018.036-.5.1-.991.117-1.488a.789.789,0,0,0-.173-.49.547.547,0,0,1,.107-.9.344.344,0,0,0-.025-.637,2.842,2.842,0,0,1-.487-.214c-.159-.123-.377-.3-.377-.461s.206-.377.375-.46c.549-.271,1.123-.491,1.687-.734q2.2-.947,4.4-1.9c1.02-.441,2.026-.919,3.061-1.32a3.4,3.4,0,0,1,2.71.23c1.654.743,3.327,1.443,4.991,2.163,1.2.517,2.394,1.029,3.58,1.567.161.073.367.288.36.427a.682.682,0,0,1-.357.47q-1.3.607-2.635,1.143c-.384.155-.652.331-.549.8a1.25,1.25,0,0,1,0,.384,15.57,15.57,0,0,0,.315,3.429c.032.266.012.538.017.808a2.035,2.035,0,0,0,.278,1.222,2.488,2.488,0,0,1,.169,1.976,3.611,3.611,0,0,1-.6,1.667,15.945,15.945,0,0,0-1.608,2.783,9.759,9.759,0,0,1-3.289,3.358,4.571,4.571,0,0,1-5.036-.182,10.309,10.309,0,0,1-3.721-4.625,2.333,2.333,0,0,0-.648-.995,2.76,2.76,0,0,1-.839-1.76,3.592,3.592,0,0,1,.014-1.966c.074-.2.25-.371.339-.573a2.757,2.757,0,0,0,.181-.626,24.434,24.434,0,0,0,.347-5.127.409.409,0,0,0-.267-.443c-.679-.283-1.35-.585-2.024-.879l-.085.077a1.493,1.493,0,0,0,.24.361.578.578,0,0,1,.054.966.481.481,0,0,0-.1.325q.157,2.567.331,5.132A4.422,4.422,0,0,1-24.2,348.148Zm3.788,1.689.056-.081c.117.3.223.6.353.887a8.258,8.258,0,0,0,3.33,4.039,3.594,3.594,0,0,0,3.218.259,5.9,5.9,0,0,0,2.839-2.422c.557-.877,1.009-1.821,1.511-2.741.234.1.4-.108.524-.311a2.963,2.963,0,0,0,.447-2.123c-.1-.584-.141-.62-.679-.645a2.205,2.205,0,0,0-.113-.4c-.349-.706-.692-1.416-1.074-2.1a.494.494,0,0,0-.67-.207q-1.4.613-2.814,1.216a3.064,3.064,0,0,1-2.493.006c-.835-.353-1.662-.727-2.5-1.084-.134-.057-.329-.146-.424-.092a3.957,3.957,0,0,0-.962.67,3.67,3.67,0,0,0-.9,2.024c-.42-.056-.612.09-.632.47-.017.32-.032.642-.021.962a2.192,2.192,0,0,0,.534,1.4A1.69,1.69,0,0,0-20.408,349.837Z" transform="translate(29.37 -333.272)" fill="#fff"/>
    </g>
  </g>
</svg>
