<svg xmlns="http://www.w3.org/2000/svg" width="42.087" height="38.594" viewBox="0 0 42.087 38.594">
  <g id="Group_26868" data-name="Group 26868" transform="translate(0)">
    <path id="Path_47271" data-name="Path 47271" d="M65.286,880.47v-25.4a9.1,9.1,0,0,1,.7-1.637,3.5,3.5,0,0,1,3.13-1.467q13.233.006,26.464,0c2.685,0,5.37-.008,8.055,0a3.537,3.537,0,0,1,3.735,3.74q0,12.061-.014,24.122a4.106,4.106,0,0,1-.359,1.7,3.44,3.44,0,0,1-3.393,2c-3.835-.009-7.67,0-11.506,0h-.517a10.751,10.751,0,0,0,.728,3.776,2.23,2.23,0,0,0,1.432,1.424c.224.057.461.062.686.116a.822.822,0,0,1,.63.992c-.093.5-.449.718-1.166.718q-7.561,0-15.122,0a2.483,2.483,0,0,1-.529-.052.784.784,0,0,1-.648-.7c-.088-.569.278-.958,1-1.019a1.766,1.766,0,0,0,1.316-.735,6.793,6.793,0,0,0,1.083-3.4c.047-.359.053-.723.08-1.12h-.545q-5.65,0-11.3,0c-.26,0-.521,0-.779-.027a3.453,3.453,0,0,1-2.279-1.171,4.247,4.247,0,0,1-.879-1.864m38.552-24.965H68.828V876.5h35.01ZM84.581,880.031a1.747,1.747,0,1,0,1.739-1.757,1.748,1.748,0,0,0-1.739,1.757" transform="translate(-65.286 -851.966)" fill="#7f7f7f"/>
    <path id="Path_47272" data-name="Path 47272" d="M85.871,869.138a2.384,2.384,0,0,1,.488-3.119,2.334,2.334,0,0,1,2.859-.047,2.453,2.453,0,0,1,.58,3.183l3.037,2.871a2.824,2.824,0,0,1,3.461,0c.39-.37.787-.747,1.183-1.125.483-.462.956-.935,1.449-1.384a.372.372,0,0,0,.1-.519,2.707,2.707,0,1,1,.936,1.131l-.261-.178-2.839,2.7c.7,1.586.477,2.845-.63,3.7a2.729,2.729,0,0,1-3.358-.009c-1.1-.865-1.312-2.113-.614-3.7l-2.945-2.806a6.822,6.822,0,0,1-1.482.348,6.859,6.859,0,0,1-1.513-.346l-3.352,3.219c.465,1.49.1,2.615-1.037,3.19a2.331,2.331,0,0,1-2.765-3.664,2.393,2.393,0,0,1,3.283-.171l3.42-3.28" transform="translate(-70.349 -856.991)" fill="#7f7f7f"/>
  </g>
</svg>
