<svg xmlns="http://www.w3.org/2000/svg" width="48.422" height="50.175" viewBox="0 0 48.422 50.175">
  <g id="Group_26856" data-name="Group 26856" transform="translate(0)">
    <path id="Path_47241" data-name="Path 47241" d="M82.134,187.66a20.612,20.612,0,0,1,12.39-3.907,22.747,22.747,0,0,1,4.26.4c.33-.035.643-.085.947-.143a11.73,11.73,0,0,0,1.319-5.367c0-8.235-8.842-14.91-19.75-14.91a25.855,25.855,0,0,0-5.278.539,15.784,15.784,0,0,1-10.373-4.754.572.572,0,0,0-.977.28c-.433,2.113-1.114,6.778.317,10.437a12.48,12.48,0,0,0-3.438,8.408c0,7.274,6.9,13.331,16.031,14.645a14.036,14.036,0,0,1,4.552-5.627m12.39-10.651a2.076,2.076,0,1,1-2.076,2.076,2.076,2.076,0,0,1,2.076-2.076m-8.815,0a2.076,2.076,0,1,1-2.076,2.076,2.076,2.076,0,0,1,2.076-2.076M68.077,181.16a2.076,2.076,0,1,1,2.076-2.076,2.076,2.076,0,0,1-2.076,2.076m8.815,0a2.076,2.076,0,1,1,2.076-2.076,2.076,2.076,0,0,1-2.076,2.076" transform="translate(-61.551 -159.337)" fill="#7e7e7e"/>
    <path id="Path_47242" data-name="Path 47242" d="M117.1,204.393c1.12-2.862.586-6.512.249-8.164a.448.448,0,0,0-.765-.219,12.348,12.348,0,0,1-8.114,3.718,20.22,20.22,0,0,0-4.129-.422c-8.532,0-15.449,5.222-15.449,11.663s6.917,11.663,15.449,11.663,15.449-5.222,15.449-11.663a9.76,9.76,0,0,0-2.69-6.576m-21.575,9.415a2.076,2.076,0,1,1,2.076-2.076,2.076,2.076,0,0,1-2.076,2.076m8.815,0a2.076,2.076,0,1,1,2.076-2.076,2.076,2.076,0,0,1-2.076,2.076m8.815,0a2.076,2.076,0,1,1,2.076-2.076,2.076,2.076,0,0,1-2.076,2.076" transform="translate(-71.372 -172.457)" fill="#7e7e7e"/>
  </g>
</svg>
