<svg xmlns="http://www.w3.org/2000/svg" width="37.069" height="37.078" viewBox="0 0 37.069 37.078">
  <g id="Group_26869" data-name="Group 26869" transform="translate(-70.996 -952.269)">
    <path id="Path_47274" data-name="Path 47274" d="M71,996.069c.054-.2.1-.4.165-.588a3.254,3.254,0,0,1,3.995-2.1c.124.035.248.074.412.124-.434-.575-.859-1.105-1.249-1.661a18.338,18.338,0,0,1-3.161-8.068,1.1,1.1,0,1,1,2.158-.292,16.1,16.1,0,0,0,1.3,4.536c.03.065.06.131.094.195.009.018.035.027.078.059.09-.085.186-.17.277-.261q1.715-1.714,3.43-3.43a1.119,1.119,0,0,1,2.015.392,9.742,9.742,0,0,0,5.258,5.262,1.128,1.128,0,0,1,.4,2.04q-1.7,1.7-3.405,3.4a2.282,2.282,0,0,1-.327.228c.015.042.03.084.046.126a10.928,10.928,0,0,0,1.283.523c1.183.321,2.373.62,3.57.882a1.155,1.155,0,0,1,1.037,1.247,1.1,1.1,0,0,1-1.329.92,18.472,18.472,0,0,1-8.609-3.51q-.29-.216-.572-.442c-.186-.15-.368-.305-.629-.524a3.473,3.473,0,0,1,.177,2.2,3.256,3.256,0,0,1-6.312-.047c-.029-.115-.063-.23-.094-.345Z" transform="translate(0 -10.414)" fill="#7f7f7f"/>
    <path id="Path_47275" data-name="Path 47275" d="M74.689,952.269c.126.035.252.072.379.105a3.255,3.255,0,0,1,2.3,4.09c-.033.112-.07.224-.118.377.593-.446,1.142-.886,1.718-1.287a18.313,18.313,0,0,1,8.041-3.125,1.11,1.11,0,0,1,1.356.927,1.123,1.123,0,0,1-1.087,1.233,16.142,16.142,0,0,0-4.535,1.3c-.084.039-.166.082-.287.143.109.117.192.214.282.3q1.713,1.715,3.428,3.43c.781.784.612,1.594-.409,2.035a9.73,9.73,0,0,0-5.237,5.234c-.449,1.037-1.253,1.193-2.057.389l-3.61-3.606a.823.823,0,0,0-.1-.061c-.049.09-.1.175-.144.265a16.173,16.173,0,0,0-1.3,4.571,1.086,1.086,0,0,1-1.691.875,1.106,1.106,0,0,1-.466-1.171,18.8,18.8,0,0,1,1.039-4.089,18.542,18.542,0,0,1,3.178-5.394l.238-.283c-.27.076-.464.143-.663.183a3.256,3.256,0,0,1-3.879-2.507c-.018-.081-.047-.159-.071-.239v-.869c.028-.1.058-.205.084-.309a3.152,3.152,0,0,1,1.565-2.074,8.8,8.8,0,0,1,1.175-.44Z" transform="translate(0 0)" fill="#7f7f7f"/>
    <path id="Path_47276" data-name="Path 47276" d="M115.655,952.269c.115.031.23.065.345.094a3.256,3.256,0,1,1-1.7,6.284c-.115-.033-.228-.072-.4-.126.066.1.1.164.147.219a18.551,18.551,0,0,1,4.267,9.5,1.137,1.137,0,0,1-.449,1.213,1.015,1.015,0,0,1-1.127.055,1.151,1.151,0,0,1-.58-.945,16.121,16.121,0,0,0-1.3-4.571c-.034-.075-.073-.146-.133-.266-.115.108-.209.192-.3.281q-1.715,1.714-3.43,3.429a1.124,1.124,0,0,1-2.035-.4,9.783,9.783,0,0,0-5.3-5.273,1.107,1.107,0,0,1-.383-1.972q1.738-1.743,3.479-3.482c.082-.082.159-.171.323-.349-1.022-.348-1.964-.7-2.927-.984a15.147,15.147,0,0,0-1.947-.385,1.137,1.137,0,0,1-1.1-1.229,1.109,1.109,0,0,1,1.348-.937,18.055,18.055,0,0,1,7.316,2.649c.831.529,1.614,1.134,2.422,1.707-.047-.17-.113-.364-.154-.562a3.247,3.247,0,0,1,2.578-3.891,1.142,1.142,0,0,0,.167-.061Z" transform="translate(-10.412 0)" fill="#7f7f7f"/>
    <path id="Path_47277" data-name="Path 47277" d="M113.925,993.486c1.853-.5,3.282-.022,4.1,1.373a3.255,3.255,0,0,1-4.365,4.5c-1.438-.775-1.936-2.176-1.465-4.18-.321.257-.614.5-.916.732a18.459,18.459,0,0,1-8.8,3.687,1.114,1.114,0,0,1-1.373-.948,1.129,1.129,0,0,1,1.109-1.214,15.974,15.974,0,0,0,4.8-1.429c-.095-.106-.167-.194-.247-.274q-1.739-1.743-3.479-3.483a1.112,1.112,0,0,1,.38-2,9.792,9.792,0,0,0,5.292-5.281,1.118,1.118,0,0,1,2.014-.4q1.718,1.712,3.43,3.431c.091.091.187.177.36.339.309-.862.64-1.648.871-2.463a24.732,24.732,0,0,0,.517-2.437,1.141,1.141,0,0,1,1.226-1.061,1.109,1.109,0,0,1,.937,1.348,18.357,18.357,0,0,1-3.06,7.958c-.414.606-.876,1.178-1.336,1.792" transform="translate(-10.412 -10.415)" fill="#7f7f7f"/>
    <path id="Path_47278" data-name="Path 47278" d="M102.295,976.84h0c0-.043,0-.086,0-.13a3.318,3.318,0,0,0-3.3-3.268,3.4,3.4,0,0,0-3,1.949h0a3.394,3.394,0,0,0-3-1.949,3.318,3.318,0,0,0-3.3,3.268c0,.044,0,.087,0,.13,0,0-.186,2.079,2.128,4.349A52.731,52.731,0,0,0,96,984.82a52.975,52.975,0,0,0,4.165-3.63c2.314-2.27,2.128-4.349,2.128-4.349" transform="translate(-6.471 -7.323)" fill="#7f7f7f"/>
  </g>
</svg>
