<svg xmlns="http://www.w3.org/2000/svg" width="30.228" height="20.711" viewBox="0 0 30.228 20.711">
  <g id="Group_26797" data-name="Group 26797" transform="translate(-170.722 -2314.039)">
    <g id="Group_26770" data-name="Group 26770" transform="translate(170.722 2314.039)">
      <path id="Path_47155" data-name="Path 47155" d="M109.639,592.969a1.026,1.026,0,0,1-.816-.4l-2.2-2.894a1.025,1.025,0,1,1,1.632-1.242l1.354,1.779,2.912-4.145a1.026,1.026,0,0,1,1.679,1.179l-3.718,5.292a1.027,1.027,0,0,1-.82.436h-.019" transform="translate(-88.239 -576.058)" fill="#7f7f7f"/>
      <path id="Path_47156" data-name="Path 47156" d="M93.7,579.843a7.937,7.937,0,0,0-12.89-9l-4.639-2.836-2.4-1.448-3.437-2.068-1.425-.857a1.144,1.144,0,0,0-1.571.39l-.858,1.425-1.948,3.237a1.4,1.4,0,0,0,2.4,1.448l1.772-2.943a.343.343,0,0,1,.47-.117l2.849,1.715a.342.342,0,0,1,.117.47l-.995,1.653a1.4,1.4,0,1,0,2.4,1.447l.995-1.652a.342.342,0,0,1,.471-.116l4.275,2.616A7.937,7.937,0,0,0,93.7,579.843m-9.784.9a5.251,5.251,0,1,1,7.208-1.791,5.257,5.257,0,0,1-7.208,1.791" transform="translate(-64.33 -563.47)" fill="#7f7f7f"/>
    </g>
  </g>
</svg>
