<svg xmlns="http://www.w3.org/2000/svg" width="41.137" height="14.813" viewBox="0 0 41.137 14.813">
  <g id="Group_26777" data-name="Group 26777" transform="translate(-57.644 -380.771)">
    <path id="Path_47163" data-name="Path 47163" d="M65.078,380.771a7.406,7.406,0,1,1-7.434,7.352,7.411,7.411,0,0,1,7.434-7.352m3.746,8.4c-.489,0-.948-.017-1.4.014-.1.006-.232.173-.268.29a1.778,1.778,0,0,1-1.106,1.139,2.363,2.363,0,0,1-3.223-1.409H61.3a3.509,3.509,0,0,0,3.657,3.248,3.6,3.6,0,0,0,3.868-3.282m.161-3a.984.984,0,0,0-1-.963,1.019,1.019,0,0,0-.963,1.012.981.981,0,0,0,1.011.948.955.955,0,0,0,.949-1m-5.909.031a1.019,1.019,0,0,0-.982-.993.982.982,0,0,0-.978.982.954.954,0,0,0,.968.979.983.983,0,0,0,.993-.968" transform="translate(0)" fill="#7f7f7f"/>
    <path id="Path_47164" data-name="Path 47164" d="M118.43,380.771A7.406,7.406,0,1,1,111,388.123a7.411,7.411,0,0,1,7.434-7.352m3.746,8.4c-.489,0-.949-.017-1.4.014-.1.006-.232.173-.268.29a1.778,1.778,0,0,1-1.106,1.139,2.363,2.363,0,0,1-3.223-1.409H114.65a3.51,3.51,0,0,0,3.657,3.248,3.6,3.6,0,0,0,3.869-3.282m.161-3a.984.984,0,0,0-1-.963,1.019,1.019,0,0,0-.963,1.012.981.981,0,0,0,1.011.948.955.955,0,0,0,.95-1m-5.909.031a1.019,1.019,0,0,0-.982-.993.982.982,0,0,0-.978.982.953.953,0,0,0,.968.979.983.983,0,0,0,.993-.968" transform="translate(-27.027)" fill="#7f7f7f"/>
    <path id="Path_47165" data-name="Path 47165" d="M95.883,398.206l3.319,1.9.022.109-3.417,1.956c-.013-.216-.027-.365-.029-.513-.007-.53.055-.479-.466-.48-1.239,0-2.478-.011-3.717.007-.3,0-.375-.095-.362-.376.021-.45.018-.9,0-1.354-.009-.242.08-.3.309-.3,1.3.009,2.6,0,3.906.01.266,0,.357-.08.332-.339-.019-.191,0-.385,0-.578l.107-.041" transform="translate(-17.015 -8.832)" fill="#7f7f7f"/>
    <path id="Path_47166" data-name="Path 47166" d="M94.589,391.861l-3.44-1.966,3.528-2.02c0,.277.016.469,0,.657-.029.272.06.362.345.358,1.281-.015,2.563,0,3.844-.012.27,0,.375.058.359.347a11.618,11.618,0,0,0,0,1.291c.016.3-.066.4-.378.392-1.229-.018-2.458-.008-3.687-.006-.544,0-.474-.056-.48.5,0,.115,0,.23-.01.346,0,.026-.032.05-.077.117" transform="translate(-16.973 -3.599)" fill="#7f7f7f"/>
  </g>
</svg>
