<svg xmlns="http://www.w3.org/2000/svg" width="35.753" height="33.898" viewBox="0 0 35.753 33.898">
  <path id="Path_47020" data-name="Path 47020" d="M1969.4-64.794a1.809,1.809,0,0,0-1.733,1.306h-3.216V-69.6h2.222a4.779,4.779,0,0,0,4.78-4.78,4.779,4.779,0,0,0-4.78-4.78h-.2v-.064c0-3.506-2.2-6.349-5.7-6.349h-3.01a6.494,6.494,0,0,0-6.4-5.418,6.5,6.5,0,0,0-6.495,6.495v2.417h-.912a6.24,6.24,0,0,0-6.241,6.239,6.24,6.24,0,0,0,6.241,6.239h.152v1.987h-5.423a1.532,1.532,0,0,0-1.442-1.025,1.534,1.534,0,0,0-1.534,1.534,1.534,1.534,0,0,0,1.534,1.534,1.53,1.53,0,0,0,1.442-1.026h5.931a.51.51,0,0,0,.51-.509v-2.5h3.33v5.22a.541.541,0,0,0,.019.093,1.4,1.4,0,0,0-.914,1.313,1.4,1.4,0,0,0,1.405,1.406,1.406,1.406,0,0,0,1.405-1.406,1.4,1.4,0,0,0-.915-1.313.552.552,0,0,0,.018-.093V-69.6h4.6v9.31a.472.472,0,0,0,.018.086,1.592,1.592,0,0,0-1.107,1.513,1.6,1.6,0,0,0,1.6,1.6,1.6,1.6,0,0,0,1.6-1.6,1.593,1.593,0,0,0-1.108-1.513.479.479,0,0,0,.017-.086V-69.6h3.595v2.059a1.4,1.4,0,0,0-.891,1.3,1.4,1.4,0,0,0,1.4,1.4,1.4,1.4,0,0,0,1.4-1.4,1.4,1.4,0,0,0-.891-1.3V-69.6h3.729v6.626a.509.509,0,0,0,.509.509h3.725a1.808,1.808,0,0,0,1.733,1.307,1.816,1.816,0,0,0,1.816-1.816,1.816,1.816,0,0,0-1.816-1.815" transform="translate(-1935.705 90.995)" fill="#525050"/>
</svg>
