<svg xmlns="http://www.w3.org/2000/svg" width="34.624" height="31.035" viewBox="0 0 34.624 31.035">
  <g id="Group_26628" data-name="Group 26628" transform="translate(-42.848 -902.398)">
    <path id="Path_46995" data-name="Path 46995" d="M1538.958-86.6c-.838-.27-1.692-.5-2.547-.687V-69.61a1.738,1.738,0,0,1-.736,1.437,1.437,1.437,0,0,1-.8.248h0a1.44,1.44,0,0,1-.7-.185,4.033,4.033,0,0,0-2.007-.556c-1.849,0-3.731,1.339-5.911,2.889-1,.715-2.142,1.523-3.326,2.2-.018.014-.036.027-.056.04a1.436,1.436,0,0,1-.8.246h-.02a1.444,1.444,0,0,1-.8-.248c-.019-.012-.036-.025-.052-.038-1.184-.679-2.321-1.487-3.326-2.2-2.18-1.55-4.061-2.889-5.911-2.889a4.028,4.028,0,0,0-2.006.556,1.443,1.443,0,0,1-.7.185,1.44,1.44,0,0,1-.8-.247,1.738,1.738,0,0,1-.736-1.438V-87.284c-.855.19-1.709.418-2.548.687a.626.626,0,0,0-.415.606v22.755a.653.653,0,0,0,.231.505.535.535,0,0,0,.508.1,26.707,26.707,0,0,1,16.4,0,.54.54,0,0,0,.163.025l.028,0,.056-.005.017,0a.461.461,0,0,0,.081-.015,26.708,26.708,0,0,1,16.4,0,.531.531,0,0,0,.162.025.548.548,0,0,0,.347-.126.657.657,0,0,0,.231-.505V-85.99a.627.627,0,0,0-.416-.606" transform="translate(-1461.902 996.037)" fill="#525050"/>
    <path id="Path_46996" data-name="Path 46996" d="M1533.347-87.811a1.1,1.1,0,0,0-1.156,1.022v13.311c-2.829-.843-5.318.723-7.734,2.244-.429.27-.851.534-1.277.787v-4.344a1.1,1.1,0,0,0-1.156-1.022,1.1,1.1,0,0,0-1.156,1.022v4.344c-.417-.248-.836-.509-1.276-.787-2.414-1.518-4.9-3.084-7.735-2.248V-86.789a1.1,1.1,0,0,0-1.156-1.022,1.1,1.1,0,0,0-1.156,1.022v14.181a1.464,1.464,0,0,0,.746,1.254,1.784,1.784,0,0,0,1.684.059c1.884-.932,3.529,0,6.278,1.728.85.534,1.813,1.14,2.823,1.653.015.011.029.019.04.026a1.772,1.772,0,0,0,.914.242,1.775,1.775,0,0,0,.911-.25l.028-.018c1.008-.512,1.932-1.093,2.827-1.655,2.745-1.727,4.391-2.658,6.273-1.726a1.786,1.786,0,0,0,1.686-.06,1.463,1.463,0,0,0,.745-1.253V-86.789a1.1,1.1,0,0,0-1.156-1.022" transform="translate(-1461.907 996.037)" fill="#525050"/>
    <path id="Path_46997" data-name="Path 46997" d="M1515.047-86.592v6.076a1.03,1.03,0,0,0,.657.969l5.774,2.168a.944.944,0,0,0,.666,0l5.774-2.168a1.029,1.029,0,0,0,.656-.969v-6.076l-6.723,2.785Z" transform="translate(-1461.913 996.035)" fill="#525050"/>
    <path id="Path_46998" data-name="Path 46998" d="M1530.446-88.908l.506-.2a.246.246,0,0,0,.009-.451l-9.049-4.065a.219.219,0,0,0-.187,0l-9.049,4.065a.247.247,0,0,0,.009.451l9.049,3.589a.223.223,0,0,0,.168,0l8.023-3.182v6.175l-.654,2.276a.617.617,0,0,0,.534.675h.762a.616.616,0,0,0,.533-.675l-.654-2.276Zm-8.627-.168c-.7,0-1.267-.312-1.267-.7s.566-.7,1.267-.7,1.266.312,1.266.7-.568.7-1.266.7" transform="translate(-1461.91 996.043)" fill="#525050"/>
  </g>
</svg>
