<svg id="Group_26617" data-name="Group 26617" xmlns="http://www.w3.org/2000/svg" width="31.264" height="30.956" viewBox="0 0 31.264 30.956">
  <path id="Path_46986" data-name="Path 46986" d="M1435.389-69.442a11.927,11.927,0,0,1,.769-4.219h-5.352a1.2,1.2,0,0,1-1.195-1.195,1.2,1.2,0,0,1,1.195-1.195h6.578a12.084,12.084,0,0,1,2.4-2.654h-8.978a1.2,1.2,0,0,1-1.195-1.2,1.2,1.2,0,0,1,1.195-1.195h11.682a1.188,1.188,0,0,1,.862.372,11.911,11.911,0,0,1,4.015-.694c.19,0,.378.006.566.014v-6.413a3.053,3.053,0,0,0-3.054-3.053h-16.195a3.052,3.052,0,0,0-3.053,3.053v24.134a3.053,3.053,0,0,0,3.053,3.053h10.583a11.944,11.944,0,0,1-3.876-8.812m-4.583-16.7h11.682a1.2,1.2,0,0,1,1.195,1.195,1.2,1.2,0,0,1-1.195,1.195h-11.682a1.2,1.2,0,0,1-1.195-1.195,1.2,1.2,0,0,1,1.195-1.195" transform="translate(-1425.629 90.869)" fill="#525050"/>
  <path id="Path_46987" data-name="Path 46987" d="M1447.378-78.957a9.529,9.529,0,0,0-9.529,9.528,9.529,9.529,0,0,0,9.529,9.528,9.529,9.529,0,0,0,9.529-9.528,9.529,9.529,0,0,0-9.529-9.528m2.573,13.913a3.666,3.666,0,0,1-1.949.837v1.162a.625.625,0,0,1-.625.624.625.625,0,0,1-.624-.624v-1.139a5.009,5.009,0,0,1-2.639-1.029.637.637,0,0,1-.071-1,.71.71,0,0,1,1.126-.07,3.967,3.967,0,0,0,1.584.657v-3.442l-.586-.253a2.9,2.9,0,0,1-2.11-2.715,2.567,2.567,0,0,1,.964-2.04,3.422,3.422,0,0,1,1.732-.764v-1.436a.625.625,0,0,1,.624-.624.625.625,0,0,1,.625.624v1.419a4.212,4.212,0,0,1,2.117.866.567.567,0,0,1,.07.9.647.647,0,0,1-1.012.113,3.276,3.276,0,0,0-1.175-.446v3.111l.809.345a4.1,4.1,0,0,1,1.519,1.027,2.661,2.661,0,0,1,.591,1.772,2.7,2.7,0,0,1-.97,2.124" transform="translate(-1425.642 90.856)" fill="#525050"/>
  <path id="Path_46988" data-name="Path 46988" d="M1448.808-68.042a4.1,4.1,0,0,0-.8-.466v2.87a1.848,1.848,0,0,0,.753-.338,1.264,1.264,0,0,0,.507-1.054,1.241,1.241,0,0,0-.464-1.013" transform="translate(-1425.654 90.844)" fill="#525050"/>
  <path id="Path_46989" data-name="Path 46989" d="M1445.726-72.126a1.191,1.191,0,0,0,.52.985,3.389,3.389,0,0,0,.516.295v-2.529a1.641,1.641,0,0,0-.565.272,1.165,1.165,0,0,0-.471.978" transform="translate(-1425.651 90.85)" fill="#525050"/>
</svg>
