<svg xmlns="http://www.w3.org/2000/svg" width="29.325" height="33.657" viewBox="0 0 29.325 33.657">
  <g id="Group_26625" data-name="Group 26625" transform="translate(-131.258 -774.306)">
    <path id="Path_46990" data-name="Path 46990" d="M1611.545-67.355h-6.094A1.448,1.448,0,0,1,1604-68.8v-.427a1.448,1.448,0,0,1,1.448-1.447h6.094a1.447,1.447,0,0,1,1.447,1.447v.427a1.447,1.447,0,0,1-1.447,1.447" transform="translate(-1463.073 867.501)" fill="#525050"/>
    <path id="Path_46991" data-name="Path 46991" d="M1612.989-75.772H1604a2.837,2.837,0,0,1-2.833-2.833v-2.248A2.836,2.836,0,0,1,1604-83.686h8.989a2.837,2.837,0,0,1,2.834,2.834V-78.6a2.837,2.837,0,0,1-2.834,2.833M1604-81.341a.489.489,0,0,0-.489.488V-78.6a.489.489,0,0,0,.489.487h8.989a.488.488,0,0,0,.489-.487v-2.248a.489.489,0,0,0-.489-.488Z" transform="translate(-1463.07 867.516)" fill="#525050"/>
    <path id="Path_46992" data-name="Path 46992" d="M1605.654-72.25h5.667a3.228,3.228,0,0,1,3.224,3.224c0,.033,0,.065,0,.1h2.138a1.73,1.73,0,0,0,1.517-.9l4.459-8.111a1.979,1.979,0,0,0-2.151-1.74h-24.031a1.979,1.979,0,0,0-2.152,1.74l4.458,8.111a1.732,1.732,0,0,0,1.518.9h2.138c0-.033,0-.065,0-.1a3.229,3.229,0,0,1,3.225-3.224" transform="translate(-1463.062 867.511)" fill="#525050"/>
    <path id="Path_46993" data-name="Path 46993" d="M1617.7-66.968h-3.9a3.217,3.217,0,0,1-2.485,1.173h-5.667a3.218,3.218,0,0,1-2.485-1.173h-3.9a1.955,1.955,0,0,1-1.712-1.013l-3.24-5.892v12.18a2.152,2.152,0,0,0,2.152,2.152H1620.5a2.152,2.152,0,0,0,2.151-2.152v-12.18l-3.239,5.892a1.957,1.957,0,0,1-1.713,1.013" transform="translate(-1463.062 867.505)" fill="#525050"/>
    <path id="Path_46994" data-name="Path 46994" d="M1623.165-93.214l-2.82.479a.411.411,0,0,0-.248.668l.476.574-4.948,4.1-11.955-3.795a.678.678,0,0,0-.688.167l-7.944,7.9a.684.684,0,0,0,0,.967.683.683,0,0,0,.485.2.683.683,0,0,0,.483-.2l7.649-7.6,11.916,3.783a.686.686,0,0,0,.643-.125l5.236-4.337.475.574a.413.413,0,0,0,.7-.12l.994-2.681a.412.412,0,0,0-.454-.549" transform="translate(-1463.063 867.526)" fill="#525050"/>
  </g>
</svg>
