<svg xmlns="http://www.w3.org/2000/svg" width="40.12" height="31.911" viewBox="0 0 40.12 31.911">
  <g id="Group_26651" data-name="Group 26651" transform="translate(-13.836 -13.375)">
    <path id="Path_47045" data-name="Path 47045" d="M1263.617-85.545l-2.008-.469a.5.5,0,0,0-.2-.006,8.387,8.387,0,0,0-.656-1.514.543.543,0,0,0,.13-.14l1.087-1.752a.536.536,0,0,0-.076-.664l-2.057-2.056a.536.536,0,0,0-.664-.077l-1.752,1.087a.546.546,0,0,0-.18.186,8.4,8.4,0,0,0-1.506-.607.527.527,0,0,0,0-.238l-.47-2.008a.539.539,0,0,0-.525-.416h-2.908a.54.54,0,0,0-.524.416l-.47,2.008a.535.535,0,0,0,.006.263,8.46,8.46,0,0,0-1.5.625.535.535,0,0,0-.163-.16l-1.752-1.088a.539.539,0,0,0-.665.077l-2.056,2.056a.539.539,0,0,0-.077.665l1.088,1.751a.523.523,0,0,0,.151.156,8.407,8.407,0,0,0-.639,1.523.519.519,0,0,0-.171.009l-2.008.469a.538.538,0,0,0-.415.524v2.908a.537.537,0,0,0,.415.524l2.008.47a.546.546,0,0,0,.144.012,8.457,8.457,0,0,0,.643,1.571.6.6,0,0,0-.059.076l-1.088,1.751a.537.537,0,0,0,.077.665l2.056,2.056a.538.538,0,0,0,.664.077l1.752-1.088a.443.443,0,0,0,.065-.051,8.377,8.377,0,0,0,1.617.665.3.3,0,0,0,.006.045l.469,2.009a.538.538,0,0,0,.525.415h2.907a.538.538,0,0,0,.525-.415l.47-2.009a.448.448,0,0,0,.008-.073,8.408,8.408,0,0,0,1.609-.688.431.431,0,0,0,.042.035l1.752,1.087a.539.539,0,0,0,.665-.077l2.056-2.056a.54.54,0,0,0,.077-.665l-1.088-1.752a.554.554,0,0,0-.08-.1,8.391,8.391,0,0,0,.622-1.574.511.511,0,0,0,.117-.013l2.008-.47a.538.538,0,0,0,.415-.523V-85.02a.538.538,0,0,0-.415-.524m-10.285,5.834a3.711,3.711,0,0,1-3.711-3.711,3.711,3.711,0,0,1,3.711-3.711,3.71,3.71,0,0,1,3.711,3.711,3.71,3.71,0,0,1-3.711,3.711" transform="translate(-1227.221 107.594)" fill="#525050"/>
    <path id="Path_47046" data-name="Path 47046" d="M1278.082-68.463h-33.935a3.092,3.092,0,0,0-3.092,3.092,3.092,3.092,0,0,0,3.092,3.092h33.935a3.092,3.092,0,0,0,3.093-3.092,3.092,3.092,0,0,0-3.093-3.092m-29.909,4.457a1.366,1.366,0,0,1-1.366-1.365,1.367,1.367,0,0,1,1.366-1.367,1.366,1.366,0,0,1,1.366,1.367,1.366,1.366,0,0,1-1.366,1.365m6.471,0a1.366,1.366,0,0,1-1.366-1.365,1.367,1.367,0,0,1,1.366-1.367,1.367,1.367,0,0,1,1.366,1.367,1.366,1.366,0,0,1-1.366,1.365m6.471,0a1.366,1.366,0,0,1-1.366-1.365,1.366,1.366,0,0,1,1.366-1.367,1.367,1.367,0,0,1,1.367,1.367,1.367,1.367,0,0,1-1.367,1.365m6.471,0a1.366,1.366,0,0,1-1.367-1.365,1.367,1.367,0,0,1,1.367-1.367,1.367,1.367,0,0,1,1.366,1.367,1.366,1.366,0,0,1-1.366,1.365m6.471,0a1.366,1.366,0,0,1-1.366-1.365,1.366,1.366,0,0,1,1.366-1.367,1.366,1.366,0,0,1,1.365,1.367,1.365,1.365,0,0,1-1.365,1.365" transform="translate(-1227.219 107.565)" fill="#525050"/>
    <path id="Path_47047" data-name="Path 47047" d="M1270.346-70.068h-5.327a.859.859,0,0,1-.859-.859v-5.327a.86.86,0,0,1,.859-.86h5.327a.861.861,0,0,1,.86.86v5.327a.86.86,0,0,1-.86.859" transform="translate(-1227.245 107.575)" fill="#525050"/>
    <path id="Path_47048" data-name="Path 47048" d="M1278.264-70.068h-5.327a.86.86,0,0,1-.86-.859v-5.327a.861.861,0,0,1,.86-.86h5.327a.86.86,0,0,1,.859.86v5.327a.859.859,0,0,1-.859.859" transform="translate(-1227.253 107.575)" fill="#525050"/>
    <path id="Path_47049" data-name="Path 47049" d="M1276.68-78.3h-5.327a.859.859,0,0,1-.859-.859v-5.327a.86.86,0,0,1,.859-.86h5.327a.861.861,0,0,1,.86.86v5.327a.86.86,0,0,1-.86.859" transform="translate(-1227.251 107.584)" fill="#525050"/>
  </g>
</svg>
