<svg xmlns="http://www.w3.org/2000/svg" width="201.848" height="108.407" viewBox="0 0 201.848 108.407">
  <g id="Group_23131" data-name="Group 23131" transform="translate(-1313.265 -3636.192)">
    <g id="Group_23011" data-name="Group 23011" transform="translate(1460.402 3698.801)">
      <g id="Group_23008" data-name="Group 23008" transform="translate(2.342 0)">
        <path id="Path_43724" data-name="Path 43724" d="M1679.2,3768.614l-2.531,26.645a1.705,1.705,0,0,0,1.345,1.916l42.672,6.45a1.72,1.72,0,0,0,1.871-1.543l3.11-20.578a1.718,1.718,0,0,0-1.342-2.028l-26.272-3.778a1.535,1.535,0,0,1-1.056-.684l-3.8-5.7a1.536,1.536,0,0,0-1.046-.683l-11.063-1.672A1.733,1.733,0,0,0,1679.2,3768.614Z" transform="translate(-1676.661 -3766.944)" fill="#ebebeb"/>
      </g>
      <g id="Group_23009" data-name="Group 23009" transform="translate(0.772 2.606)">
        <rect id="Rectangle_1812" data-name="Rectangle 1812" width="47.155" height="31.411" transform="translate(4.694) rotate(8.595)" fill="#f5f5f5"/>
      </g>
      <g id="Group_23010" data-name="Group 23010" transform="translate(0 3.689)">
        <path id="Path_43725" data-name="Path 43725" d="M1673.144,3775.731l-1.335,32.927a1.088,1.088,0,0,0,.869,1.163l45.44,6.868a1.1,1.1,0,0,0,1.186-.9l7.183-32.042a1.116,1.116,0,0,0-.84-1.393l-51.287-7.751A1.123,1.123,0,0,0,1673.144,3775.731Z" transform="translate(-1671.808 -3774.588)" fill="#ebebeb"/>
      </g>
    </g>
    <g id="Group_23015" data-name="Group 23015" transform="translate(1313.265 3636.192)">
      <g id="Group_23012" data-name="Group 23012" transform="translate(1.142 1.826)">
        <path id="Path_43726" data-name="Path 43726" d="M1308.022,3646.743l4.893,13.225a.95.95,0,0,0,1.166.58l24.26-7.312a.95.95,0,0,0,.636-1.185l-3.163-10.494a.951.951,0,0,0-1.19-.634l-14.891,4.593a.952.952,0,0,1-.724-.067l-3.363-1.773a.951.951,0,0,0-.718-.069l-6.29,1.9A.951.951,0,0,0,1308.022,3646.743Z" transform="translate(-1307.963 -3640.881)" fill="#ebebeb"/>
      </g>
      <g id="Group_23013" data-name="Group 23013" transform="translate(1.732 0)">
        <rect id="Rectangle_1813" data-name="Rectangle 1813" width="27.685" height="16.543" transform="translate(0 7.989) rotate(-16.772)" fill="#f5f5f5"/>
      </g>
      <g id="Group_23014" data-name="Group 23014" transform="translate(0 0.4)">
        <path id="Path_43727" data-name="Path 43727" d="M1304.489,3646.125l7,15.907a.612.612,0,0,0,.736.339l25.833-7.786a.611.611,0,0,0,.421-.715l-3.678-16.91a.611.611,0,0,0-.774-.455l-29.157,8.788A.612.612,0,0,0,1304.489,3646.125Z" transform="translate(-1304.437 -3636.479)" fill="#ebebeb"/>
      </g>
    </g>
    <g id="Group_23016" data-name="Group 23016" transform="translate(1330.294 3647.892)">
      <rect id="Rectangle_1814" data-name="Rectangle 1814" width="160.138" height="86.029" transform="translate(0 0)" fill="#f8f8f8"/>
    </g>
    <g id="Group_23018" data-name="Group 23018" transform="translate(1330.168 3647.815)">
      <g id="Group_23017" data-name="Group 23017" transform="translate(0)">
        <path id="Path_43728" data-name="Path 43728" d="M1518.019,3747.4c0-.547-.042-34.249-.106-86.029l.106.065-160.123.011h-.015l.125-.077c-.005,31.266-.01,60.706-.015,86.029l-.111-.067,160.138.067-160.138.068h-.111v-.068c0-25.323-.009-54.763-.015-86.029v-.077h.14l160.123.012h.106v.064C1518.062,3713.152,1518.02,3746.854,1518.019,3747.4Z" transform="translate(-1357.756 -3661.295)" fill="#1a2e35"/>
      </g>
    </g>
    <g id="Group_23073" data-name="Group 23073" transform="translate(1349.429 3679.396)">
      <g id="Group_23019" data-name="Group 23019" transform="translate(6.178 0)">
        <path id="Path_43729" data-name="Path 43729" d="M1410.469,3728.912v25.257h30.7v-25.257a2.177,2.177,0,0,0-2.177-2.177h-26.346A2.177,2.177,0,0,0,1410.469,3728.912Z" transform="translate(-1410.469 -3726.735)" fill="#015579"/>
      </g>
      <g id="Group_23020" data-name="Group 23020" transform="translate(0 26.539)">
        <path id="Path_43730" data-name="Path 43730" d="M1397.681,3800.589l6.858-18.862,30.007.9-4.473,17.2a1.521,1.521,0,0,1-1.5,1.138l-7.773-.165-1.275,1.812a1.712,1.712,0,0,1-1.473.726l-18.783-.793A1.69,1.69,0,0,1,1397.681,3800.589Z" transform="translate(-1397.667 -3781.727)" fill="#015579"/>
      </g>
      <g id="Group_23024" data-name="Group 23024" transform="translate(7.72 4.331)">
        <g id="Group_23021" data-name="Group 23021" transform="translate(0.102 0.113)">
          <path id="Path_43731" data-name="Path 43731" d="M1413.877,3735.945v19.766l26.984,1.486-.119-21.252Z" transform="translate(-1413.877 -3735.945)" fill="#f5f5f5"/>
        </g>
        <g id="Group_23023" data-name="Group 23023">
          <g id="Group_23022" data-name="Group 23022">
            <path id="Path_43732" data-name="Path 43732" d="M1413.767,3735.823a.744.744,0,0,1,.12-.007l.368-.007,1.445-.013,5.487-.03,19.446-.056h.113v.112c.038,6.162.081,13.176.127,20.586,0,.224,0,.448,0,.666v.134l-.134-.007-26.982-1.51-.1-.005v-.1c.018-5.995.033-10.933.044-14.385.012-1.716.023-3.062.029-3.991q.011-.673.016-1.042c0-.233.012-.347.012-.347s.007.128.012.367.009.595.017,1.044c.007.924.017,2.263.03,3.97.01,3.452.025,8.39.043,14.385l-.1-.1,26.985,1.462-.133.126c0-.218,0-.441,0-.666-.037-7.411-.072-14.425-.1-20.586l.113.112-19.372-.056-5.513-.03-1.467-.013-.38-.007A1.164,1.164,0,0,1,1413.767,3735.823Z" transform="translate(-1413.665 -3735.71)" fill="#1a2e35"/>
          </g>
        </g>
      </g>
      <g id="Group_23028" data-name="Group 23028" transform="translate(9.162 5.769)">
        <g id="Group_23025" data-name="Group 23025" transform="translate(0.072 0.115)">
          <path id="Path_43733" data-name="Path 43733" d="M1416.8,3742.419c.024-.658,0-3.485,0-3.485,7.543-.024,15.993.03,23.537.007.211,3.732.255,8.773.467,12.506" transform="translate(-1416.801 -3738.928)" fill="#ebebeb"/>
        </g>
        <g id="Group_23027" data-name="Group 23027">
          <g id="Group_23026" data-name="Group 23026">
            <path id="Path_43734" data-name="Path 43734" d="M1440.727,3751.323a1.087,1.087,0,0,1-.032-.235c-.014-.176-.031-.4-.054-.685-.042-.6-.088-1.475-.135-2.58-.1-2.21-.164-5.34-.363-9l.117.111-7.252.007c-6.763,0-12.733-.026-16.285-.059l.071-.072c-.014,1.083-.025,1.949-.033,2.57-.007.281-.013.506-.018.681a1.063,1.063,0,0,1-.019.234,1.087,1.087,0,0,1-.019-.236c0-.175-.011-.4-.019-.682-.008-.62-.019-1.485-.033-2.567v-.071h.072c3.552-.032,9.521-.051,16.284-.05l7.252.01h.112l.005.11c.181,3.668.209,6.8.272,9.007.029,1.086.052,1.957.069,2.581.007.283.012.51.016.687A1.116,1.116,0,0,1,1440.727,3751.323Z" transform="translate(-1416.652 -3738.69)" fill="#e0e0e0"/>
          </g>
        </g>
      </g>
      <g id="Group_23032" data-name="Group 23032" transform="translate(3.699 9.258)">
        <g id="Group_23029" data-name="Group 23029" transform="translate(0 0.117)">
          <path id="Path_43735" data-name="Path 43735" d="M1405.331,3746.25l5.568,16.233h25.54l-3.816-16.321Z" transform="translate(-1405.331 -3746.162)" fill="#fff"/>
        </g>
        <g id="Group_23031" data-name="Group 23031" transform="translate(0)">
          <g id="Group_23030" data-name="Group 23030">
            <path id="Path_43736" data-name="Path 43736" d="M1405.332,3746.124a.9.9,0,0,1,.123-.006l.378-.007,1.484-.017,5.613-.049,19.694-.125h.093l.021.091,3.671,15.659.154.66.036.154h-.158l-25.541-.026h-.071l-.023-.068-4.016-11.886-1.09-3.252-.28-.845c-.062-.189-.087-.283-.087-.283s.042.1.112.3l.3.859,1.145,3.263,4.1,11.78-.095-.068,25.541-.025-.123.154c-.05-.216-.1-.437-.154-.66-1.293-5.545-2.528-10.84-3.653-15.663l.114.09h-19.6l-5.646-.013-1.511-.008-.393,0A1.294,1.294,0,0,1,1405.332,3746.124Z" transform="translate(-1405.332 -3745.919)" fill="#1a2e35"/>
          </g>
        </g>
      </g>
      <g id="Group_23034" data-name="Group 23034" transform="translate(2.289 25.934)" opacity="0.3">
        <g id="Group_23033" data-name="Group 23033">
          <path id="Path_43737" data-name="Path 43737" d="M1434.9,3780.575a.684.684,0,0,0-.637-.048,100.583,100.583,0,0,0-28.265,12.311l-3.584,4.146a2.758,2.758,0,0,0,2.266.894l12.034.785c2.8.182,5.6.365,8.4.355,1.663-.006,3.484-.141,4.7-1.281a6.686,6.686,0,0,0,1.471-2.509,62.641,62.641,0,0,0,3.726-14.044A.683.683,0,0,0,1434.9,3780.575Z" transform="translate(-1402.411 -3780.474)"/>
        </g>
      </g>
      <g id="Group_23038" data-name="Group 23038" transform="translate(1.972 25.573)">
        <g id="Group_23035" data-name="Group 23035" transform="translate(0.154 0.123)">
          <path id="Path_43738" data-name="Path 43738" d="M1409.213,3781.264l-7.14,15.439,26.8.536,5.878-17.257Z" transform="translate(-1402.073 -3779.982)" fill="#f5f5f5"/>
        </g>
        <g id="Group_23037" data-name="Group 23037">
          <g id="Group_23036" data-name="Group 23036">
            <path id="Path_43739" data-name="Path 43739" d="M1409.048,3781.132a.614.614,0,0,1,.116-.014l.352-.026,1.38-.085,5.231-.294,18.456-.977.168-.009-.054.16-5.867,17.261-.029.087h-.1l-26.8-.562-.152,0,.064-.138,5.259-11.259,1.452-3.078.383-.8c.087-.179.136-.264.136-.264s-.038.1-.119.289l-.365.82-1.411,3.113-5.155,11.26-.088-.141,26.8.51h0l-.122.085,5.889-17.253.114.15-18.408.874-5.251.232-1.4.054-.362.01A.736.736,0,0,1,1409.048,3781.132Z" transform="translate(-1401.754 -3779.727)" fill="#1a2e35"/>
          </g>
        </g>
      </g>
      <g id="Group_23042" data-name="Group 23042" transform="translate(1.198 25.577)">
        <g id="Group_23039" data-name="Group 23039" transform="translate(0.205 0.12)">
          <path id="Path_43740" data-name="Path 43740" d="M1408.318,3779.982l-7.745,8.528,26.626.2,6.66-8.729Z" transform="translate(-1400.573 -3779.982)" fill="#fafafa"/>
        </g>
        <g id="Group_23041" data-name="Group 23041">
          <g id="Group_23040" data-name="Group 23040">
            <path id="Path_43741" data-name="Path 43741" d="M1408.1,3779.854a.527.527,0,0,1,.119-.01l.359-.009,1.4-.018,5.285-.034,18.372-.048h.241l-.147.192-6.655,8.733-.038.05h-.063l-.812-.006-25.814-.23-.2,0,.138-.15L1406,3782.1l1.555-1.677.406-.429a1.18,1.18,0,0,1,.142-.139,1.547,1.547,0,0,1-.131.162l-.4.453-1.527,1.717-5.625,6.258-.067-.152,25.815.16.812.006-.1.049,6.665-8.725.095.191-18.328-.048-5.3-.034-1.418-.018-.368-.009A.671.671,0,0,1,1408.1,3779.854Z" transform="translate(-1400.149 -3779.734)" fill="#1a2e35"/>
          </g>
        </g>
      </g>
      <g id="Group_23046" data-name="Group 23046" transform="translate(5.891 11.012)">
        <g id="Group_23043" data-name="Group 23043" transform="translate(0.129 0.126)">
          <path id="Path_43742" data-name="Path 43742" d="M1412.43,3756.94l-2.287-7.125h23.733l3.325,13.029" transform="translate(-1410.142 -3749.814)" fill="#f5f5f5"/>
        </g>
        <g id="Group_23045" data-name="Group 23045">
          <g id="Group_23044" data-name="Group 23044">
            <path id="Path_43743" data-name="Path 43743" d="M1437.062,3762.709a1.261,1.261,0,0,1-.081-.241c-.051-.178-.116-.413-.2-.708l-.716-2.673-2.441-9.379.111.087-8.883.01-14.849-.032.089-.122,1.633,5.223.432,1.427.106.374a.481.481,0,0,1,.027.13.49.49,0,0,1-.053-.122l-.131-.365q-.174-.515-.48-1.412l-1.712-5.2-.04-.122H1410l14.849-.032,8.883.01h.09l.022.087,2.353,9.4.653,2.688c.068.3.123.536.164.717A1.285,1.285,0,0,1,1437.062,3762.709Z" transform="translate(-1409.875 -3749.554)" fill="#1a2e35"/>
          </g>
        </g>
      </g>
      <g id="Group_23047" data-name="Group 23047" transform="translate(16.572 16.098)">
        <path id="Path_43744" data-name="Path 43744" d="M1437.828,3760.923a3.68,3.68,0,0,0-1.209-.75,2.876,2.876,0,0,0-2.564.769c-.714.6-1.29,1.353-2.05,1.891l8.323.135Z" transform="translate(-1432.006 -3760.092)" fill="#fff"/>
      </g>
      <g id="Group_23048" data-name="Group 23048" transform="translate(23.98 13.697)">
        <path id="Path_43745" data-name="Path 43745" d="M1450.133,3755.852c-.3-.447-1.291-1-1.942-.589h0a1.274,1.274,0,0,0-.825.977,1.523,1.523,0,0,0,2.658,1.115A1.29,1.29,0,0,0,1450.133,3755.852Z" transform="translate(-1447.357 -3755.118)" fill="#fff"/>
      </g>
      <g id="Group_23052" data-name="Group 23052" transform="translate(0.931 18.172)">
        <g id="Group_23049" data-name="Group 23049" transform="translate(0.231 0.091)">
          <path id="Path_43746" data-name="Path 43746" d="M1408.06,3772.013l-7.986-7.433,26.138.212,7.507,7.221Z" transform="translate(-1400.074 -3764.58)" fill="#fafafa"/>
        </g>
        <g id="Group_23051" data-name="Group 23051">
          <g id="Group_23050" data-name="Group 23050">
            <path id="Path_43747" data-name="Path 43747" d="M1407.813,3771.915a.625.625,0,0,1,.128-.01l.371-.01,1.428-.018,5.333-.035,18.4-.047-.083.206-7.511-7.217.086.035-.484,0-25.653-.244.062-.155,5.805,5.46,1.576,1.5.408.4a1.3,1.3,0,0,1,.136.143,1.02,1.02,0,0,1-.146-.119l-.418-.373-1.6-1.458-5.882-5.417-.17-.156h.232l25.653.172.485,0h.05l.036.035,7.5,7.225.215.207h-.3l-18.439-.047-5.321-.035-1.416-.018-.364-.01A.536.536,0,0,1,1407.813,3771.915Z" transform="translate(-1399.596 -3764.391)" fill="#1a2e35"/>
          </g>
        </g>
      </g>
      <g id="Group_23056" data-name="Group 23056" transform="translate(8.005 20.995)">
        <g id="Group_23053" data-name="Group 23053" transform="translate(0 0.125)">
          <path id="Path_43748" data-name="Path 43748" d="M1414.255,3770.5h17.133" transform="translate(-1414.255 -3770.501)" fill="#fafafa"/>
        </g>
        <g id="Group_23055" data-name="Group 23055">
          <g id="Group_23054" data-name="Group 23054">
            <path id="Path_43749" data-name="Path 43749" d="M1431.388,3770.366c0,.07-3.836.126-8.566.126s-8.567-.056-8.567-.126,3.835-.125,8.567-.125S1431.388,3770.3,1431.388,3770.366Z" transform="translate(-1414.255 -3770.241)" fill="#1a2e35"/>
          </g>
        </g>
      </g>
      <g id="Group_23060" data-name="Group 23060" transform="translate(9.9 22.763)">
        <g id="Group_23057" data-name="Group 23057" transform="translate(0 0.125)">
          <path id="Path_43750" data-name="Path 43750" d="M1418.181,3774.163h17.133" transform="translate(-1418.181 -3774.163)" fill="#fafafa"/>
        </g>
        <g id="Group_23059" data-name="Group 23059">
          <g id="Group_23058" data-name="Group 23058">
            <path id="Path_43751" data-name="Path 43751" d="M1435.314,3774.029c0,.069-3.836.125-8.566.125s-8.567-.056-8.567-.125,3.835-.125,8.567-.125S1435.314,3773.959,1435.314,3774.029Z" transform="translate(-1418.181 -3773.903)" fill="#1a2e35"/>
          </g>
        </g>
      </g>
      <g id="Group_23064" data-name="Group 23064" transform="translate(11.603 24.465)">
        <g id="Group_23061" data-name="Group 23061" transform="translate(0 0.125)">
          <path id="Path_43752" data-name="Path 43752" d="M1421.71,3777.691h17.133" transform="translate(-1421.71 -3777.691)" fill="#fafafa"/>
        </g>
        <g id="Group_23063" data-name="Group 23063">
          <g id="Group_23062" data-name="Group 23062">
            <path id="Path_43753" data-name="Path 43753" d="M1438.843,3777.556c0,.07-3.836.126-8.567.126s-8.566-.056-8.566-.126,3.835-.125,8.566-.125S1438.843,3777.487,1438.843,3777.556Z" transform="translate(-1421.71 -3777.431)" fill="#1a2e35"/>
          </g>
        </g>
      </g>
      <g id="Group_23068" data-name="Group 23068" transform="translate(8.917 31.292)">
        <g id="Group_23065" data-name="Group 23065" transform="translate(0 0.126)">
          <path id="Path_43754" data-name="Path 43754" d="M1416.145,3791.839h17.682" transform="translate(-1416.145 -3791.839)" fill="#fafafa"/>
        </g>
        <g id="Group_23067" data-name="Group 23067">
          <g id="Group_23066" data-name="Group 23066">
            <path id="Path_43755" data-name="Path 43755" d="M1433.827,3791.7c0,.069-3.959.125-8.841.125s-8.841-.057-8.841-.125,3.958-.126,8.841-.126S1433.827,3791.634,1433.827,3791.7Z" transform="translate(-1416.145 -3791.578)" fill="#1a2e35"/>
          </g>
        </g>
      </g>
      <g id="Group_23072" data-name="Group 23072" transform="translate(10.93 29.28)">
        <g id="Group_23069" data-name="Group 23069" transform="translate(0 0.125)">
          <path id="Path_43756" data-name="Path 43756" d="M1420.315,3787.668H1438" transform="translate(-1420.315 -3787.668)" fill="#fafafa"/>
        </g>
        <g id="Group_23071" data-name="Group 23071">
          <g id="Group_23070" data-name="Group 23070">
            <path id="Path_43757" data-name="Path 43757" d="M1438,3787.533c0,.07-3.959.126-8.841.126s-8.842-.056-8.842-.126,3.958-.125,8.842-.125S1438,3787.464,1438,3787.533Z" transform="translate(-1420.315 -3787.408)" fill="#1a2e35"/>
          </g>
        </g>
      </g>
    </g>
    <g id="Group_23075" data-name="Group 23075" transform="translate(1332.08 3662.26)">
      <g id="Group_23074" data-name="Group 23074">
        <path id="Path_43758" data-name="Path 43758" d="M1520.534,3691.352c0,.069-35.555.126-79.4.126s-79.411-.057-79.411-.126,35.547-.125,79.411-.125S1520.534,3691.282,1520.534,3691.352Z" transform="translate(-1361.719 -3691.226)" fill="#1a2e35"/>
      </g>
    </g>
    <g id="Group_23079" data-name="Group 23079" transform="translate(1337.905 3654.149)">
      <g id="Group_23076" data-name="Group 23076" transform="translate(0 0)">
        <path id="Path_43759" data-name="Path 43759" d="M1377.075,3676.063a1.643,1.643,0,1,1-1.643-1.644A1.643,1.643,0,0,1,1377.075,3676.063Z" transform="translate(-1373.788 -3674.419)" fill="#f7b709"/>
      </g>
      <g id="Group_23077" data-name="Group 23077" transform="translate(5.395 0)">
        <path id="Path_43760" data-name="Path 43760" d="M1388.255,3676.063a1.643,1.643,0,1,1-1.643-1.644A1.643,1.643,0,0,1,1388.255,3676.063Z" transform="translate(-1384.968 -3674.419)" fill="#f7b709"/>
      </g>
      <g id="Group_23078" data-name="Group 23078" transform="translate(10.791 0)">
        <path id="Path_43761" data-name="Path 43761" d="M1399.435,3676.063a1.643,1.643,0,1,1-1.643-1.644A1.643,1.643,0,0,1,1399.435,3676.063Z" transform="translate(-1396.149 -3674.419)" fill="#f7b709"/>
      </g>
    </g>
    <g id="Group_23080" data-name="Group 23080" transform="translate(1398.538 3653.998)">
      <path id="Path_43762" data-name="Path 43762" d="M1503.225,3679.351l-.006-2.5-1.227,2.061h-.435l-1.221-2.007v2.449h-.906v-4.17h.8l1.561,2.592,1.537-2.592h.792l.012,4.17Z" transform="translate(-1499.43 -3674.662)" fill="#1a2e35"/>
      <path id="Path_43763" data-name="Path 43763" d="M1513.743,3677.181l-1.447,3.4a1.323,1.323,0,0,1-1.328,1.007,1.421,1.421,0,0,1-.894-.292l.339-.661a.824.824,0,0,0,.524.2c.256,0,.4-.113.525-.4l.012-.03-1.388-3.229h.959l.9,2.174.905-2.174Z" transform="translate(-1504.937 -3675.698)" fill="#1a2e35"/>
      <path id="Path_43764" data-name="Path 43764" d="M1526.556,3675.955v1.1h1.93v.774h-1.93v1.519h-.965v-4.17h3.151v.775Z" transform="translate(-1512.966 -3674.662)" fill="#1a2e35"/>
      <path id="Path_43765" data-name="Path 43765" d="M1532.986,3674.625a.531.531,0,0,1,.578-.518.522.522,0,0,1,.578.5.58.58,0,0,1-1.156.018Zm.113.965h.929v3.205h-.929Z" transform="translate(-1516.792 -3674.107)" fill="#1a2e35"/>
      <path id="Path_43766" data-name="Path 43766" d="M1536.936,3674.662h.929v4.42h-.929Z" transform="translate(-1518.836 -3674.394)" fill="#1a2e35"/>
      <path id="Path_43767" data-name="Path 43767" d="M1543.52,3678.995h-2.425a.855.855,0,0,0,.918.643,1.086,1.086,0,0,0,.8-.31l.494.536a1.871,1.871,0,0,1-3.151-1.132,1.631,1.631,0,0,1,1.709-1.65,1.587,1.587,0,0,1,1.668,1.662C1543.538,3678.815,1543.526,3678.917,1543.52,3678.995Zm-2.437-.542h1.579a.8.8,0,0,0-1.579,0Z" transform="translate(-1520.504 -3675.646)" fill="#1a2e35"/>
      <path id="Path_43768" data-name="Path 43768" d="M1547.8,3680.037l.309-.667a2.195,2.195,0,0,0,1.114.31c.429,0,.589-.113.589-.292,0-.524-1.936.012-1.936-1.269,0-.608.548-1.037,1.484-1.037a2.638,2.638,0,0,1,1.233.28l-.31.661a1.845,1.845,0,0,0-.923-.238c-.417,0-.6.131-.6.3,0,.548,1.936.018,1.936,1.281,0,.6-.554,1.019-1.513,1.019A2.753,2.753,0,0,1,1547.8,3680.037Z" transform="translate(-1524.458 -3675.646)" fill="#1a2e35"/>
    </g>
    <g id="Group_23084" data-name="Group 23084" transform="translate(1436.838 3667.281)">
      <g id="Group_23082" data-name="Group 23082">
        <g id="Group_23081" data-name="Group 23081">
          <path id="Path_43769" data-name="Path 43769" d="M1624.936,3709.166a1.922,1.922,0,0,0,.269-.054.923.923,0,0,0,.561-.527,1.364,1.364,0,0,0,.062-.579c0-.22,0-.461-.006-.721q-.005-.786-.012-1.8c0-.678-.007-1.432-.011-2.256,0-.2,0-.422-.006-.626a.866.866,0,0,0-.26-.54.849.849,0,0,0-.572-.238h-.707l-6.54.019-37.867.037a.8.8,0,0,0-.8.737l0,1.365q0,1.369,0,2.72,0,.675,0,1.346a1.027,1.027,0,0,0,.1.586.794.794,0,0,0,.433.362.862.862,0,0,0,.285.045h2.306l10.054.007,17.024.027,11.477.04,3.12.023.812.013c.183,0,.277.013.277.013s-.094.008-.277.012l-.812.013-3.12.023-11.477.04-17.024.027-10.054.007h-2.306a1.1,1.1,0,0,1-.367-.059,1.042,1.042,0,0,1-.568-.473,1.281,1.281,0,0,1-.136-.709V3706.7q0-1.35,0-2.72,0-.69,0-1.384a1.055,1.055,0,0,1,1.048-.969l37.867.037,6.54.019.711,0a.978.978,0,0,1,.659.28.992.992,0,0,1,.295.622c.008.226,0,.428,0,.637,0,.824-.008,1.577-.011,2.256s-.008,1.277-.012,1.8q0,.39-.006.721a1.411,1.411,0,0,1-.078.6.938.938,0,0,1-.6.532A.721.721,0,0,1,1624.936,3709.166Z" transform="translate(-1578.792 -3701.629)" fill="#847e7e"/>
        </g>
      </g>
      <g id="Group_23083" data-name="Group 23083" transform="translate(3.048 2.548)">
        <path id="Path_43770" data-name="Path 43770" d="M1585.108,3709.265l.125-.263a1.215,1.215,0,0,0,.779.273c.408,0,.583-.159.583-.364,0-.577-1.43-.212-1.43-1.089,0-.365.283-.675.9-.675a1.39,1.39,0,0,1,.759.209l-.111.27a1.222,1.222,0,0,0-.648-.192c-.4,0-.573.169-.573.375,0,.577,1.43.216,1.43,1.083,0,.361-.29.671-.914.671A1.4,1.4,0,0,1,1585.108,3709.265Z" transform="translate(-1585.108 -3707.032)" fill="#847e7e"/>
        <path id="Path_43771" data-name="Path 43771" d="M1591.23,3709.375h-1.45a.606.606,0,0,0,.648.523.669.669,0,0,0,.516-.216l.178.209a.974.974,0,0,1-1.666-.624.875.875,0,0,1,.9-.911.862.862,0,0,1,.884.921C1591.236,3709.3,1591.233,3709.344,1591.23,3709.375Zm-1.45-.232h1.147a.577.577,0,0,0-1.147,0Z" transform="translate(-1587.358 -3707.658)" fill="#847e7e"/>
        <path id="Path_43772" data-name="Path 43772" d="M1595.239,3709.081v1.079h-.307v-.236a.663.663,0,0,1-.586.256c-.4,0-.661-.216-.661-.526,0-.287.185-.523.719-.523h.512v-.064c0-.274-.159-.432-.479-.432a.905.905,0,0,0-.567.193l-.135-.243a1.191,1.191,0,0,1,.738-.229C1594.962,3708.356,1595.239,3708.592,1595.239,3709.081Zm-.324.533v-.25h-.5c-.32,0-.412.125-.412.277,0,.178.149.29.4.29A.519.519,0,0,0,1594.915,3709.614Z" transform="translate(-1589.545 -3707.658)" fill="#847e7e"/>
        <path id="Path_43773" data-name="Path 43773" d="M1599.111,3708.356v.314a.568.568,0,0,0-.074,0,.533.533,0,0,0-.563.6v.89h-.324v-1.787h.31v.3A.683.683,0,0,1,1599.111,3708.356Z" transform="translate(-1591.856 -3707.658)" fill="#847e7e"/>
        <path id="Path_43774" data-name="Path 43774" d="M1600.589,3709.267a.893.893,0,0,1,.944-.911.8.8,0,0,1,.728.381l-.246.158a.558.558,0,0,0-.486-.256.629.629,0,0,0,0,1.258.558.558,0,0,0,.486-.256l.246.155a.8.8,0,0,1-.728.385A.9.9,0,0,1,1600.589,3709.267Z" transform="translate(-1593.118 -3707.658)" fill="#847e7e"/>
        <path id="Path_43775" data-name="Path 43775" d="M1606.57,3708.383v1.028h-.323v-.992c0-.35-.176-.522-.483-.522a.531.531,0,0,0-.567.593v.921h-.324v-2.5h.324v.968a.776.776,0,0,1,.63-.27A.692.692,0,0,1,1606.57,3708.383Z" transform="translate(-1595.335 -3706.909)" fill="#847e7e"/>
        <path id="Path_43776" data-name="Path 43776" d="M1609.319,3711.409a.226.226,0,0,1,.23-.23.222.222,0,0,1,.222.23.225.225,0,0,1-.222.232A.228.228,0,0,1,1609.319,3711.409Z" transform="translate(-1597.635 -3709.118)" fill="#847e7e"/>
        <path id="Path_43777" data-name="Path 43777" d="M1610.905,3711.409a.226.226,0,0,1,.23-.23.222.222,0,0,1,.223.23.225.225,0,0,1-.223.232A.228.228,0,0,1,1610.905,3711.409Z" transform="translate(-1598.456 -3709.118)" fill="#847e7e"/>
        <path id="Path_43778" data-name="Path 43778" d="M1612.492,3711.409a.226.226,0,0,1,.23-.23.222.222,0,0,1,.222.23.225.225,0,0,1-.222.232A.228.228,0,0,1,1612.492,3711.409Z" transform="translate(-1599.277 -3709.118)" fill="#847e7e"/>
      </g>
    </g>
    <g id="Group_23086" data-name="Group 23086" transform="translate(1343.129 3686.509)">
      <g id="Group_23085" data-name="Group 23085" transform="translate(0 0)">
        <path id="Path_43779" data-name="Path 43779" d="M1387.549,3772.222a1.667,1.667,0,0,1-.138-.306c-.08-.2-.2-.5-.344-.9-.29-.783-.678-1.929-1.081-3.368a34.141,34.141,0,0,1-1.3-11.564,24.889,24.889,0,0,1,1.314-6.295,21.036,21.036,0,0,1,2.331-4.706,17.557,17.557,0,0,1,2.237-2.744c.287-.3.544-.505.705-.655a1.59,1.59,0,0,1,.26-.211,1.694,1.694,0,0,1-.226.249c-.149.162-.394.374-.669.686a19.251,19.251,0,0,0-2.159,2.773,21.583,21.583,0,0,0-2.261,4.685,25.248,25.248,0,0,0-1.282,6.238,35.383,35.383,0,0,0,1.219,11.5c.379,1.439.741,2.59,1,3.382l.3.912A1.7,1.7,0,0,1,1387.549,3772.222Z" transform="translate(-1384.613 -3741.474)" fill="#1a2e35"/>
      </g>
    </g>
    <g id="Group_23104" data-name="Group 23104" transform="translate(1397.361 3684.655)">
      <g id="Group_23087" data-name="Group 23087" transform="translate(2.375)">
        <path id="Path_43780" data-name="Path 43780" d="M1501.911,3739.808v25.257h30.7v-25.257a2.177,2.177,0,0,0-2.177-2.177h-26.346A2.177,2.177,0,0,0,1501.911,3739.808Z" transform="translate(-1501.911 -3737.631)" fill="#ff735d"/>
      </g>
      <g id="Group_23088" data-name="Group 23088" transform="translate(2.375)">
        <path id="Path_43781" data-name="Path 43781" d="M1501.911,3739.808v25.257h30.7v-25.257a2.177,2.177,0,0,0-2.177-2.177h-26.346A2.177,2.177,0,0,0,1501.911,3739.808Z" transform="translate(-1501.911 -3737.631)" fill="#043547"/>
      </g>
      <g id="Group_23092" data-name="Group 23092" transform="translate(3.799 4.319)">
        <g id="Group_23089" data-name="Group 23089" transform="translate(0.017 0.126)">
          <path id="Path_43782" data-name="Path 43782" d="M1504.9,3756.113l.2-9.272h26.865v5.291" transform="translate(-1504.897 -3746.841)" fill="#f5f5f5"/>
        </g>
        <g id="Group_23091" data-name="Group 23091">
          <g id="Group_23090" data-name="Group 23090">
            <path id="Path_43783" data-name="Path 43783" d="M1531.948,3752a2.081,2.081,0,0,1-.024-.36c-.005-.259-.012-.605-.022-1.042-.009-.932-.022-2.249-.038-3.888l.083.083-15.424.042-11.442-.021.1-.1c-.08,2.779-.145,5.09-.192,6.732-.03.792-.053,1.421-.07,1.876-.011.2-.02.363-.027.493a.707.707,0,0,1-.02.168.681.681,0,0,1-.013-.169c0-.13,0-.292,0-.494,0-.456.007-1.085.012-1.877.025-1.643.06-3.955.1-6.734v-.1h.1l11.442-.021,15.424.042h.084v.083c-.016,1.639-.029,2.956-.038,3.888-.009.437-.016.783-.022,1.042A2.091,2.091,0,0,1,1531.948,3752Z" transform="translate(-1504.862 -3746.58)" fill="#1a2e35"/>
          </g>
        </g>
      </g>
      <g id="Group_23096" data-name="Group 23096" transform="translate(5.714 1.813)">
        <g id="Group_23093" data-name="Group 23093" transform="translate(0.054 0.126)">
          <rect id="Rectangle_1815" data-name="Rectangle 1815" width="23.471" height="2.506" fill="#f5f5f5"/>
        </g>
        <g id="Group_23095" data-name="Group 23095">
          <g id="Group_23094" data-name="Group 23094">
            <path id="Path_43784" data-name="Path 43784" d="M1508.885,3741.512a.5.5,0,0,1,.11-.009l.341-.008,1.331-.018,4.962-.037,16.727-.054h.125v.125c0,.8,0,1.647,0,2.505-.251.254-.074.07-.132.127h-3.824l-3.656,0-6.625-.015-9.36-.052h-.054v-.053q.019-1.212.03-1.881c.005-.2.01-.352.013-.473a.783.783,0,0,1,.01-.153,1.246,1.246,0,0,1,.011.172c0,.125.007.284.013.485q.011.657.03,1.85l-.053-.054,9.36-.052,6.625-.015,3.656,0h3.824c-.054.055.132-.124-.119.125,0-.858,0-1.707,0-2.505l.125.125-16.636-.053-4.991-.037-1.359-.017-.357-.009A.76.76,0,0,1,1508.885,3741.512Z" transform="translate(-1508.831 -3741.387)" fill="#1a2e35"/>
          </g>
        </g>
      </g>
      <g id="Group_23098" data-name="Group 23098" transform="translate(5.768 33.63)">
        <g id="Group_23097" data-name="Group 23097">
          <path id="Path_43785" data-name="Path 43785" d="M1535.146,3807.442c0,.069-5.866.126-13.1.126s-13.1-.057-13.1-.126,5.865-.125,13.1-.125S1535.146,3807.374,1535.146,3807.442Z" transform="translate(-1508.943 -3807.317)" fill="#1a2e35"/>
        </g>
      </g>
      <g id="Group_23099" data-name="Group 23099" transform="translate(0 7.357)">
        <path id="Path_43786" data-name="Path 43786" d="M1497,3754.677l2.361,18.276h30.7v-17.7h-13.943l-2.7-2.378h-14.831A1.6,1.6,0,0,0,1497,3754.677Z" transform="translate(-1496.99 -3752.876)" fill="#015579"/>
      </g>
      <g id="Group_23101" data-name="Group 23101" transform="translate(9.609 16.768)">
        <g id="Group_23100" data-name="Group 23100">
          <path id="Path_43787" data-name="Path 43787" d="M1531.918,3772.5c0,.069-3.362.126-7.508.126s-7.509-.057-7.509-.126,3.361-.125,7.509-.125S1531.918,3772.432,1531.918,3772.5Z" transform="translate(-1516.901 -3772.376)" fill="#1a2e35"/>
        </g>
      </g>
      <g id="Group_23103" data-name="Group 23103" transform="translate(9.609 18.566)">
        <g id="Group_23102" data-name="Group 23102">
          <path id="Path_43788" data-name="Path 43788" d="M1531.918,3776.228c0,.069-3.362.125-7.508.125s-7.509-.056-7.509-.125,3.361-.125,7.509-.125S1531.918,3776.158,1531.918,3776.228Z" transform="translate(-1516.901 -3776.102)" fill="#1a2e35"/>
        </g>
      </g>
    </g>
    <g id="Group_23106" data-name="Group 23106" transform="translate(1341.256 3686.797)">
      <g id="Group_23105" data-name="Group 23105" transform="translate(0 0)">
        <path id="Path_43789" data-name="Path 43789" d="M1380.756,3754.066a2.046,2.046,0,0,1-.022-.519,12.813,12.813,0,0,1,.095-1.412,18.052,18.052,0,0,1,3.4-8.605,12.9,12.9,0,0,1,.9-1.1,2.051,2.051,0,0,1,.371-.364c.033.029-.449.586-1.121,1.562a20.314,20.314,0,0,0-3.366,8.526C1380.828,3753.331,1380.8,3754.067,1380.756,3754.066Z" transform="translate(-1380.733 -3742.071)" fill="#1a2e35"/>
      </g>
    </g>
    <g id="Group_23108" data-name="Group 23108" transform="translate(1340.214 3696.673)">
      <g id="Group_23107" data-name="Group 23107" transform="translate(0)">
        <path id="Path_43790" data-name="Path 43790" d="M1381.178,3762.771c.027.022-.116.251-.37.605l-.456.613-.276.357-.147.188-.076.1-.039.048-.019.025-.01.012,0,.006,0,0v0l-.191.006h0a4.189,4.189,0,0,1-.878-1.489,1.442,1.442,0,0,1-.12-.7,7.587,7.587,0,0,0,1.184,2.024h0l-.19.006v0l0,0,0-.006.01-.012.019-.024.039-.048.077-.1.15-.185.288-.348.5-.579C1380.958,3762.94,1381.151,3762.749,1381.178,3762.771Z" transform="translate(-1378.573 -3762.535)" fill="#1a2e35"/>
      </g>
    </g>
    <g id="Group_23110" data-name="Group 23110" transform="translate(1406.465 3721.7)">
      <g id="Group_23109" data-name="Group 23109" transform="translate(0)">
        <path id="Path_43791" data-name="Path 43791" d="M1532.286,3814.521c0,.069-3.678.126-8.215.126s-8.216-.057-8.216-.126,3.678-.125,8.216-.125S1532.286,3814.452,1532.286,3814.521Z" transform="translate(-1515.855 -3814.396)" fill="#e0e0e0"/>
      </g>
    </g>
    <g id="Group_23128" data-name="Group 23128" transform="translate(1444.986 3684.697)">
      <g id="Group_23111" data-name="Group 23111" transform="translate(2.375)">
        <path id="Path_43792" data-name="Path 43792" d="M1600.6,3739.9v25.258h30.7V3739.9a2.177,2.177,0,0,0-2.177-2.177h-26.347A2.177,2.177,0,0,0,1600.6,3739.9Z" transform="translate(-1600.597 -3737.719)" fill="#ff735d"/>
      </g>
      <g id="Group_23112" data-name="Group 23112" transform="translate(2.375)">
        <path id="Path_43793" data-name="Path 43793" d="M1600.6,3739.9v25.258h30.7V3739.9a2.177,2.177,0,0,0-2.177-2.177h-26.347A2.177,2.177,0,0,0,1600.6,3739.9Z" transform="translate(-1600.597 -3737.719)" fill="#043547"/>
      </g>
      <g id="Group_23116" data-name="Group 23116" transform="translate(3.798 4.319)">
        <g id="Group_23113" data-name="Group 23113" transform="translate(0.017 0.126)">
          <path id="Path_43794" data-name="Path 43794" d="M1603.583,3756.2l.2-9.272h26.865v5.291" transform="translate(-1603.583 -3746.929)" fill="#f5f5f5"/>
        </g>
        <g id="Group_23115" data-name="Group 23115">
          <g id="Group_23114" data-name="Group 23114">
            <path id="Path_43795" data-name="Path 43795" d="M1630.633,3752.085a2.081,2.081,0,0,1-.024-.36c-.005-.259-.012-.6-.022-1.042-.009-.932-.022-2.249-.038-3.888l.083.083-15.424.042-11.441-.021.1-.1c-.08,2.779-.145,5.09-.193,6.733-.029.791-.052,1.42-.069,1.876-.011.2-.02.363-.026.493a.7.7,0,0,1-.02.168.678.678,0,0,1-.013-.169c0-.129,0-.292,0-.494,0-.456.007-1.085.013-1.877.026-1.643.061-3.955.1-6.734v-.1h.1l11.441-.021,15.424.042h.084v.083c-.016,1.639-.029,2.956-.038,3.888-.009.438-.017.783-.022,1.042A2.174,2.174,0,0,1,1630.633,3752.085Z" transform="translate(-1603.547 -3746.669)" fill="#1a2e35"/>
          </g>
        </g>
      </g>
      <g id="Group_23120" data-name="Group 23120" transform="translate(5.714 1.813)">
        <g id="Group_23117" data-name="Group 23117" transform="translate(0.054 0.126)">
          <rect id="Rectangle_1816" data-name="Rectangle 1816" width="23.471" height="2.506" fill="#f5f5f5"/>
        </g>
        <g id="Group_23119" data-name="Group 23119">
          <g id="Group_23118" data-name="Group 23118">
            <path id="Path_43796" data-name="Path 43796" d="M1607.571,3741.6a.492.492,0,0,1,.11-.008l.341-.009,1.331-.017,4.962-.037,16.727-.053h.125v.125c0,.8,0,1.647,0,2.5-.251.254-.074.071-.132.127h-3.823l-3.657,0-6.624-.014-9.36-.053h-.054v-.053c.013-.807.023-1.435.03-1.88.005-.2.01-.352.013-.473a.8.8,0,0,1,.011-.153,1.237,1.237,0,0,1,.01.172c0,.125.008.284.013.485q.01.657.03,1.85l-.053-.053,9.36-.053,6.624-.015,3.657,0h3.823c-.054.056.132-.125-.119.124,0-.858,0-1.706,0-2.5l.125.125-16.636-.054-4.991-.037-1.359-.017-.357-.009A.777.777,0,0,1,1607.571,3741.6Z" transform="translate(-1607.517 -3741.475)" fill="#1a2e35"/>
          </g>
        </g>
      </g>
      <g id="Group_23122" data-name="Group 23122" transform="translate(5.768 33.63)">
        <g id="Group_23121" data-name="Group 23121">
          <path id="Path_43797" data-name="Path 43797" d="M1633.831,3807.53c0,.07-5.866.126-13.1.126s-13.1-.056-13.1-.126,5.865-.125,13.1-.125S1633.831,3807.461,1633.831,3807.53Z" transform="translate(-1607.629 -3807.405)" fill="#1a2e35"/>
        </g>
      </g>
      <g id="Group_23123" data-name="Group 23123" transform="translate(0 7.357)">
        <path id="Path_43798" data-name="Path 43798" d="M1595.689,3754.766l2.361,18.276h30.7v-17.7h-13.942l-2.7-2.378h-14.831A1.6,1.6,0,0,0,1595.689,3754.766Z" transform="translate(-1595.676 -3752.964)" fill="#015579"/>
      </g>
      <g id="Group_23125" data-name="Group 23125" transform="translate(9.609 16.768)">
        <g id="Group_23124" data-name="Group 23124">
          <path id="Path_43799" data-name="Path 43799" d="M1630.6,3772.59c0,.069-3.362.125-7.508.125s-7.509-.057-7.509-.125,3.361-.126,7.509-.126S1630.6,3772.521,1630.6,3772.59Z" transform="translate(-1615.587 -3772.464)" fill="#1a2e35"/>
        </g>
      </g>
      <g id="Group_23127" data-name="Group 23127" transform="translate(9.609 18.566)">
        <g id="Group_23126" data-name="Group 23126">
          <path id="Path_43800" data-name="Path 43800" d="M1630.6,3776.315c0,.069-3.362.126-7.508.126s-7.509-.057-7.509-.126,3.361-.125,7.509-.125S1630.6,3776.246,1630.6,3776.315Z" transform="translate(-1615.587 -3776.19)" fill="#1a2e35"/>
        </g>
      </g>
    </g>
    <g id="Group_23130" data-name="Group 23130" transform="translate(1454.09 3721.743)">
      <g id="Group_23129" data-name="Group 23129" transform="translate(0)">
        <path id="Path_43801" data-name="Path 43801" d="M1630.972,3814.609c0,.069-3.679.126-8.215.126s-8.216-.057-8.216-.126,3.678-.125,8.216-.125S1630.972,3814.541,1630.972,3814.609Z" transform="translate(-1614.541 -3814.484)" fill="#e0e0e0"/>
      </g>
    </g>
  </g>
</svg>
