<?xml version="1.0" encoding="utf-8"?>
<!-- Generator: Adobe Illustrator 28.3.0, SVG Export Plug-In . SVG Version: 6.00 Build 0)  -->
<svg version="1.1" id="圖層_1" xmlns="http://www.w3.org/2000/svg" xmlns:xlink="http://www.w3.org/1999/xlink" x="0px" y="0px"
	 viewBox="0 0 857 195.8" style="enable-background:new 0 0 857 195.8;" xml:space="preserve">
<style type="text/css">
	.st0{fill:#1A1A1A;}
	.st1{fill:#E6380E;}
	.st2{fill:#0093D4;}
	.st3{fill:#FFFFFF;}
</style>
<g>
	<g>
		<path class="st0" d="M492.6,80.5c0.4-3.4,0.7-6.9,0.7-10.6v-5.9h7v4.4c0,4.3-0.3,8.4-0.7,12.2H526v6.7h-24.9
			c4.8,13.8,13.5,24.4,26.4,31.9l-4.4,5.7C510.8,117.2,502,106.6,497,93c-4.5,14.7-13.3,25.5-26.5,32.5l-4.4-5.8
			c13.3-6.5,21.8-17.3,25.3-32.4h-23.8v-6.7H492.6z"/>
		<path class="st0" d="M559.4,75.2v-2.6h-25.5v-5.3h25.5v-3.6h6.9v3.6h25.5v5.3h-25.5v2.6h20v20h-0.9c2.5,2.8,4.4,5.3,5.8,7.5
			l-4.6,3.1c-0.7-1.1-1.5-2.2-2.4-3.4l-4.9,0.2v4.2h13.1v5.6h-13.1v6.5c0,4-2.2,6-6.7,6h-7.1l-1.4-6.2c2.2,0.3,4.4,0.4,6.3,0.4
			c1.3,0,2-0.7,2-1.8v-4.9h-21.2c3.1,2,5.7,4,8,5.9l-4.7,4.8c-2.2-2.6-5.5-5.3-9.6-8.2l2.6-2.5h-14.3v-5.6h39.3v-3.8
			c-11.4,0.5-23.2,0.9-35.4,1.3l-1.3-5.4c8-0.1,15.8-0.3,23.6-0.5v-3h-20v-20H559.4z M559.4,82.7v-2.9H546v2.9H559.4z M559.4,87.2
			H546v2.9h13.3V87.2z M566.2,82.7h13.3v-2.9h-13.3V82.7z M579.6,87.2h-13.3v2.9h13.3V87.2z M579.3,96.2l1.7-1.1h-14.8v2.8l14.1-0.5
			L579.3,96.2z"/>
		<path class="st0" d="M607.7,76V64h6.9V76h6.1v6.7h-6.1v4.6c2,2,4,4.3,5.9,6.7c3.5-4.1,6.5-8.9,9.1-14.3l5.7,2.8
			c-2,4.2-4.1,7.9-6.5,11.4l4.6-1.4c0.7,4.9,2.6,9.2,5.8,13.1c2.5-3.9,4.2-8.4,5.1-13.6l6.1,1.3c-2.2-3.4-4.7-6.9-7.6-10.6l5.3-3.3
			c4.9,5.9,8.7,11.2,11.4,15.6l-5.7,3.9c-0.9-1.7-2-3.4-3.1-5.2c-1.3,6.6-3.4,12.3-6.5,16.9c4.1,3.3,9.2,6.1,15.4,8.4l-3.5,6.3
			c-6.5-2.6-11.9-5.7-16.1-9.4c-4.5,4.6-10.3,7.9-17.3,9.8l-3.9-6.2c6.7-1.7,12.1-4.6,16.2-8.6c-3.7-4.5-6.1-9.6-7.3-15.4
			c-1.1,1.5-2.2,2.8-3.2,4L623,98l-3.3,4.9c-1.8-3.7-3.6-6.8-5-9.3v31.1h-6.9V94.9c-1.9,5.3-4.3,10.2-7.1,14.7l-3-7.5
			c4.5-5.7,7.7-12.1,9.8-19.4h-7.9V76H607.7z M636.8,71.7c-1.1-2.6-2.2-4.9-3.4-7.1l7-1.2c1.1,2.4,2.2,5.2,3.4,8.3H658v6.7h-36v-6.7
			H636.8z"/>
		<path class="st0" d="M686.5,66v5.4c-1.7,5.5-3.7,11.4-6,17.6c3.6,6.1,5.5,11.4,5.8,15.9c0,3.2-0.6,5.5-1.8,6.9
			c-1.8,1.7-4.9,2.6-9.4,2.6l-2.1-6.5v17.2h-6.7V66H686.5z M676.6,107.8c1.2-0.1,2-0.3,2.4-0.7c0.4-0.4,0.6-1.1,0.6-2.2
			c0-4.4-2-9.4-5.8-14.8c2.5-6.5,4.5-12.4,5.9-17.6H673v35C674.5,107.7,675.7,107.8,676.6,107.8z M724.4,93.4v6.5h-10.3v15.4
			c0,1.7,0.5,2.6,1.4,2.6h1.7c0.5,0,0.9-0.3,1.2-0.7c0.4-0.5,0.7-3.2,0.8-7.9l6.3,2.1c-0.5,6.2-1.3,9.9-2,11c-0.9,1-2.5,1.5-4.8,1.6
			h-5.3c-2,0-3.4-0.7-4.4-2c-1.1-1.4-1.7-3-1.7-5V99.9H703c-0.5,6.5-1.6,11.4-3.2,14.6c-2.1,4-5.7,7.5-10.6,10.4l-4.4-5.7
			c4.1-2.2,7.1-4.8,8.8-7.9c1.4-2.4,2.3-6.2,2.7-11.4h-8.1v-6.5H724.4z M723.9,83.8h-5.3v4.1h-25.2v-4.1h-5.5V69.2h14.1
			c-0.6-1.6-1.3-3.1-2-4.4l7.1-1.2c0.7,1.6,1.3,3.5,1.9,5.6h14.9V83.8z M717.2,81.8v-6.1h-22.8v6.1H717.2z"/>
		<path class="st0" d="M476.6,168.1c-1.4,5.9-3.2,11.2-5.3,15.7l-5.6-2c2-4,3.8-9.1,5.3-15.2L476.6,168.1z M479.2,136
			c-0.8-1.8-1.6-3.4-2.6-4.9l7.4-1.2c0.8,1.8,1.5,3.8,2.3,6.1h11.6v6.2h-30.6V136H479.2z M494.8,146v17.9h-9v20.3
			c0,4.1-2,6.2-6.1,6.2h-4.9l-1.4-6.2c1.5,0.3,2.8,0.4,4.2,0.4c1.2,0,1.8-0.7,1.8-2v-18.7h-9.4V146H494.8z M488.5,151.8h-12.3v6.3
			h12.3V151.8z M496.9,178.5l-5.4,2.1c-1.1-4.4-2.5-8.6-4.2-12.7l5.5-1.5C494.5,170.8,495.9,174.8,496.9,178.5z M509.3,130v14.7h16
			v6.4h-16.1c-0.5,17.7-4.5,30.7-11.8,39.1l-4.9-4.3c6.3-7.5,9.8-19.1,10.3-34.8h-5.7v-6.4h5.7V130H509.3z M516.1,189.9
			c-3.7,0-5.5-2-5.5-6v-29.6h6.4v28.3c0,0.8,0.3,1.3,1.1,1.3h1.8c0.5,0,1-0.5,1.3-1.4c0.3-1,0.5-4,0.7-9l6,1.9
			c-0.5,7.1-1.2,11.3-2.2,12.6c-1.1,1.3-2.6,1.9-4.6,1.9H516.1z M524.1,140.1l-5,3.5c-1.7-2.9-4.1-6.1-7.1-9.6l5.1-3.2
			C520.1,134.4,522.5,137.5,524.1,140.1z"/>
		<path class="st0" d="M560.2,129.9v9.4h4.8v-9.4h6.7v9.4h4.2c1.7-2.7,3.2-5.5,4.6-8.6l6.4,2.4c-1.3,2.4-2.6,4.4-4,6.1h8.9v6h-17.8
			l4.7,1.7c-0.8,1.4-1.7,2.7-2.6,3.9h12.7v5.9h-22.5v3.2h19.4v5.7h-19.4v3.2h25.5v6.1h-25.5v16.3h-7v-16.3h-25.5v-6.1h25.5v-3.2
			h-19.4V160h19.4v-3.2h-22.5v-5.9h12.7c-0.8-1.5-1.7-2.8-2.6-4l4-1.5h-17.1v-6h9c-1.1-2.2-2.3-4.2-3.7-6.1l6.4-2.4
			c1.5,2.4,2.8,5.2,4,8.5h4v-9.4H560.2z M553.5,179.6c-4,4-9,7.6-14.9,10.6l-4.3-5.5c5.8-2.6,10.7-5.6,14.7-9.1L553.5,179.6z
			 M553.9,145.3c1.1,1.7,2,3.6,2.9,5.5h11.6c1.3-1.8,2.4-3.6,3.4-5.5H553.9z M591.2,185.3l-4.9,5c-3.2-3.2-7.9-6.6-13.8-10.2
			l4.5-4.3C582.5,179,587.3,182.1,591.2,185.3z"/>
		<path class="st0" d="M620.5,131.9v6.3h-1.8v52.1h-6.5v-10.1c-4.1,1.2-8.2,2.2-12.6,3.1l-1.8-6.9l3.6-0.5v-37.7H599v-6.3H620.5z
			 M612.2,145.9v-7.7h-4.4v7.7H612.2z M612.2,159.4v-7.3h-4.4v7.3H612.2z M612.2,173.6v-7.9h-4.4v9
			C609.3,174.3,610.7,174,612.2,173.6z M639.8,181.4c1.8-2.1,3.4-4.4,4.9-6.8c-0.7-4-1.1-10.8-1.4-20.2h-22.8v-5.9h4.3
			c-0.5-2.8-1-5.3-1.5-7.8h-1.8v-5.4h6.7c-0.5-1.5-0.9-2.7-1.4-3.9l6.5-1.1c0.4,1.5,0.8,3.1,1.2,4.9h6.7v5.4h-1.8
			c-0.5,2.8-1,5.4-1.7,7.8h5.5c-0.1-5.4-0.1-11.5-0.1-18.3h5.9c0,6.9,0,12.9,0.1,18.3h9.2v5.9h-9.1c0.1,4.1,0.3,7.7,0.4,10.7
			c1.2-2.8,2.2-5.8,3.2-8.8l5.5,2.2c-2.2,6.6-4.8,12.4-7.6,17.6c0.6,3.8,1.3,5.9,2,6.3c0.7-0.1,1.4-2.7,1.9-7.7l5,3.6
			c-1.2,7.9-3.4,11.9-6.5,11.9c-1.7,0-3.2-1.1-4.5-3.4c-0.8-1.3-1.5-2.8-2-4.4c-2.2,2.9-4.4,5.5-6.7,7.9l-4.6-4
			c1.2-1.1,2.2-2.2,3.3-3.4h-10.3v3.2h-5.7v-28.4h17.1V181.4z M634.1,167.4v-4.6h-5.7v4.6H634.1z M634.1,177.5v-5h-5.7v5H634.1z
			 M634,140.7h-5.2c0.5,2.4,0.9,5,1.3,7.8h2.4C633.1,145.9,633.6,143.3,634,140.7z M658.2,144.9l-5,1.3c-0.9-4-2-7.7-3.4-11.3
			l4.9-1.6C656,136.6,657.1,140.5,658.2,144.9z"/>
		<path class="st0" d="M669.5,191.2l-5.3-4.8c2.5-4.4,3.8-9.9,3.9-16.6V153h26.1v32.7c0,3.4-2,5.1-6.1,5.1h-5.9l-1.8-6.3
			c2,0.2,4,0.3,5.7,0.3c1,0,1.5-0.5,1.5-1.4v-5.7c-3.8,0.9-7.9,1.7-12,2.3l-1.3-4.9C673.7,181.5,672.2,186.9,669.5,191.2z
			 M698.5,148.1L693,152c-0.7-1.3-1.4-2.6-2.1-4c-6.9,1.1-15.1,1.8-24.6,2.4l-1.8-5.7c1.2-0.4,2.2-0.9,3.1-1.6
			c4-4.7,6.9-9.1,8.8-13.2l6.6,2c-2.6,5.1-5.6,9.3-9,12.5c4.4-0.3,9-0.7,13.9-1.3c-1.1-1.7-2.2-3.4-3.4-5.1l5.3-3.4
			C693.5,139.8,696.4,144.3,698.5,148.1z M684,169.7c-2.2-0.5-4.4-0.9-6.7-1.3c-0.9-0.2-1.7-0.3-2.5-0.4v1.3c0,1.6-0.1,3.2-0.3,4.8
			c4.5-0.4,8.9-1.1,13.1-1.9v-13.3h-12.9v3.8l5.3,0.8c1.6,0.3,3.6,0.6,6.1,1.1L684,169.7z M705.9,190c-4.8,0-7.1-2.1-7.1-6.3v-22.2
			h6.8v5.8l16.6-1.2v6.3l-16.6,1.2v8.5c0,1.1,0.7,1.7,2.2,1.7h7.6c0.9,0,1.7-0.3,2-1c0.5-0.7,0.9-2.8,1.1-6.4l6.3,2
			c-0.5,5.6-1.5,8.9-2.6,10c-1.2,1-3,1.5-5.4,1.5H705.9z M705.6,131.1v6.5l16.2-1.2v6.3l-16.2,1.2v7.2c0,1.3,0.7,2,2.2,2h15.5v6.3
			h-17.6c-4.6,0-6.9-2.2-6.9-6.6v-21.8H705.6z"/>
		<path class="st0" d="M787.8,132.3v6.7H764v22.7h26.3v6.7H764v22.6h-7v-22.6h-25.7v-6.7H757V139h-23.1v-6.7H787.8z M750.5,156.3
			l-6.5,3.2c-2.1-5.5-4.4-10.4-6.8-14.8l6.4-3.1C746,146,748.3,150.9,750.5,156.3z M784.8,144.3c-1.8,5.1-4.3,10-7.3,14.8l-6.2-3.2
			c3-4.9,5.4-9.8,7.2-14.6L784.8,144.3z"/>
		<path class="st0" d="M798.6,150.4c4.6-0.7,11.5-7.7,20.5-20.8l7.1,2.5c-5.1,7-10.3,13.1-15.7,18.1c10.7-0.5,21.1-1.3,31.3-2.2
			c-2-2.9-4-5.7-6.1-8.2l6.3-3c5.3,6.6,10.2,13.9,15,21.8l-6.7,3.3c-1.5-2.7-3-5.3-4.5-7.8c-13.7,1.3-29,2.2-45.9,2.8L798.6,150.4z
			 M849.6,191.1h-7v-2.5H811v2.5h-7v-28.3h45.5V191.1z M842.6,182v-12.6H811V182H842.6z"/>
	</g>
	<g>
		<g>
			<path class="st1" d="M51.9,181c-0.6-2.6-2.7-3.1-4.2-3.1c-2.7,0-4.9,2-4.9,5.9c0,3.5,1.2,6.2,4.9,6.2c1.3,0,3.6-0.6,4.2-4.1H54
				c-0.8,5.6-5.4,5.9-6.5,5.9c-3.4,0-6.7-2.2-6.7-7.9c0-4.6,2.6-7.7,6.9-7.7c3.8,0,5.8,2.4,6.1,4.9H51.9z"/>
			<path class="st1" d="M56.1,183.9c0.1-2.6,1.8-3.6,4.5-3.6c0.9,0,4,0.2,4,3v6.2c0,0.5,0.2,0.6,0.6,0.6c0.2,0,0.4,0,0.6-0.1v1.3
				c-0.3,0.1-0.6,0.2-1,0.2c-1.6,0-1.9-0.8-1.9-1.7c-0.7,0.8-1.8,1.8-3.9,1.8c-2,0-3.4-1.3-3.4-3.1c0-0.9,0.3-3,3.3-3.4l3-0.4
				c0.4,0,1-0.2,1-1.3c0-1.1-0.8-1.8-2.5-1.8c-2.1,0-2.4,1.3-2.5,2.1H56.1z M62.7,185.9c-0.3,0.2-0.7,0.4-3,0.7
				c-0.9,0.1-2.3,0.4-2.3,1.8c0,1.2,0.6,1.9,2,1.9c1.7,0,3.4-1.1,3.4-2.5V185.9z"/>
			<path class="st1" d="M69.7,191.4h-1.8v-10.8h1.7v1.8h0c0.7-1.3,1.7-2.1,3-2.1c0.2,0,0.3,0,0.5,0.1v1.9h-0.7
				c-1.7,0-2.8,1.3-2.8,2.9V191.4z"/>
			<path class="st1" d="M83.7,188c-0.1,0.5-0.6,2-1.9,3c-0.5,0.3-1.2,0.7-2.9,0.7c-3,0-4.8-2.3-4.8-5.4c0-3.4,1.6-6,5.2-6
				c3.1,0,4.7,2.5,4.7,6.3H76c0,2.3,1.1,3.6,3.1,3.6c1.7,0,2.7-1.3,2.8-2.1H83.7z M82,185.2c-0.1-1.7-0.8-3.2-3-3.2
				c-1.7,0-3,1.6-3,3.2H82z"/>
			<path class="st1" d="M95.2,188c-0.1,0.5-0.6,2-1.9,3c-0.5,0.3-1.2,0.7-2.9,0.7c-3,0-4.8-2.3-4.8-5.4c0-3.4,1.6-6,5.2-6
				c3.1,0,4.7,2.5,4.7,6.3h-7.9c0,2.3,1.1,3.6,3.1,3.6c1.7,0,2.7-1.3,2.8-2.1H95.2z M93.5,185.2c-0.1-1.7-0.8-3.2-3-3.2
				c-1.7,0-3,1.6-3,3.2H93.5z"/>
			<path class="st1" d="M99.6,191.4h-1.8v-10.8h1.7v1.8h0c0.7-1.3,1.7-2.1,3-2.1c0.2,0,0.3,0,0.5,0.1v1.9h-0.7
				c-1.7,0-2.8,1.3-2.8,2.9V191.4z"/>
			<path class="st1" d="M122.2,191.4h-2.4l-1.4-1.7c-1,1.2-2.2,2-4.3,2c-3.7,0-4.4-2.8-4.4-3.9c0-2,0.6-3.1,3.4-4.7
				c-1.1-1.3-1.6-2-1.6-3.3c0-1.7,1.2-3.3,3.5-3.3c2.3,0,3.3,1.6,3.3,3.1c0,2.1-1.6,3.1-2.7,3.9l2.7,3.2c0.3-0.9,0.4-1.2,0.6-2.3
				h1.7c-0.1,1-0.4,2.4-1.2,3.8L122.2,191.4z M114.1,184.4c-1.6,1-2.5,1.7-2.5,3.3c0,1.9,1.8,2.5,2.7,2.5c1.3,0,2.4-0.6,3.2-1.7
				L114.1,184.4z M116.6,179.8c0-1.3-1-1.6-1.6-1.6c-1.5,0-1.7,1.1-1.7,1.6c0,1,0.9,2,1.5,2.6C115.5,181.8,116.6,181,116.6,179.8z"
				/>
			<path class="st1" d="M140.4,181c-0.6-2.6-2.7-3.1-4.2-3.1c-2.7,0-4.9,2-4.9,5.9c0,3.5,1.2,6.2,4.9,6.2c1.3,0,3.6-0.6,4.2-4.1h1.9
				c-0.8,5.6-5.4,5.9-6.5,5.9c-3.4,0-6.7-2.2-6.7-7.9c0-4.6,2.6-7.7,6.9-7.7c3.8,0,5.8,2.4,6.1,4.9H140.4z"/>
			<path class="st1" d="M149.1,180.3c3.5,0,5,2.9,5,5.7c0,2.8-1.6,5.7-5,5.7c-3.5,0-5-2.9-5-5.7C144,183.2,145.6,180.3,149.1,180.3z
				 M149.1,190.1c2.6,0,3.1-2.7,3.1-4.1c0-1.4-0.5-4.1-3.1-4.1s-3.1,2.7-3.1,4.1C145.9,187.4,146.5,190.1,149.1,190.1z"/>
			<path class="st1" d="M156.2,180.6h1.7v1.5h0c0.4-0.6,1.3-1.8,3.3-1.8c1.9,0,2.6,1.2,2.9,1.8c0.9-1,1.6-1.8,3.3-1.8
				c1.2,0,3.4,0.6,3.4,3.6v7.5h-1.8v-7c0-1.5-0.5-2.5-2-2.5c-1.5,0-2.5,1.4-2.5,2.9v6.6h-1.8v-7.5c0-0.9-0.4-2-1.7-2
				c-1,0-2.9,0.7-2.9,3.6v5.9h-1.8V180.6z"/>
			<path class="st1" d="M173.3,180.6h1.7v1.5h0c0.4-0.6,1.3-1.8,3.2-1.8c2.9,0,4.5,2.4,4.5,5.4c0,2.6-1.1,6-4.8,6
				c-1.4,0-2.4-0.7-2.9-1.4h0v5.4h-1.8V180.6z M177.9,190.2c2,0,2.9-1.8,2.9-4.2c0-1.4-0.1-4.1-3-4.1c-2.6,0-2.9,2.8-2.9,4.6
				C175,189.4,176.8,190.2,177.9,190.2z"/>
			<path class="st1" d="M194.1,188c-0.1,0.5-0.6,2-1.9,3c-0.5,0.3-1.2,0.7-2.9,0.7c-3,0-4.8-2.3-4.8-5.4c0-3.4,1.6-6,5.2-6
				c3.1,0,4.7,2.5,4.7,6.3h-7.9c0,2.3,1.1,3.6,3.1,3.6c1.7,0,2.7-1.3,2.8-2.1H194.1z M192.3,185.2c-0.1-1.7-0.8-3.2-3-3.2
				c-1.7,0-3,1.6-3,3.2H192.3z"/>
			<path class="st1" d="M198.6,182.1v7c0,0.8,0.7,0.8,1.1,0.8h0.6v1.4c-0.7,0.1-1.2,0.1-1.4,0.1c-1.8,0-2.2-1-2.2-2.3v-7.1h-1.5
				v-1.5h1.5v-3h1.8v3h1.7v1.5H198.6z"/>
			<path class="st1" d="M211.3,188c-0.1,0.5-0.6,2-1.9,3c-0.5,0.3-1.2,0.7-2.9,0.7c-3,0-4.8-2.3-4.8-5.4c0-3.4,1.6-6,5.2-6
				c3.1,0,4.7,2.5,4.7,6.3h-7.9c0,2.3,1.1,3.6,3.1,3.6c1.7,0,2.7-1.3,2.8-2.1H211.3z M209.6,185.2c-0.1-1.7-0.8-3.2-3-3.2
				c-1.7,0-3,1.6-3,3.2H209.6z"/>
			<path class="st1" d="M222.5,191.4h-1.8v-6.7c0-1.9-0.5-2.8-2.3-2.8c-1,0-2.9,0.7-2.9,3.6v5.9h-1.8v-10.8h1.7v1.5h0
				c0.4-0.6,1.4-1.8,3.3-1.8c1.7,0,3.8,0.7,3.8,3.8V191.4z"/>
			<path class="st1" d="M231.9,184.2c-0.2-1.4-1-2.3-2.6-2.3c-2.3,0-3,2.2-3,4.1c0,1.9,0.5,4.2,3,4.2c1.2,0,2.3-0.9,2.6-2.6h1.8
				c-0.2,1.7-1.2,4.1-4.4,4.1c-3,0-4.8-2.3-4.8-5.4c0-3.4,1.6-6,5.2-6c2.8,0,3.9,2.1,4.1,4H231.9z"/>
			<path class="st1" d="M242.3,180.6h2c-1.3,3.5-2.5,7.1-3.9,10.6c-1.7,4.4-1.9,4.6-4.2,4.6c-0.3,0-0.5-0.1-0.8-0.2V194
				c0.2,0.1,0.6,0.2,1.1,0.2c1,0,1.1-0.3,1.9-2.5l-4-11.1h2.1l2.9,8.8h0L242.3,180.6z"/>
			<path class="st1" d="M254.2,187.1l-1.6,4.3h-2.1l5.6-14.8h2.3l5.4,14.8h-2.2l-1.5-4.3H254.2z M259.4,185.3l-2.2-6.5h0l-2.4,6.5
				H259.4z"/>
			<path class="st1" d="M271.5,183.7c0-0.7-0.3-1.8-2.6-1.8c-0.6,0-2.2,0.2-2.2,1.5c0,0.9,0.6,1.1,2,1.4l1.8,0.5
				c2.3,0.6,3,1.4,3,2.9c0,2.2-1.8,3.6-4.3,3.6c-4.3,0-4.6-2.5-4.7-3.8h1.8c0.1,0.8,0.3,2.2,2.9,2.2c1.3,0,2.5-0.5,2.5-1.7
				c0-0.9-0.6-1.2-2.2-1.6l-2.1-0.5c-1.5-0.4-2.5-1.1-2.5-2.6c0-2.4,2-3.5,4.1-3.5c3.9,0,4.1,2.9,4.1,3.4H271.5z"/>
			<path class="st1" d="M281.9,183.7c0-0.7-0.3-1.8-2.6-1.8c-0.6,0-2.2,0.2-2.2,1.5c0,0.9,0.6,1.1,2,1.4l1.8,0.5
				c2.3,0.6,3,1.4,3,2.9c0,2.2-1.8,3.6-4.3,3.6c-4.3,0-4.6-2.5-4.7-3.8h1.8c0.1,0.8,0.3,2.2,2.9,2.2c1.3,0,2.5-0.5,2.5-1.7
				c0-0.9-0.6-1.2-2.2-1.6l-2.1-0.5c-1.5-0.4-2.5-1.1-2.5-2.6c0-2.4,2-3.5,4.1-3.5c3.9,0,4.1,2.9,4.1,3.4H281.9z"/>
			<path class="st1" d="M295.3,188c-0.1,0.5-0.6,2-1.9,3c-0.5,0.3-1.2,0.7-2.9,0.7c-3,0-4.8-2.3-4.8-5.4c0-3.4,1.6-6,5.2-6
				c3.1,0,4.7,2.5,4.7,6.3h-7.9c0,2.3,1.1,3.6,3.1,3.6c1.7,0,2.7-1.3,2.8-2.1H295.3z M293.5,185.2c-0.1-1.7-0.8-3.2-3-3.2
				c-1.7,0-3,1.6-3,3.2H293.5z"/>
			<path class="st1" d="M303.7,183.7c0-0.7-0.3-1.8-2.6-1.8c-0.6,0-2.2,0.2-2.2,1.5c0,0.9,0.6,1.1,2,1.4l1.8,0.5
				c2.3,0.6,3,1.4,3,2.9c0,2.2-1.8,3.6-4.3,3.6c-4.3,0-4.6-2.5-4.7-3.8h1.8c0.1,0.8,0.3,2.2,2.9,2.2c1.3,0,2.5-0.5,2.5-1.7
				c0-0.9-0.6-1.2-2.2-1.6l-2.1-0.5c-1.5-0.4-2.5-1.1-2.5-2.6c0-2.4,2-3.5,4.1-3.5c3.9,0,4.1,2.9,4.1,3.4H303.7z"/>
			<path class="st1" d="M314.1,183.7c0-0.7-0.3-1.8-2.6-1.8c-0.6,0-2.2,0.2-2.2,1.5c0,0.9,0.6,1.1,2,1.4l1.8,0.5
				c2.3,0.6,3,1.4,3,2.9c0,2.2-1.8,3.6-4.3,3.6c-4.3,0-4.6-2.5-4.7-3.8h1.8c0.1,0.8,0.3,2.2,2.9,2.2c1.3,0,2.5-0.5,2.5-1.7
				c0-0.9-0.6-1.2-2.2-1.6l-2.1-0.5c-1.5-0.4-2.5-1.1-2.5-2.6c0-2.4,2-3.5,4.1-3.5c3.9,0,4.1,2.9,4.1,3.4H314.1z"/>
			<path class="st1" d="M318.3,180.6h1.7v1.5h0c0.4-0.6,1.3-1.8,3.3-1.8c1.9,0,2.6,1.2,2.9,1.8c0.9-1,1.6-1.8,3.3-1.8
				c1.2,0,3.4,0.6,3.4,3.6v7.5H331v-7c0-1.5-0.5-2.5-2-2.5c-1.5,0-2.5,1.4-2.5,2.9v6.6h-1.8v-7.5c0-0.9-0.4-2-1.7-2
				c-1,0-2.9,0.7-2.9,3.6v5.9h-1.8V180.6z"/>
			<path class="st1" d="M344.7,188c-0.1,0.5-0.6,2-1.9,3c-0.5,0.3-1.2,0.7-2.9,0.7c-3,0-4.8-2.3-4.8-5.4c0-3.4,1.6-6,5.2-6
				c3.1,0,4.7,2.5,4.7,6.3h-7.9c0,2.3,1.1,3.6,3.1,3.6c1.7,0,2.7-1.3,2.8-2.1H344.7z M342.9,185.2c-0.1-1.7-0.8-3.2-3-3.2
				c-1.7,0-3,1.6-3,3.2H342.9z"/>
			<path class="st1" d="M355.8,191.4H354v-6.7c0-1.9-0.5-2.8-2.3-2.8c-1,0-2.9,0.7-2.9,3.6v5.9H347v-10.8h1.7v1.5h0
				c0.4-0.6,1.4-1.8,3.3-1.8c1.7,0,3.8,0.7,3.8,3.8V191.4z"/>
			<path class="st1" d="M360.7,182.1v7c0,0.8,0.7,0.8,1.1,0.8h0.6v1.4c-0.7,0.1-1.2,0.1-1.4,0.1c-1.8,0-2.2-1-2.2-2.3v-7.1h-1.5
				v-1.5h1.5v-3h1.8v3h1.7v1.5H360.7z"/>
			<path class="st1" d="M380.1,176.6h1.9v14.8h-2.3l-7.5-12h0v12h-1.9v-14.8h2.4l7.4,12h0V176.6z"/>
			<path class="st1" d="M394.1,188c-0.1,0.5-0.6,2-1.9,3c-0.5,0.3-1.2,0.7-2.9,0.7c-3,0-4.8-2.3-4.8-5.4c0-3.4,1.6-6,5.2-6
				c3.1,0,4.7,2.5,4.7,6.3h-7.9c0,2.3,1.1,3.6,3.1,3.6c1.7,0,2.7-1.3,2.8-2.1H394.1z M392.4,185.2c-0.1-1.7-0.8-3.2-3-3.2
				c-1.7,0-3,1.6-3,3.2H392.4z"/>
			<path class="st1" d="M398.7,182.1v7c0,0.8,0.7,0.8,1.1,0.8h0.6v1.4c-0.7,0.1-1.2,0.1-1.4,0.1c-1.8,0-2.2-1-2.2-2.3v-7.1h-1.5
				v-1.5h1.5v-3h1.8v3h1.7v1.5H398.7z"/>
			<path class="st1" d="M406.1,191.4h-1.9l-3.1-10.8h2l2.1,8.5h0l2.1-8.5h2l2.1,8.5h0l2.2-8.5h1.8l-3.1,10.8h-1.9l-2.2-8.4h0
				L406.1,191.4z"/>
			<path class="st1" d="M421.3,180.3c3.5,0,5,2.9,5,5.7c0,2.8-1.6,5.7-5,5.7c-3.5,0-5-2.9-5-5.7
				C416.3,183.2,417.9,180.3,421.3,180.3z M421.3,190.1c2.6,0,3.1-2.7,3.1-4.1c0-1.4-0.5-4.1-3.1-4.1c-2.6,0-3.1,2.7-3.1,4.1
				C418.2,187.4,418.7,190.1,421.3,190.1z"/>
			<path class="st1" d="M430.5,191.4h-1.8v-10.8h1.7v1.8h0c0.7-1.3,1.7-2.1,3-2.1c0.2,0,0.3,0,0.5,0.1v1.9h-0.7
				c-1.7,0-2.8,1.3-2.8,2.9V191.4z"/>
			<path class="st1" d="M444.6,191.4h-2.3l-3.4-5.5l-1.5,1.4v4.1h-1.8v-14.8h1.8v8.6l4.7-4.6h2.3l-4.1,4L444.6,191.4z"/>
		</g>
		<path class="st1" d="M16.4,108.8c-0.4,0.5-0.6,1.3-0.6,2.3c0,1,0.2,1.9,0.6,2.5c0.7,1.4,1.6,1.9,2.9,1.8c0.5,0.2,1.4-0.1,2.5-0.8
			c0.8-1.3,1.2-2.7,1-4c0-0.7-0.2-1.3-0.6-2c-0.4-0.7-1-1.2-1.6-1.5c-1.4-0.3-2.3-0.3-2.9,0.3C17.1,107.3,16.7,107.8,16.4,108.8z
			 M13.7,89.6c-0.5,1-0.6,1.9-0.2,2.5c0.7,1,1.4,1.9,2.2,2.7c0.8,0.8,1.5,1.6,2.2,2.4v0.3c-1.8,0.2-3.3,0.8-4.5,1.9
			c-1.2,1.1-2.4,2.4-3.5,3.9c-1.1-0.3-2.3-1.1-3.7-2.3c-0.7-0.3-1.2-0.7-1.6-1c-0.4-0.3-0.9-0.3-1.4,0c-0.3,0.3-0.6,0.7-0.9,1.1
			c-0.3,0.4-0.5,1-0.5,1.6c0.3,0.7,0.7,1.4,1.2,2c0.3,0.3,0.6,0.5,0.8,0.5c0.1,0,0.3,0.2,0.6,0.5c0.7,0.3,1.3,0.7,2,1.1
			c0.6,0.4,1.3,0.8,2,1.1c0,0.5-0.1,0.7-0.3,0.5c-0.2-0.2-0.3-0.1-0.3,0.3c-0.5-0.3-1.1-0.4-1.6-0.3c-0.5,0.2-1.1,0.1-1.6-0.3
			c-0.3,0.7-0.4,0.7-0.4,0c-0.5,0.3-1.1,0.4-1.5,0.3c-0.5-0.2-1,0.1-1.5,0.8c-0.8,0.7-1,1.7-0.4,3c0.3,0.5,0.6,0.8,1,1
			c0.4,0.2,0.8,0.4,1.2,0.8c1-0.3,1.9-0.4,2.7-0.3c0.8,0.2,1.7,0.1,2.7-0.3c0.1,0.3,0.2,0.7,0.2,1c-0.4,0.3-0.9,0.6-1.4,0.9
			c-0.5,0.3-1.2,0.5-1.9,0.9c-0.7,0.3-1.3,0.7-2,1c-0.6,0.3-1.1,1-1.3,2c-0.1,0.7,0,1.4,0.4,2.3c0.7,0.7,1.4,0.8,2.1,0.5
			c1.1-0.3,2.1-0.8,3.1-1.4c1-0.6,2-1.1,3.1-1.4c2.2,3.2,5,5,8.4,5.3c2.3,0,4.5-0.7,6.4-2.1c1.9-1.4,3.4-3.3,4.3-5.7
			c0.3,0,0.5,0,0.8-0.1c0.3-0.1,0.6,0,0.8,0.1l0.4-0.3h9.5c4-0.2,8.1-0.2,12.2-0.1c4.2,0.1,8.3,0.1,12.3,0.1
			c1.3-0.1,2.5-0.1,3.7-0.1v-10.7h-2.4c-4.9,0-9.8,0.1-14.7,0.3c-4.9,0.2-9.9,0.3-15.1,0.3c-0.8,0-1.7-0.1-2.6-0.3
			c-0.9-0.2-1.7-0.1-2.4,0.3c-0.5-0.3-1-0.4-1.3-0.3c-0.3,0.2-0.7,0.1-0.9-0.3c-0.7-1.9-1.7-3.5-3.2-4.9c-1.4-1.4-2.7-3-3.8-4.7
			c-0.7-1-1.5-1.9-2.4-2.8c-0.9-0.8-1.7-1.7-2.4-2.5c-0.3-0.3-0.5-0.8-0.7-1.3c-0.2-0.5-0.5-0.8-0.9-1
			C15.1,88.4,14.3,88.7,13.7,89.6z M21.9,103c1.1,0.5,2.1,1.4,2.9,2.8c0.8,1.4,1.3,2.7,1.4,4c0.4,3.9-0.7,6.7-3.3,8.6
			c-1.1,1-2.3,1.5-3.5,1.5c-1.4,0-2.6-0.3-3.7-0.8c-3.2-2.2-4.4-5.4-3.7-9.6c0.1-1,0.4-2,0.7-3c0.3-1,0.9-1.9,1.7-2.5
			c1.1-0.8,2.3-1.4,3.6-1.6C19.4,102.1,20.7,102.3,21.9,103z"/>
		<rect x="27.9" y="104.7" class="st1" width="21.9" height="12.8"/>
		<rect x="119.1" y="104.7" class="st1" width="21.9" height="12.8"/>
		<g>
			<path class="st2" d="M128.8,125.7c0,5.7-0.5,10.5-1.4,14.6c-1.4,6.2-4.9,11.9-10.3,17.1c-7.7,7.3-17.9,10.9-30.8,10.9
				c-13.1,0-23.3-3.7-30.6-11.1c-3.9-3.9-6.5-8.8-8-14.6c-1-4.2-1.5-9.8-1.5-16.8V71.2h24.6v51.2c0,4.1,0.1,7.2,0.2,9.2
				c0.5,6.4,3.4,10.9,8.8,13.4c2.2,1.1,4.7,1.6,7.3,1.6c6,0,10.5-2.1,13.6-6.3c2.3-3.1,3.4-9.1,3.4-17.9V71.2h24.6V125.7z"/>
		</g>
		<rect x="36.1" y="62.4" class="st2" width="42.2" height="19.5"/>
		<rect x="94.4" y="62.4" class="st2" width="42.2" height="19.5"/>
		<g>
			<path class="st1" d="M213.4,162.3c-8.6,3.4-16.6,5.1-24,5.1c-12.8,0-24.3-4.1-34.4-12.3c-12.9-10.5-19.4-24.1-19.4-41
				c0-16.9,6.5-30.6,19.4-41c10.1-8.2,21.7-12.3,34.6-12.3c7.1,0,15,1.7,23.8,5.1v31.7c-2.5-3-5-5.3-7.6-6.9
				c-4.7-2.8-9.8-4.3-15.2-4.3c-6.9,0-12.8,2.1-17.9,6.2c-6.4,5.2-9.6,12.4-9.6,21.5c0,9.1,3.2,16.2,9.6,21.4
				c5.1,4.1,11,6.2,17.9,6.2c5.4,0,10.5-1.4,15.2-4.3c2.5-1.5,5.1-3.8,7.6-6.9V162.3z"/>
			<path class="st1" d="M326.8,164.7h-28.2L292,147h-36.5l-7,17.7h-27.9L259.7,63h28.8L326.8,164.7z M284.8,126.8l-11-32.4
				l-11.1,32.4H284.8z"/>
			<path class="st1" d="M440,164.7h-26.4l-48.6-62.3v62.3h-26.4V63h26.4l48.6,62.2V63H440V164.7z"/>
		</g>
		<path class="st1" d="M169,111.5c0-3.8,3-6.8,6.8-6.8c3.8,0,6.8,3,6.8,6.8c0,3.8-3,6.8-6.8,6.8C172,118.3,169,115.3,169,111.5z"/>
		<path class="st1" d="M196.2,111.5c0-3.8,3-6.8,6.8-6.8c3.8,0,6.8,3,6.8,6.8c0,3.8-3,6.8-6.8,6.8
			C199.3,118.3,196.2,115.3,196.2,111.5z"/>
		<g>
			<path class="st2" d="M214.1,42.8c0,4.6-3.7,8.3-8.3,8.3H45.1c-4.6,0-8.3-3.7-8.3-8.3V8.3c0-4.6,3.7-8.3,8.3-8.3h160.7
				c4.6,0,8.3,3.7,8.3,8.3V42.8z"/>
			<polygon class="st2" points="103.8,48.6 101.7,58.9 123,48.4 			"/>
		</g>
		<g>
			<path class="st3" d="M67.8,18.9c-0.4-1.4-1.1-4.1-5.1-4.1c-2.3,0-5.7,1.6-5.7,8.3c0,4.3,1.6,8.1,5.7,8.1c2.7,0,4.5-1.6,5.1-4.5
				h4.8c-1,5.2-4.2,8.8-10,8.8c-6.1,0-10.5-4.3-10.5-12.5c0-8.3,4.6-12.5,10.6-12.5c6.9,0,9.7,4.9,9.9,8.4H67.8z"/>
			<path class="st3" d="M89.4,31.4c0,2.1,0.4,2.5,1,2.7v0.7h-4.8c-0.3-0.8-0.3-1.1-0.4-2.1c-1,1.1-2.5,2.5-5.5,2.5
				c-2.6,0-5.2-1.5-5.2-5.1c0-3.4,2.1-5.2,5-5.6l4-0.6c0.7-0.1,1.6-0.4,1.6-1.4c0-2-1.8-2.1-2.9-2.1c-2.2,0-2.6,1.4-2.8,2.4H75
				c0.5-5.4,4.1-6.2,7.6-6.2c2.4,0,6.8,0.8,6.8,5.1V31.4z M85,26.3c-0.4,0.4-1.2,0.7-3,1c-1.7,0.3-3,0.7-3,2.6
				c0,1.6,1.2,2.1,2.1,2.1c2,0,4-1.3,4-3.5V26.3z"/>
			<path class="st3" d="M108.4,34.9H104V24.2c0-1.3-0.1-3.5-2.9-3.5c-2,0-3.5,1.4-3.5,4.1v10.1h-4.5V17.3h4.3v2.6h0.1
				c0.6-1.1,1.9-3,5.1-3c3.3,0,5.9,2,5.9,5.9V34.9z"/>
			<path class="st3" d="M130.2,34.6c-2.1,6.5-2.7,7.4-6.6,7.4c-0.6,0-1.4,0-2-0.1v-3.7c0.2,0,0.5,0.1,0.9,0.1c1.6,0,2.5-0.2,2.9-2.6
				l-6.3-18.3h5l3.6,13h0.1l3.5-13h4.7L130.2,34.6z"/>
			<path class="st3" d="M145.2,35.4c-4.6,0-8.7-2.9-8.7-9.3s4.1-9.3,8.7-9.3s8.7,2.9,8.7,9.3S149.8,35.4,145.2,35.4z M145.2,20.7
				c-3.5,0-4.1,3.1-4.1,5.4c0,2.3,0.6,5.4,4.1,5.4c3.5,0,4.1-3.1,4.1-5.4C149.3,23.8,148.7,20.7,145.2,20.7z"/>
			<path class="st3" d="M172.1,34.9h-4.3v-2.5h-0.1c-1,1.9-2.8,2.9-5.2,2.9c-3.4,0-5.8-2-5.8-6.5V17.3h4.5v10.9
				c0,2.7,1.5,3.2,2.9,3.2c1.5,0,3.5-0.9,3.5-4V17.3h4.5V34.9z"/>
			<path class="st3" d="M190.2,28c0-3.2,0.3-4.6,3.3-6.7c1.2-0.9,2-1.9,2-3.3c0-2.6-1.8-3.3-3.1-3.3c-2.9,0-3.3,2.3-3.5,3.8v0h-4.5
				c0-5.8,4.2-7.7,7.7-7.7c1.9,0,8.2,0.6,8.2,7.1c0,2.7-1.4,4.3-3.9,6.1c-1.4,1-2,1.7-2,4H190.2z M194.7,34.9h-4.7v-4.7h4.7V34.9z"
				/>
		</g>
	</g>
</g>
</svg>
