<svg xmlns="http://www.w3.org/2000/svg" width="98.947" height="45.498" viewBox="0 0 98.947 45.498">
  <g id="Group_19014" data-name="Group 19014" transform="translate(-833.306 -248.175)">
    <g id="Group_18959" data-name="Group 18959" transform="translate(825.183 148.774)">
      <g id="圖層_4" data-name="圖層 4" transform="translate(8.123 96.759)">
        <g id="Group_18958" data-name="Group 18958" transform="translate(0 2)">
          <path id="Path_40870" data-name="Path 40870" d="M48.749,486.8s.52.142,1.513,1.277,4.161,5.154,4.587,5.343.769.433,1.275,0,2.155-1.87,2.155-1.87.506-.562-.266-1.319S53.2,484.58,53.2,484.58Z" transform="translate(-44.563 -447.526)" fill="#d02204"/>
          <path id="Path_40871" data-name="Path 40871" d="M37.49,351.029s-1.261,4.047-6.537,7.961l-3.418,2.678,3.318,5.783s8.168-3.489,13.1-1.532C43.957,365.919,44.042,355.028,37.49,351.029Z" transform="translate(-25.535 -327.736)" fill="#d02204"/>
          <rect id="Rectangle_1506" data-name="Rectangle 1506" width="81.265" height="30.048" transform="translate(17.682 5.74)" fill="#d02204"/>
          <path id="Path_40872" data-name="Path 40872" d="M13.541,428.289a4.074,4.074,0,0,0-.242,3.663,5.994,5.994,0,0,0,1.87,2.9,2.577,2.577,0,0,0,1.552.667.874.874,0,0,1,.127.015c.014,0,.025.02.058.049a.709.709,0,0,1-.139.089c-1.17.393-2.339.786-3.511,1.172-.455.15-.921.267-1.374.423A1.684,1.684,0,0,1,10.323,437a5.049,5.049,0,0,1-1.951-2.792,3.956,3.956,0,0,1-.107-2.405,1.6,1.6,0,0,1,.789-.967c1.422-.8,2.832-1.612,4.247-2.421C13.38,428.373,13.461,428.332,13.541,428.289Z" transform="translate(-8.123 -397.035)"/>
          <path id="Path_40873" data-name="Path 40873" d="M126.443,310.991a8.8,8.8,0,0,1,.5-2.889,2.348,2.348,0,0,1,3.326-1.5,8.7,8.7,0,0,1,3.033,1.991,20.608,20.608,0,0,1,4.243,5.936,24.273,24.273,0,0,1,1.929,5.253,13.125,13.125,0,0,1,.335,4.827,4.875,4.875,0,0,1-.858,2.316,2.16,2.16,0,0,1-2.412.851,7.234,7.234,0,0,1-2.922-1.671,20.026,20.026,0,0,1-4.742-6.35,21.99,21.99,0,0,1-2.123-6.238C126.609,312.681,126.543,311.833,126.443,310.991Zm7.726,7.664a4.244,4.244,0,0,0-.814-2.233,2.512,2.512,0,0,0-1.012-.923.59.59,0,0,0-.908.427,2.094,2.094,0,0,0-.043.711,4.174,4.174,0,0,0,1.034,2.282,2.892,2.892,0,0,0,.776.615.6.6,0,0,0,.925-.465A3.589,3.589,0,0,0,134.169,318.654Z" transform="translate(-114.251 -287.689)" fill="#ecebea"/>
          <path id="Path_40874" data-name="Path 40874" d="M140.711,393.7l-4.422,1.688,2.565,5.029,3.814-2.6A3.614,3.614,0,0,0,140.711,393.7Z" transform="translate(-123.082 -366.008)" fill="#adabab"/>
          <path id="Path_40875" data-name="Path 40875" d="M177.132,397.286a3.579,3.579,0,0,1-.042.415.6.6,0,0,1-.925.465,2.892,2.892,0,0,1-.776-.615,4.174,4.174,0,0,1-1.034-2.282,2.094,2.094,0,0,1,.043-.711.59.59,0,0,1,.907-.427,2.512,2.512,0,0,1,1.012.923A4.243,4.243,0,0,1,177.132,397.286Zm-.549-.492a2.485,2.485,0,0,0-.922-1.768.612.612,0,0,0-.51-.111c-.126.057-.174.3-.244.46a.379.379,0,0,0,0,.178,2.5,2.5,0,0,0,.66,1.444,1.644,1.644,0,0,0,.469.344.326.326,0,0,0,.487-.219A2.046,2.046,0,0,0,176.583,396.794Z" transform="translate(-157.214 -366.321)"/>
          <path id="Path_40876" data-name="Path 40876" d="M181.409,404.168a2.042,2.042,0,0,1-.057.329.326.326,0,0,1-.487.219,1.644,1.644,0,0,1-.469-.344,2.5,2.5,0,0,1-.66-1.444.38.38,0,0,1,0-.178c.07-.164.118-.4.244-.46a.612.612,0,0,1,.51.111A2.485,2.485,0,0,1,181.409,404.168Z" transform="translate(-162.04 -373.695)" fill="#fff"/>
          <path id="Path_40877" data-name="Path 40877" d="M112.484,297.7a8.85,8.85,0,0,1,.7-3.828,3.531,3.531,0,0,1,4.176-1.956,8.82,8.82,0,0,1,3.854,2.174,19.466,19.466,0,0,1,3.029,3.555,24.92,24.92,0,0,1,2.6,4.924c.385.99.754,1.99,1.046,3.01a16.793,16.793,0,0,1,.74,5.638,6.91,6.91,0,0,1-.967,3.375,3.373,3.373,0,0,1-3.817,1.487,8.96,8.96,0,0,1-3.48-1.921,19.512,19.512,0,0,1-3.827-4.451,26.063,26.063,0,0,1-3.093-6.646,27.751,27.751,0,0,1-.748-3.067A22.962,22.962,0,0,1,112.484,297.7Zm1.438.209c.1.842.166,1.691.306,2.526a21.989,21.989,0,0,0,2.123,6.238,20.026,20.026,0,0,0,4.742,6.35,7.235,7.235,0,0,0,2.922,1.671,2.161,2.161,0,0,0,2.412-.851,4.875,4.875,0,0,0,.858-2.316,13.125,13.125,0,0,0-.335-4.827,24.273,24.273,0,0,0-1.929-5.253,20.608,20.608,0,0,0-4.243-5.936,8.7,8.7,0,0,0-3.033-1.991,2.348,2.348,0,0,0-3.326,1.5A8.8,8.8,0,0,0,113.922,297.905Z" transform="translate(-101.73 -274.604)"/>
        </g>
      </g>
      <g id="圖層_5" data-name="圖層 5" transform="translate(22.01 99.9)">
        <path id="Path_40878" data-name="Path 40878" d="M145.343,123.587h59.53V93.517H123.484v17.234" transform="translate(-123.484 -93.517)" fill="none" stroke="#080808" stroke-miterlimit="10" stroke-width="1"/>
      </g>
    </g>
    <text id="停機通知" transform="translate(891.587 272.949)" fill="#fff" font-size="16" font-family="YuGothicUI-Bold, Yu Gothic UI" font-weight="700" letter-spacing="0.02em"><tspan x="-32.48" y="0">停機通知</tspan></text>
  </g>
</svg>
