<svg xmlns="http://www.w3.org/2000/svg" width="27.391" height="25.117" viewBox="0 0 27.391 25.117">
  <g id="Group_26792" data-name="Group 26792" transform="translate(-65.286 -851.966)">
    <path id="Path_47182" data-name="Path 47182" d="M65.286,870.517v-16.53a5.927,5.927,0,0,1,.456-1.066,2.278,2.278,0,0,1,2.037-.955q8.612,0,17.223,0c1.748,0,3.495-.005,5.242,0a2.3,2.3,0,0,1,2.431,2.434q0,7.849-.009,15.7a2.673,2.673,0,0,1-.234,1.108,2.239,2.239,0,0,1-2.208,1.3c-2.5-.006-4.992,0-7.488,0H82.4a7,7,0,0,0,.473,2.457,1.451,1.451,0,0,0,.932.927c.146.037.3.041.447.075a.535.535,0,0,1,.41.646c-.06.323-.292.467-.759.467q-4.921,0-9.842,0a1.613,1.613,0,0,1-.344-.034.51.51,0,0,1-.422-.456c-.058-.371.181-.624.649-.663a1.149,1.149,0,0,0,.856-.478,4.422,4.422,0,0,0,.7-2.211c.031-.234.035-.471.052-.729H67.849c-.169,0-.339,0-.507-.018a2.247,2.247,0,0,1-1.483-.762,2.763,2.763,0,0,1-.572-1.213m25.09-16.247H67.591V867.93H90.376ZM77.844,870.231a1.137,1.137,0,1,0,1.132-1.143,1.138,1.138,0,0,0-1.132,1.143" transform="translate(0 0)" fill="#7f7f7f"/>
    <path id="Path_47183" data-name="Path 47183" d="M83.312,867.737a1.551,1.551,0,0,1,.318-2.03,1.519,1.519,0,0,1,1.861-.031,1.6,1.6,0,0,1,.377,2.071l1.977,1.869a1.838,1.838,0,0,1,2.252,0c.254-.241.513-.486.77-.732.314-.3.622-.608.943-.9a.242.242,0,0,0,.064-.338,1.762,1.762,0,1,1,.609.736l-.17-.116-1.848,1.759a1.831,1.831,0,0,1-.41,2.409,1.776,1.776,0,0,1-2.186-.006,1.832,1.832,0,0,1-.4-2.4l-1.916-1.826a4.44,4.44,0,0,1-.965.227,4.468,4.468,0,0,1-.984-.225l-2.182,2.1a1.567,1.567,0,0,1-.675,2.076,1.517,1.517,0,0,1-1.8-2.384,1.557,1.557,0,0,1,2.137-.111l2.226-2.135" transform="translate(-7.925 -7.865)" fill="#7f7f7f"/>
  </g>
</svg>
