<svg xmlns="http://www.w3.org/2000/svg" width="24.689" height="25.583" viewBox="0 0 24.689 25.583">
  <g id="Group_26780" data-name="Group 26780" transform="translate(-61.551 -159.337)">
    <path id="Path_47167" data-name="Path 47167" d="M72.046,173.778a10.51,10.51,0,0,1,6.317-1.992,11.6,11.6,0,0,1,2.172.2c.168-.018.328-.043.483-.073a5.981,5.981,0,0,0,.673-2.737c0-4.2-4.509-7.6-10.07-7.6a13.183,13.183,0,0,0-2.691.275,8.048,8.048,0,0,1-5.289-2.424.292.292,0,0,0-.5.143,10.242,10.242,0,0,0,.162,5.322,6.363,6.363,0,0,0-1.753,4.287c0,3.709,3.519,6.8,8.174,7.467a7.157,7.157,0,0,1,2.321-2.869m6.317-5.431a1.058,1.058,0,1,1-1.058,1.058,1.058,1.058,0,0,1,1.058-1.058m-4.495,0a1.058,1.058,0,1,1-1.058,1.058,1.058,1.058,0,0,1,1.058-1.058m-8.99,2.117a1.058,1.058,0,1,1,1.058-1.058,1.058,1.058,0,0,1-1.058,1.058m4.495,0a1.058,1.058,0,1,1,1.058-1.058,1.058,1.058,0,0,1-1.058,1.058" transform="translate(0)" fill="#7f7f7f"/>
    <path id="Path_47168" data-name="Path 47168" d="M103.279,200.215a8.02,8.02,0,0,0,.127-4.163.228.228,0,0,0-.39-.111,6.3,6.3,0,0,1-4.137,1.9,10.309,10.309,0,0,0-2.105-.215c-4.35,0-7.877,2.662-7.877,5.947s3.527,5.947,7.877,5.947,7.877-2.663,7.877-5.947a4.977,4.977,0,0,0-1.371-3.353m-11,4.8a1.058,1.058,0,1,1,1.058-1.058,1.058,1.058,0,0,1-1.058,1.058m4.495,0a1.058,1.058,0,1,1,1.058-1.058,1.058,1.058,0,0,1-1.058,1.058m4.495,0a1.058,1.058,0,1,1,1.058-1.058,1.058,1.058,0,0,1-1.058,1.058" transform="translate(-18.41 -24.594)" fill="#7f7f7f"/>
  </g>
</svg>
