<svg xmlns="http://www.w3.org/2000/svg" width="30.243" height="30.208" viewBox="0 0 30.243 30.208">
  <g id="Group_26654" data-name="Group 26654" transform="translate(-7113.159 -4748.074)">
    <path id="Path_47058" data-name="Path 47058" d="M7128.292,4748.075a15.1,15.1,0,1,1-15.133,15.089A15.081,15.081,0,0,1,7128.292,4748.075Zm12.587,15.034a12.421,12.421,0,0,0-4.908-9.908,12,12,0,0,0-7.743-2.632,12.6,12.6,0,1,0,12.651,12.541Z"/>
    <path id="Path_47059" data-name="Path 47059" d="M7184.889,4849.492c.322-.332.624-.653.937-.963.291-.288.6-.559.889-.848.234-.231.448-.483.681-.717.289-.291.587-.571.881-.856.212-.206.429-.407.635-.618.431-.442.844-.9,1.288-1.329a1.309,1.309,0,0,1,1.021-.454,1.271,1.271,0,0,1,.948,2.013,11.522,11.522,0,0,1-.918.956c-.413.418-.831.832-1.246,1.247-.445.444-.893.887-1.333,1.335-.647.658-1.282,1.326-1.935,1.978-.376.376-.769.738-1.169,1.089a1.254,1.254,0,0,1-1.416-.011c-.4-.364-.79-.743-1.178-1.121-.519-.5-1.037-1.011-1.546-1.524-.547-.552-1.081-1.117-1.627-1.67-.654-.662-1.305-1.326-1.975-1.972a1.35,1.35,0,0,1-.332-1.7,1.174,1.174,0,0,1,1.708-.4c.384.338.742.7,1.114,1.056.227.214.463.418.683.639.289.29.563.594.847.889.188.194.38.383.57.574.522.522,1.042,1.048,1.568,1.565C7184.264,4848.925,7184.557,4849.185,7184.889,4849.492Z" transform="translate(-56.586 -84.328)"/>
  </g>
</svg>
