<svg xmlns="http://www.w3.org/2000/svg" width="207.944" height="159.977" viewBox="0 0 207.944 159.977">
  <g id="Group_26635" data-name="Group 26635" transform="translate(2262.477 -3539.126)">
    <g id="Group_26355" data-name="Group 26355" transform="translate(-2261.965 3542.589)">
      <g id="Group_26344" data-name="Group 26344" transform="translate(1.481 120.69)">
        <g id="Group_26342" data-name="Group 26342" transform="translate(19.383 3.924)">
          <path id="Path_45268" data-name="Path 45268" d="M-1965.81,3830.393a150.954,150.954,0,0,1,17.793-1.455c9.2-.15,12.219.454,14.481,1.207s4.285,7.1,1.313,13.129-13.38,11.007-27.559,9.8-24.286-4.074-29.717-8.146-.6-6.336,5.431-9.655S-1969.876,3830.189-1965.81,3830.393Z" transform="translate(2035.792 -3828.84)" fill="#263238" stroke="#263238" stroke-linecap="round" stroke-linejoin="round" stroke-width="1"/>
          <path id="Path_45269" data-name="Path 45269" d="M-2019.32,3844.254s21.118-11.615,28.51-13.727,15.839-2.565,19.761,0,3.017,10.86,1.207,14.029-16.442,9.8-24.587,12.218-39.974,2.263-48.723,3.017-29.867.3-32.884-1.357-1.208-3.469,3.167-4.525,18.856-1.056,25.643-3.017S-2024.3,3846.819-2019.32,3844.254Z" transform="translate(2077.529 -3828.769)" fill="#fff" stroke="#263238" stroke-linecap="round" stroke-linejoin="round" stroke-width="1"/>
          <path id="Path_45270" data-name="Path 45270" d="M-1943.6,3852.875a15.516,15.516,0,0,0,1.545-7.028c-5.468,4.333-13.983,9.463-25.757,13.668-11.165,3.988-42.78,7.558-55.854,8.908,2.6-.053,4.945-.157,6.756-.313,8.748-.754,40.576-.6,48.722-3.017S-1945.412,3856.043-1943.6,3852.875Z" transform="translate(2051.288 -3837.089)" fill="#263238" stroke="#263238" stroke-linecap="round" stroke-linejoin="round" stroke-width="1"/>
          <path id="Path_45271" data-name="Path 45271" d="M-1902.378,3853.332c2.24-.951,4.477-1.979,6.521-3,.45-2.22.984-8.737-3.791-21.3a46.621,46.621,0,0,0-8.771,1.627S-1899.474,3840.883-1902.378,3853.332Z" transform="translate(1995.138 -3828.893)" fill="#263238" stroke="#263238" stroke-linecap="round" stroke-linejoin="round" stroke-width="1"/>
          <path id="Path_45272" data-name="Path 45272" d="M-2039.965,3868.688c-2.84.565-5.4,1.114-7.261,1.651-6.788,1.961-21.269,1.961-25.643,3.017s-6.184,2.866-3.167,4.525,24.135,2.112,32.884,1.358c1.032-.089,2.389-.166,3.987-.235C-2042.655,3875.21-2041.065,3870.781-2039.965,3868.688Z" transform="translate(2077.529 -3848.218)" fill="#fff" stroke="#263238" stroke-linecap="round" stroke-linejoin="round" stroke-width="1"/>
        </g>
        <g id="Group_26343" data-name="Group 26343">
          <path id="Path_45273" data-name="Path 45273" d="M-2072.128,3821.9s-13.727,1.66-20.665,2.264-19.459,6.185-22.024,11.614,5.129,11.917,9.5,13.274,17.5,4.375,24.739,3.922,28.661-6.789,32.432-8,10.408-4.073,10.408-4.073-6.335,0-17.045-5.429S-2067.15,3824.464-2072.128,3821.9Z" transform="translate(2115.328 -3821.498)" fill="#fff" stroke="#263238" stroke-linecap="round" stroke-linejoin="round" stroke-width="1"/>
          <path id="Path_45274" data-name="Path 45274" d="M-2088.552,3825.829s10.824-1.127,15.785,2.481,8.118,14.657,8.118,14.657l22.914-7.872s-1.718-1.825-6-7.011-16.912-8.118-24.354-6.54S-2088.552,3825.829-2088.552,3825.829Z" transform="translate(2102.283 -3821.117)" fill="#263238" stroke="#263238" stroke-linecap="round" stroke-linejoin="round" stroke-width="1"/>
          <path id="Path_45275" data-name="Path 45275" d="M-1988.123,3859.9c.442-.135.814-.251,1.085-.338,3.771-1.208,10.408-4.073,10.408-4.073s-4.866,0-13.276-3.655A11.7,11.7,0,0,1-1988.123,3859.9Z" transform="translate(2054.222 -3836.084)" fill="#fff" stroke="#263238" stroke-linecap="round" stroke-linejoin="round" stroke-width="1"/>
          <path id="Path_45276" data-name="Path 45276" d="M-2030.992,3861.686a188.622,188.622,0,0,0-27.277,5.547c-13.042,3.691-28.765,2.375-36.385,1.38,4.86,1.424,17.208,4.179,24.151,3.746,7.241-.453,28.661-6.789,32.431-7.995C-2036.047,3863.716-2033.2,3862.59-2030.992,3861.686Z" transform="translate(2105.256 -3840.882)" fill="#263238" stroke="#263238" stroke-linecap="round" stroke-linejoin="round" stroke-width="1"/>
        </g>
      </g>
      <g id="Group_26345" data-name="Group 26345" transform="translate(25.933 38.613)">
        <path id="Path_45277" data-name="Path 45277" d="M-2003.546,3699.7l-3.1,30.488s1.468,7.337,2.446,10.272,1.957,7.664,1.468,8.152-.815.163-4.24,1.141-7.5,6.848-12.717,9.131-9.456,1.141-14.348-.815-14.021-13.859-15.978-14.186a96.359,96.359,0,0,1-10.272-2.12c-2.446-.815-5.38-4.239-5.38-4.239s-.489,0-.489-1.793.162-1.957.162-1.957a5.669,5.669,0,0,1-1.63-2.609c-.326-1.467,3.1-9.293,3.1-14.184s2.446-23.316,2.446-25.6,3.424-2.772,7.011-4.239,22.5-8.478,22.826-10.434,1.63-15.652,1.63-15.652,10.146,10.851,11.413,11.739a10.882,10.882,0,0,1,2.446,2.282l-1.142,5.381s4.891,3.587,8.152,5.543,7.663,3.75,7.826,5.055" transform="translate(2067.644 -3661.061)" fill="#fff" stroke="#263238" stroke-linecap="round" stroke-linejoin="round" stroke-width="1"/>
      </g>
      <path id="Path_45278" data-name="Path 45278" d="M-2042.587,3806.346a11.133,11.133,0,0,1,2.173,2.291" transform="translate(2081.369 -3693.231)" fill="none" stroke="#263238" stroke-linecap="round" stroke-linejoin="round" stroke-width="1"/>
      <path id="Path_45279" data-name="Path 45279" d="M-2064.739,3804.839s4.683-3.25,9.366-1.334" transform="translate(2092.162 -3691.552)" fill="none" stroke="#263238" stroke-linecap="round" stroke-linejoin="round" stroke-width="1"/>
      <g id="Group_26346" data-name="Group 26346" transform="translate(56.303 38.613)">
        <path id="Path_45280" data-name="Path 45280" d="M-1986.1,3682.558c-1.671-1.168-2.935-2.1-2.935-2.1l1.141-5.381a10.873,10.873,0,0,0-2.446-2.282c-1.267-.888-11.413-11.739-11.413-11.739s-1.3,13.694-1.63,15.652c-.106.634-2.173,1.8-5.032,3.138a12.375,12.375,0,0,0,8.619,10.394C-1993.471,3692.244-1988.581,3686.455-1986.1,3682.558Z" transform="translate(2008.419 -3661.061)" fill="#fff" stroke="#263238" stroke-linecap="round" stroke-linejoin="round" stroke-width="1"/>
        <path id="Path_45281" data-name="Path 45281" d="M-1979.434,3684.678l-.047-.035,1.141-5.38a10.868,10.868,0,0,0-2.446-2.282c-.72-.5-4.3-4.22-7.263-7.339l-.752,3.57S-1988.791,3683.466-1979.434,3684.678Z" transform="translate(1998.861 -3665.241)" fill="#263238"/>
      </g>
      <g id="Group_26350" data-name="Group 26350" transform="translate(47.889)">
        <path id="Path_45282" data-name="Path 45282" d="M-2007.235,3590.736s-.467-3.892-3.582-4.671-10.277-.311-12.768,4.359-.623,8.253.312,8.876a10.482,10.482,0,0,0,1.713.935l.779-3.893s.311,3.426,2.491,4.2,6.7,0,6.7,0S-2007.7,3597.743-2007.235,3590.736Z" transform="translate(2024.827 -3585.761)" fill="#263238" stroke="#263238" stroke-linecap="round" stroke-linejoin="round" stroke-width="1"/>
        <path id="Path_45283" data-name="Path 45283" d="M-1935.621,3622.589s5.544,3.587,5.544,7.174-6.848,4.89-6.848,4.89Z" transform="translate(1982.001 -3603.704)" fill="#263238" stroke="#263238" stroke-linecap="round" stroke-linejoin="round" stroke-width="1"/>
        <g id="Group_26347" data-name="Group 26347" transform="translate(14.312 17.432)">
          <path id="Path_45284" data-name="Path 45284" d="M-1963.585,3621.935s-.622,7.475-1.245,11.678-3.27,7.63-3.426,10.433-6.384,9.653-9.5,11.989-7.785,1.558-10.12-.312a30.206,30.206,0,0,1-8.1-11.21c-1.868-4.828-.467-11.834,0-14.015s12.146-10.744,21.021-10.744S-1963.585,3621.935-1963.585,3621.935Z" transform="translate(1996.917 -3619.755)" fill="#fff" stroke="#263238" stroke-linecap="round" stroke-linejoin="round" stroke-width="1"/>
        </g>
        <g id="Group_26349" data-name="Group 26349" transform="translate(8.074 2.956)">
          <path id="Path_45285" data-name="Path 45285" d="M-1996.45,3617.057s8.408-4.516,15.571-5.916,12.612-.779,13.858-4.983-7.163-11.211-15.882-13.7-19.152.156-23.356,6.384-2.8,13.7-1.558,16.505,2.18,4.983,4.516,5.294S-1996.45,3617.057-1996.45,3617.057Z" transform="translate(2009.082 -3591.525)" fill="#263238" stroke="#263238" stroke-linecap="round" stroke-linejoin="round" stroke-width="1"/>
          <g id="Group_26348" data-name="Group 26348" transform="translate(2.412 6.351)">
            <path id="Path_45286" data-name="Path 45286" d="M-1998.473,3631.681a9.112,9.112,0,0,0-2.269,1.879" transform="translate(2002.606 -3617.441)" fill="none" stroke="#fff" stroke-linecap="round" stroke-linejoin="round" stroke-width="1"/>
            <path id="Path_45287" data-name="Path 45287" d="M-1963.48,3611s2.27,1.361-4.314,4.086c-4.779,1.977-14.464,2.519-21.237,4.839" transform="translate(1996.901 -3607.363)" fill="none" stroke="#fff" stroke-linecap="round" stroke-linejoin="round" stroke-width="1"/>
            <path id="Path_45288" data-name="Path 45288" d="M-1956.253,3605.948a6.229,6.229,0,0,0,1.25-2.037" transform="translate(1980.931 -3603.911)" fill="none" stroke="#fff" stroke-linecap="round" stroke-linejoin="round" stroke-width="1"/>
            <path id="Path_45289" data-name="Path 45289" d="M-2004.1,3621.028s-2.044-2.952,4.994-4.995c5.076-1.474,12.4-2,16.934-4.483" transform="translate(2004.378 -3607.633)" fill="none" stroke="#fff" stroke-linecap="round" stroke-linejoin="round" stroke-width="1"/>
          </g>
        </g>
        <path id="Path_45290" data-name="Path 45290" d="M-1999.016,3647.083s-1.236-6.073-3.885-6.073-3,2.8-1.942,6.229,2.825,4.515,4.415,3.424" transform="translate(2015.362 -3612.679)" fill="#fff" stroke="#263238" stroke-linecap="round" stroke-linejoin="round" stroke-width="1"/>
      </g>
      <path id="Path_45291" data-name="Path 45291" d="M-2036.671,3781.528s.652-.816.652-3.425-1.793-11.249-2.609-17.282-1.63-17.609-1.63-22.5" transform="translate(2080.235 -3660.089)" fill="none" stroke="#263238" stroke-linecap="round" stroke-linejoin="round" stroke-width="1"/>
      <path id="Path_45292" data-name="Path 45292" d="M-2001.226,3785.827a16.552,16.552,0,0,0,1.344,1.89" transform="translate(2061.219 -3683.234)" fill="none" stroke="#263238" stroke-linecap="round" stroke-linejoin="round" stroke-width="1"/>
      <path id="Path_45293" data-name="Path 45293" d="M-2018.955,3727.193s2.923,18.022,7.926,27.968" transform="translate(2069.856 -3654.667)" fill="none" stroke="#263238" stroke-linecap="round" stroke-linejoin="round" stroke-width="1"/>
      <path id="Path_45294" data-name="Path 45294" d="M-1999,3757.1c.659,1.248,1.328,2.4,1.994,3.414" transform="translate(2060.132 -3669.239)" fill="none" stroke="#263238" stroke-linecap="round" stroke-linejoin="round" stroke-width="1"/>
      <path id="Path_45295" data-name="Path 45295" d="M-2015.14,3717.336a168.449,168.449,0,0,0,7.143,18.138" transform="translate(2067.997 -3649.865)" fill="none" stroke="#263238" stroke-linecap="round" stroke-linejoin="round" stroke-width="1"/>
      <g id="Group_26352" data-name="Group 26352" transform="translate(3.914 102.551)">
        <path id="Path_45296" data-name="Path 45296" d="M-2084.118,3808.906a8.876,8.876,0,0,0,5.38,1.468c3.587,0,6.685-1.794,11.25-.652a5.59,5.59,0,0,1,4.077,7.01c-.49,1.3-4.892,2.12-8.968,1.631s-12.391-1.3-12.391-1.3S-2083.466,3812.33-2084.118,3808.906Z" transform="translate(2098.007 -3797.029)" fill="#fff" stroke="#263238" stroke-linecap="round" stroke-linejoin="round" stroke-width="1"/>
        <g id="Group_26351" data-name="Group 26351">
          <path id="Path_45297" data-name="Path 45297" d="M-2097.869,3800.826a4.767,4.767,0,0,0,2.452,2.83c2.075,1.132,2.83,4.15,2.83,5.848a7.746,7.746,0,0,1-.377,2.642s-.565,2.263-2.452,2.64-3.019,1.509-5.282-.755-5.47-9.432-5.47-9.432l.377-1.132a8.728,8.728,0,0,0,3.4-.754C-2100.887,3801.958-2097.869,3800.826-2097.869,3800.826Z" transform="translate(2108.433 -3793.093)" fill="#fff" stroke="#263238" stroke-linecap="round" stroke-linejoin="round" stroke-width="1"/>
          <line id="Line_416" data-name="Line 416" x2="13.016" y2="21.693" fill="none" stroke="#263238" stroke-linecap="round" stroke-linejoin="round" stroke-width="3"/>
          <path id="Path_45298" data-name="Path 45298" d="M-2102.858,3826.13a6.16,6.16,0,0,0,4.15,1.51c2.641,0,5.281-1.7,3.961-2.265s-2.264-1.131-3.207-.753S-2102.858,3826.13-2102.858,3826.13Z" transform="translate(2106.82 -3804.626)" fill="#fff" stroke="#263238" stroke-linecap="round" stroke-linejoin="round" stroke-width="1"/>
          <path id="Path_45299" data-name="Path 45299" d="M-2106.537,3822.163s1.132,3.206,2.075,3.583,4.905-.566,6.037-1.32-.755-2.075-2.452-2.075S-2106.537,3822.163-2106.537,3822.163Z" transform="translate(2108.612 -3803.487)" fill="#fff" stroke="#263238" stroke-linecap="round" stroke-linejoin="round" stroke-width="1"/>
          <path id="Path_45300" data-name="Path 45300" d="M-2108.187,3812.6s-.755,3.962.754,4.906,7.357,1.32,7.923.188-1.509-1.7-3.584-2.641S-2108.187,3812.6-2108.187,3812.6Z" transform="translate(2109.507 -3798.827)" fill="#fff" stroke="#263238" stroke-linecap="round" stroke-linejoin="round" stroke-width="1"/>
          <path id="Path_45301" data-name="Path 45301" d="M-2096.6,3800.638s.188,7.356.943,8.111,2.452.943,2.829.376.755-6.979-.377-9.054S-2096.6,3800.638-2096.6,3800.638Z" transform="translate(2103.772 -3792.338)" fill="#fff" stroke="#263238" stroke-linecap="round" stroke-linejoin="round" stroke-width="1"/>
          <path id="Path_45302" data-name="Path 45302" d="M-2107.763,3805.923s-2.452-.566-2.452,1.887,3.4,3.961,4.9,4.149,3.207-.377,1.886-1.509S-2106.631,3806.866-2107.763,3805.923Z" transform="translate(2110.405 -3795.548)" fill="#fff" stroke="#263238" stroke-linecap="round" stroke-linejoin="round" stroke-width="1"/>
        </g>
      </g>
      <g id="Group_26354" data-name="Group 26354" transform="translate(0 117.858)">
        <path id="Path_45303" data-name="Path 45303" d="M-2069.749,3825.958l10.559-1.509s-1.358-1.96-4.827-1.96a8.1,8.1,0,0,0-6.034,2.262C-2070.5,3825.355-2069.749,3825.958-2069.749,3825.958Z" transform="translate(2094.82 -3818.953)" fill="#263238" stroke="#263238" stroke-linecap="round" stroke-linejoin="round" stroke-width="1"/>
        <path id="Path_45304" data-name="Path 45304" d="M-2045.713,3835.12l16.895-5.884s-4.072-8.6-11.765-11.615-19.1-2.241-23.932-.43l1.758,1.939s3.469.15,7.24,4.524a78.205,78.205,0,0,1,7.542,11.313Z" transform="translate(2092.053 -3815.594)" fill="#fff" stroke="#263238" stroke-linecap="round" stroke-linejoin="round" stroke-width="1"/>
        <g id="Group_26353" data-name="Group 26353" transform="translate(35.8 1.212)">
          <path id="Path_45305" data-name="Path 45305" d="M-2048.4,3820.289s6.708-.958,13.736,14.056" transform="translate(2048.402 -3819.087)" fill="none" stroke="#edac28" stroke-linecap="round" stroke-linejoin="round" stroke-width="1"/>
          <path id="Path_45306" data-name="Path 45306" d="M-2041.955,3819s6.708-.958,13.736,14.056" transform="translate(2045.261 -3818.459)" fill="none" stroke="#edac28" stroke-linecap="round" stroke-linejoin="round" stroke-width="1"/>
          <path id="Path_45307" data-name="Path 45307" d="M-2036.54,3817.97s6.708-.959,13.735,14.055" transform="translate(2042.623 -3817.958)" fill="none" stroke="#edac28" stroke-linecap="round" stroke-linejoin="round" stroke-width="1"/>
        </g>
        <path id="Path_45308" data-name="Path 45308" d="M-2116.827,3834.178s7.542-11.162,21.57-10.257l2.113-.3a4.591,4.591,0,0,1,5.279-2.413c3.922.754,14.029,16.292,14.029,16.292l1.961-1.358a159.21,159.21,0,0,0-9.409-14.17c-4.074-5.128-9.394-4.953-11.1-3.074a26.338,26.338,0,0,0-2.473,3.747s-1.566-2.367-6.206-1.3c-5.7,1.3-8.845,3.842-10.466,5.593a78.148,78.148,0,0,1-6.654,5.74Z" transform="translate(2118.216 -3816.613)" fill="#fff" stroke="#263238" stroke-linecap="round" stroke-linejoin="round" stroke-width="1"/>
        <path id="Path_45309" data-name="Path 45309" d="M-2031.673,3849.438l17.95-6.185.905-1.055-16.894,5.883Z" transform="translate(2076.052 -3828.556)" fill="#fff" stroke="#263238" stroke-linecap="round" stroke-linejoin="round" stroke-width="1"/>
      </g>
    </g>
    <g id="Group_26357" data-name="Group 26357" transform="translate(-2174.869 3608.836)">
      <path id="Path_45310" data-name="Path 45310" d="M-1946.816,3714.951s6.476,2.236,7.455,5.66,5.827,22.14,7.131,24.912,4.239,4.4,4.239,6.521.164,3.75.164,3.75,3.423.163,3.749,2.935.979,6.359.979,6.359l13.046,20.182s7.783.627,9.576.464,7.125.18,9.072,1.2c.755.4,2.255,1.691,3.434,5.843.586,2.062,1.883,6.057,1.067,5.893s-1.817-2.432-2.144-2.921a32.4,32.4,0,0,1-1.281-3.274s.652,4.728.816,5.707a3.64,3.64,0,0,1-.326,1.957l-.069.028a3.954,3.954,0,0,1-2.521.153l-.671-.181h0a2.692,2.692,0,0,1-2.045.214l-.727-.214a21.9,21.9,0,0,0-2.037-4.654c-.978-1.3-4.052-2.719-4.052-2.719s3.317,3.786,3.154,6.232c-.066.989.163,1.793-.652,1.3s-1.793-2.935-3.586-3.75-6.032-1.957-7.663-2.934-4.239-4.565-4.239-4.565l-21.359-19.239s-2.119-2.12-2.445-3.261l-.326-1.142a23.079,23.079,0,0,1-3.75-2.771,7.974,7.974,0,0,1-1.141-3.1l-4.4-5.054,2.935-27.88" transform="translate(1948.371 -3714.951)" fill="#fff" stroke="#263238" stroke-linecap="round" stroke-linejoin="round" stroke-width="1"/>
      <path id="Path_45311" data-name="Path 45311" d="M-1947.1,3733.067l-1.272,21.422,4.4,5.054a7.974,7.974,0,0,0,1.141,3.1,23.079,23.079,0,0,0,3.75,2.771l.326,1.142c.326,1.141,2.445,3.261,2.445,3.261l3.2,2.879c1.3-2.534,4.386-7.1,9.969-7.834-.146-.821-.659-3.768-.938-6.131-.326-2.772-3.749-2.935-3.749-2.935s-.164-1.63-.164-3.75-2.935-3.75-4.239-6.521-6.153-21.488-7.131-24.912-7.455-5.66-7.455-5.66" transform="translate(1948.371 -3714.951)" fill="#fff" stroke="#263238" stroke-linecap="round" stroke-linejoin="round" stroke-width="1"/>
      <path id="Path_45312" data-name="Path 45312" d="M-1947.355,3762.912l2.148,18.325-3.164-3.38Z" transform="translate(1948.371 -3738.317)" fill="#263238"/>
      <g id="Group_26356" data-name="Group 26356" transform="translate(6.522 40.675)">
        <path id="Path_45313" data-name="Path 45313" d="M-1916.862,3799.332c.45-.316.933-.625,1.451-.918" transform="translate(1926.498 -3796.289)" fill="none" stroke="#263238" stroke-linecap="round" stroke-linejoin="round" stroke-width="1"/>
        <path id="Path_45314" data-name="Path 45314" d="M-1927.068,3807.36a15.257,15.257,0,0,1,3.611-4.64" transform="translate(1931.471 -3798.387)" fill="none" stroke="#263238" stroke-linecap="round" stroke-linejoin="round" stroke-width="1"/>
        <path id="Path_45315" data-name="Path 45315" d="M-1920.134,3794.417a11.67,11.67,0,0,1,2.151-.14" transform="translate(1928.092 -3794.272)" fill="none" stroke="#263238" stroke-linecap="round" stroke-linejoin="round" stroke-width="1"/>
        <path id="Path_45316" data-name="Path 45316" d="M-1935.653,3799.123a17,17,0,0,1,5.414-3.27" transform="translate(1935.653 -3795.041)" fill="none" stroke="#263238" stroke-linecap="round" stroke-linejoin="round" stroke-width="1"/>
      </g>
      <path id="Path_45317" data-name="Path 45317" d="M-1860.194,3866.52s-1.794-2.446-4.24-2.609" transform="translate(1907.477 -3787.524)" fill="none" stroke="#263238" stroke-linecap="round" stroke-linejoin="round" stroke-width="1"/>
      <path id="Path_45318" data-name="Path 45318" d="M-1854.576,3858.5s1.956.49,4.4,3.588a18.418,18.418,0,0,1,3.1,7.663" transform="translate(1902.674 -3784.89)" fill="none" stroke="#263238" stroke-linecap="round" stroke-linejoin="round" stroke-width="1"/>
      <path id="Path_45319" data-name="Path 45319" d="M-1845.473,3857.233s3.647,2.935,4.3,5.707,1.467,6.522,1.467,6.522" transform="translate(1898.239 -3784.271)" fill="none" stroke="#263238" stroke-linecap="round" stroke-linejoin="round" stroke-width="1"/>
      <path id="Path_45320" data-name="Path 45320" d="M-1837.351,3861.179a16.373,16.373,0,0,0-2.282-5.218" transform="translate(1895.393 -3783.652)" fill="none" stroke="#263238" stroke-linecap="round" stroke-linejoin="round" stroke-width="1"/>
    </g>
    <g id="Group_26358" data-name="Group 26358" transform="translate(-2151.065 3651.792)">
      <path id="Path_45321" data-name="Path 45321" d="M-1781.6,3839.8h-45l12.392-41.087h45Z" transform="translate(1865.239 -3798.716)" fill="#fff" stroke="#263238" stroke-linecap="round" stroke-linejoin="round" stroke-width="1"/>
      <path id="Path_45322" data-name="Path 45322" d="M-1776.043,3845.765l10.5-34.812c-13.287,1.643-21.106,12.588-33.4,24.592-7.735,7.556-13.106,9.726-16.256,10.22Z" transform="translate(1859.684 -3804.679)" fill="#263238" stroke="#263238" stroke-linecap="round" stroke-linejoin="round" stroke-width="1"/>
      <ellipse id="Ellipse_767" data-name="Ellipse 767" cx="3.561" cy="3.424" rx="3.561" ry="3.424" transform="translate(65.569 15.163)" fill="#fff" stroke="#263238" stroke-linecap="round" stroke-linejoin="round" stroke-width="1"/>
      <rect id="Rectangle_2037" data-name="Rectangle 2037" width="84.13" height="2.609" transform="translate(0 40.924)" fill="#fff" stroke="#263238" stroke-linecap="round" stroke-linejoin="round" stroke-width="1"/>
      <rect id="Rectangle_2038" data-name="Rectangle 2038" width="43.043" height="2.609" transform="translate(41.087 40.924)" fill="#263238" stroke="#263238" stroke-linecap="round" stroke-linejoin="round" stroke-width="1"/>
    </g>
    <g id="Group_26381" data-name="Group 26381" transform="translate(-2155.051 3539.626)">
      <rect id="Rectangle_2044" data-name="Rectangle 2044" width="81.967" height="89.739" transform="translate(0 4.615)" fill="#edac28"/>
      <g id="Group_26380" data-name="Group 26380" transform="translate(5.616 0)">
        <rect id="Rectangle_2045" data-name="Rectangle 2045" width="71.06" height="90.126" fill="#fff" stroke="#263238" stroke-linecap="round" stroke-linejoin="round" stroke-width="1"/>
        <rect id="Rectangle_2046" data-name="Rectangle 2046" width="52.342" height="12.228" transform="translate(18.718)" fill="#263238" stroke="#263238" stroke-linecap="round" stroke-linejoin="round" stroke-width="1"/>
        <rect id="Rectangle_2047" data-name="Rectangle 2047" width="71.06" height="6.359" fill="#fff" stroke="#263238" stroke-linecap="round" stroke-linejoin="round" stroke-width="1"/>
        <g id="Group_26377" data-name="Group 26377" transform="translate(4.402 21.032)">
          <rect id="Rectangle_2048" data-name="Rectangle 2048" width="61.141" height="39.13" fill="#263238" stroke="#263238" stroke-linecap="round" stroke-linejoin="round" stroke-width="1"/>
          <rect id="Rectangle_2049" data-name="Rectangle 2049" width="61.141" height="4.359" transform="translate(0 34.771)" fill="#fff" stroke="#263238" stroke-linecap="round" stroke-linejoin="round" stroke-width="1"/>
          <rect id="Rectangle_2050" data-name="Rectangle 2050" width="61.141" height="1.272" transform="translate(0 36.315)" fill="#fff" stroke="#263238" stroke-linecap="round" stroke-linejoin="round" stroke-width="1"/>
        </g>
        <line id="Line_452" data-name="Line 452" x2="46.821" transform="translate(4.878 64.293)" fill="none" stroke="#263238" stroke-linecap="round" stroke-linejoin="round" stroke-width="1"/>
        <g id="Group_26378" data-name="Group 26378" transform="translate(4.878 75.356)">
          <line id="Line_453" data-name="Line 453" x2="27.816" fill="none" stroke="#263238" stroke-linecap="round" stroke-linejoin="round" stroke-width="1"/>
          <line id="Line_454" data-name="Line 454" x2="27.816" transform="translate(0 4.374)" fill="none" stroke="#263238" stroke-linecap="round" stroke-linejoin="round" stroke-width="1"/>
          <line id="Line_455" data-name="Line 455" x2="27.816" transform="translate(0 8.747)" fill="none" stroke="#263238" stroke-linecap="round" stroke-linejoin="round" stroke-width="1"/>
        </g>
        <g id="Group_26379" data-name="Group 26379" transform="translate(38.032 75.356)">
          <line id="Line_456" data-name="Line 456" x2="27.816" fill="none" stroke="#263238" stroke-linecap="round" stroke-linejoin="round" stroke-width="1"/>
          <line id="Line_457" data-name="Line 457" x2="27.816" transform="translate(0 4.374)" fill="none" stroke="#263238" stroke-linecap="round" stroke-linejoin="round" stroke-width="1"/>
          <line id="Line_458" data-name="Line 458" x2="27.816" transform="translate(0 8.747)" fill="none" stroke="#263238" stroke-linecap="round" stroke-linejoin="round" stroke-width="1"/>
        </g>
        <line id="Line_459" data-name="Line 459" x2="59.17" transform="translate(4.878 67.895)" fill="none" stroke="#263238" stroke-linecap="round" stroke-linejoin="round" stroke-width="1"/>
      </g>
      <line id="Line_460" data-name="Line 460" y2="22.05" transform="translate(79.996 90.252)" fill="none" stroke="#263238" stroke-linecap="round" stroke-linejoin="round" stroke-width="1"/>
    </g>
    <g id="Group_26382" data-name="Group 26382" transform="translate(-2109.978 3692.715)">
      <path id="Path_45346" data-name="Path 45346" d="M-1821.828,3878.522l.168.164h.383A2.853,2.853,0,0,1-1821.828,3878.522Z" transform="translate(1821.828 -3878.522)" fill="#263238" stroke="#263238" stroke-linecap="round" stroke-linejoin="round" stroke-width="1"/>
    </g>
  </g>
</svg>
