<svg xmlns="http://www.w3.org/2000/svg" width="27.884" height="27.859" viewBox="0 0 27.884 27.859">
  <g id="Group_26337" data-name="Group 26337" transform="translate(-164.452 -1136.529)">
    <g id="Group_26336" data-name="Group 26336" transform="translate(164.452 1136.529)">
      <path id="Path_45260" data-name="Path 45260" d="M164.457,1164.387c0-.1,0-.185,0-.269q0-3.488,0-6.977,0-6.8,0-13.61a1.189,1.189,0,0,1,.619-1.1q3.4-2.093,6.8-4.193c.058-.036.12-.064.213-.114v24.41h1.076v-.441q0-5.945,0-11.891t0-11.891a1.479,1.479,0,0,1,.608-1.477,1.9,1.9,0,0,1,1.081-.307c.723.007,2.03,0,2.754,0a1.849,1.849,0,0,1,1.169.384,1.015,1.015,0,0,1,.409.846c-.006,1.02,0,2.04,0,3.06v21.7h1.141v-.249q0-10.22,0-20.44c0-.233,0-.467,0-.7a.5.5,0,0,1,.531-.533c.425-.005.851,0,1.276,0h.232c0-.443,0-.866,0-1.289s.087-.507.511-.509h.639c.005-.086.013-.16.013-.235,0-.518,0-1.035,0-1.553,0-.357.132-.485.489-.486.22,0,.44,0,.659,0,.317,0,.456.137.458.45,0,.517,0,1.035,0,1.553v.255c.095.005.176.014.257.014h4.4c.429,0,.509.081.509.51,0,.354.008.709,0,1.063-.006.173.041.235.223.23.411-.013.822-.006,1.234,0s.579.172.582.564c.007.922.007,1.843.007,2.765q0,6.338,0,12.677,0,3.754,0,7.508v.27Zm21.9-10.333h3.656c.349,0,.469-.121.473-.473,0-.191,0-.382,0-.574,0-.448-.1-.554-.546-.554h-6.461c-.262,0-.524,0-.786,0-.316,0-.453.142-.459.455,0,.213,0,.425,0,.638,0,.377.133.508.512.508Zm-.008,6.254h3.633c.384,0,.5-.12.5-.51q0-.287,0-.574c0-.4-.114-.516-.517-.516h-7.246c-.353,0-.485.134-.487.489q0,.308,0,.616c0,.365.133.494.5.494Zm0-12.507h.786c.984,0,1.969,0,2.953,0a.363.363,0,0,0,.4-.4c.005-.234,0-.467,0-.7,0-.372-.124-.5-.494-.5h-7.266c-.344,0-.489.144-.492.49q0,.319,0,.638c0,.336.143.472.483.472Zm.031-4.722q-1.849,0-3.7,0a.412.412,0,0,0-.454.463c0,.205,0,.411,0,.616,0,.394.127.518.524.518h5.228c.68,0,1.36,0,2.04,0,.331,0,.458-.13.46-.465,0-.213,0-.425,0-.638,0-.38-.117-.495-.494-.495Zm-.025,7.843h3.674c.334,0,.456-.127.457-.465,0-.227,0-.453,0-.68,0-.308-.135-.445-.436-.445q-3.686,0-7.372,0a.394.394,0,0,0-.443.447c0,.219,0,.439,0,.659,0,.358.128.483.488.484Q184.539,1150.923,186.356,1150.922Zm.015,4.664q-1.84,0-3.68,0c-.313,0-.452.14-.456.454,0,.213,0,.425,0,.638,0,.374.127.5.5.5H188.9c.39,0,.78,0,1.17,0,.288,0,.412-.135.416-.42,0-.22,0-.44,0-.659,0-.393-.114-.509-.5-.509Zm-10.314,3.881c-.453,0-.907,0-1.361,0-.333,0-.469.134-.471.459,0,.234,0,.468,0,.7a.39.39,0,0,0,.447.442q1.4,0,2.807,0a.382.382,0,0,0,.428-.416q.01-.372,0-.744a.393.393,0,0,0-.449-.442C176.992,1159.464,176.525,1159.466,176.057,1159.466Zm.013-10.9h0c.468,0,.935,0,1.4,0a.38.38,0,0,0,.432-.412c.01-.262.009-.524,0-.786a.375.375,0,0,0-.4-.4q-1.435-.009-2.869,0a.384.384,0,0,0-.411.414c0,.241,0,.482,0,.723,0,.331.135.465.463.466C175.148,1148.568,175.609,1148.567,176.069,1148.567Zm.009,6.25c.468,0,.936,0,1.4,0a.4.4,0,0,0,.433-.419q0-.393-.01-.786a.364.364,0,0,0-.385-.392q-1.455-.009-2.911,0a.373.373,0,0,0-.384.416c0,.227,0,.454,0,.68,0,.371.129.5.494.5Zm-.014-12.5c.468,0,.935,0,1.4,0a.387.387,0,0,0,.439-.427c0-.142,0-.283,0-.425,0-.72-.032-.751-.755-.751-.822,0-1.644,0-2.466,0a.4.4,0,0,0-.461.453q0,.351,0,.7c0,.314.141.448.46.449C175.144,1142.314,175.6,1142.313,176.064,1142.313Zm.014,15.622c.475,0,.949,0,1.424,0a.364.364,0,0,0,.4-.392c.008-.262.009-.524,0-.786a.365.365,0,0,0-.411-.406q-1.434,0-2.867,0a.367.367,0,0,0-.4.412c0,.241,0,.482,0,.722,0,.316.136.449.454.451C175.145,1157.937,175.612,1157.936,176.079,1157.935Zm0-6.248v0c.475,0,.949,0,1.424,0a.362.362,0,0,0,.4-.392c.009-.276.008-.553,0-.829a.355.355,0,0,0-.385-.365q-1.445-.006-2.891,0a.369.369,0,0,0-.4.4c-.006.248,0,.5,0,.743,0,.321.13.449.454.452C175.145,1151.69,175.612,1151.688,176.079,1151.688Zm-.013-7.846h0c-.468,0-.936,0-1.4,0-.3,0-.436.143-.439.446q0,.351,0,.7c0,.3.139.449.436.45q1.4.005,2.806,0c.3,0,.434-.145.439-.45q.006-.362,0-.723a.383.383,0,0,0-.438-.425C177,1143.84,176.534,1143.842,176.066,1143.842Z" transform="translate(-164.452 -1136.529)" fill="#fff"/>
    </g>
  </g>
</svg>
