<svg xmlns="http://www.w3.org/2000/svg" width="346.896" height="38.194" viewBox="0 0 346.896 38.194">
  <g id="Group_19165" data-name="Group 19165" transform="translate(-24.106 -12.099)">
    <path id="Path_41319" data-name="Path 41319" d="M29.356,55.324a1.137,1.137,0,0,0-.2.73,1.53,1.53,0,0,0,.2.811.864.864,0,0,0,.924.568,1.089,1.089,0,0,0,.792-.244,2.045,2.045,0,0,0,.329-1.3,1.236,1.236,0,0,0-.2-.648,1.265,1.265,0,0,0-.527-.486,1,1,0,0,0-.924.081Q29.488,54.837,29.356,55.324ZM28.5,49.163a.788.788,0,0,0-.066.811,5.923,5.923,0,0,0,.693.851,10.223,10.223,0,0,1,.692.77v.081a2.486,2.486,0,0,0-1.451.608,7.77,7.77,0,0,0-1.121,1.257,3.507,3.507,0,0,1-1.187-.729,2.742,2.742,0,0,1-.528-.324.368.368,0,0,0-.462,0q-.131.163-.3.364a.818.818,0,0,0-.165.527,2.6,2.6,0,0,0,.4.649.357.357,0,0,0,.264.162c.044,0,.11.054.2.162a5.233,5.233,0,0,1,.627.365,5.046,5.046,0,0,0,.626.364c0,.162-.033.217-.1.162s-.1-.027-.1.081a.624.624,0,0,0-.527-.081.618.618,0,0,1-.527-.082q-.132.325-.132,0a.556.556,0,0,1-.494.082c-.154-.054-.319.028-.495.243-.264.217-.308.541-.132.973a.679.679,0,0,0,.329.324,1.6,1.6,0,0,1,.4.243,1.614,1.614,0,0,1,.857-.081,1.582,1.582,0,0,0,.857-.081.85.85,0,0,1,.067.324,2.079,2.079,0,0,1-.462.284q-.263.121-.593.284t-.627.324a.991.991,0,0,0-.429.648,1.15,1.15,0,0,0,.132.73.543.543,0,0,0,.66.162,4.21,4.21,0,0,0,.989-.445,4.368,4.368,0,0,1,.99-.447,3.621,3.621,0,0,0,2.7,1.7,3.336,3.336,0,0,0,2.045-.689,4.178,4.178,0,0,0,1.385-1.824.867.867,0,0,0,.264-.04.317.317,0,0,1,.264.04l.132-.081H37.2q1.914-.079,3.923-.04t3.924.04c.4-.024.792-.037,1.179-.045v-3.44h-.783q-2.375,0-4.716.081t-4.847.081a4.408,4.408,0,0,1-.825-.081,1.194,1.194,0,0,0-.758.081.453.453,0,0,0-.429-.081.224.224,0,0,1-.3-.081,4.316,4.316,0,0,0-1.022-1.58,9.086,9.086,0,0,1-1.22-1.5,5.389,5.389,0,0,0-.759-.891,8.686,8.686,0,0,1-.759-.811,1.6,1.6,0,0,1-.231-.405.55.55,0,0,0-.3-.324A.735.735,0,0,0,28.5,49.163Zm2.638,4.3a2.185,2.185,0,0,1,.923.891,3.1,3.1,0,0,1,.462,1.3A2.761,2.761,0,0,1,31.466,58.4a1.638,1.638,0,0,1-1.122.486,2.815,2.815,0,0,1-1.187-.243,2.886,2.886,0,0,1-1.187-3.08,5.3,5.3,0,0,1,.231-.973,1.757,1.757,0,0,1,.56-.811,2.747,2.747,0,0,1,1.155-.527A1.78,1.78,0,0,1,31.137,53.459Z" transform="translate(0 -24.45)" fill="#e94024"/>
    <rect id="Rectangle_1579" data-name="Rectangle 1579" width="7.009" height="4.103" transform="translate(33.03 29.568)" fill="#e94024"/>
    <rect id="Rectangle_1580" data-name="Rectangle 1580" width="7.009" height="4.103" transform="translate(62.262 29.568)" fill="#e94024"/>
    <g id="Group_19161" data-name="Group 19161" transform="translate(38.904 18.823)">
      <path id="Path_41320" data-name="Path 41320" d="M94.828,49.7a21.116,21.116,0,0,1-.444,4.664A10.856,10.856,0,0,1,91.1,59.823Q87.41,63.31,81.235,63.31q-6.285,0-9.817-3.554a9.734,9.734,0,0,1-2.554-4.686,23.554,23.554,0,0,1-.488-5.375V32.216H76.26v16.4q0,1.975.067,2.951a4.775,4.775,0,0,0,2.821,4.3,5.382,5.382,0,0,0,2.354.51,5.034,5.034,0,0,0,4.353-2.02q1.088-1.487,1.088-5.747v-16.4h7.884Z" transform="translate(-68.376 -32.216)" fill="#0096d5"/>
    </g>
    <rect id="Rectangle_1581" data-name="Rectangle 1581" width="13.532" height="6.254" transform="translate(35.687 16)" fill="#0096d5"/>
    <rect id="Rectangle_1582" data-name="Rectangle 1582" width="13.532" height="6.254" transform="translate(54.336 16)" fill="#0096d5"/>
    <g id="Group_19162" data-name="Group 19162" transform="translate(67.554 15.508)">
      <path id="Path_41321" data-name="Path 41321" d="M179,54.8a20.976,20.976,0,0,1-7.684,1.647,17.064,17.064,0,0,1-11.025-3.937,16.1,16.1,0,0,1-6.2-13.125,16.127,16.127,0,0,1,6.2-13.149,17.162,17.162,0,0,1,11.1-3.938A21.227,21.227,0,0,1,179,23.946V34.087a9.6,9.6,0,0,0-2.438-2.21,9.278,9.278,0,0,0-4.875-1.369,8.8,8.8,0,0,0-5.736,1.986,8.409,8.409,0,0,0-3.083,6.891,8.382,8.382,0,0,0,3.083,6.868,8.8,8.8,0,0,0,5.736,1.986,9.281,9.281,0,0,0,4.875-1.369A9.522,9.522,0,0,0,179,44.659Z" transform="translate(-154.09 -22.299)" fill="#e94024"/>
      <path id="Path_41322" data-name="Path 41322" d="M269.507,56.944h-9.044l-2.1-5.68H246.67l-2.243,5.68h-8.949L248.007,24.37h9.235ZM256.072,44.821,252.564,34.44l-3.555,10.381Z" transform="translate(-208.274 -23.678)" fill="#e94024"/>
      <path id="Path_41323" data-name="Path 41323" d="M381.02,56.944h-8.471l-15.583-19.95v19.95h-8.472V24.37h8.472L372.549,44.3V24.37h8.471Z" transform="translate(-283.514 -23.678)" fill="#e94024"/>
    </g>
    <path id="Path_41324" data-name="Path 41324" d="M186.074,66.541a2.18,2.18,0,1,1,2.18,2.18A2.18,2.18,0,0,1,186.074,66.541Z" transform="translate(-107.829 -34.794)" fill="#e94024"/>
    <path id="Path_41325" data-name="Path 41325" d="M212.156,66.541a2.179,2.179,0,1,1,2.18,2.18A2.18,2.18,0,0,1,212.156,66.541Z" transform="translate(-125.193 -34.794)" fill="#e94024"/>
    <text id="大專校院就業職能平台" transform="translate(174.238 31.099)" fill="#1a1a1a" font-size="18" font-family="YuGothicUI-Regular, Yu Gothic UI"><tspan x="0" y="0">大專校院就業職能平台</tspan></text>
    <g id="Group_19163" data-name="Group 19163" transform="translate(175.175 40.756)">
      <path id="Path_41326" data-name="Path 41326" d="M481.44,100.189a1.876,1.876,0,0,0-2.016-1.495c-1.3,0-2.357.963-2.357,2.859,0,1.695.6,3,2.387,3,.632,0,1.725-.3,2.056-1.976h.943a3.039,3.039,0,0,1-3.149,2.837c-1.635,0-3.24-1.063-3.24-3.831,0-2.216,1.264-3.75,3.36-3.75a2.726,2.726,0,0,1,2.958,2.357Z" transform="translate(-476.065 -97.832)" fill="#333"/>
      <path id="Path_41327" data-name="Path 41327" d="M497.753,105.547c.04-1.253.872-1.745,2.166-1.745.421,0,1.945.121,1.945,1.464v3.019c0,.221.11.311.291.311a1.583,1.583,0,0,0,.291-.041v.642a1.621,1.621,0,0,1-.481.1c-.782,0-.9-.4-.933-.8a2.383,2.383,0,0,1-1.9.852,1.512,1.512,0,0,1-1.645-1.515,1.576,1.576,0,0,1,1.595-1.645l1.454-.18c.211-.02.461-.1.461-.622,0-.551-.4-.852-1.233-.852a1.044,1.044,0,0,0-1.2,1.012Zm3.229.973c-.14.11-.361.191-1.454.332-.431.06-1.123.19-1.123.852a.829.829,0,0,0,.952.913c.822,0,1.625-.532,1.625-1.233Z" transform="translate(-490.33 -101.806)" fill="#333"/>
      <path id="Path_41328" data-name="Path 41328" d="M516.289,109.2h-.882v-5.245h.832v.872h.02a1.7,1.7,0,0,1,1.474-1.023.71.71,0,0,1,.23.03v.913h-.331a1.333,1.333,0,0,0-1.344,1.4Z" transform="translate(-502.257 -101.806)" fill="#333"/>
      <path id="Path_41329" data-name="Path 41329" d="M528.993,107.553a2.183,2.183,0,0,1-2.357,1.8,2.356,2.356,0,0,1-2.346-2.628c0-1.625.782-2.918,2.517-2.918,1.514,0,2.256,1.2,2.256,3.059h-3.831c0,1.094.512,1.725,1.524,1.725a1.332,1.332,0,0,0,1.354-1.033Zm-.842-1.394c-.05-.812-.391-1.565-1.464-1.565a1.54,1.54,0,0,0-1.454,1.565Z" transform="translate(-508.171 -101.806)" fill="#333"/>
      <path id="Path_41330" data-name="Path 41330" d="M545.678,107.553a2.183,2.183,0,0,1-2.357,1.8,2.357,2.357,0,0,1-2.347-2.628c0-1.625.783-2.918,2.518-2.918,1.514,0,2.256,1.2,2.256,3.059h-3.831c0,1.094.512,1.725,1.524,1.725a1.332,1.332,0,0,0,1.354-1.033Zm-.842-1.394c-.05-.812-.391-1.565-1.464-1.565a1.54,1.54,0,0,0-1.454,1.565Z" transform="translate(-519.278 -101.806)" fill="#333"/>
      <path id="Path_41331" data-name="Path 41331" d="M559.652,109.2h-.882v-5.245h.833v.872h.02A1.7,1.7,0,0,1,561.1,103.8a.713.713,0,0,1,.231.03v.913H561a1.333,1.333,0,0,0-1.344,1.4Z" transform="translate(-531.126 -101.806)" fill="#333"/>
      <path id="Path_41332" data-name="Path 41332" d="M582.143,105.6H581l-.672-.822a2.508,2.508,0,0,1-2.1.973,1.893,1.893,0,0,1-2.116-1.886c0-.983.291-1.515,1.625-2.267a2.318,2.318,0,0,1-.762-1.594,1.591,1.591,0,0,1,1.7-1.6,1.467,1.467,0,0,1,1.615,1.484A2.3,2.3,0,0,1,579,101.771l1.314,1.565a4.965,4.965,0,0,0,.291-1.123h.832a4.775,4.775,0,0,1-.582,1.835Zm-3.911-3.4c-.773.491-1.234.823-1.234,1.594a1.264,1.264,0,0,0,1.293,1.193,1.877,1.877,0,0,0,1.565-.8Zm1.213-2.246a.732.732,0,0,0-.772-.793.748.748,0,0,0-.842.782,2.133,2.133,0,0,0,.712,1.253C578.924,100.939,579.445,100.568,579.445,99.957Z" transform="translate(-542.674 -98.211)" fill="#333"/>
      <path id="Path_41333" data-name="Path 41333" d="M609.849,100.189a1.876,1.876,0,0,0-2.015-1.495c-1.3,0-2.357.963-2.357,2.859,0,1.695.6,3,2.387,3,.632,0,1.725-.3,2.056-1.976h.943a3.039,3.039,0,0,1-3.149,2.837c-1.634,0-3.239-1.063-3.239-3.831,0-2.216,1.264-3.75,3.36-3.75a2.726,2.726,0,0,1,2.958,2.357Z" transform="translate(-561.553 -97.832)" fill="#333"/>
      <path id="Path_41334" data-name="Path 41334" d="M628.307,103.8a2.79,2.79,0,1,1-2.437,2.768A2.51,2.51,0,0,1,628.307,103.8Zm0,4.774c1.263,0,1.524-1.3,1.524-2.007s-.261-2.006-1.524-2.006-1.525,1.3-1.525,2.006S627.044,108.576,628.307,108.576Z" transform="translate(-575.797 -101.806)" fill="#333"/>
      <path id="Path_41335" data-name="Path 41335" d="M643.455,103.952h.833v.742h.02a1.839,1.839,0,0,1,1.584-.893,1.42,1.42,0,0,1,1.395.853,1.92,1.92,0,0,1,1.6-.853,1.58,1.58,0,0,1,1.625,1.765v3.63h-.882v-3.389c0-.722-.221-1.214-.972-1.214a1.332,1.332,0,0,0-1.234,1.4v3.2h-.883v-3.63c0-.441-.17-.973-.822-.973-.5,0-1.384.321-1.384,1.745V109.2h-.883Z" transform="translate(-587.504 -101.806)" fill="#333"/>
      <path id="Path_41336" data-name="Path 41336" d="M668.243,103.952h.833v.742h.02a1.774,1.774,0,0,1,1.565-.893c1.394,0,2.186,1.143,2.186,2.618,0,1.253-.521,2.928-2.307,2.928a1.577,1.577,0,0,1-1.394-.7h-.02v2.627h-.883Zm2.277,4.633c.963,0,1.414-.872,1.414-2.026,0-.671-.07-1.965-1.434-1.965-1.274,0-1.414,1.374-1.414,2.226C669.085,108.215,669.958,108.586,670.52,108.586Z" transform="translate(-604.007 -101.806)" fill="#333"/>
      <path id="Path_41337" data-name="Path 41337" d="M689.092,107.553a2.183,2.183,0,0,1-2.357,1.8,2.356,2.356,0,0,1-2.347-2.628c0-1.625.782-2.918,2.517-2.918,1.515,0,2.257,1.2,2.257,3.059h-3.831c0,1.094.511,1.725,1.524,1.725a1.332,1.332,0,0,0,1.354-1.033Zm-.843-1.394c-.05-.812-.391-1.565-1.464-1.565a1.54,1.54,0,0,0-1.454,1.565Z" transform="translate(-614.755 -101.806)" fill="#333"/>
      <path id="Path_41338" data-name="Path 41338" d="M701.887,102.068v3.41c0,.411.351.411.531.411h.311v.692c-.321.03-.572.07-.661.07-.873,0-1.063-.491-1.063-1.123v-3.46h-.712v-.732h.712V99.872h.882v1.464h.842v.732Z" transform="translate(-625.344 -99.19)" fill="#333"/>
      <path id="Path_41339" data-name="Path 41339" d="M714.12,107.553a2.182,2.182,0,0,1-2.357,1.8,2.356,2.356,0,0,1-2.346-2.628c0-1.625.782-2.918,2.517-2.918,1.514,0,2.257,1.2,2.257,3.059h-3.831c0,1.094.511,1.725,1.525,1.725a1.333,1.333,0,0,0,1.354-1.033Zm-.842-1.394c-.05-.812-.391-1.565-1.464-1.565a1.54,1.54,0,0,0-1.454,1.565Z" transform="translate(-631.418 -101.806)" fill="#333"/>
      <path id="Path_41340" data-name="Path 41340" d="M731.122,109.2h-.882v-3.229c0-.913-.261-1.374-1.123-1.374-.5,0-1.384.321-1.384,1.745V109.2h-.883v-5.245h.833v.742h.02a1.9,1.9,0,0,1,1.584-.893,1.658,1.658,0,0,1,1.835,1.825Z" transform="translate(-643.024 -101.806)" fill="#333"/>
      <path id="Path_41341" data-name="Path 41341" d="M746.116,105.718a1.168,1.168,0,0,0-1.244-1.124c-1.093,0-1.444,1.043-1.444,1.975,0,.9.221,2.016,1.434,2.016a1.336,1.336,0,0,0,1.253-1.243h.852a2.074,2.074,0,0,1-2.136,2.006,2.356,2.356,0,0,1-2.347-2.628c0-1.625.782-2.918,2.517-2.918a1.892,1.892,0,0,1,1.966,1.916Z" transform="translate(-653.434 -101.806)" fill="#333"/>
      <path id="Path_41342" data-name="Path 41342" d="M760.741,104.252h.973c-.612,1.715-1.214,3.43-1.885,5.145-.833,2.126-.923,2.247-2.056,2.247a1.28,1.28,0,0,1-.371-.081v-.8a1.528,1.528,0,0,0,.532.091c.461,0,.511-.131.933-1.214l-1.946-5.385h1l1.394,4.272h.02Z" transform="translate(-663.043 -102.106)" fill="#333"/>
      <path id="Path_41343" data-name="Path 41343" d="M782.112,103.506l-.752,2.1h-1l2.708-7.2h1.1l2.608,7.2h-1.063l-.712-2.1Zm2.537-.862-1.063-3.169h-.02l-1.153,3.169Z" transform="translate(-678.646 -98.211)" fill="#333"/>
      <path id="Path_41344" data-name="Path 41344" d="M804.223,105.447c-.01-.331-.13-.883-1.243-.883-.271,0-1.043.091-1.043.742,0,.432.271.531.953.7l.882.221c1.093.27,1.474.672,1.474,1.383,0,1.083-.893,1.735-2.076,1.735-2.076,0-2.226-1.2-2.256-1.835h.852c.03.41.15,1.073,1.394,1.073.632,0,1.2-.25,1.2-.832,0-.421-.291-.561-1.043-.752l-1.023-.251c-.732-.181-1.214-.552-1.214-1.273,0-1.154.953-1.675,1.986-1.675,1.875,0,2.006,1.384,2.006,1.645Z" transform="translate(-692.332 -101.806)" fill="#333"/>
      <path id="Path_41345" data-name="Path 41345" d="M819.227,105.447c-.01-.331-.13-.883-1.243-.883-.27,0-1.042.091-1.042.742,0,.432.27.531.952.7l.883.221c1.093.27,1.474.672,1.474,1.383,0,1.083-.893,1.735-2.076,1.735-2.076,0-2.226-1.2-2.256-1.835h.852c.03.41.15,1.073,1.394,1.073.632,0,1.2-.25,1.2-.832,0-.421-.291-.561-1.043-.752l-1.023-.251c-.732-.181-1.213-.552-1.213-1.273,0-1.154.953-1.675,1.985-1.675,1.875,0,2.006,1.384,2.006,1.645Z" transform="translate(-702.321 -101.806)" fill="#333"/>
      <path id="Path_41346" data-name="Path 41346" d="M835.866,107.553a2.183,2.183,0,0,1-2.357,1.8,2.356,2.356,0,0,1-2.346-2.628c0-1.625.782-2.918,2.517-2.918,1.514,0,2.257,1.2,2.257,3.059h-3.831c0,1.094.511,1.725,1.524,1.725a1.332,1.332,0,0,0,1.354-1.033Zm-.842-1.394c-.05-.812-.391-1.565-1.464-1.565a1.54,1.54,0,0,0-1.454,1.565Z" transform="translate(-712.47 -101.806)" fill="#333"/>
      <path id="Path_41347" data-name="Path 41347" d="M850.917,105.447c-.01-.331-.13-.883-1.243-.883-.271,0-1.043.091-1.043.742,0,.432.27.531.953.7l.883.221c1.093.27,1.474.672,1.474,1.383,0,1.083-.892,1.735-2.076,1.735-2.076,0-2.226-1.2-2.256-1.835h.852c.031.41.151,1.073,1.394,1.073.632,0,1.2-.25,1.2-.832,0-.421-.291-.561-1.043-.752l-1.023-.251c-.732-.181-1.213-.552-1.213-1.273,0-1.154.953-1.675,1.985-1.675,1.875,0,2.006,1.384,2.006,1.645Z" transform="translate(-723.418 -101.806)" fill="#333"/>
      <path id="Path_41348" data-name="Path 41348" d="M865.921,105.447c-.01-.331-.13-.883-1.243-.883-.271,0-1.043.091-1.043.742,0,.432.271.531.953.7l.883.221c1.093.27,1.474.672,1.474,1.383,0,1.083-.893,1.735-2.076,1.735-2.076,0-2.226-1.2-2.256-1.835h.852c.03.41.151,1.073,1.394,1.073.632,0,1.2-.25,1.2-.832,0-.421-.291-.561-1.043-.752L864,106.75c-.732-.181-1.213-.552-1.213-1.273,0-1.154.953-1.675,1.986-1.675,1.875,0,2.005,1.384,2.005,1.645Z" transform="translate(-733.407 -101.806)" fill="#333"/>
      <path id="Path_41349" data-name="Path 41349" d="M878.606,103.952h.832v.742h.02a1.839,1.839,0,0,1,1.584-.893,1.419,1.419,0,0,1,1.394.853,1.921,1.921,0,0,1,1.6-.853,1.58,1.58,0,0,1,1.625,1.765v3.63h-.882v-3.389c0-.722-.221-1.214-.973-1.214a1.332,1.332,0,0,0-1.233,1.4v3.2H881.7v-3.63c0-.441-.171-.973-.823-.973-.5,0-1.384.321-1.384,1.745V109.2h-.882Z" transform="translate(-744.055 -101.806)" fill="#333"/>
      <path id="Path_41350" data-name="Path 41350" d="M907.557,107.553a2.182,2.182,0,0,1-2.357,1.8,2.356,2.356,0,0,1-2.346-2.628c0-1.625.782-2.918,2.517-2.918,1.515,0,2.257,1.2,2.257,3.059H903.8c0,1.094.511,1.725,1.524,1.725a1.332,1.332,0,0,0,1.354-1.033Zm-.842-1.394c-.05-.812-.391-1.565-1.464-1.565a1.54,1.54,0,0,0-1.454,1.565Z" transform="translate(-760.198 -101.806)" fill="#333"/>
      <path id="Path_41351" data-name="Path 41351" d="M924.561,109.2h-.882v-3.229c0-.913-.261-1.374-1.124-1.374-.5,0-1.384.321-1.384,1.745V109.2h-.883v-5.245h.833v.742h.02a1.9,1.9,0,0,1,1.585-.893,1.658,1.658,0,0,1,1.835,1.825Z" transform="translate(-771.805 -101.806)" fill="#333"/>
      <path id="Path_41352" data-name="Path 41352" d="M937.038,102.068v3.41c0,.411.351.411.531.411h.311v.692c-.321.03-.572.07-.662.07-.872,0-1.063-.491-1.063-1.123v-3.46h-.712v-.732h.712V99.872h.883v1.464h.843v.732Z" transform="translate(-781.894 -99.19)" fill="#333"/>
      <path id="Path_41353" data-name="Path 41353" d="M958.763,98.4h.943v7.2h-1.094l-3.661-5.816h-.02V105.6h-.943V98.4h1.154l3.6,5.817h.02Z" transform="translate(-794.241 -98.211)" fill="#333"/>
      <path id="Path_41354" data-name="Path 41354" d="M979.279,107.553a2.183,2.183,0,0,1-2.356,1.8,2.356,2.356,0,0,1-2.347-2.628c0-1.625.782-2.918,2.517-2.918,1.514,0,2.256,1.2,2.256,3.059h-3.831c0,1.094.511,1.725,1.524,1.725a1.332,1.332,0,0,0,1.354-1.033Zm-.842-1.394c-.05-.812-.391-1.565-1.464-1.565a1.54,1.54,0,0,0-1.454,1.565Z" transform="translate(-807.946 -101.806)" fill="#333"/>
      <path id="Path_41355" data-name="Path 41355" d="M992.075,102.068v3.41c0,.411.351.411.532.411h.311v.692c-.321.03-.571.07-.661.07-.872,0-1.063-.491-1.063-1.123v-3.46h-.712v-.732h.712V99.872h.882v1.464h.842v.732Z" transform="translate(-818.535 -99.19)" fill="#333"/>
      <path id="Path_41356" data-name="Path 41356" d="M1001.25,109.5h-.912l-1.514-5.245h.962l1,4.122h.02l1.013-4.122h.983l1.023,4.122h.02l1.063-4.122h.882l-1.524,5.245h-.913l-1.063-4.061h-.02Z" transform="translate(-824.09 -102.106)" fill="#333"/>
      <path id="Path_41357" data-name="Path 41357" d="M1023.256,103.8a2.79,2.79,0,1,1-2.437,2.768A2.51,2.51,0,0,1,1023.256,103.8Zm0,4.774c1.264,0,1.525-1.3,1.525-2.007s-.261-2.006-1.525-2.006-1.524,1.3-1.524,2.006S1021.993,108.576,1023.256,108.576Z" transform="translate(-838.733 -101.806)" fill="#333"/>
      <path id="Path_41358" data-name="Path 41358" d="M1039.647,109.2h-.883v-5.245h.833v.872h.02a1.7,1.7,0,0,1,1.474-1.023.721.721,0,0,1,.232.03v.913h-.332a1.333,1.333,0,0,0-1.343,1.4Z" transform="translate(-850.68 -101.806)" fill="#333"/>
      <path id="Path_41359" data-name="Path 41359" d="M1053.261,105.6h-1.133l-1.634-2.647-.732.661V105.6h-.852V98.4h.852v4.171l2.256-2.216h1.123l-2.006,1.956Z" transform="translate(-857.434 -98.211)" fill="#333"/>
    </g>
  </g>
</svg>
