<svg xmlns="http://www.w3.org/2000/svg" width="228.225" height="179.296" viewBox="0 0 228.225 179.296">
  <g id="Group_19589" data-name="Group 19589" transform="translate(-667.683 -3818.629)">
    <g id="Group_19320" data-name="Group 19320" transform="translate(745.338 3811.052)">
      <g id="Group_19315" data-name="Group 19315" transform="translate(4.135 7.577)">
        <path id="Rectangle_1693" data-name="Rectangle 1693" d="M0,0H5.77a0,0,0,0,1,0,0V11.552a2.885,2.885,0,0,1-2.885,2.885h0A2.885,2.885,0,0,1,0,11.552V0A0,0,0,0,1,0,0Z" transform="translate(0 5.292)" fill="#263238"/>
        <path id="Path_42292" data-name="Path 42292" d="M798.775,3828.1l2.885-5.292,2.885,5.292Z" transform="translate(-798.775 -3822.813)" fill="#ffbe9d"/>
        <path id="Path_42293" data-name="Path 42293" d="M802.486,3824.909s.876,1.317,2.286,0l-1.143-2.1Z" transform="translate(-800.744 -3822.812)" fill="#263238"/>
        <line id="Line_356" data-name="Line 356" x2="1.239" transform="translate(0.855 5.292)" fill="#fff" opacity="0.3"/>
      </g>
      <g id="Group_19316" data-name="Group 19316" transform="translate(4.119 24.068)">
        <path id="Path_42294" data-name="Path 42294" d="M804.607,3858.053a36.77,36.77,0,1,1-2.933-.117A18.5,18.5,0,0,1,804.607,3858.053Z" transform="translate(-798.74 -3857.936)" fill="#263238"/>
      </g>
      <g id="Group_19317" data-name="Group 19317" transform="translate(4.178 23.184)">
        <path id="Path_42295" data-name="Path 42295" d="M804.614,3856.17a35.452,35.452,0,1,1-2.874-.117A17.867,17.867,0,0,1,804.614,3856.17Z" transform="translate(-798.866 -3856.053)" fill="#263238"/>
      </g>
      <g id="Group_19318" data-name="Group 19318" transform="translate(5.712 12.954)">
        <path id="Path_42296" data-name="Path 42296" d="M802.25,3834.263c.064,0,.117,2.3.117,5.144s-.052,5.144-.117,5.144-.116-2.3-.116-5.144S802.186,3834.263,802.25,3834.263Z" transform="translate(-802.134 -3834.263)" fill="#fafafa"/>
      </g>
      <g id="Group_19319" data-name="Group 19319" transform="translate(8.046 12.954)">
        <path id="Path_42297" data-name="Path 42297" d="M807.222,3834.263c.064,0,.116,2.3.116,5.144s-.052,5.144-.116,5.144-.117-2.3-.117-5.144S807.158,3834.263,807.222,3834.263Z" transform="translate(-807.105 -3834.263)" fill="#fafafa"/>
      </g>
    </g>
    <g id="Group_19329" data-name="Group 19329" transform="translate(841.403 3963.156)">
      <path id="Path_42298" data-name="Path 42298" d="M881.427,4180.385l26.215,1.122.633,1.527-17.181,27.889-31.017-.9Z" transform="translate(-853.77 -4176.153)" fill="#263238"/>
      <path id="Path_42299" data-name="Path 42299" d="M857.57,4211.146l31.2,1.781,16.3-25.292-11.444.93-28.965,10.2Z" transform="translate(-852.44 -4179.999)" fill="#e0e0e0"/>
      <g id="Group_19322" data-name="Group 19322" transform="translate(0 3.259)">
        <path id="Path_42300" data-name="Path 42300" d="M847.422,4204.448l28.654.453c-1.19-3.665,1.617-8.829,5.469-10.565,2.554-1.151,7.358-2.643,9.837-3.914,4.711-2.417,8.967-6.992,8.595-10.919l-11.768-.375-15.021-.58c-1.256,3.726-3.942,6.167-8.026,7.635-3.655,1.314-7.815,1.311-11.38,2.8-5.738,2.4-8.495,10.19-6.359,15.461" transform="translate(-846.674 -4178.437)" fill="#ebebeb"/>
        <g id="Group_19321" data-name="Group 19321">
          <path id="Path_42301" data-name="Path 42301" d="M847.391,4204.323s-.027-.061-.072-.186-.111-.313-.2-.552a6.483,6.483,0,0,1-.244-.928,9.531,9.531,0,0,1-.2-1.3,13.209,13.209,0,0,1,.227-3.643,13.593,13.593,0,0,1,1.838-4.548,11.119,11.119,0,0,1,.825-1.152c.155-.186.3-.384.469-.566l.53-.536a4.787,4.787,0,0,1,.573-.515c.2-.162.4-.338.614-.494a10.462,10.462,0,0,1,1.395-.832,25.309,25.309,0,0,1,6.828-1.871c1.239-.226,2.514-.461,3.794-.814a17.734,17.734,0,0,0,3.777-1.52,12.394,12.394,0,0,0,1.763-1.156,10.509,10.509,0,0,0,1.564-1.477,11.3,11.3,0,0,0,2.177-3.843l.026-.077.08,0,12.515.477c4.34.171,8.833.289,13.434.443l.839.027.1,0,.009.1a6.39,6.39,0,0,1-.379,2.648,9.884,9.884,0,0,1-.525,1.221,12.992,12.992,0,0,1-.685,1.126,17.352,17.352,0,0,1-3.55,3.753,21.021,21.021,0,0,1-4.284,2.646c-1.511.679-3.042,1.233-4.541,1.788s-2.98,1.079-4.388,1.692a8.618,8.618,0,0,0-1.927,1.169,11.1,11.1,0,0,0-.837.736c-.245.277-.518.528-.736.824a10.616,10.616,0,0,0-2,3.766,6.98,6.98,0,0,0-.071,4.009l.039.126-.131,0L855.2,4204.5l-5.779-.118-1.516-.037c-.342-.01-.519-.022-.519-.022s.177-.007.519-.007l1.516.01,5.78.065,20.84.288-.092.125a7.162,7.162,0,0,1,.06-4.122,10.812,10.812,0,0,1,2.034-3.843c.222-.3.5-.558.749-.84a11.263,11.263,0,0,1,.854-.753,8.834,8.834,0,0,1,1.972-1.2c1.419-.62,2.9-1.146,4.4-1.7s3.026-1.112,4.524-1.786a20.839,20.839,0,0,0,4.234-2.62,17.163,17.163,0,0,0,3.5-3.7,12.591,12.591,0,0,0,.671-1.1,9.651,9.651,0,0,0,.511-1.19,6.166,6.166,0,0,0,.367-2.549l.112.106-.839-.027c-4.6-.155-9.1-.274-13.435-.448l-12.515-.49.106-.073a11.493,11.493,0,0,1-2.225,3.91,10.67,10.67,0,0,1-1.6,1.5,12.591,12.591,0,0,1-1.792,1.171,17.937,17.937,0,0,1-3.823,1.528c-1.292.353-2.573.586-3.813.808a25.271,25.271,0,0,0-6.789,1.833,10.343,10.343,0,0,0-1.377.814c-.212.153-.406.326-.607.484a4.789,4.789,0,0,0-.568.5l-.525.527c-.167.18-.312.375-.466.559a10.86,10.86,0,0,0-.822,1.136,13.541,13.541,0,0,0-1.848,4.5,13.3,13.3,0,0,0-.257,3.617,9.765,9.765,0,0,0,.18,1.3,6.852,6.852,0,0,0,.226.928l.179.557C847.376,4204.257,847.391,4204.323,847.391,4204.323Z" transform="translate(-846.644 -4178.311)" fill="#263238"/>
        </g>
      </g>
      <g id="Group_19323" data-name="Group 19323" transform="translate(28.386)">
        <path id="Path_42302" data-name="Path 42302" d="M913.279,4175.2c-.021-.006.038-.184.064-.512a2.9,2.9,0,0,0-.225-1.353,2.78,2.78,0,0,0-1.355-1.452,3.129,3.129,0,0,0-2.415-.086,3.162,3.162,0,0,0-1.744,1.678,3.466,3.466,0,0,0-.276,2,3.4,3.4,0,0,0,.49,1.29c.177.279.31.41.3.425a1.294,1.294,0,0,1-.37-.373,3.2,3.2,0,0,1-.577-1.313,3.546,3.546,0,0,1,.242-2.112,3.333,3.333,0,0,1,1.858-1.81,3.3,3.3,0,0,1,2.591.112,2.9,2.9,0,0,1,1.413,1.583,2.785,2.785,0,0,1,.162,1.425,1.885,1.885,0,0,1-.1.379C913.307,4175.166,913.287,4175.207,913.279,4175.2Z" transform="translate(-907.103 -4171.371)" fill="#263238"/>
      </g>
      <g id="Group_19324" data-name="Group 19324" transform="translate(32.877)">
        <path id="Path_42303" data-name="Path 42303" d="M922.844,4175.2c-.021-.006.037-.184.064-.512a2.892,2.892,0,0,0-.225-1.353,2.779,2.779,0,0,0-1.355-1.452,3.128,3.128,0,0,0-2.415-.086,3.16,3.16,0,0,0-1.744,1.678,3.465,3.465,0,0,0-.276,2,3.4,3.4,0,0,0,.49,1.29c.177.279.31.41.3.425a1.3,1.3,0,0,1-.37-.373,3.2,3.2,0,0,1-.578-1.313,3.546,3.546,0,0,1,.242-2.112,3.333,3.333,0,0,1,1.858-1.81,3.3,3.3,0,0,1,2.591.112,2.9,2.9,0,0,1,1.413,1.583A2.787,2.787,0,0,1,923,4174.7a1.859,1.859,0,0,1-.1.379C922.872,4175.166,922.852,4175.207,922.844,4175.2Z" transform="translate(-916.668 -4171.371)" fill="#263238"/>
      </g>
      <g id="Group_19325" data-name="Group 19325" transform="translate(36.271 0.395)">
        <path id="Path_42304" data-name="Path 42304" d="M930.09,4175.884c-.021,0,.027-.187.036-.515a2.907,2.907,0,0,0-.3-1.339,2.779,2.779,0,0,0-1.434-1.372,3.127,3.127,0,0,0-2.416.05,3.162,3.162,0,0,0-1.647,1.774,3.47,3.47,0,0,0-.162,2.009,3.411,3.411,0,0,0,.562,1.26c.193.269.333.392.319.407a1.277,1.277,0,0,1-.39-.352,3.2,3.2,0,0,1-.651-1.277,3.543,3.543,0,0,1,.122-2.123,3.271,3.271,0,0,1,4.346-1.947,2.9,2.9,0,0,1,1.5,1.5,2.785,2.785,0,0,1,.242,1.414,1.877,1.877,0,0,1-.074.384C930.115,4175.843,930.1,4175.886,930.09,4175.884Z" transform="translate(-923.897 -4172.211)" fill="#263238"/>
      </g>
      <g id="Group_19326" data-name="Group 19326" transform="translate(39.92 0.755)">
        <path id="Path_42305" data-name="Path 42305" d="M937.87,4176.5c-.022,0,.017-.187.008-.517a2.9,2.9,0,0,0-.372-1.32,2.781,2.781,0,0,0-1.5-1.294,3.127,3.127,0,0,0-2.41.178,3.16,3.16,0,0,0-1.55,1.859,3.467,3.467,0,0,0-.056,2.014,3.4,3.4,0,0,0,.628,1.228c.207.258.353.375.34.39a1.287,1.287,0,0,1-.408-.33,3.2,3.2,0,0,1-.718-1.241,3.552,3.552,0,0,1,.009-2.127,3.329,3.329,0,0,1,1.649-2,3.293,3.293,0,0,1,2.587-.172,2.9,2.9,0,0,1,1.578,1.418,2.786,2.786,0,0,1,.317,1.4,1.924,1.924,0,0,1-.054.387C937.893,4176.457,937.877,4176.5,937.87,4176.5Z" transform="translate(-931.669 -4172.979)" fill="#263238"/>
      </g>
      <g id="Group_19327" data-name="Group 19327" transform="translate(43.583 0.75)">
        <path id="Path_42306" data-name="Path 42306" d="M945.672,4176.407c-.021,0,.012-.187-.006-.517a2.9,2.9,0,0,0-.409-1.31,2.779,2.779,0,0,0-1.541-1.251,3.1,3.1,0,0,0-3.9,2.148,3.469,3.469,0,0,0,0,2.015,3.406,3.406,0,0,0,.662,1.21c.214.251.363.364.351.38a1.265,1.265,0,0,1-.417-.318,3.194,3.194,0,0,1-.752-1.221,3.543,3.543,0,0,1-.05-2.125,3.271,3.271,0,0,1,4.174-2.292,2.9,2.9,0,0,1,1.617,1.374,2.781,2.781,0,0,1,.356,1.389,1.892,1.892,0,0,1-.043.389C945.694,4176.364,945.68,4176.408,945.672,4176.407Z" transform="translate(-939.47 -4172.968)" fill="#263238"/>
      </g>
      <g id="Group_19328" data-name="Group 19328" transform="translate(46.673 1.047)">
        <path id="Path_42307" data-name="Path 42307" d="M952.25,4177.154c-.021,0,.019-.187.015-.516a2.907,2.907,0,0,0-.356-1.325,2.785,2.785,0,0,0-1.49-1.312,3.1,3.1,0,0,0-3.983,1.992,3.467,3.467,0,0,0-.08,2.013,3.391,3.391,0,0,0,.614,1.235c.2.26.349.378.335.394a1.272,1.272,0,0,1-.4-.334,3.193,3.193,0,0,1-.7-1.25,3.542,3.542,0,0,1,.034-2.126,3.33,3.33,0,0,1,1.672-1.982,3.294,3.294,0,0,1,2.59-.142,2.9,2.9,0,0,1,1.561,1.438,2.782,2.782,0,0,1,.3,1.4,1.924,1.924,0,0,1-.058.386C952.274,4177.112,952.258,4177.155,952.25,4177.154Z" transform="translate(-946.051 -4173.599)" fill="#263238"/>
      </g>
    </g>
    <g id="Group_19338" data-name="Group 19338" transform="translate(859.626 3865.308)">
      <path id="Path_42308" data-name="Path 42308" d="M962.327,3976.3a18.082,18.082,0,0,0-2.723.123,11.335,11.335,0,0,0-9.893,11.3,20.1,20.1,0,0,0,.7,5.384,43.156,43.156,0,0,1,1.889,12.981l5.3,2.85a22.563,22.563,0,0,1,4.825-5.047c2.371-1.521,10.264-5.587,13.388-9.767,2.015-2.7,2.4-8.226-2.4-13.062A16.28,16.28,0,0,0,962.327,3976.3Z" transform="translate(-948.274 -3976.295)" fill="#f7b709"/>
      <path id="Path_42309" data-name="Path 42309" d="M946.869,4085.379l4.789,2.588-3.118,3.959-3.193-1.451Z" transform="translate(-945.348 -4049.452)" fill="#455a64"/>
      <g id="Group_19330" data-name="Group 19330" transform="translate(1.751 29.792)">
        <path id="Path_42310" data-name="Path 42310" d="M950.667,4073.046c-.042-.015.433-1.437,1.061-3.175s1.173-3.135,1.216-3.12-.433,1.437-1.062,3.176S950.709,4073.062,950.667,4073.046Z" transform="translate(-950.664 -4066.752)" fill="#263238"/>
      </g>
      <g id="Group_19331" data-name="Group 19331" transform="translate(6.007 32.406)">
        <path id="Path_42311" data-name="Path 42311" d="M963.587,4080.6c-.039-.023.712-1.366,1.676-3s1.778-2.939,1.817-2.916-.711,1.365-1.676,3S963.626,4080.625,963.587,4080.6Z" transform="translate(-963.586 -4074.688)" fill="#263238"/>
      </g>
      <g id="Group_19332" data-name="Group 19332" transform="translate(5.736 0.152)" opacity="0.4">
        <path id="Path_42312" data-name="Path 42312" d="M972.678,3976.764a25.924,25.924,0,0,0-4.016,5.185c-3.922,7.024-4.1,13.86-5.187,21.831-.155,1.139-.721,3.593-.711,3.536a21.077,21.077,0,0,0,2.531,1.361s1.839-2.22,2.57-3.336c2.927-4.471,6.1-7.957,8.61-12.676s4.917-8.906,2.6-13.72C979.073,3978.943,975.057,3976.631,972.678,3976.764Z" transform="translate(-962.765 -3976.759)"/>
      </g>
      <g id="Group_19333" data-name="Group 19333" transform="translate(1.296 7.507)">
        <path id="Path_42313" data-name="Path 42313" d="M975.552,4010.117a.944.944,0,0,1-.068-.152c-.044-.1-.094-.255-.183-.445a8.128,8.128,0,0,0-2.96-3.455,7.748,7.748,0,0,0-3.337-1.235l-.032,0-.019-.026a18.509,18.509,0,0,0-2.14-2.456,10.706,10.706,0,0,0-2.921-2.012,7.563,7.563,0,0,0-3.452-.658,5.722,5.722,0,0,0-3.022,1.007l-.048.034-.044-.039a5.945,5.945,0,0,0-3.227-1.434,5.839,5.839,0,0,0-2.743.35,6.1,6.1,0,0,0-1.576.887c-.166.13-.289.235-.37.309a.853.853,0,0,1-.128.106.876.876,0,0,1,.112-.123,4.275,4.275,0,0,1,.357-.328,5.9,5.9,0,0,1,4.362-1.322,6.038,6.038,0,0,1,3.31,1.445l-.092,0a5.848,5.848,0,0,1,3.1-1.046,7.676,7.676,0,0,1,3.528.668,10.786,10.786,0,0,1,2.964,2.045,18.386,18.386,0,0,1,2.149,2.485l-.05-.03a7.812,7.812,0,0,1,3.387,1.28,8.063,8.063,0,0,1,2.037,1.947,7.549,7.549,0,0,1,.9,1.592c.083.194.126.352.163.455A.84.84,0,0,1,975.552,4010.117Z" transform="translate(-949.283 -3999.089)" fill="#263238"/>
      </g>
      <g id="Group_19334" data-name="Group 19334" transform="translate(2.788 18.364)">
        <path id="Path_42314" data-name="Path 42314" d="M968.735,4039.222a3.383,3.383,0,0,0-.457-1.152,3.149,3.149,0,0,0-1.018-.977,2.848,2.848,0,0,0-1.755-.416l-.066.006-.01-.065a4.642,4.642,0,0,0-.87-2.048,4.567,4.567,0,0,0-1.967-1.526,4.694,4.694,0,0,0-3.888.2l-.05.026-.039-.042a3.341,3.341,0,0,0-1.841-1,3.688,3.688,0,0,0-1.651.052,3.917,3.917,0,0,0-1.31.65s.021-.026.071-.071a2.621,2.621,0,0,1,.224-.187,3.256,3.256,0,0,1,.992-.478,3.7,3.7,0,0,1,1.7-.087,3.436,3.436,0,0,1,1.928,1.018l-.089-.015a4.807,4.807,0,0,1,4.018-.225,4.681,4.681,0,0,1,2.033,1.585,4.733,4.733,0,0,1,.882,2.121l-.076-.06a2.942,2.942,0,0,1,1.829.458,3.163,3.163,0,0,1,1.027,1.031,2.772,2.772,0,0,1,.351.867,2.282,2.282,0,0,1,.034.244A.251.251,0,0,1,968.735,4039.222Z" transform="translate(-953.812 -4032.052)" fill="#263238"/>
      </g>
      <g id="Group_19335" data-name="Group 19335" transform="translate(0.999 37.602)">
        <path id="Path_42315" data-name="Path 42315" d="M952.768,4092.625c-.012.009-.052-.065-.176-.117a.849.849,0,0,0-.56.017,1.583,1.583,0,0,1-.424.077.663.663,0,0,1-.473-.208c-.254-.265-.351-.647-.591-.912a.551.551,0,0,0-.441-.186,2.832,2.832,0,0,0-.5.1,1.109,1.109,0,0,1-.5.027.883.883,0,0,1-.393-.2.93.93,0,0,1-.315-.532c-.025-.146,0-.227.007-.226s.013.08.055.21a.949.949,0,0,0,.327.458.784.784,0,0,0,.346.158,1.01,1.01,0,0,0,.439-.04,2.678,2.678,0,0,1,.529-.114.708.708,0,0,1,.566.234c.279.317.366.693.581.92a.536.536,0,0,0,.368.178,1.573,1.573,0,0,0,.393-.055.852.852,0,0,1,.616.039C952.754,4092.531,952.775,4092.625,952.768,4092.625Z" transform="translate(-948.383 -4090.464)" fill="#263238"/>
      </g>
      <g id="Group_19336" data-name="Group 19336" transform="translate(1.337 36.54)">
        <path id="Path_42316" data-name="Path 42316" d="M954,4089.693a41.614,41.614,0,0,1-4.6-2.452,41.527,41.527,0,0,1,4.6,2.452Z" transform="translate(-949.408 -4087.24)" fill="#263238"/>
      </g>
      <g id="Group_19337" data-name="Group 19337" transform="translate(0.774 38.363)">
        <path id="Path_42317" data-name="Path 42317" d="M951.906,4094.614c0,.012-.067.033-.182.086-.058.026-.125.066-.216.1a.75.75,0,0,1-.33.043,1.377,1.377,0,0,1-.789-.3,1.1,1.1,0,0,1-.3-.414,1.577,1.577,0,0,0-.232-.431,1.109,1.109,0,0,0-.868-.249,2.007,2.007,0,0,1-.833-.08.77.77,0,0,1-.421-.386c-.054-.129-.035-.208-.027-.208s.019.073.084.178a.76.76,0,0,0,.405.307,2.081,2.081,0,0,0,.786.037,1.219,1.219,0,0,1,.994.289,1.64,1.64,0,0,1,.258.476.953.953,0,0,0,.253.365,1.313,1.313,0,0,0,.7.3.979.979,0,0,0,.513-.09C951.83,4094.6,951.9,4094.6,951.906,4094.614Z" transform="translate(-947.697 -4092.774)" fill="#263238"/>
      </g>
    </g>
    <g id="Group_19475" data-name="Group 19475" transform="translate(745.41 3835.718)">
      <g id="Group_19339" data-name="Group 19339" transform="translate(30.463 56.224)">
        <path id="Path_42318" data-name="Path 42318" d="M848.558,3994.318l12.252-1.816-5.858-8.3-3.141.185a5.6,5.6,0,0,0-4.816,3.376h0a5.6,5.6,0,0,0-.356,3.28Z" transform="translate(-846.537 -3984.124)" fill="#012b3a"/>
        <path id="Path_42319" data-name="Path 42319" d="M848.558,3994.155l12.252-1.816-5.858-8.3-3.141.186a5.6,5.6,0,0,0-4.816,3.375h0a5.6,5.6,0,0,0-.356,3.281Z" transform="translate(-846.537 -3984.039)" fill="#015579" opacity="0.4"/>
      </g>
      <g id="Group_19474" data-name="Group 19474" transform="translate(0 0)">
        <g id="Group_19340" data-name="Group 19340" transform="translate(72.375 46.912)">
          <path id="Path_42320" data-name="Path 42320" d="M945.294,3998.011c.126.35.264.766.4,1.263a3.88,3.88,0,0,1,.132,1.312,5.942,5.942,0,0,1-.276,1.622c-.2.465.267.933.664.7a4.191,4.191,0,0,0,.948-3.13c-.037-1.63,1.627.323,2.246,1.025s2.636,2.781,3,2.762c.537-.029.606-.609-.029-1.3s-2.392-2.877-2.006-3.187,3.482,3.31,3.482,3.31.538.879,1,.537c.826-.617-2.754-4.216-3.1-4.55-.243-.231.165-.583.412-.32s3.011,3.677,3.858,3.057c.651-.477-2.918-2.987-3.1-4.012s2.512,2.179,3.114,1.7c.225-.179.367-.343-1.444-1.96-.879-.784-4.222-3.124-4.222-3.124l-10.056-28.793-7.766,4.447Z" transform="translate(-932.553 -3964.927)" fill="#ffbe9d"/>
        </g>
        <path id="Path_42321" data-name="Path 42321" d="M809.266,3901.742l-11.238-13.411h0a7.776,7.776,0,0,0-.55-1.337,4.191,4.191,0,0,0-2.651-2.211c-.713-.157-1.529-.081-2.088-.55-.25-.209-.417-.508-.679-.7s-.7-.232-.866.048a.759.759,0,0,0,.047.668,6.252,6.252,0,0,0,1.951,2.518c-1.054.32-2.559.8-2.559.8s-2.376-2.577-3.592-2.569.983,2.3.983,2.3-1.949-1.8-2.553-1.293.944,1.844.944,1.844a2.586,2.586,0,0,0-1.581-.443c-.551.092-1.024.741-.728,1.214a1.29,1.29,0,0,0,.495.4l2.991,1.667a3.627,3.627,0,0,0,1.6.583c1.517.048,2.672-.893,4.189-.852,0,0,8.474,17.838,9.331,18.759s19.474,2.172,19.474,2.172l10.775-9.283Z" transform="translate(-784.016 -3876.2)" fill="#ffbe9d"/>
        <g id="Group_19348" data-name="Group 19348" transform="translate(55.953 122.712)">
          <path id="Path_42322" data-name="Path 42322" d="M901.9,4120.493l11.476,5-6.146,14.31c-1.331-.671-.9-9.253-.9-9.253l-7.484-2.9Z" transform="translate(-898.851 -4120.493)" fill="#455a64"/>
          <g id="Group_19341" data-name="Group 19341" transform="translate(8.643 5.138)" opacity="0.6">
            <path id="Path_42323" data-name="Path 42323" d="M916.711,4131.266a.636.636,0,0,1,.841-.118.611.611,0,0,1,.124.832.67.67,0,0,1-.891.12.633.633,0,0,1-.033-.879" transform="translate(-916.589 -4131.039)" fill="#fff"/>
          </g>
          <path id="Path_42324" data-name="Path 42324" d="M921.687,4130.269l-1.176-.458-5.453,13.892s0,.756.484.877Z" transform="translate(-907.161 -4125.271)" fill="#fff" opacity="0.6"/>
          <g id="Group_19342" data-name="Group 19342" transform="translate(7.291 9.258)">
            <path id="Path_42325" data-name="Path 42325" d="M913.835,4140.492c.071.028.253-.308.625-.555s.745-.3.745-.38-.448-.146-.894.162S913.765,4140.48,913.835,4140.492Z" transform="translate(-913.815 -4139.494)" fill="#263238"/>
          </g>
          <g id="Group_19343" data-name="Group 19343" transform="translate(7.276 11.404)">
            <path id="Path_42326" data-name="Path 42326" d="M913.8,4144.518c.061.045.31-.207.708-.316s.739-.045.766-.117-.349-.285-.841-.138S913.73,4144.487,913.8,4144.518Z" transform="translate(-913.783 -4143.897)" fill="#263238"/>
          </g>
          <g id="Group_19344" data-name="Group 19344" transform="translate(7.282 13.358)">
            <path id="Path_42327" data-name="Path 42327" d="M915.232,4148.2c.042-.057-.266-.306-.725-.29s-.752.277-.707.332.337-.06.715-.067S915.2,4148.265,915.232,4148.2Z" transform="translate(-913.796 -4147.908)" fill="#263238"/>
          </g>
          <g id="Group_19345" data-name="Group 19345" transform="translate(5.606 7.947)">
            <path id="Path_42328" data-name="Path 42328" d="M910.43,4138.262c.076,0,.117-.363.314-.747s.453-.637.409-.7-.421.126-.646.581S910.361,4138.273,910.43,4138.262Z" transform="translate(-910.357 -4136.804)" fill="#263238"/>
          </g>
          <g id="Group_19346" data-name="Group 19346" transform="translate(3.64 5.775)">
            <path id="Path_42329" data-name="Path 42329" d="M906.81,4134.907a1.451,1.451,0,0,0,.3-.718,3.5,3.5,0,0,0,.092-.849,3.609,3.609,0,0,0-.041-.5.97.97,0,0,0-.076-.289.331.331,0,0,0-.358-.192.419.419,0,0,0-.291.238,1,1,0,0,0-.078.284,2.724,2.724,0,0,0-.039.511,2.76,2.76,0,0,0,.15.848c.165.464.378.689.4.671s-.113-.277-.221-.724a3.113,3.113,0,0,1-.086-.794,2.915,2.915,0,0,1,.05-.466c.025-.168.08-.3.164-.308.032,0,.043,0,.074.05a.805.805,0,0,1,.055.212,4.234,4.234,0,0,1,.054.471,4.319,4.319,0,0,1-.032.807A5.389,5.389,0,0,0,906.81,4134.907Z" transform="translate(-906.322 -4132.346)" fill="#263238"/>
          </g>
          <g id="Group_19347" data-name="Group 19347" transform="translate(1.729 7.547)">
            <path id="Path_42330" data-name="Path 42330" d="M904.938,4136.723c.022-.02-.169-.266-.611-.485a2.537,2.537,0,0,0-.827-.24,2.564,2.564,0,0,0-.513,0,.647.647,0,0,0-.558.3.364.364,0,0,0,.071.385,1.077,1.077,0,0,0,.231.187,1.734,1.734,0,0,0,.482.207,1.784,1.784,0,0,0,.872.012c.491-.121.7-.376.678-.392a6.112,6.112,0,0,1-.712.208,1.8,1.8,0,0,1-.771-.062,1.61,1.61,0,0,1-.409-.192c-.142-.087-.24-.2-.2-.247.029-.072.2-.144.342-.15a2.529,2.529,0,0,1,.465-.011,2.791,2.791,0,0,1,.775.168C904.682,4136.57,904.911,4136.757,904.938,4136.723Z" transform="translate(-902.401 -4135.983)" fill="#263238"/>
          </g>
        </g>
        <g id="Group_19356" data-name="Group 19356" transform="translate(50.165 139.85)">
          <path id="Path_42331" data-name="Path 42331" d="M886.971,4158.188l4.746,9.943,1.487,8.948a1.128,1.128,0,0,0,1.374.914h0a1.12,1.12,0,0,0,.785-.672c.873-2.161,4.043-10.125,3.654-10.832-.449-.82-4.31-10.822-4.31-10.822Z" transform="translate(-886.971 -4155.667)" fill="#455a64"/>
          <path id="Path_42332" data-name="Path 42332" d="M902.583,4188.667l4.135-12.182.191.425a1.7,1.7,0,0,1,.084,1.17c-.3,1.036-1.195,3.881-3.594,9.9a1.127,1.127,0,0,1-.816.686Z" transform="translate(-894.976 -4166.342)" fill="#fff" opacity="0.6"/>
          <g id="Group_19349" data-name="Group 19349" transform="translate(8.133 7.528)" opacity="0.6">
            <path id="Path_42333" data-name="Path 42333" d="M903.751,4171.418a.683.683,0,0,0,.2.89.658.658,0,0,0,.884-.187.72.72,0,0,0-.212-.941.681.681,0,0,0-.9.3" transform="translate(-903.662 -4171.116)" fill="#fff"/>
          </g>
          <g id="Group_19350" data-name="Group 19350" transform="translate(5.438 16.274)">
            <path id="Path_42334" data-name="Path 42334" d="M900.624,4189.695a2.434,2.434,0,0,0-2.489-.087c-.02-.021.072-.156.293-.3a1.8,1.8,0,0,1,1.925.068C900.562,4189.534,900.645,4189.674,900.624,4189.695Z" transform="translate(-898.132 -4189.065)" fill="#263238"/>
          </g>
          <g id="Group_19351" data-name="Group 19351" transform="translate(5.692 18.281)">
            <path id="Path_42335" data-name="Path 42335" d="M900.78,4193.475a9.379,9.379,0,0,0-1.084-.032,9.5,9.5,0,0,0-1.038.314c-.052-.038.336-.468,1.006-.554A1.25,1.25,0,0,1,900.78,4193.475Z" transform="translate(-898.652 -4193.186)" fill="#263238"/>
          </g>
          <g id="Group_19352" data-name="Group 19352" transform="translate(5.168 14.17)">
            <path id="Path_42336" data-name="Path 42336" d="M900.9,4185.156a11.007,11.007,0,0,0-1.67-.162,11.306,11.306,0,0,0-1.647.322,3.085,3.085,0,0,1,3.317-.16Z" transform="translate(-897.578 -4184.747)" fill="#263238"/>
          </g>
          <g id="Group_19353" data-name="Group 19353" transform="translate(4.621 11.373)">
            <path id="Path_42337" data-name="Path 42337" d="M899.131,4179.069c0,.073-.659.09-1.393.389s-1.229.73-1.279.677a2.8,2.8,0,0,1,2.672-1.066Z" transform="translate(-896.455 -4179.007)" fill="#263238"/>
          </g>
          <g id="Group_19354" data-name="Group 19354" transform="translate(3.328 8.376)">
            <path id="Path_42338" data-name="Path 42338" d="M896.45,4172.962a3.581,3.581,0,0,0-2.643,1.3c-.026-.015.027-.189.2-.427a2.458,2.458,0,0,1,1.985-.976C896.284,4172.868,896.455,4172.934,896.45,4172.962Z" transform="translate(-893.8 -4172.857)" fill="#263238"/>
          </g>
          <g id="Group_19355" data-name="Group 19355" transform="translate(2.101 5.835)">
            <path id="Path_42339" data-name="Path 42339" d="M893.463,4170.083a.933.933,0,0,1-.185-.373,2.91,2.91,0,0,1-.146-1.132,1.285,1.285,0,0,1,.251-.784.453.453,0,0,1,.508-.118.741.741,0,0,1,.363.383,1.594,1.594,0,0,1-.67,1.919,1.848,1.848,0,0,1-2.055-.137.643.643,0,0,1-.247-.474.446.446,0,0,1,.328-.406,1.58,1.58,0,0,1,.817.046,3.22,3.22,0,0,1,1.037.473c.221.154.32.267.311.278a5.158,5.158,0,0,0-1.387-.584,1.47,1.47,0,0,0-.713-.023.237.237,0,0,0-.18.22.444.444,0,0,0,.18.3,1.652,1.652,0,0,0,1.783.1,1.385,1.385,0,0,0,.592-1.622.537.537,0,0,0-.242-.277.246.246,0,0,0-.281.062,1.16,1.16,0,0,0-.225.661A4.276,4.276,0,0,0,893.463,4170.083Z" transform="translate(-891.282 -4167.641)" fill="#263238"/>
          </g>
        </g>
        <g id="Group_19361" data-name="Group 19361" transform="translate(20.088 63.068)">
          <path id="Path_42340" data-name="Path 42340" d="M871.313,4058.943l-13.013-8.759,4.306-42.291-12.326-7.2-11.272-2.611s-4.707,9.793-6.8,16.063c-4.452,13.333-7.577,18.113-6.863,27.777.226,3.059,11.522,10.711,18.656,14.962a22.273,22.273,0,0,0,.379,2.532c2.438,11.02,9.878,25.675,9.878,25.675l11.309-5.257-3.649-12.5,3.8,2.217Zm-27.971-27.27,1.518-6.778c-.321,4.31-.614,8.806-.825,13.119A13.4,13.4,0,0,1,843.342,4031.673Z" transform="translate(-825.242 -3998.084)" fill="#263238"/>
          <g id="Group_19357" data-name="Group 19357" transform="translate(18.057 12.127)">
            <path id="Path_42341" data-name="Path 42341" d="M873.259,4097.854a1.124,1.124,0,0,1-.088-.178l-.234-.534-.874-2.062c-.751-1.795-1.827-4.4-3.121-7.624s-2.82-7.081-4.363-11.416c-.384-1.085-.762-2.2-1.115-3.356-.157-.584-.354-1.16-.457-1.778-.029-.153-.064-.306-.089-.459l-.054-.461q-.052-.462-.1-.929-.2-1.868-.323-3.807c-.041-.646-.076-1.3-.1-1.953s-.053-1.32-.015-1.983c.191-5.314.638-10.352,1.005-14.937.383-4.58.728-8.706,1.018-12.175s.477-6.273.588-8.214c.061-.971.094-1.725.117-2.236.014-.246.024-.439.032-.582a1.235,1.235,0,0,1,.019-.2,1.187,1.187,0,0,1,.006.2c0,.142,0,.335-.008.582-.007.512-.025,1.267-.072,2.239-.082,1.944-.252,4.754-.512,8.223l-.966,12.181c-.355,4.583-.8,9.625-.986,14.922-.037.662-.008,1.314.015,1.969s.06,1.3.1,1.947q.121,1.931.319,3.8.051.465.1.927l.053.46c.025.151.058.3.087.446.1.6.293,1.175.447,1.753.35,1.149.724,2.264,1.1,3.348,1.53,4.333,3.046,8.188,4.312,11.426l3.049,7.652.832,2.079.212.542A1.292,1.292,0,0,1,873.259,4097.854Z" transform="translate(-862.301 -4022.972)" fill="#455a64"/>
          </g>
          <g id="Group_19358" data-name="Group 19358" transform="translate(18.912 1.439)">
            <path id="Path_42342" data-name="Path 42342" d="M865.46,4010.3c-.01.013-.114-.071-.3-.241a3.1,3.1,0,0,1-.55-.884,9.547,9.547,0,0,1-.554-3.355,28.439,28.439,0,0,1,.161-3.389,8.133,8.133,0,0,1,.2-1.391,7.953,7.953,0,0,1-.025,1.4c-.043.864-.114,2.057-.09,3.371a10.805,10.805,0,0,0,.472,3.3,3.664,3.664,0,0,0,.463.886C865.389,4010.175,865.471,4010.283,865.46,4010.3Z" transform="translate(-864.055 -4001.037)" fill="#455a64"/>
          </g>
          <g id="Group_19359" data-name="Group 19359" transform="translate(11.298 0.632)">
            <path id="Path_42343" data-name="Path 42343" d="M852.583,3999.383a2.872,2.872,0,0,1,.1,1.182,5.437,5.437,0,0,1-3.112,4.567,2.873,2.873,0,0,1-1.136.343c-.012-.041.427-.154,1.059-.5a5.761,5.761,0,0,0,3.019-4.43C852.6,3999.836,852.541,3999.386,852.583,3999.383Z" transform="translate(-848.431 -3999.383)" fill="#455a64"/>
          </g>
          <g id="Group_19360" data-name="Group 19360" transform="translate(32.576 25.22)">
            <path id="Path_42344" data-name="Path 42344" d="M895.194,4049.844a.538.538,0,0,1,0,.128c-.008.1-.019.222-.032.376-.035.348-.084.831-.145,1.444-.138,1.271-.335,3.079-.578,5.306l-1.981,17.495a31.877,31.877,0,0,0,.641,9.6,33.357,33.357,0,0,0,1.178,4.046l1.219,3.479c.733,2.116,1.329,3.834,1.748,5.043l.463,1.375.115.36a.5.5,0,0,1,.031.125.5.5,0,0,1-.055-.116l-.137-.351c-.122-.329-.291-.784-.507-1.36-.436-1.2-1.056-2.912-1.82-5.018l-1.246-3.468a33.013,33.013,0,0,1-1.206-4.065,31.7,31.7,0,0,1-.665-9.67c.762-6.843,1.517-13.014,2.052-17.492l.655-5.3c.08-.611.144-1.092.19-1.439.023-.152.041-.276.056-.374A.484.484,0,0,1,895.194,4049.844Z" transform="translate(-892.099 -4049.844)" fill="#455a64"/>
          </g>
        </g>
        <g id="Group_19365" data-name="Group 19365" transform="translate(29.837 23.437)">
          <path id="Path_42345" data-name="Path 42345" d="M853.5,3992.55l2-5.1,4.555,6.792-6.073-1.518" transform="translate(-849.479 -3953)" fill="#ffbe9d"/>
          <path id="Path_42346" data-name="Path 42346" d="M896.933,3941.309l-5.406-12.118c-.646-1.948-1.859-2.251-2.874-3.382l-13.542-7.637c-9.869-4.043-15.243,9.514-15.243,9.514l-8.97,20.461c-10.549,3.5-3.08,11.6-3.08,11.6s-2.869-4.987-.047-6.787c2.955-1.884,6.23,3.08,9.378,7.795,3.715,5.566,15.79,9.182,15.79,9.182,1.412-1.492,1.017-6.7,2.123-9.5.351-.886,8.712-20.253,8.712-20.253l3.241,7.853s4.155-4.871,6.168-5.646A22.828,22.828,0,0,1,896.933,3941.309Z" transform="translate(-845.252 -3917.092)" fill="#015579"/>
          <g id="Group_19362" data-name="Group 19362" transform="translate(16.186 31.053)">
            <path id="Path_42347" data-name="Path 42347" d="M889.971,3982.256a1.752,1.752,0,0,1-.41.286,7.661,7.661,0,0,1-1.232.584,8.822,8.822,0,0,1-8.555-1.321,7.7,7.7,0,0,1-1-.928,1.746,1.746,0,0,1-.3-.4c.033-.032.489.519,1.406,1.188a9.162,9.162,0,0,0,8.395,1.3C889.348,3982.6,889.948,3982.216,889.971,3982.256Z" transform="translate(-878.47 -3980.48)" fill="#263238"/>
          </g>
          <path id="Path_42348" data-name="Path 42348" d="M855.869,3930.361h0l8.357.789,13.369-14.131-7.863-.271-14,1.382A36.277,36.277,0,0,1,855.869,3930.361Z" transform="translate(-850.625 -3916.748)" fill="#015579"/>
          <g id="Group_19363" data-name="Group 19363" transform="translate(5.645 6.167)">
            <path id="Path_42349" data-name="Path 42349" d="M868.044,3929.405a1.2,1.2,0,0,1-.1.26l-.335.72-1.24,2.648c-1.039,2.239-2.418,5.359-3.913,8.818s-2.854,6.591-3.882,8.838c-.513,1.124-.936,2.029-1.241,2.65l-.354.712a1.27,1.27,0,0,1-.138.242,1.156,1.156,0,0,1,.094-.262l.313-.732,1.17-2.68,3.817-8.864c1.495-3.46,2.9-6.571,3.98-8.8.539-1.112.986-2.006,1.311-2.616l.376-.7A1.192,1.192,0,0,1,868.044,3929.405Z" transform="translate(-856.837 -3929.405)" fill="#263238"/>
          </g>
          <g id="Group_19364" data-name="Group 19364" transform="translate(37.915 10.274)">
            <path id="Path_42350" data-name="Path 42350" d="M927.509,3937.837c.023.041-.495.311-1.2.913a8.674,8.674,0,0,0-1.129,1.168,8.894,8.894,0,0,0-1.721,3.551,8.739,8.739,0,0,0-.217,1.61c-.034.928.075,1.5.028,1.51a1.343,1.343,0,0,1-.1-.4,3.1,3.1,0,0,1-.066-.477,5.246,5.246,0,0,1-.032-.638,7.846,7.846,0,0,1,.171-1.655,8.438,8.438,0,0,1,1.766-3.644,7.885,7.885,0,0,1,1.193-1.16,5.3,5.3,0,0,1,.521-.37,3.069,3.069,0,0,1,.415-.244A1.313,1.313,0,0,1,927.509,3937.837Z" transform="translate(-923.067 -3937.835)" fill="#263238"/>
          </g>
        </g>
        <g id="Group_19473" data-name="Group 19473" transform="translate(56.676)">
          <g id="Group_19471" data-name="Group 19471" transform="translate(0 1.153)">
            <g id="Group_19467" data-name="Group 19467">
              <g id="Group_19466" data-name="Group 19466">
                <g id="Group_19382" data-name="Group 19382">
                  <g id="Group_19381" data-name="Group 19381">
                    <g id="Group_19380" data-name="Group 19380">
                      <g id="Group_19372" data-name="Group 19372">
                        <g id="Group_19371" data-name="Group 19371">
                          <g id="Group_19370" data-name="Group 19370">
                            <g id="Group_19369" data-name="Group 19369">
                              <g id="Group_19368" data-name="Group 19368">
                                <g id="Group_19367" data-name="Group 19367">
                                  <g id="Group_19366" data-name="Group 19366">
                                    <path id="Path_42351" data-name="Path 42351" d="M918.188,3884.167l-7.84,14.655a5.168,5.168,0,0,1-6.669,2.279h0a5.168,5.168,0,0,1-2.459-7.133c.739-1.4,1.353-2.54,1.353-2.54s-3.408-2.209-1.814-5.892c1.422-3.286,6.644-12.561,7.753-14.522l6.608,2.957A7.428,7.428,0,0,1,918.188,3884.167Z" transform="translate(-900.334 -3871.014)" fill="#ffbe9d"/>
                                  </g>
                                </g>
                              </g>
                            </g>
                          </g>
                        </g>
                      </g>
                      <g id="Group_19379" data-name="Group 19379" transform="translate(1.823 20.359)">
                        <g id="Group_19378" data-name="Group 19378">
                          <g id="Group_19377" data-name="Group 19377">
                            <g id="Group_19376" data-name="Group 19376">
                              <g id="Group_19375" data-name="Group 19375">
                                <g id="Group_19374" data-name="Group 19374">
                                  <g id="Group_19373" data-name="Group 19373">
                                    <path id="Path_42352" data-name="Path 42352" d="M904.509,3912.8a9.33,9.33,0,0,0,5.383.78s-2.309,2.13-5.816.165Z" transform="translate(-904.076 -3912.797)" fill="#eb996e"/>
                                  </g>
                                </g>
                              </g>
                            </g>
                          </g>
                        </g>
                      </g>
                    </g>
                  </g>
                </g>
                <g id="Group_19449" data-name="Group 19449" transform="translate(4.72 6.357)">
                  <g id="Group_19448" data-name="Group 19448">
                    <g id="Group_19433" data-name="Group 19433" transform="translate(0 1.587)">
                      <g id="Group_19432" data-name="Group 19432">
                        <g id="Group_19431" data-name="Group 19431">
                          <g id="Group_19398" data-name="Group 19398">
                            <g id="Group_19389" data-name="Group 19389" transform="translate(0 0.401)">
                              <g id="Group_19388" data-name="Group 19388">
                                <g id="Group_19387" data-name="Group 19387">
                                  <g id="Group_19386" data-name="Group 19386">
                                    <g id="Group_19385" data-name="Group 19385">
                                      <g id="Group_19384" data-name="Group 19384">
                                        <g id="Group_19383" data-name="Group 19383">
                                          <path id="Path_42353" data-name="Path 42353" d="M910.076,3888.438a.573.573,0,0,0,.269.753.548.548,0,0,0,.75-.23.574.574,0,0,0-.268-.753A.549.549,0,0,0,910.076,3888.438Z" transform="translate(-910.022 -3888.143)" fill="#263238"/>
                                        </g>
                                      </g>
                                    </g>
                                  </g>
                                </g>
                              </g>
                            </g>
                            <g id="Group_19397" data-name="Group 19397" transform="translate(0.083)">
                              <g id="Group_19396" data-name="Group 19396">
                                <g id="Group_19395" data-name="Group 19395">
                                  <g id="Group_19394" data-name="Group 19394">
                                    <g id="Group_19393" data-name="Group 19393">
                                      <g id="Group_19392" data-name="Group 19392">
                                        <g id="Group_19391" data-name="Group 19391">
                                          <g id="Group_19390" data-name="Group 19390">
                                            <path id="Path_42354" data-name="Path 42354" d="M910.193,3887.55c.034.1.562-.019,1.124.235s.849.719.94.677c.044-.017.033-.169-.089-.381a1.573,1.573,0,0,0-.715-.628,1.517,1.517,0,0,0-.933-.1C910.289,3887.408,910.174,3887.5,910.193,3887.55Z" transform="translate(-910.191 -3887.319)" fill="#263238"/>
                                          </g>
                                        </g>
                                      </g>
                                    </g>
                                  </g>
                                </g>
                              </g>
                            </g>
                          </g>
                          <g id="Group_19414" data-name="Group 19414" transform="translate(5.266 2.581)">
                            <g id="Group_19405" data-name="Group 19405" transform="translate(0 0.411)">
                              <g id="Group_19404" data-name="Group 19404">
                                <g id="Group_19403" data-name="Group 19403">
                                  <g id="Group_19402" data-name="Group 19402">
                                    <g id="Group_19401" data-name="Group 19401">
                                      <g id="Group_19400" data-name="Group 19400">
                                        <g id="Group_19399" data-name="Group 19399">
                                          <path id="Path_42355" data-name="Path 42355" d="M920.885,3893.756a.573.573,0,0,0,.268.753.547.547,0,0,0,.75-.23.573.573,0,0,0-.267-.753A.548.548,0,0,0,920.885,3893.756Z" transform="translate(-920.83 -3893.46)" fill="#263238"/>
                                        </g>
                                      </g>
                                    </g>
                                  </g>
                                </g>
                              </g>
                            </g>
                            <g id="Group_19413" data-name="Group 19413" transform="translate(0.302)">
                              <g id="Group_19412" data-name="Group 19412">
                                <g id="Group_19411" data-name="Group 19411">
                                  <g id="Group_19410" data-name="Group 19410">
                                    <g id="Group_19409" data-name="Group 19409">
                                      <g id="Group_19408" data-name="Group 19408">
                                        <g id="Group_19407" data-name="Group 19407">
                                          <g id="Group_19406" data-name="Group 19406">
                                            <path id="Path_42356" data-name="Path 42356" d="M921.452,3892.847c.034.1.562-.018,1.124.235s.849.72.941.679c.043-.018.033-.17-.089-.382a1.575,1.575,0,0,0-.715-.627,1.5,1.5,0,0,0-.933-.1C921.548,3892.705,921.434,3892.8,921.452,3892.847Z" transform="translate(-921.45 -3892.616)" fill="#263238"/>
                                          </g>
                                        </g>
                                      </g>
                                    </g>
                                  </g>
                                </g>
                              </g>
                            </g>
                          </g>
                          <g id="Group_19422" data-name="Group 19422" transform="translate(0.361 1.496)">
                            <g id="Group_19421" data-name="Group 19421">
                              <g id="Group_19420" data-name="Group 19420">
                                <g id="Group_19419" data-name="Group 19419">
                                  <g id="Group_19418" data-name="Group 19418">
                                    <g id="Group_19417" data-name="Group 19417">
                                      <g id="Group_19416" data-name="Group 19416">
                                        <g id="Group_19415" data-name="Group 19415">
                                          <path id="Path_42357" data-name="Path 42357" d="M912.061,3894.965a4.041,4.041,0,0,0-.841-.574c-.137-.08-.26-.169-.241-.278s.142-.247.287-.383l.915-.9a20.707,20.707,0,0,0,2.236-2.436,20.575,20.575,0,0,0-2.427,2.25l-.9.918a.913.913,0,0,0-.327.531.39.39,0,0,0,.142.315,1.076,1.076,0,0,0,.228.144A4.1,4.1,0,0,0,912.061,3894.965Z" transform="translate(-910.763 -3890.389)" fill="#263238"/>
                                        </g>
                                      </g>
                                    </g>
                                  </g>
                                </g>
                              </g>
                            </g>
                          </g>
                          <g id="Group_19430" data-name="Group 19430" transform="translate(0.677 7.2)">
                            <g id="Group_19429" data-name="Group 19429">
                              <g id="Group_19428" data-name="Group 19428">
                                <g id="Group_19427" data-name="Group 19427">
                                  <g id="Group_19426" data-name="Group 19426">
                                    <g id="Group_19425" data-name="Group 19425">
                                      <g id="Group_19424" data-name="Group 19424">
                                        <g id="Group_19423" data-name="Group 19423">
                                          <path id="Path_42358" data-name="Path 42358" d="M913.876,3902.1c-.089-.046-.363.565-1.081.764s-1.337-.159-1.38-.076c-.025.035.092.185.363.315a1.669,1.669,0,0,0,1.137.1,1.452,1.452,0,0,0,.867-.658C913.919,3902.3,913.919,3902.114,913.876,3902.1Z" transform="translate(-911.411 -3902.096)" fill="#263238"/>
                                        </g>
                                      </g>
                                    </g>
                                  </g>
                                </g>
                              </g>
                            </g>
                          </g>
                        </g>
                      </g>
                    </g>
                    <g id="Group_19440" data-name="Group 19440" transform="translate(6.412 1.989)">
                      <g id="Group_19439" data-name="Group 19439">
                        <g id="Group_19438" data-name="Group 19438">
                          <g id="Group_19437" data-name="Group 19437">
                            <g id="Group_19436" data-name="Group 19436">
                              <g id="Group_19435" data-name="Group 19435">
                                <g id="Group_19434" data-name="Group 19434">
                                  <path id="Path_42359" data-name="Path 42359" d="M923.182,3888.282c-.013.178.581.357,1.206.732s1.078.794,1.227.7c.069-.048.04-.234-.109-.479a2.45,2.45,0,0,0-1.854-1.088C923.366,3888.133,923.19,3888.2,923.182,3888.282Z" transform="translate(-923.182 -3888.142)" fill="#263238"/>
                                </g>
                              </g>
                            </g>
                          </g>
                        </g>
                      </g>
                    </g>
                    <g id="Group_19447" data-name="Group 19447" transform="translate(1.019)">
                      <g id="Group_19446" data-name="Group 19446">
                        <g id="Group_19445" data-name="Group 19445">
                          <g id="Group_19444" data-name="Group 19444">
                            <g id="Group_19443" data-name="Group 19443">
                              <g id="Group_19442" data-name="Group 19442">
                                <g id="Group_19441" data-name="Group 19441">
                                  <path id="Path_42360" data-name="Path 42360" d="M912.114,3884.343c.042.173.489.213.958.416.476.186.823.471.974.378.069-.048.064-.2-.055-.4a1.514,1.514,0,0,0-1.556-.639C912.211,3884.153,912.1,3884.261,912.114,3884.343Z" transform="translate(-912.112 -3884.062)" fill="#263238"/>
                                </g>
                              </g>
                            </g>
                          </g>
                        </g>
                      </g>
                    </g>
                  </g>
                </g>
                <g id="Group_19465" data-name="Group 19465" transform="translate(13.637 15.349)">
                  <g id="Group_19456" data-name="Group 19456">
                    <g id="Group_19455" data-name="Group 19455">
                      <g id="Group_19454" data-name="Group 19454">
                        <g id="Group_19453" data-name="Group 19453">
                          <g id="Group_19452" data-name="Group 19452">
                            <g id="Group_19451" data-name="Group 19451">
                              <g id="Group_19450" data-name="Group 19450">
                                <path id="Path_42361" data-name="Path 42361" d="M930.074,3902.516c.075,0,2.85.382,1.649,2.85a2.063,2.063,0,0,1-3.4.681C928.353,3905.975,930.074,3902.516,930.074,3902.516Z" transform="translate(-928.322 -3902.516)" fill="#ffbe9d"/>
                              </g>
                            </g>
                          </g>
                        </g>
                      </g>
                    </g>
                  </g>
                  <g id="Group_19464" data-name="Group 19464" transform="translate(1.198 1.196)">
                    <g id="Group_19463" data-name="Group 19463">
                      <g id="Group_19462" data-name="Group 19462">
                        <g id="Group_19461" data-name="Group 19461">
                          <g id="Group_19460" data-name="Group 19460">
                            <g id="Group_19459" data-name="Group 19459">
                              <g id="Group_19458" data-name="Group 19458">
                                <g id="Group_19457" data-name="Group 19457">
                                  <path id="Path_42362" data-name="Path 42362" d="M930.793,3906.738c.015,0,.028.052.085.12a.479.479,0,0,0,.318.163,1.182,1.182,0,0,0,.956-.715,1.583,1.583,0,0,0,.179-.675.554.554,0,0,0-.163-.487.244.244,0,0,0-.311-.005c-.067.053-.075.109-.09.107s-.033-.067.037-.16a.3.3,0,0,1,.173-.107.362.362,0,0,1,.268.052.675.675,0,0,1,.263.6,1.624,1.624,0,0,1-.186.76,1.243,1.243,0,0,1-1.146.761.516.516,0,0,1-.362-.257C930.768,3906.8,930.782,3906.738,930.793,3906.738Z" transform="translate(-930.782 -3904.972)" fill="#eb996e"/>
                                </g>
                              </g>
                            </g>
                          </g>
                        </g>
                      </g>
                    </g>
                  </g>
                </g>
              </g>
            </g>
            <g id="Group_19470" data-name="Group 19470" transform="translate(8.982 1.586)">
              <g id="Group_19469" data-name="Group 19469">
                <g id="Group_19468" data-name="Group 19468">
                  <path id="Path_42363" data-name="Path 42363" d="M926.606,3888.571a1.444,1.444,0,0,0-1.482.078c-.323.285-.54.674-.862.959a.971.971,0,0,1-1.177.184.847.847,0,0,1-.266-.805,2.329,2.329,0,0,1,.354-.811c.671-1.1,1.435-2.153,2.01-3.309a6.592,6.592,0,0,0,.784-3.736,3.6,3.6,0,0,0-2.193-2.958c-.806-.285-1.7-.2-2.523-.437a3.348,3.348,0,0,1-2.162-1.985c-.047-.122-.322-.554-.322-.554.027-.061.318-.558.61-.657a8.118,8.118,0,0,1,9.987,7.512c.022,2.289-1.418,4.814-2.759,6.521" transform="translate(-918.768 -3874.269)" fill="#263238"/>
                </g>
              </g>
            </g>
          </g>
          <g id="Group_19472" data-name="Group 19472" transform="translate(6.781)">
            <path id="Path_42364" data-name="Path 42364" d="M924.315,3885.442a27.63,27.63,0,0,1,2.648-3.065c.849-1.053,1.433-2.537.828-3.747-.207-.413-.537-.76-.71-1.188a5.846,5.846,0,0,1-.241-1.368,4.766,4.766,0,0,0-2.359-3.426c-.867-.484-1.869-.683-2.748-1.144-1.392-.732-2.41-2.089-3.873-2.667a1.869,1.869,0,0,0-1.518-.046.912.912,0,0,0-.375,1.31.793.793,0,0,0-1.094-.529,1.2,1.2,0,0,0-.62,1.175,2.6,2.6,0,0,0,.532,1.289,6.564,6.564,0,0,0,3.752,2.584l3.364-.262,2.757,2.043,2.041,3.248-3.7,4.808Z" transform="translate(-914.252 -3868.648)" fill="#263238"/>
          </g>
        </g>
      </g>
    </g>
    <g id="Group_19483" data-name="Group 19483" transform="matrix(0.951, -0.309, 0.309, 0.951, 697.072, 3844.933)">
      <g id="Group_19477" data-name="Group 19477" transform="translate(0)">
        <path id="Path_42365" data-name="Path 42365" d="M865.878,3851.666a11.446,11.446,0,1,0-15.621,11.386c.087,1.354.186,2.882.186,2.882l10.011-.647s-.044-1.621-.115-3.066A11.443,11.443,0,0,0,865.878,3851.666Z" transform="translate(-843.009 -3840.958)" fill="#f7b709"/>
        <g id="Group_19476" data-name="Group 19476" transform="translate(5.564 11.604)">
          <path id="Path_42366" data-name="Path 42366" d="M863.118,3878.585s0-.048,0-.142.012-.237.02-.415c.021-.365.051-.9.107-1.594s.138-1.537.294-2.512a16.982,16.982,0,0,1,.831-3.246,10.888,10.888,0,0,1,.829-1.769,2.11,2.11,0,0,1,.735-.752,1.183,1.183,0,0,1,1.087-.034.782.782,0,0,1,.391.429.8.8,0,0,1-.01.589,1.625,1.625,0,0,1-.833.817,3.134,3.134,0,0,1-2.386-.014,3.173,3.173,0,0,1-1.736-1.8,2.392,2.392,0,0,1-.153-1.313,1.03,1.03,0,0,1,.987-.861.742.742,0,0,1,.607.365,1.039,1.039,0,0,1,.137.7,2.236,2.236,0,0,1-.73,1.187,3.414,3.414,0,0,1-2.612.945,2.975,2.975,0,0,1-2.315-1.5,1.73,1.73,0,0,1-.167-1.378.875.875,0,0,1,.469-.538.861.861,0,0,1,.707.019,1.14,1.14,0,0,1,.515.47,1.784,1.784,0,0,1,.217.647,3.3,3.3,0,0,1-.089,1.316,3.407,3.407,0,0,1-1.486,2.02,3.47,3.47,0,0,1-2.342.478,1.816,1.816,0,0,1-1.063-.479.887.887,0,0,1-.135-1.1.749.749,0,0,1,.5-.284,1.081,1.081,0,0,1,.552.071,1.654,1.654,0,0,1,.75.739c.327.6.6,1.188.867,1.747,1.062,2.243,1.833,4.1,2.352,5.385.259.644.453,1.146.583,1.488l.144.389c.032.088.045.135.045.135s-.022-.043-.058-.129l-.157-.384-.607-1.477c-.534-1.28-1.318-3.128-2.391-5.362-.272-.555-.548-1.149-.871-1.735a1.549,1.549,0,0,0-.7-.689.686.686,0,0,0-.785,1.122,1.7,1.7,0,0,0,1,.439,3.345,3.345,0,0,0,2.255-.466,3.278,3.278,0,0,0,1.425-1.944,3.171,3.171,0,0,0,.084-1.261,1.243,1.243,0,0,0-.653-1.011.721.721,0,0,0-.6-.019.739.739,0,0,0-.393.457,1.594,1.594,0,0,0,.159,1.267,2.836,2.836,0,0,0,2.2,1.43,3.277,3.277,0,0,0,2.5-.906,2.116,2.116,0,0,0,.688-1.105.9.9,0,0,0-.117-.6.6.6,0,0,0-.495-.3.8.8,0,0,0-.556.22.991.991,0,0,0-.293.533,2.271,2.271,0,0,0,.145,1.236,3.018,3.018,0,0,0,3.943,1.752,1.512,1.512,0,0,0,.773-.749.676.676,0,0,0-.322-.871,1.07,1.07,0,0,0-.979.029,2.01,2.01,0,0,0-.7.711,10.9,10.9,0,0,0-.828,1.747,17.1,17.1,0,0,0-.847,3.223c-.162.97-.251,1.814-.316,2.5s-.1,1.222-.134,1.591l-.034.414C863.125,3878.537,863.118,3878.585,863.118,3878.585Z" transform="translate(-854.86 -3865.672)" fill="#263238"/>
        </g>
        <path id="Path_42367" data-name="Path 42367" d="M868.289,3895.372l-8.6.555a.645.645,0,0,1-.686-.6h0a.646.646,0,0,1,.6-.687l8.6-.556a.647.647,0,0,1,.687.6h0A.646.646,0,0,1,868.289,3895.372Z" transform="translate(-851.495 -3869.138)" fill="#263238"/>
        <path id="Path_42368" data-name="Path 42368" d="M868.46,3898.029l-8.6.556a.646.646,0,0,0,.083,1.29l.944-.061,1.406,2.3a.831.831,0,0,0,.762.4l3.072-.2a.832.832,0,0,0,.708-.5l1.063-2.454.641-.041a.647.647,0,0,0-.084-1.291Z" transform="translate(-851.63 -3871.233)" fill="#263238"/>
      </g>
      <g id="Group_19478" data-name="Group 19478" transform="translate(1.221 2.307)" opacity="0.2">
        <path id="Path_42369" data-name="Path 42369" d="M848.028,3848.206a8.416,8.416,0,0,1,2.189-1.668,6.077,6.077,0,0,1,1.727-.625c.43-.073.678-.047.705.043.063.2-.783.567-1.9,1.422a9.413,9.413,0,0,0-3.686,9.5c.248,1.384.628,2.222.444,2.331-.08.049-.281-.1-.549-.444a6.072,6.072,0,0,1-.854-1.626,8.409,8.409,0,0,1-.492-2.708,8.923,8.923,0,0,1,.586-3.354" transform="translate(-845.611 -3845.87)" fill="#fff"/>
      </g>
      <g id="Group_19479" data-name="Group 19479" transform="translate(9.554 1.299)" opacity="0.2">
        <path id="Path_42370" data-name="Path 42370" d="M864.842,3845.132c-.724.04-1.376-.117-1.475-.5-.045-.187.077-.4.328-.574a2.3,2.3,0,0,1,2.159-.129c.27.144.415.34.393.531" transform="translate(-863.359 -3843.724)" fill="#fff"/>
      </g>
      <g id="Group_19480" data-name="Group 19480" transform="translate(10.996 30.405)">
        <path id="Path_42371" data-name="Path 42371" d="M870.5,3906.107c-.009.021-.231-.063-.6-.144a4.792,4.792,0,0,0-2.9.271c-.349.148-.552.273-.565.253a1.768,1.768,0,0,1,.524-.343,4.186,4.186,0,0,1,2.963-.278A1.743,1.743,0,0,1,870.5,3906.107Z" transform="translate(-866.43 -3905.715)" fill="#455a64"/>
      </g>
      <g id="Group_19481" data-name="Group 19481" transform="translate(9.351 28.145)">
        <path id="Path_42372" data-name="Path 42372" d="M869.867,3900.915c0,.039-1.549.17-3.466.294s-3.473.193-3.475.154,1.549-.17,3.466-.294S869.865,3900.876,869.867,3900.915Z" transform="translate(-862.926 -3900.904)" fill="#455a64"/>
      </g>
      <g id="Group_19482" data-name="Group 19482" transform="translate(10.03 29.203)">
        <path id="Path_42373" data-name="Path 42373" d="M870.161,3903.164a4.855,4.855,0,0,1-.84.141c-.522.067-1.245.144-2.045.207s-1.527.1-2.053.116a4.872,4.872,0,0,1-.852-.007,5.344,5.344,0,0,1,.847-.092l2.047-.158,2.046-.165A5.412,5.412,0,0,1,870.161,3903.164Z" transform="translate(-864.371 -3903.156)" fill="#455a64"/>
      </g>
    </g>
    <g id="Group_19490" data-name="Group 19490" transform="translate(667.683 3886.546)">
      <path id="Path_42374" data-name="Path 42374" d="M744.864,4020.7l1.866,2.991s7.963-7.328,15.863-5.257C762.594,4018.43,755.494,4012.409,744.864,4020.7Z" transform="translate(-730.771 -3988.131)" fill="#263238"/>
      <path id="Path_42375" data-name="Path 42375" d="M782.626,4012.816s5.845-6.348,14.416-4.9l2.337.352-.746-1.351S783.727,4001.813,782.626,4012.816Z" transform="translate(-750.803 -3982.518)" fill="#263238"/>
      <g id="Group_19485" data-name="Group 19485" transform="translate(0 8.348)">
        <path id="Path_42376" data-name="Path 42376" d="M734.44,3974.678s-11.708-2.014-19.388,2.141l12.194,22.959s9.981-9.621,19.533-3.7Z" transform="translate(-714.956 -3974.131)" fill="#f5f5f5"/>
        <g id="Group_19484" data-name="Group 19484">
          <path id="Path_42377" data-name="Path 42377" d="M734.332,3974.612a.546.546,0,0,1,.062.093l.176.289.675,1.141,2.538,4.347,8.977,15.481a.1.1,0,0,1-.144.139,12.961,12.961,0,0,0-4.489-1.722,13.865,13.865,0,0,0-2.531-.176,15.548,15.548,0,0,0-2.592.326,22.278,22.278,0,0,0-9.685,5.171l-.1.093a.117.117,0,0,1-.165,0,.133.133,0,0,1-.019-.027L714.859,3976.8a.094.094,0,0,1,.037-.128h0a23.543,23.543,0,0,1,7.8-2.31,39.381,39.381,0,0,1,6.245-.272c1.728.058,3.076.2,3.99.31.457.055.806.108,1.04.147l.266.047a.481.481,0,0,1,.087.022.469.469,0,0,1-.092-.007l-.266-.033c-.236-.029-.585-.073-1.043-.12-.915-.094-2.262-.215-3.987-.256a40.2,40.2,0,0,0-6.222.315,23.532,23.532,0,0,0-7.733,2.325l.039-.129,12.212,22.949-.184-.029.1-.1a24.729,24.729,0,0,1,4.669-3.276,19.583,19.583,0,0,1,5.126-1.945,15.862,15.862,0,0,1,2.634-.327,14.046,14.046,0,0,1,2.575.184,13.138,13.138,0,0,1,4.56,1.762l-.144.139-8.879-15.493-2.495-4.386-.655-1.165-.166-.3A.778.778,0,0,1,734.332,3974.612Z" transform="translate(-714.847 -3974.064)" fill="#263238"/>
        </g>
      </g>
      <g id="Group_19487" data-name="Group 19487" transform="translate(19.537 2.596)">
        <path id="Path_42378" data-name="Path 42378" d="M774.922,3963.462s-8.857-5.646-18.254,4.71l12.338,21.4s2.518-8.687,17.248-5.666Z" transform="translate(-756.57 -3961.873)" fill="#f5f5f5"/>
        <g id="Group_19486" data-name="Group 19486">
          <path id="Path_42379" data-name="Path 42379" d="M774.811,3963.4a.488.488,0,0,1,.059.089l.162.276.622,1.09,2.333,4.149,8.246,14.792a.1.1,0,0,1-.039.14.1.1,0,0,1-.067.012h0l-2.193-.36a9.752,9.752,0,0,0-1.133-.125l-1.156-.092a8.5,8.5,0,0,0-1.176-.029l-1.195.016c-.4.009-.8.081-1.2.119a8.6,8.6,0,0,0-1.211.182l-1.21.274-1.184.414c-.4.137-.762.356-1.149.532a3.57,3.57,0,0,0-.553.316l-.54.347c-.355.237-.675.53-1.011.8a10.6,10.6,0,0,0-.888.95,7.441,7.441,0,0,0-1.313,2.254l0,.006a.116.116,0,0,1-.148.072.12.12,0,0,1-.062-.052l-.5-.863-11.825-20.55a.1.1,0,0,1,.013-.115,20.712,20.712,0,0,1,6.684-5.026,13.3,13.3,0,0,1,6.3-1.182,12.76,12.76,0,0,1,4.034.9,9.5,9.5,0,0,1,.986.464l.242.141a.365.365,0,0,1,.077.055.557.557,0,0,1-.085-.042l-.247-.126c-.221-.108-.55-.267-.994-.436a13.114,13.114,0,0,0-4.018-.846,13.256,13.256,0,0,0-6.233,1.216,20.64,20.64,0,0,0-6.6,5.011l.012-.115,11.857,20.531.5.863-.213.025a7.645,7.645,0,0,1,1.357-2.336,10.83,10.83,0,0,1,.911-.974c.344-.277.671-.576,1.035-.819l.552-.353a3.66,3.66,0,0,1,.565-.323c.394-.18.768-.4,1.172-.542l1.206-.419,1.229-.277a8.58,8.58,0,0,1,1.228-.184c.409-.038.814-.11,1.219-.118l1.207-.014a8.726,8.726,0,0,1,1.187.031l1.165.1a9.459,9.459,0,0,1,1.141.129l2.206.368-.111.15-8.161-14.815c-.98-1.793-1.753-3.208-2.286-4.184l-.6-1.11-.15-.288A.584.584,0,0,1,774.811,3963.4Z" transform="translate(-756.459 -3961.814)" fill="#263238"/>
        </g>
      </g>
      <g id="Group_19489" data-name="Group 19489" transform="translate(3.394)">
        <path id="Path_42380" data-name="Path 42380" d="M722.077,3956.285l13.2,25.424s10.732-.469,15.274,4.76l-12.237-21.289S731.141,3956.285,722.077,3956.285Z" transform="translate(-722.077 -3956.285)" fill="#f5f5f5"/>
        <g id="Group_19488" data-name="Group 19488">
          <path id="Path_42381" data-name="Path 42381" d="M722.077,3956.285s.109,0,.335.01l1.018.042c.112.007.233.008.357.021l.386.064.883.146a7.563,7.563,0,0,1,1.011.242c.354.107.745.181,1.133.335a26.934,26.934,0,0,1,11.193,7.975l.007.009,0,0,12.255,21.279a.116.116,0,0,1-.183.14l-.006-.005-.518-.516a11.234,11.234,0,0,0-3.38-2.233,19.575,19.575,0,0,0-3.777-1.238,31.553,31.553,0,0,0-7.506-.741h0a.109.109,0,0,1-.1-.059l-9.469-18.363-2.695-5.249-.71-1.391-.179-.355a1.214,1.214,0,0,1-.055-.117s.026.043.071.126l.195.364.742,1.405,2.76,5.253,9.534,18.226-.1-.059a31.579,31.579,0,0,1,7.566.735,19.724,19.724,0,0,1,3.822,1.25,11.442,11.442,0,0,1,3.448,2.279l.531.528-.189.135-12.22-21.3.008.012a30.924,30.924,0,0,0-5.78-5.23,22.251,22.251,0,0,0-5.3-2.762c-.384-.158-.771-.234-1.122-.345a7.739,7.739,0,0,0-1-.253l-.876-.158-.383-.071c-.122-.015-.236-.018-.345-.027Z" transform="translate(-722.076 -3956.285)" fill="#263238"/>
        </g>
      </g>
    </g>
    <g id="Group_19571" data-name="Group 19571" transform="translate(699.587 3948.972)">
      <g id="Group_19561" data-name="Group 19561" transform="translate(6 3.063)">
        <g id="Group_19552" data-name="Group 19552">
          <g id="Group_19551" data-name="Group 19551">
            <g id="Group_19550" data-name="Group 19550">
              <g id="Group_19549" data-name="Group 19549">
                <circle id="Ellipse_430" data-name="Ellipse 430" cx="9.364" cy="9.364" r="9.364" fill="#f7b709"/>
              </g>
            </g>
          </g>
        </g>
        <g id="Group_19556" data-name="Group 19556" transform="translate(5.093 10.76)" opacity="0.3">
          <g id="Group_19555" data-name="Group 19555">
            <g id="Group_19554" data-name="Group 19554">
              <g id="Group_19553" data-name="Group 19553">
                <path id="Path_42396" data-name="Path 42396" d="M751.213,4081.076a1.527,1.527,0,1,1-1.527-1.527A1.527,1.527,0,0,1,751.213,4081.076Z" transform="translate(-748.159 -4079.549)" fill="#fff"/>
              </g>
            </g>
          </g>
        </g>
        <g id="Group_19560" data-name="Group 19560" transform="translate(4.204 6.991)" opacity="0.3">
          <g id="Group_19559" data-name="Group 19559">
            <g id="Group_19558" data-name="Group 19558">
              <g id="Group_19557" data-name="Group 19557">
                <path id="Path_42397" data-name="Path 42397" d="M748.043,4072.411a.889.889,0,1,1-.888-.889A.888.888,0,0,1,748.043,4072.411Z" transform="translate(-746.266 -4071.522)" fill="#fff"/>
              </g>
            </g>
          </g>
        </g>
      </g>
      <g id="Group_19565" data-name="Group 19565" transform="translate(0)">
        <g id="Group_19564" data-name="Group 19564">
          <g id="Group_19563" data-name="Group 19563">
            <g id="Group_19562" data-name="Group 19562">
              <path id="Path_42398" data-name="Path 42398" d="M730.812,4064.812c.042.163-8.015,7.893-5.938,9.54s10.813-2.578,18.26-8.592,14.25-13.32,12.388-15.253-11.169,3.792-11.169,3.792l1.112.709s5.627-3.61,7.407-2.209-3.294,6.875-10.455,12.1-14.08,8.9-15.154,7.465,3.994-6.209,3.994-6.209Z" transform="translate(-724.532 -4050.108)" fill="#015579"/>
            </g>
          </g>
        </g>
      </g>
      <g id="Group_19570" data-name="Group 19570" transform="translate(6.689 5.824)" opacity="0.3">
        <g id="Group_19569" data-name="Group 19569">
          <g id="Group_19568" data-name="Group 19568">
            <g id="Group_19567" data-name="Group 19567">
              <g id="Group_19566" data-name="Group 19566">
                <path id="Path_42399" data-name="Path 42399" d="M742.295,4062.52c.076.09-.559.629-1.277,1.71a8.62,8.62,0,0,0-.189,9.471c.675,1.108,1.288,1.673,1.208,1.76-.047.064-.8-.37-1.633-1.474a8.074,8.074,0,0,1-1.137-2.131,8.122,8.122,0,0,1,.117-5.845,8.066,8.066,0,0,1,1.221-2.084C741.481,4062.857,742.25,4062.452,742.295,4062.52Z" transform="translate(-738.78 -4062.513)" fill="#fff"/>
              </g>
            </g>
          </g>
        </g>
      </g>
    </g>
  </g>
</svg>
