<svg xmlns="http://www.w3.org/2000/svg" width="32.493" height="35.21" viewBox="0 0 32.493 35.21">
  <g id="Group_26327" data-name="Group 26327" transform="translate(-161.814 -493.137)">
    <g id="Group_26326" data-name="Group 26326" transform="translate(161.814 493.138)">
      <g id="Group_26325" data-name="Group 26325" transform="translate(0 0)">
        <path id="Path_45254" data-name="Path 45254" d="M178.646,515.1c.335.426.653.828.968,1.232.107.138.074.244-.032.391-.27.376-.509.775-.747,1.173a.275.275,0,0,0,0,.244,6.037,6.037,0,0,1,.791,1.876,28.449,28.449,0,0,1,.839,4.235c.1-.321.2-.641.294-.964.766-2.6,1.56-5.191,2.279-7.8a16.618,16.618,0,0,0,.322-2.443c.024-.2.022-.413.033-.659.273.112.515.208.755.309,1.854.782,3.718,1.541,5.559,2.352a6.047,6.047,0,0,1,3.586,4.387c.333,1.433.631,2.874.94,4.313a1.817,1.817,0,0,1-.988,2.264,7.057,7.057,0,0,1-.776.4,17.711,17.711,0,0,1-4.172,1.152,64.007,64.007,0,0,1-13.013.734,54.707,54.707,0,0,1-6.585-.587,21.043,21.043,0,0,1-4.406-1.055,10.4,10.4,0,0,1-1.685-.851,1.584,1.584,0,0,1-.744-1.789c.235-1.14.493-2.275.74-3.412.11-.5.189-1.016.331-1.51a6.024,6.024,0,0,1,3.5-4.049c2.042-.89,4.1-1.739,6.156-2.6.037-.016.077-.024.147-.045.027.4.062.788.075,1.176a11.37,11.37,0,0,0,.552,2.881c.666,2.213,1.309,4.432,1.962,6.649.112.381.226.763.373,1.142.073-.517.13-1.037.22-1.551a17.13,17.13,0,0,1,1.065-3.99,1.554,1.554,0,0,1,.23-.412.379.379,0,0,0,.038-.512c-.224-.349-.432-.711-.687-1.035-.13-.165-.145-.285-.029-.432.31-.4.625-.791.953-1.2l-.6-.419a27.616,27.616,0,0,1-3.118-2.491.406.406,0,0,1-.131-.438c.1-.463.191-.928.277-1.394a.434.434,0,0,0-.015-.262,13.749,13.749,0,0,1-1.077-3.023c-.045-.173-.084-.305-.3-.358a.716.716,0,0,1-.363-.323,4.577,4.577,0,0,1-.679-3.221c.025-.159.171-.3.228-.455a.935.935,0,0,0,.045-.391c-.078-.852-.189-1.7-.246-2.556a4.892,4.892,0,0,1,.185-1.977,8.012,8.012,0,0,1,.647-1.282.845.845,0,0,1,.4-.365c.293-.1.378-.34.5-.574a4.147,4.147,0,0,1,3.548-2.415,7.613,7.613,0,0,1,7.11,3.375,4.831,4.831,0,0,1,.744,3.174c-.047.862-.158,1.721-.247,2.581a.567.567,0,0,0,.122.539,1,1,0,0,1,.193.577,4.809,4.809,0,0,1-.631,2.854.91.91,0,0,1-.6.519c-.046.009-.089.1-.109.166-.249.775-.487,1.554-.743,2.326a3.612,3.612,0,0,1-.32.7.611.611,0,0,0-.064.472c.093.447.177.9.275,1.344a.372.372,0,0,1-.129.393,28.59,28.59,0,0,1-3.506,2.764Z" transform="translate(-161.814 -493.138)" fill="#fff"/>
      </g>
    </g>
  </g>
</svg>
